<?xml version="1.0" encoding="UTF-8"?>
<!-- Generator: visioncortex VTracer 0.6.5 -->
<svg version="1.1" xmlns="http://www.w3.org/2000/svg" width="682" height="682">
<path d="M0 0 C225.06 0 450.12 0 682 0 C682 225.06 682 450.12 682 682 C456.94 682 231.88 682 0 682 C0 456.94 0 231.88 0 0 Z " fill="#303031" transform="translate(0,0)"/>
<path d="M0 0 C15.56 -0.33 36.95 0.04 51.13 7.13 C50.96 7.75 50.8 8.37 50.63 9 C49.11 18.5 50.24 26.13 55.53 34.29 C62.28 42.86 73.4 48.75 84.13 50.13 C92.48 50.78 99.74 50.39 107.13 46.13 C108.13 45.13 109.13 44.13 110.13 43.13 C110.79 43.13 111.45 43.13 112.13 43.13 C112.4 42.57 112.68 42 112.96 41.43 C114.17 39.04 115.45 36.71 116.75 34.38 C117.2 33.58 117.65 32.78 118.11 31.96 C118.44 31.35 118.78 30.75 119.13 30.13 C159.45 58.23 172.55 111.58 180.84 157.55 C183.27 171.31 185.43 185.13 185.13 199.13 C181.09 197.54 177.11 195.85 173.13 194.13 C176.31 199.93 179.5 204.89 184.34 209.42 C186.23 211.23 187.93 213.14 189.63 215.13 C191.78 217.64 193.98 219.98 196.38 222.25 C205.75 231.54 213.16 242.41 219.13 254.13 C219.58 255 220.04 255.87 220.51 256.77 C224.7 265.81 224.27 275.67 221.04 284.98 C218.78 290.29 215.35 294.23 211.13 298.13 C210.62 298.64 210.12 299.15 209.59 299.68 C194.9 313.73 172.96 321.73 152.82 321.43 C148.17 321.2 145.01 319.67 141.13 317.13 C141.13 313.83 141.13 310.53 141.13 307.13 C139.58 306.74 138.04 306.35 136.44 305.94 C131.64 304.47 128.92 303.36 126.13 299.13 C125.92 295.32 126.05 293.41 128.52 290.49 C129.56 289.49 130.64 288.51 131.75 287.59 C133.41 285.84 133.73 284.47 134.13 282.13 C131.82 280.81 129.51 279.49 127.13 278.13 C127.47 272.11 128.91 269.36 133.25 265.25 C133.78 264.74 134.31 264.23 134.85 263.7 C140.44 258.48 146.79 254.78 153.44 251.08 C166.67 243.61 166.67 243.61 168.88 236.82 C168.96 236.26 169.04 235.7 169.13 235.13 C167.81 234.47 166.49 233.81 165.13 233.13 C160.8 235.93 156.65 238.94 152.51 242 C149.33 244.33 146.07 246.41 142.69 248.44 C131.44 255.52 120.48 265.37 116.59 278.48 C115.56 284.34 115.8 290.21 116.13 296.13 C116.15 296.97 116.18 297.81 116.2 298.67 C117.09 306.56 123.72 311.89 129.13 317.13 C129.95 317.93 130.77 318.74 131.61 319.57 C141.91 329.21 153.43 330.12 167.13 331.13 C165.24 337.46 162.81 343.13 159.57 348.88 C159.13 349.65 158.7 350.42 158.26 351.22 C153.76 359.08 148.55 366.71 142.13 373.13 C142.49 380.51 145.63 387.69 148.25 394.5 C148.99 396.43 149.72 398.35 150.45 400.28 C150.77 401.11 151.09 401.95 151.43 402.81 C152.11 405.07 152.27 406.79 152.13 409.13 C147.87 409.77 143.71 410.19 139.4 410.02 C127.79 409.58 127.79 409.58 124.25 412.5 C121.1 416.4 121.1 416.4 121.21 419.15 C121.26 419.54 121.26 419.54 121.5 421.5 C121.59 422.27 121.68 423.05 121.78 423.84 C122.11 425.98 122.56 428.04 123.13 430.13 C107.36 430.99 91.8 427.39 79.55 417.3 C77.13 415.13 77.13 415.13 74.99 412.8 C71.9 409.53 69.73 407.32 65.16 406.78 C62.13 406.98 59.21 407.33 56.21 407.81 C52.35 408.4 48.46 408.75 44.57 409.13 C43.73 409.22 42.88 409.3 42.02 409.39 C35.79 410.02 29.57 410.45 23.32 410.75 C22.52 410.79 21.72 410.83 20.9 410.88 C8.52 411.42 -3.77 411.16 -16.13 410.33 C-18.2 410.19 -20.27 410.06 -22.35 409.93 C-40.46 408.77 -40.46 408.77 -46.83 407.57 C-50.51 407.09 -53.36 406.99 -56.45 409.31 C-60.82 413.39 -64.47 418.08 -68.16 422.76 C-72.83 428.58 -78.49 433.32 -86.01 434.71 C-92.11 434.92 -97.3 434.39 -101.87 430.13 C-110.14 421.73 -112.11 407.97 -114.96 396.93 C-117.69 386.47 -121.26 382.35 -129.51 375.71 C-159.16 351.74 -168.03 312.96 -172.06 276.57 C-175.66 239.26 -176.19 200.28 -170.87 163.13 C-170.77 162.42 -170.67 161.71 -170.57 160.97 C-164.46 117.34 -156.05 74.22 -124.87 41.13 C-124.34 40.56 -123.81 39.98 -123.26 39.39 C-122.18 38.26 -121.03 37.18 -119.87 36.13 C-119.21 36.13 -118.55 36.13 -117.87 36.13 C-116.54 37.74 -116.54 37.74 -115.06 39.88 C-110.36 46.28 -105.64 49.49 -97.87 51.13 C-84.67 52.64 -73.25 48.13 -62.87 40.13 C-56.98 34.86 -52.38 28.29 -51.71 20.22 C-51.54 15.85 -51.66 11.5 -51.87 7.13 C-34.57 3.28 -17.7 0.79 0 0 Z " fill="#AF7DBA" transform="translate(281.87109375,42.87109375)"/>
<path d="M0 0 C70.95 0 141.9 0 215 0 C218.34 6.68 221.09 12.52 223.12 19.56 C223.38 20.42 223.63 21.28 223.89 22.16 C227.11 33.49 229.79 45.15 229 57 C229.72 57.25 230.44 57.49 231.18 57.75 C257.84 69.55 274.86 104.91 284.85 130.01 C297.37 162.58 304.65 197.93 307.87 232.61 C308.84 242.44 310.13 251.7 316.38 259.62 C316.8 260.2 317.23 260.78 317.67 261.37 C320.15 264.68 322.72 267.91 325.3 271.14 C337.29 286.27 347.06 302.87 345 323 C342.99 335.89 337.46 345.22 327 353 C321.18 356.97 315.14 360.43 308.89 363.67 C308 364.14 307.11 364.61 306.2 365.09 C304.44 366.01 302.67 366.91 300.89 367.79 C294.92 370.92 291.98 373.99 289 380 C288.8 380.38 288.8 380.38 287.78 382.33 C286.55 384.7 285.36 387.1 284.19 389.5 C283.78 390.32 283.37 391.14 282.96 391.99 C281.97 393.99 280.98 396 280 398 C279.34 398 278.68 398 278 398 C277.88 398.74 277.75 399.49 277.62 400.25 C277.05 402.8 276.26 404.73 275 407 C274.34 407 273.68 407 273 407 C273 407.99 273 408.98 273 410 C288.43 410.56 302 408.53 313.93 397.66 C325.78 386.13 332.21 369.85 339.29 355.21 C348.14 336.96 348.14 336.96 354.7 329.1 C356 327 356 327 355.79 324.86 C354.79 322.5 353.48 320.54 352 318.44 C347.95 312.67 347.3 307.95 348 301 C349.89 293.85 354.87 289.73 361 286 C374.82 278.56 393.33 273 409.12 275.31 C412.99 277.58 413.8 280.07 415.27 284.2 C417.18 291.55 417.19 298.88 417.19 306.42 C417.19 308.36 417.21 310.3 417.22 312.24 C417.28 323.21 416.51 334.44 408.56 342.81 C403.29 347.31 398.96 349.2 392 349 C386.53 347.94 381.57 346.2 377 343 C376.94 343.28 376.94 343.28 376.66 344.68 C375.52 350.02 374.09 355.16 372.36 360.33 C372.1 361.09 371.85 361.85 371.59 362.63 C371.06 364.22 370.53 365.81 370 367.4 C369.19 369.79 368.4 372.19 367.61 374.59 C357.57 404.76 344.2 432.51 314.96 448.04 C304.51 453.16 290.65 457.41 279 457 C279.05 457.59 279.09 458.19 279.14 458.8 C279.47 466.43 278.38 473.9 273.39 479.96 C262.13 490.22 243.79 487.25 229.69 486.69 C209.68 485.73 193.12 482.9 178 469 C177.68 468.63 177.68 468.63 176.08 466.75 C173.21 464.34 171.47 464.53 167.75 464.62 C167.1 464.64 166.45 464.65 165.79 464.67 C158.85 464.88 151.94 465.59 145.03 466.21 C119.82 468.39 94.63 468.72 69.5 465.4 C68.34 465.27 67.17 465.13 66 465 C65.09 464.89 64.19 464.78 63.25 464.66 C61 465 61 465 59.15 466.87 C58.86 467.29 58.86 467.29 57.38 469.44 C50.35 478.74 41.99 484.87 31 489 C30.7 489.12 30.7 489.12 29.21 489.74 C21.83 492.4 12.81 492.25 5.69 489.06 C-9.06 480.48 -13.24 464.12 -17.61 448.8 C-17.84 448 -18.07 447.2 -18.31 446.38 C-18.77 444.8 -19.19 443.22 -19.59 441.62 C-21.3 435.39 -24.17 432.32 -29.19 428.38 C-29.87 427.81 -30.54 427.25 -31.24 426.67 C-33.93 424.44 -36.65 422.27 -39.41 420.14 C-48.93 412.54 -54.97 400.41 -61 390 C-61.53 390.38 -62.07 390.75 -62.62 391.14 C-72.48 397.91 -82.2 403.41 -94.38 403.38 C-95.03 403.37 -95.68 403.37 -96.35 403.37 C-104.32 403.17 -110.09 400.29 -116 395 C-126.98 378.77 -125.02 357.95 -121.54 339.59 C-118.88 326.71 -114.51 314.91 -109 303 C-108.72 302.37 -108.44 301.75 -108.15 301.1 C-103.29 290.31 -96.75 280.69 -90 271 C-89.79 270.69 -89.79 270.69 -88.71 269.13 C-84.01 262.34 -84.01 262.34 -82 260 C-81.34 260 -80.68 260 -80 260 C-79.99 259.74 -79.99 259.74 -79.94 258.42 C-79.67 251.61 -79.35 244.81 -79 238 C-78.97 237.46 -78.97 237.46 -78.84 234.74 C-75.76 176.41 -65.12 110.59 -20.2 69.34 C-14.62 63.76 -13.94 59.2 -13.75 51.5 C-13.63 49.35 -13.51 47.21 -13.38 45.06 C-13.32 44.02 -13.26 42.98 -13.2 41.91 C-12.17 26.87 -7.46 13.05 0 0 Z M57 50 C57.05 50.97 57.09 51.93 57.14 52.93 C57.5 63.5 56.35 71.19 49.5 79.69 C40.95 88.67 29.36 93.93 17 94.44 C8.49 94.19 1.64 91.31 -4.59 85.53 C-6.43 83.53 -7.79 81.42 -9 79 C-26.19 86.29 -37.61 111.39 -44.35 127.71 C-54.11 152.46 -58.56 179.74 -62 206 C-62.08 206.55 -62.08 206.55 -62.46 209.31 C-70.21 267.18 -73.15 352.42 -37 402 C-31.58 408.84 -25.27 414.73 -18.8 420.55 C-18.56 420.77 -18.56 420.77 -17.38 421.83 C-16 423 -16 423 -13.39 424.76 C-7.43 430.35 -5.94 439.27 -4 446.94 C1.69 469.39 1.69 469.39 10.56 475.88 C16.37 478.32 23.06 478.19 28.84 475.85 C37.16 470.96 44.1 463.54 49.64 455.67 C51.53 453 52.81 451.28 56.07 450.51 C59.08 450.42 62.01 450.68 65 451 C66.55 451.15 68.1 451.29 69.64 451.44 C72.3 451.69 74.95 451.94 77.6 452.21 C84.02 452.85 90.43 453.32 96.88 453.62 C97.67 453.66 98.46 453.7 99.28 453.75 C111.83 454.3 124.3 454.02 136.83 453.26 C139 453.13 141.16 453.01 143.33 452.89 C150.94 452.45 158.46 451.8 166 450.65 C175.62 449.23 175.62 449.23 178.61 450.9 C179.01 451.31 179.41 451.73 179.82 452.16 C180.29 452.62 180.75 453.08 181.23 453.56 C181.71 454.05 182.19 454.55 182.69 455.06 C196.34 468.25 211.52 473.26 230.31 473.04 C230.87 473.02 231.43 473.01 232 473 C231.67 471.97 231.34 470.94 231 469.88 C228.86 462.1 228.86 462.1 230.91 458.33 C232.92 455.61 234.38 454.21 237.62 453.12 C241.48 452.98 245.31 452.99 249.16 453.03 C253.15 452.99 257.05 452.55 261 452 C260.39 447.67 259.35 443.77 257.9 439.65 C257.49 438.46 257.08 437.26 256.66 436.07 C256.02 434.21 255.37 432.36 254.71 430.51 C254.08 428.7 253.46 426.9 252.84 425.09 C252.46 424.01 252.08 422.94 251.7 421.84 C250.99 418.98 250.9 417.69 252 415 C253.24 413.43 254.54 411.92 255.88 410.44 C260.17 405.45 263.53 400.07 266.81 394.38 C267.27 393.59 267.72 392.8 268.19 391.99 C276 378.21 276 378.21 276 374 C275.5 373.96 275 373.91 274.49 373.86 C253.7 371.93 241.73 366.06 228.25 349.9 C223.65 342.9 224.13 332.07 225 324 C226.64 316.55 229.99 310.68 235 305 C235.49 304.43 235.98 303.86 236.48 303.27 C241.84 297.48 248.47 293.33 255 289 C255.56 288.63 256.11 288.26 256.68 287.88 C257.23 287.52 257.77 287.16 258.33 286.79 C258.86 286.44 259.4 286.08 259.95 285.72 C261.41 284.75 262.88 283.79 264.34 282.82 C267 281 267 281 269.66 278.83 C272 277 272 277 275 276 C275.5 276.5 275.5 276.5 278 279 C274.15 287.01 268.56 290.62 260.94 294.81 C253.69 298.8 247.85 303.06 242 309 C241.36 309.64 240.72 310.29 240.05 310.95 C236.1 315.18 236.1 315.18 235.62 318.94 C235.75 319.62 235.87 320.3 236 321 C238.31 322.32 240.62 323.64 243 325 C241.92 328.57 240.37 330.81 237.88 333.5 C235.94 335.69 235.06 336.76 234.31 339.62 C235.32 343.1 237.02 345.09 240 347 C243.31 348.27 246.55 349.13 250 350 C250 353.3 250 356.6 250 360 C258.26 365.39 267.32 365.19 276.74 363.34 C291.56 359.95 305.05 353.33 317 344 C317.52 343.59 318.05 343.18 318.59 342.76 C326.95 336.03 330.92 327.56 332.42 317.04 C333.58 298.94 320.73 282.98 309.5 270.01 C305.83 265.84 302 261.9 298.02 258.01 C291.76 251.8 285.97 244.93 282 237 C282.35 237.18 282.35 237.18 284.12 238.09 C285.03 238.56 285.94 239.02 286.88 239.5 C287.78 239.96 288.68 240.43 289.62 240.91 C292 242 292 242 294 242 C294.27 233.95 293.46 226.14 292.38 218.19 C292.33 217.86 292.33 217.86 292.11 216.23 C288.99 193.36 284.14 170.97 277 149 C276.7 148.07 276.4 147.14 276.09 146.19 C266.48 117.13 253.14 92.2 229 73 C226.69 75.16 224.98 77.38 223.31 80.06 C222.88 80.75 222.44 81.45 221.99 82.16 C221 84 221 84 221 86 C220.48 86.25 219.97 86.5 219.44 86.75 C216.82 88.09 214.3 89.58 211.78 91.1 C204.93 94.57 194.34 94.01 187.09 91.82 C175.73 87.38 166.67 82.11 160.91 71.11 C159.3 67.36 158.86 64.14 158.88 60.06 C158.87 59.23 158.87 58.39 158.87 57.54 C159 54.94 159.43 52.53 160 50 C127.73 40.81 89.23 39.26 57 50 Z " fill="#3F3652" transform="translate(173,0)"/>
<path d="M0 0 C2.53 3.03 3.73 5.71 4.83 9.48 C5.15 10.55 5.47 11.63 5.8 12.73 C5.97 13.3 6.13 13.86 6.3 14.44 C7.17 17.4 8.06 20.34 8.96 23.29 C9.13 23.87 9.31 24.45 9.49 25.05 C16.6 48.52 26.84 70.36 43 89 C43.86 90.08 44.71 91.16 45.56 92.25 C48.65 95.93 52.32 98.94 56 102 C56.42 102.35 56.42 102.35 58.53 104.12 C62.84 107.65 66.85 110.83 72 113 C72 113.66 72 114.32 72 115 C73.65 115.33 75.3 115.66 77 116 C77 116.66 77 117.32 77 118 C77.76 118.23 78.53 118.45 79.31 118.69 C82.37 119.7 85.22 121.01 88.12 122.38 C116.5 135.31 149.29 136.25 180 136.38 C180.93 136.38 181.86 136.39 182.82 136.4 C200.69 136.52 218.54 135.03 235.81 130.25 C236.76 129.99 237.71 129.74 238.69 129.47 C263.14 122.62 282.86 110.74 299 91 C299.47 90.45 299.93 89.89 300.41 89.32 C302.33 86.8 303.02 85.38 302.83 82.19 C301.9 78.6 300.29 76.11 298.12 73.19 C293.82 67.06 290.25 60.77 291 53 C293.65 55.64 296.29 58.29 298.9 60.97 C299.91 62 300.93 63.03 301.94 64.06 C302.19 64.32 302.19 64.32 303.45 65.63 C308.88 71.13 313.5 74.38 321.19 75.69 C321.84 75.81 322.49 75.93 323.15 76.05 C328.74 77.05 334.34 77.62 340 78 C338.11 84.33 335.68 90 332.44 95.75 C332.22 96.14 332.22 96.14 331.13 98.09 C326.63 105.95 321.42 113.58 315 120 C315.36 127.38 318.5 134.56 321.12 141.38 C321.86 143.3 322.59 145.22 323.32 147.15 C323.64 147.99 323.97 148.82 324.3 149.69 C324.98 151.94 325.14 153.67 325 156 C320.74 156.65 316.58 157.06 312.27 156.89 C300.66 156.45 300.66 156.45 297.12 159.38 C293.97 163.27 293.97 163.27 294.09 166.02 C294.18 166.8 294.28 167.58 294.38 168.38 C294.47 169.15 294.56 169.92 294.65 170.71 C294.98 172.86 295.44 174.91 296 177 C280.23 177.86 264.67 174.26 252.42 164.18 C250 162 250 162 247.86 159.67 C244.77 156.4 242.61 154.19 238.03 153.65 C235 153.85 232.08 154.2 229.08 154.68 C225.22 155.27 221.33 155.62 217.44 156 C216.6 156.09 215.76 156.17 214.89 156.26 C208.66 156.89 202.44 157.32 196.19 157.62 C195.39 157.66 194.59 157.7 193.77 157.75 C181.39 158.29 169.1 158.03 156.75 157.2 C154.67 157.06 152.6 156.93 150.52 156.8 C132.41 155.64 132.41 155.64 126.04 154.45 C122.36 153.96 119.51 153.87 116.43 156.18 C112.06 160.26 108.4 164.95 104.72 169.63 C100.04 175.45 94.38 180.19 86.86 181.58 C80.77 181.79 75.57 181.26 71 177 C62.73 168.6 60.76 154.84 57.91 143.8 C55.18 133.35 51.61 129.22 43.37 122.59 C13.59 98.51 4.78 59.53 0.75 23 C-0.03 15.32 -0.23 7.72 0 0 Z " fill="#9E62A5" transform="translate(109,296)"/>
<path d="M0 0 C0.6 0.5 1.2 0.99 1.81 1.5 C1.81 6.08 1.81 6.08 0.81 8.5 C-1.18 9.91 -3.11 10.78 -5.38 11.68 C-7.19 12.5 -7.19 12.5 -8.19 14.5 C-8.3 15.89 -8.37 17.29 -8.4 18.68 C-8.93 35.89 -11.49 50.28 -23.72 63.36 C-30.88 69.57 -39.99 74.26 -49.19 76.5 C-50.12 76.73 -51.04 76.95 -52 77.19 C-67.74 78.73 -81.7 74.99 -94.26 65.16 C-100.39 60.07 -104.42 54.93 -108.03 47.86 C-111.68 41 -117.2 36 -122.89 30.81 C-125.26 28.42 -126.14 27.07 -126.42 23.65 C-126.4 22.59 -126.39 21.53 -126.38 20.44 C-126.37 19.37 -126.36 18.31 -126.36 17.21 C-126.19 14.5 -126.19 14.5 -125.19 12.5 C-123 12.5 -123 12.5 -120.19 13.5 C-116.65 17.71 -114.88 22.32 -113.19 27.5 C-110.19 26.54 -107.19 25.57 -104.2 24.6 C-101.48 23.73 -98.76 22.85 -96.04 21.98 C-88 19.39 -79.98 16.77 -71.96 14.12 C-10.36 -6.26 -10.36 -6.26 0 0 Z " fill="#403753" transform="translate(398.1875,158.5)"/>
<path d="M0 0 C5.91 -0.5 11.24 0.11 16.94 1.69 C17.26 1.78 17.26 1.78 18.91 2.23 C26.04 4.22 32.98 6.67 39.94 9.19 C41.28 9.67 42.63 10.15 43.97 10.63 C53.49 14.05 62.98 17.57 72.43 21.18 C85.82 26.28 85.82 26.28 93.25 26.31 C94.27 26.33 95.28 26.35 96.33 26.36 C99 26 99 26 100.74 24.67 C101.9 23.13 102.95 21.6 103.94 19.94 C105.61 17.34 107.02 16.06 110 15 C112.68 17.68 112.88 19.62 113.23 23.32 C112.86 27.68 110.79 31 108.7 34.78 C106.85 38.15 105.47 41.65 104.12 45.25 C103.91 45.82 103.7 46.4 103.47 46.99 C102.98 48.32 102.49 49.66 102 51 C102.51 50.98 103.03 50.97 103.56 50.95 C105.91 50.89 108.27 50.85 110.62 50.81 C111.43 50.79 112.24 50.76 113.07 50.74 C118.23 50.67 121.68 51.08 126 54 C126.33 54.99 126.66 55.98 127 57 C126.73 56.96 126.73 56.96 125.38 56.78 C116.57 55.68 108.1 54.67 100 59 C99.67 59.33 99.67 59.33 98 61 C98.26 63.98 98.65 66.35 100.06 69 C101.33 71.71 101.13 74.04 101 77 C97.46 76.44 96.01 75.3 93.75 72.56 C93.49 72.25 93.49 72.25 92.17 70.69 C91 69 91 69 91 67 C90.42 67.24 89.83 67.48 89.23 67.73 C69.99 75.6 69.99 75.6 62 76 C61.05 76.06 60.09 76.13 59.11 76.19 C45.44 76.69 35.27 72.28 25.11 63.33 C13.27 51.23 8.76 33.98 8.81 17.5 C8.86 15.67 8.92 13.83 9 12 C8.06 11.72 7.12 11.44 6.15 11.14 C2.36 9.77 1.02 8.47 -1 5 C-0.75 2.19 -0.75 2.19 0 0 Z " fill="#403753" transform="translate(146,159)"/>
<path d="M0 0 C47.85 0 95.7 0 145 0 C139.97 25.16 139.97 25.16 134 37 C127.9 36.41 121.87 35.53 115.83 34.54 C104.56 32.71 93.42 31.28 82 31 C81 30.96 79.99 30.92 78.96 30.88 C61.26 30.48 43.68 32.67 26.42 36.41 C25.39 36.63 24.36 36.85 23.3 37.07 C22.39 37.28 21.49 37.48 20.56 37.69 C17.72 38.03 15.72 37.86 13 37 C11.54 34.87 10.57 33.09 9.56 30.75 C9.27 30.1 8.98 29.46 8.68 28.79 C0 8.58 0 8.58 0 0 Z " fill="#303031" transform="translate(208,0)"/>
<path d="M0 0 C1.08 0.05 2.16 0.09 3.27 0.14 C4.36 0.18 5.44 0.21 6.56 0.25 C7.39 0.3 8.23 0.34 9.08 0.39 C10.95 4.99 12.4 9.45 13.36 14.32 C15.18 23.52 18.54 31.16 22.99 39.36 C24.88 42.88 26.67 46.45 28.46 50.02 C28.79 50.67 29.12 51.32 29.47 51.99 C31.36 55.72 33.02 59.33 34.08 63.39 C33.75 64.38 33.42 65.37 33.08 66.39 C32.42 66.39 31.76 66.39 31.08 66.39 C30.99 67.14 30.89 67.9 30.79 68.67 C29.55 73.42 26.03 75.71 22.08 78.39 C12.45 83.24 1.94 86.46 -8.89 83.93 C-12.83 82.22 -15.17 79.19 -16.92 75.39 C-20.05 67.23 -19.17 57.97 -18.92 49.39 C-18.9 48.76 -18.89 48.14 -18.88 47.49 C-18.45 31.56 -13.78 18.13 -5.92 4.39 C-5.47 3.58 -5.02 2.78 -4.56 1.95 C-2.92 0.39 -2.92 0.39 0 0 Z " fill="#AE7DB9" transform="translate(188.91796875,-0.390625)"/>
<path d="M0 0 C3.05 0.13 4.72 0.46 7.03 2.5 C8.67 5.17 9.86 7.81 11.01 10.72 C11.45 11.67 11.88 12.61 12.33 13.58 C18.29 27.36 20.36 41.98 20.45 56.91 C20.46 57.95 20.47 58.99 20.48 60.06 C20.4 67.33 19.8 75.03 14.7 80.66 C9.5 84.65 4.36 85.39 -1.99 84.72 C-12.15 83.08 -21.57 80.55 -28.11 72.15 C-30.68 67.96 -30.57 63.44 -29.99 58.72 C-27.96 51.72 -24.29 45.38 -20.85 39 C-16.36 30.63 -12.41 23.19 -10.99 13.72 C-10.8 12.62 -10.61 11.51 -10.42 10.37 C-10.07 8.26 -9.73 6.14 -9.42 4.02 C-8.51 -0.83 -4.29 0.09 0 0 Z " fill="#AE7CB9" transform="translate(371.98828125,-0.723388671875)"/>
<path d="M0 0 C0.33 0 0.66 0 1 0 C1.08 1.03 1.15 2.06 1.23 3.12 C4.69 50.31 4.69 50.31 9.09 72.51 C9.9 76.75 10.12 80.68 10 85 C9.01 85.16 9.01 85.16 4 86 C3.04 84.75 2.08 83.5 1.12 82.25 C0.86 81.9 0.86 81.9 -0.49 80.14 C-1.89 78.15 -2.98 76.2 -4 74 C-6.17 74.51 -8 75 -10 76 C-10.05 77.73 -10.09 79.46 -10.12 81.19 C-10.15 82.15 -10.17 83.11 -10.2 84.11 C-9.99 87.16 -9.37 89.27 -8 92 C-6.13 93.12 -6.13 93.12 -4 94 C-3.4 94.49 -2.81 94.98 -2.2 95.48 C0.33 97.23 2.24 97.67 5.25 98.19 C5.7 98.27 5.7 98.27 7.95 98.67 C8.63 98.78 9.3 98.89 10 99 C5.8 105.38 -1.58 109.45 -9 111 C-14.47 110.99 -19.49 110.25 -24 107 C-29.93 98.51 -30.41 89.02 -30 79 C-29.97 78.19 -29.94 77.37 -29.91 76.54 C-28.95 62.51 -23.99 47 -17.34 34.74 C-16.16 32.32 -15.19 29.94 -14.23 27.42 C-11.89 21.47 -8.87 15.96 -5.75 10.38 C-5.2 9.37 -4.64 8.37 -4.07 7.33 C-2.72 4.89 -1.36 2.44 0 0 Z " fill="#AB84BA" transform="translate(92,280)"/>
<path d="M0 0 C0.16 0.33 0.16 0.33 1 2 C0.01 3.67 -0.99 5.34 -2 7 C-3.1 9.67 -4.01 12.39 -4.94 15.12 C-5.47 16.66 -5.99 18.2 -6.52 19.73 C-6.78 20.47 -7.03 21.21 -7.29 21.97 C-8.16 24.46 -9.11 26.92 -10.06 29.38 C-12.2 35.16 -13.68 41.12 -15.16 47.1 C-16.29 51.58 -17.61 55.87 -19.29 60.17 C-19.92 61.81 -20.5 63.47 -21.07 65.13 C-28.56 86.38 -43.21 102.3 -63.25 112.31 C-74.64 117.47 -86.62 118.97 -99 120 C-101.97 112.08 -104.94 104.16 -108 96 C-104.54 96.08 -101.07 96.17 -97.5 96.25 C-79.98 96.4 -64.74 93.06 -51.81 80.57 C-50 79 -50 79 -48 79 C-47.74 78.43 -47.48 77.86 -47.21 77.27 C-45.9 74.81 -44.35 72.82 -42.62 70.62 C-35.29 60.87 -30.03 49.64 -24.35 38.88 C-17.93 26.7 -11.46 14.91 -3 4 C-2 2.67 -1 1.33 0 0 Z " fill="#A983B8" transform="translate(544,326)"/>
<path d="M0 0 C2.04 2.04 1.25 6.41 1.25 9.21 C1.12 17.6 -0.75 25.72 -5 33 C-5.66 33 -6.32 33 -7 33 C-7.09 33.58 -7.18 34.16 -7.27 34.75 C-8.9 39.75 -14.07 43.49 -18.62 45.84 C-31.89 51.77 -45.2 53.04 -58.96 48.26 C-67.79 44.6 -74.62 39.98 -79.38 31.56 C-80.24 28.02 -80.16 24.63 -80 21 C-78.21 21.16 -78.21 21.16 -76 22 C-74.32 24.4 -74.32 24.4 -72.69 27.38 C-70.34 31.33 -68.45 34.35 -63.89 35.7 C-58.85 36.5 -54.19 37.11 -49.69 34.31 C-44.29 30.03 -41.17 24.47 -39 18 C-38.88 16.57 -38.79 15.13 -38.75 13.69 C-38.58 11.84 -38.58 11.84 -38 10 C-32.51 5.6 -24.53 4.35 -17.88 2.75 C-16.82 2.48 -15.76 2.21 -14.67 1.94 C-9.66 0.71 -5.2 -0.26 0 0 Z " fill="#DDDDDF" transform="translate(379,174)"/>
<path d="M0 0 C0.07 5.1 0.13 10.21 0.16 15.31 C0.18 17.05 0.2 18.78 0.23 20.51 C0.26 23.02 0.28 25.52 0.29 28.03 C0.31 28.79 0.32 29.55 0.34 30.34 C0.34 38.58 -2.07 45.43 -7 52 C-7.33 52.33 -7.66 52.66 -8 53 C-13.34 52.69 -16.11 51.89 -20 48 C-26 40.79 -26 40.79 -26 38 C-26.3 37.86 -26.3 37.86 -27.81 37.12 C-30 36 -30 36 -31.29 34.98 C-34.36 33.22 -37.94 33.2 -41.41 32.76 C-44.58 31.83 -45.37 30.83 -47 28 C-48.46 23.79 -48.46 23.79 -48 21 C-42.79 12.24 -33.68 7.8 -24.31 4.81 C-23.54 4.56 -22.76 4.3 -21.96 4.04 C-14.87 1.81 -7.48 0 0 0 Z " fill="#9F6CAA" transform="translate(579,284)"/>
<path d="M0 0 C8.93 -0.79 15.14 0.99 23 5 C24.59 6.59 24.32 8.52 24.54 10.66 C25.2 16.72 26.06 21.34 29.78 26.35 C31 28 31 28 32 30.16 C33 32 33 32 35.44 32.75 C36.62 32.86 37.81 32.94 39 33 C39.84 33.07 40.69 33.15 41.56 33.23 C47.37 33.53 51.42 33.07 56.21 29.64 C59.34 26.77 61.62 23.52 64 20 C65.65 20.33 65.65 20.33 74 22 C75 27 75 27 74.07 29.21 C66.89 39.53 58.71 45.95 46.17 48.6 C34.62 50.03 25.1 47.27 15.84 40.4 C6.35 32.63 1.92 22.01 0 10 C-0.06 8.23 -0.09 6.46 -0.06 4.69 C-0.05 3.8 -0.04 2.92 -0.04 2.01 C-0.02 1.35 -0.01 0.68 0 0 Z " fill="#DDDCDE" transform="translate(165,177)"/>
<path d="M0 0 C0.33 0 0.66 0 1 0 C1.45 10.75 0.93 20.23 -6 29 C-7.63 30.77 -9.24 32.38 -11 34 C-11.51 34.51 -12.01 35.02 -12.54 35.55 C-27.23 49.6 -49.17 57.6 -69.3 57.3 C-73.96 57.07 -77.11 55.54 -81 53 C-80.67 49.7 -80.34 46.4 -80 43 C-79.26 42.9 -78.52 42.8 -77.76 42.7 C-22.73 35.15 -22.73 35.15 -5.37 13.88 C-2.16 9.48 -0.65 5.47 0 0 Z " fill="#A070AB" transform="translate(504,307)"/>
<path d="M0 0 C2.67 0.37 5.33 0.73 8 1.09 C8.65 1.18 9.3 1.27 9.97 1.36 C15.59 2.08 21.2 2.44 26.86 2.64 C32.65 2.89 32.65 2.89 35 5.06 C34.62 8 34.62 8 34 11.06 C26.65 14.74 15.44 11.57 7.53 10.35 C-21.44 5.95 -47.5 6.33 -72 24.06 C-74.42 25.98 -76.81 27.91 -79.13 29.95 C-81 31.06 -81 31.06 -83.12 30.87 C-85 30.06 -85 30.06 -87 28.06 C-86.86 24.58 -86.52 22.66 -84.21 20.01 C-71.06 10.01 -57.03 2.36 -40.69 -0.75 C-40.06 -0.87 -39.44 -1 -38.79 -1.13 C-25.91 -3.29 -12.82 -1.82 0 0 Z " fill="#432D58" transform="translate(312,261.9375)"/>
<path d="M0 0 C1 2 1 2 0.25 4.84 C-0.15 6.02 -0.57 7.2 -1 8.38 C-1.11 8.69 -1.11 8.69 -1.69 10.27 C-9.82 31.7 -25.37 46.38 -45.63 56.29 C-56.33 60.92 -67.45 62.04 -79 63 C-81.97 55.08 -84.94 47.16 -88 39 C-81.73 39.33 -75.46 39.66 -69 40 C-69 40.33 -69 40.66 -69 41 C-71.97 41 -74.94 41 -78 41 C-78 41.66 -78 42.32 -78 43 C-63.06 47.2 -51.39 48.91 -37 42 C-34.02 40.27 -31.53 38.32 -29 36 C-28.7 35.74 -28.7 35.74 -27.16 34.44 C-21.03 28.83 -16.61 21.96 -11.92 15.16 C-8.29 9.93 -4.52 4.52 0 0 Z " fill="#9C62A4" transform="translate(524,383)"/>
<path d="M0 0 C3.77 0.12 5.55 0.46 8.68 2.72 C10.93 5.3 12.93 7.97 14.93 10.74 C16.12 11.84 17.33 12.93 18.56 13.99 C23.57 18.84 26.03 25.52 28.93 31.74 C21.01 32.07 13.09 32.4 4.93 32.74 C4.6 31.42 4.27 30.1 3.93 28.74 C-0.4 26.09 -5.44 26.3 -10.38 26.11 C-11.21 26.07 -12.05 26.03 -12.91 25.99 C-14.96 25.9 -17.01 25.81 -19.07 25.74 C-17.43 19.69 -15.41 13.93 -12.94 8.17 C-12.68 7.55 -12.41 6.93 -12.14 6.3 C-9.32 -0.14 -6.63 0.16 0 0 Z " fill="#9D62A4" transform="translate(267.06640625,184.263427734375)"/>
<path d="M0 0 C0.33 0 0.66 0 1 0 C1.08 1.03 1.15 2.06 1.23 3.12 C4.69 50.31 4.69 50.31 9.09 72.51 C9.9 76.75 10.12 80.68 10 85 C9.01 85.16 9.01 85.16 4 86 C3.03 84.78 2.08 83.55 1.12 82.31 C0.59 81.63 0.06 80.94 -0.49 80.24 C-3.44 75.86 -4.2 72.56 -3.94 67.31 C-3.82 60.97 -4.71 55.12 -5.86 48.9 C-6.93 42.95 -7.45 37.08 -7.62 31.04 C-7.83 25.36 -7.83 25.36 -10 23 C-10.66 23.33 -11.32 23.66 -12 24 C-10.72 20.67 -9.29 17.51 -7.62 14.36 C-7.17 13.51 -6.73 12.67 -6.27 11.81 C-6.04 11.37 -6.04 11.37 -4.88 9.19 C-4.41 8.3 -3.94 7.42 -3.46 6.51 C-2.31 4.34 -1.15 2.17 0 0 Z " fill="#9C62A3" transform="translate(92,280)"/>
<path d="M0 0 C0.71 0.01 1.41 0.02 2.14 0.03 C2.67 0.04 3.2 0.05 3.75 0.06 C3.42 1.38 3.09 2.7 2.75 4.06 C2.09 4.06 1.43 4.06 0.75 4.06 C0.09 5.38 -0.57 6.7 -1.25 8.06 C-1.91 8.06 -2.57 8.06 -3.25 8.06 C-4.28 9.71 -5.27 11.38 -6.25 13.06 C-7.25 14.06 -8.25 15.06 -9.25 16.06 C-10.44 18.25 -10.44 18.25 -11.25 20.06 C-11.91 20.06 -12.57 20.06 -13.25 20.06 C-13.48 20.44 -13.48 20.44 -14.62 22.38 C-16.3 25.15 -17.67 26.19 -20.25 28.06 C-21.6 29.71 -22.94 31.38 -24.25 33.06 C-26.36 32.83 -28.46 32.58 -30.56 32.31 C-30.86 32.28 -30.86 32.28 -32.37 32.12 C-35.35 31.73 -36.96 31.36 -39.1 29.19 C-40.77 26.11 -41.82 23.54 -41.25 20.06 C-35.89 11.05 -26.63 6.8 -17 3.81 C-16.21 3.56 -15.42 3.3 -14.61 3.04 C-4.89 -0.08 -4.89 -0.08 0 0 Z " fill="#AB83BA" transform="translate(572.25,284.9375)"/>
<path d="M0 0 C0.8 0.01 1.6 0.02 2.42 0.03 C3.03 0.04 3.63 0.05 4.25 0.06 C3.49 0.81 2.72 1.55 1.94 2.31 C1.71 2.54 1.71 2.54 0.57 3.72 C-0.47 4.78 -1.54 5.8 -2.62 6.81 C-4.95 11.47 -3.03 17.23 -1.75 22.06 C-7.85 22.4 -13.51 21.74 -19.5 20.69 C-20.23 20.56 -20.97 20.44 -21.72 20.31 C-25.61 19.59 -29.12 18.71 -32.75 17.06 C-29.68 9.15 -18.45 5.25 -11.16 2.01 C-7.31 0.5 -4.14 -0.06 0 0 Z " fill="#AC7BB7" transform="translate(406.75,450.9375)"/>
<path d="M0 0 C0.66 0 1.32 0 2 0 C2.03 1.92 2.05 3.83 2.06 5.75 C2.07 6.82 2.09 7.88 2.1 8.98 C1.95 13.69 1.95 13.69 1 16 C0.01 16.33 -0.98 16.66 -2 17 C-2.33 17.99 -2.66 18.98 -3 20 C-3.99 20.33 -4.98 20.66 -6 21 C-7.19 23.06 -7.19 23.06 -8 25 C-8.66 25 -9.32 25 -10 25 C-11.03 26.65 -12.02 28.32 -13 30 C-14 31 -15 32 -16 33 C-17.01 34.66 -18.01 36.33 -19 38 C-19.66 38.66 -20.32 39.32 -21 40 C-21.99 40 -22.98 40 -24 40 C-24 39.34 -24 38.68 -24 38 C-24.31 37.86 -24.31 37.86 -25.88 37.12 C-28 36 -28 36 -30 34 C-27.53 29.94 -26.23 28.12 -22 26 C-20.93 24.55 -20.93 24.55 -19.88 22.88 C-19.26 21.93 -18.64 20.98 -18 20 C-17.34 20 -16.68 20 -16 20 C-14.97 18.35 -13.98 16.68 -13 15 C-12 14 -11 13 -10 12 C-8.81 9.81 -8.81 9.81 -8 8 C-7.34 8 -6.68 8 -6 8 C-5.34 6.68 -4.68 5.36 -4 4 C-3.34 4 -2.68 4 -2 4 C-1.34 2.68 -0.68 1.36 0 0 Z " fill="#A77AB4" transform="translate(577,284)"/>
<path d="M0 0 C10.23 1.04 16.85 5.12 23.66 12.89 C25.23 15.36 25.7 17.38 26.19 20.25 C26.35 21.14 26.5 22.03 26.67 22.95 C26.78 23.63 26.89 24.3 27 25 C15.41 25.75 15.41 25.75 10.56 22.45 C4.99 17.26 1.68 10.35 0 3 C0 2.01 0 1.02 0 0 Z " fill="#AD7CB9" transform="translate(171,452)"/>
<path d="M0 0 C4.49 8.98 -3.09 29.02 -6 38 C-8.61 44.89 -12.5 51.22 -19 55 C-21.12 55.69 -22.76 55.89 -25 56 C-23.23 52.85 -21.28 50.04 -19.06 47.19 C-11.02 36.52 -9.76 25.99 -9.43 12.93 C-9.4 12.08 -9.37 11.23 -9.34 10.35 C-9.33 9.59 -9.31 8.82 -9.29 8.03 C-8.97 5.8 -8.44 4.71 -7 3 C-5.27 2.05 -5.27 2.05 -3.38 1.31 C-2.74 1.06 -2.11 0.81 -1.46 0.55 C-1.22 0.46 -1.22 0.46 0 0 Z " fill="#9B61A2" transform="translate(398,167)"/>
<path d="M0 0 C-0.61 3.19 -1.65 5.18 -3.62 7.75 C-4.14 8.44 -4.67 9.13 -5.21 9.84 C-5.48 10.2 -5.48 10.2 -6.88 12 C-7.42 12.71 -7.96 13.42 -8.52 14.16 C-9.53 15.49 -10.55 16.81 -11.57 18.14 C-13.06 20.08 -14.53 22.04 -16 24 C-19.76 23.42 -22.53 22.35 -25.81 20.44 C-26.6 19.98 -27.39 19.53 -28.21 19.06 C-28.8 18.71 -29.39 18.36 -30 18 C-29.13 12.58 -25.24 10.09 -21 7 C-14.51 3.19 -7.68 -0.45 0 0 Z " fill="#BD9ECB" transform="translate(562,288)"/>
<path d="M0 0 C0.66 0.33 1.32 0.66 2 1 C2 1.66 2 2.32 2 3 C2.58 3.27 3.16 3.54 3.75 3.81 C6 5 6 5 7.81 6.5 C10.33 8.23 12.26 8.68 15.25 9.19 C16.14 9.35 17.03 9.5 17.95 9.67 C18.29 9.72 18.29 9.72 20 10 C15.8 16.38 8.42 20.45 1 22 C-4.7 21.99 -9.11 20.88 -14 18 C-13.66 17.77 -13.66 17.77 -11.94 16.62 C-6.69 12.46 -2.82 6.01 0 0 Z " fill="#9B61A2" transform="translate(82,369)"/>
<path d="M0 0 C4.16 1.75 5.31 3.63 7.12 7.64 C11.23 18.61 10.81 31.46 10 43 C9.67 43.66 9.34 44.32 9 45 C7.02 44.67 5.04 44.34 3 44 C2.94 43.11 2.89 42.22 2.83 41.31 C2.63 38.01 2.41 34.7 2.2 31.4 C2.11 29.97 2.02 28.55 1.93 27.12 C1.8 25.06 1.67 23.01 1.54 20.95 C1.5 20.32 1.46 19.68 1.42 19.03 C1.21 15.9 0.83 13.02 0 10 C-0.07 8.25 -0.09 6.5 -0.06 4.75 C-0.05 3.86 -0.04 2.97 -0.04 2.05 C-0.02 1.37 -0.01 0.7 0 0 Z " fill="#BE9DCB" transform="translate(376,16)"/>
<path d="M0 0 C1.82 2.71 2.23 4.76 2 8 C0.69 8.03 -0.62 8.05 -1.94 8.06 C-2.3 8.07 -2.3 8.07 -4.15 8.1 C-6 8 -6 8 -7 7 C-13.1 6.17 -17.64 7.33 -23.05 10.12 C-25 11 -25 11 -28 11 C-29.52 8.59 -30.02 7.32 -29.81 4.44 C-28.89 1.67 -28.38 0.67 -26 -1 C-17.84 -4.16 -7.78 -4.49 0 0 Z " fill="#BC9CC9" transform="translate(273,217)"/>
<path d="M0 0 C1 1 1 1 1.06 4.06 C1.04 5.03 1.02 6 1 7 C-2.46 7.73 -5.93 8.44 -9.39 9.14 C-10.57 9.37 -11.74 9.62 -12.91 9.86 C-21.43 11.66 -29.29 12.32 -38 12 C-37 9 -37 9 -35.2 8.01 C-28.78 5.75 -22.28 3.94 -15.69 2.25 C-14.83 2.03 -13.97 1.8 -13.08 1.57 C-8.62 0.47 -4.6 -0.38 0 0 Z " fill="#C7C6CC" transform="translate(379,174)"/>
<path d="M0 0 C3.97 0.53 6.3 1.78 9.25 4.44 C11.35 7.39 11.63 9.85 11.25 13.44 C8.67 16.02 7.47 15.76 3.88 15.81 C0.38 15.73 -1.41 15.63 -4.5 13.94 C-6.31 10.32 -5.87 7.27 -4.75 3.44 C-3.35 0.71 -3.19 0.51 0 0 Z " fill="#89A5BC" transform="translate(411.75,458.5625)"/>
<path d="M0 0 C6.36 -0.49 6.36 -0.49 9.38 1.81 C11.7 4.94 12.12 7.4 12.06 11.19 C12.05 11.9 12.04 12.62 12.04 13.36 C12.02 13.9 12.01 14.44 12 15 C9.69 15.33 7.38 15.66 5 16 C2.03 10.87 0.98 5.82 0 0 Z " fill="#89A5BC" transform="translate(426,457)"/>
<path d="M0 0 C8.61 -0.76 15.55 0.58 23 5 C23.33 5.99 23.66 6.98 24 8 C15.47 8.46 8.19 7.19 0 5 C0 3.35 0 1.7 0 0 Z " fill="#C1C0C7" transform="translate(165,177)"/>
<path d="M0 0 C-1.41 3.44 -2.85 4.85 -6.03 6.73 C-6.82 7.2 -7.61 7.68 -8.43 8.16 C-9.26 8.65 -10.08 9.13 -10.94 9.62 C-12.57 10.6 -14.21 11.57 -15.84 12.54 C-16.2 12.75 -16.2 12.75 -18.04 13.83 C-20 15 -20 15 -21.62 16.18 C-23 17 -23 17 -25.19 16.62 C-25.49 16.52 -25.49 16.52 -27 16 C-21.97 11 -16.82 7.03 -10.69 3.5 C-10.09 3.15 -9.49 2.8 -8.87 2.44 C-5.84 0.75 -3.52 -0.49 0 0 Z " fill="#BB9BC8" transform="translate(443,292)"/>
<path d="M0 0 C0.6 -0.02 1.2 -0.04 1.82 -0.06 C6.36 -0.1 9.28 0.79 13.12 3.25 C13.45 4.24 13.79 5.23 14.12 6.25 C13.86 6.21 13.86 6.21 12.51 6.03 C3.91 4.96 -4.3 4.98 -12.88 6.25 C-12.12 3.81 -12.12 3.81 -10.88 1.25 C-7.41 -0.11 -3.68 0.03 0 0 Z " fill="#432E58" transform="translate(258.875,209.75)"/>
<path d="M0 0 C3.06 1.05 3.98 1.97 5.75 4.75 C7.04 8.11 7.25 10.44 7 14 C3.49 13.44 2.05 12.35 -0.19 9.62 C-0.7 9.02 -1.21 8.41 -1.73 7.79 C-3 6 -3 6 -4 3 C-2.68 2.01 -1.36 1.02 0 0 Z " fill="#442E59" transform="translate(240,222)"/>
<path d="M0 0 C1.75 0.88 1.75 0.88 2.75 1.88 C3.06 4.69 3.06 4.69 2.75 7.88 C0.75 10.25 0.75 10.25 -1.25 11.88 C-3.69 11.19 -3.69 11.19 -6.25 9.88 C-7.38 7.56 -7.38 7.56 -7.25 4.88 C-5.41 1.95 -3.58 -0.2 0 0 Z " fill="#BE9DCB" transform="translate(380.25,65.125)"/>
<path d="M0 0 C6.33 -0.35 11.1 0.71 17 3 C17 3.66 17 4.32 17 5 C17.82 5.16 17.82 5.16 22 6 C18.74 7.09 16.89 6.91 13.67 5.79 C12.87 5.51 12.07 5.24 11.25 4.96 C10.43 4.66 9.6 4.37 8.75 4.06 C7.91 3.77 7.07 3.48 6.2 3.18 C4.13 2.46 2.06 1.74 0 1 C0 0.67 0 0.34 0 0 Z " fill="#543766" transform="translate(255,202)"/>
<path d="M0 0 C0.66 0.33 1.32 0.66 2 1 C1.76 1.22 1.76 1.22 0.56 2.31 C-1 4 -1 4 -2 7 C-3.32 6.67 -4.64 6.34 -6 6 C-4.02 4.02 -2.04 2.04 0 0 Z " fill="#B596C2" transform="translate(422,302)"/>
<path d="M0 0 C0.66 0 1.32 0 2 0 C1.67 1.32 1.34 2.64 1 4 C0.34 4 -0.32 4 -1 4 C-0.67 2.68 -0.34 1.36 0 0 Z " fill="#9C71A9" transform="translate(577,284)"/>
</svg>
