<?xml version="1.0" encoding="UTF-8"?>
<!-- Generator: visioncortex VTracer 0.6.5 -->
<svg version="1.1" xmlns="http://www.w3.org/2000/svg" width="682" height="682">
<path d="M0 0 C225.06 0 450.12 0 682 0 C682 225.06 682 450.12 682 682 C456.94 682 231.88 682 0 682 C0 456.94 0 231.88 0 0 Z " fill="#303031" transform="translate(0,0)"/>
<path d="M0 0 C-0.03 0.49 -0.05 0.99 -0.08 1.49 C-0.59 12.66 -0.88 21.48 6.98 30.2 C17.61 40.39 28.43 42.52 42.59 42.27 C49.7 41.97 54.52 39.9 59.38 34.69 C61.98 31.35 63.54 27.96 65 24 C75.81 25.96 85.77 38.56 91.85 47.24 C104.97 66.71 112.43 88.4 118.44 110.94 C118.61 111.59 118.78 112.24 118.96 112.91 C120.03 116.93 121.09 120.94 122 125 C122.14 125.61 122.29 126.23 122.43 126.86 C122.8 128.73 122.8 128.73 123 132 C121.64 133.66 121.64 133.66 119.7 134.84 C115.75 137.8 114.96 140.19 114.17 144.98 C114.05 145.85 113.93 146.73 113.81 147.62 C113.51 149.5 113.2 151.38 112.89 153.25 C112.74 154.21 112.6 155.16 112.45 156.14 C109.97 171.95 107.19 185.68 97.58 198.83 C93.66 204.21 92.54 208.35 93 215 C93.99 215.33 94.98 215.66 96 216 C109.96 207.56 116.93 184.54 120.84 169.66 C122.22 163.82 122.8 157.87 123.23 151.9 C123.67 146.52 123.67 146.52 125.31 143.92 C127 143 127 143 128.96 143.25 C131.4 144.15 131.96 144.9 133.29 147.09 C133.67 147.71 134.06 148.33 134.45 148.97 C134.65 149.29 134.65 149.29 135.62 150.94 C136.41 152.22 137.19 153.5 137.98 154.78 C138.32 155.35 138.66 155.92 139.01 156.5 C140 158 140 158 142 160 C144.12 160.12 144.12 160.12 146 160 C146.52 159.11 147.03 158.23 147.56 157.31 C147.71 157.06 147.71 157.06 148.44 155.8 C149.25 153.21 148.78 151.58 148 149 C146.62 146.72 146.62 146.72 145 144.5 C142.68 141.34 141.39 138.94 141 135 C143.07 130.76 145.76 129.42 150.06 127.62 C156.72 125.45 162.73 125.3 169.29 127.91 C175.15 131.14 178.45 135.81 180.75 142.01 C182.82 149.3 182.28 156.31 180.38 163.56 C180.2 164.25 180.02 164.94 179.83 165.65 C172.66 192.23 157.58 215.65 139.08 235.74 C137.19 237.79 135.37 239.88 133.56 242 C130.85 245.13 127.96 248.04 125 250.94 C115.29 260.54 115.29 260.54 113 265 C113.32 267.76 113.32 267.76 114 270 C117.86 268.88 120.3 267.98 123 265 C123.66 265 124.32 265 125 265 C125.98 279.96 122.3 294.75 118 309 C117.7 310.03 117.41 311.06 117.1 312.12 C114.04 322.52 110.05 332.41 105 342 C104.34 342 103.68 342 103 342 C102.96 342.35 102.96 342.35 102.73 344.12 C101.85 347.57 100.27 350.13 98.25 353 C97.86 353.56 97.47 354.11 97.07 354.69 C91.69 362.14 84.97 369.51 77.42 374.81 C70.68 380.91 69.15 388.64 68 397.31 C64.64 419.14 64.64 419.14 56 426 C55.42 426.58 54.85 427.15 54.25 427.75 C49.76 430.24 45.32 430.42 40.32 429.52 C28.87 426.08 22.04 416.35 14.91 407.35 C10.65 402.12 10.65 402.12 8.16 401.67 C7.43 401.7 6.7 401.72 5.95 401.75 C5.06 401.78 4.17 401.8 3.25 401.83 C2.18 401.89 1.11 401.94 0 402 C-0.64 402.03 -1.28 402.06 -1.94 402.1 C-8.14 402.4 -14.34 402.77 -20.53 403.15 C-37.04 404.13 -53.27 404.12 -69.78 403.2 C-72.26 403.06 -74.74 402.93 -77.22 402.8 C-78.03 402.75 -78.84 402.71 -79.67 402.67 C-81.26 402.58 -82.85 402.5 -84.44 402.41 C-87.88 402.23 -91.28 402 -94.7 401.53 C-97.53 401.17 -100.16 400.84 -103 401 C-105.52 403.14 -105.52 403.14 -107 406 C-123.59 427.46 -123.59 427.46 -133 429 C-143.23 429.94 -143.23 429.94 -147.31 427.56 C-156.27 420.08 -158.66 408.58 -161.59 397.84 C-165.35 384.09 -170.91 377.74 -181.73 368.62 C-195.76 356.65 -203.47 341.13 -210.5 324.38 C-210.93 323.34 -211.37 322.31 -211.81 321.25 C-215.66 311.86 -215.66 311.86 -216 307 C-214.91 305.3 -214.91 305.3 -213.21 303.96 C-212.6 303.47 -211.99 302.97 -211.36 302.45 C-210.7 301.95 -210.05 301.45 -209.38 300.94 C-208.11 299.93 -206.85 298.92 -205.59 297.9 C-204.97 297.42 -204.36 296.94 -203.73 296.44 C-202.1 295.08 -200.63 293.66 -199.16 292.13 C-197 290 -197 290 -195 290 C-194.78 289.48 -194.57 288.95 -194.35 288.41 C-192.46 285.03 -189.98 282.29 -187.44 279.38 C-186.9 278.76 -186.37 278.14 -185.82 277.5 C-182.6 273.8 -179.35 270.14 -176.06 266.5 C-175.35 265.71 -174.64 264.92 -173.91 264.11 C-172.74 262.82 -171.55 261.54 -170.34 260.3 C-168.01 257.83 -166.67 255.87 -166.44 252.5 C-166.68 249.11 -168.05 247.08 -170.03 244.39 C-171.59 242.16 -172 240.73 -172 238 C-171.08 235.94 -170.02 233.98 -168.94 231.99 C-167.6 229.15 -167.43 227.08 -168 224 C-171.59 220.11 -176.6 219.98 -181.56 219.19 C-191.4 217.48 -200.7 214.85 -210.14 211.6 C-216.87 209.43 -223.82 208.62 -230.38 211.75 C-233.43 213.39 -235.62 215.5 -238 218 C-237.13 217.93 -236.26 217.86 -235.36 217.78 C-213.47 216.04 -213.47 216.04 -207 219 C-207.42 221.95 -207.91 223.86 -209.56 226.38 C-211.37 229.68 -211.98 232.38 -211 236 C-209.58 238.02 -209.58 238.02 -207.88 240.06 C-206.21 242.09 -206.21 242.09 -205 244 C-205.5 247.12 -205.5 247.12 -207 250 C-208.99 254.81 -209.92 259.05 -208 264 C-204.48 267.84 -199.94 269.68 -195 271 C-194.62 275.32 -195.43 277.26 -198.12 280.62 C-208.28 292.62 -222.98 303.31 -239 305 C-250.47 305.94 -259.4 304.36 -268.38 296.88 C-276.18 289.31 -279.89 279.8 -280.25 269 C-279.73 254.46 -272.23 243.56 -263 233 C-262.82 232.76 -262.82 232.76 -261.88 231.57 C-258.5 227.25 -254.57 224.04 -250.19 220.75 C-249.45 220.19 -248.72 219.63 -247.96 219.06 C-227.79 204 -227.79 204 -223 204 C-222.93 202.98 -222.86 201.95 -222.79 200.9 C-218.7 141.69 -213.1 75.45 -169 31 C-167.24 29.73 -167.24 29.73 -166 29 C-165.59 29.6 -165.18 30.21 -164.75 30.83 C-159.9 37.54 -155.2 41.37 -147 43 C-133.37 44.24 -121.68 40.88 -111 32 C-105.32 26.57 -100.93 20.92 -100.71 12.82 C-100.73 11.4 -100.76 9.98 -100.81 8.56 C-100.83 7.83 -100.84 7.1 -100.85 6.35 C-100.89 4.56 -100.94 2.78 -101 1 C-90.15 -2.49 -79.3 -4.55 -68 -6 C-67.4 -6.08 -66.8 -6.16 -66.17 -6.24 C-45.2 -8.81 -19.87 -7.46 0 0 Z " fill="#AF7DBA" transform="translate(331,243)"/>
<path d="M0 0 C10.12 3.42 16.12 12.13 20.96 21.12 C25.61 31.02 28.55 40.97 29.65 51.88 C29.72 52.52 29.79 53.16 29.86 53.82 C30.2 57.03 30.5 60.24 30.7 63.47 C31.14 68.51 31.62 72.36 35.26 76.12 C37.96 78.21 40.9 79.88 43.84 81.62 C75.35 105.85 91.01 150.37 99.84 187.62 C100.55 187.28 101.26 186.95 102 186.6 C102.47 186.37 102.47 186.37 104.9 185.25 C105.84 184.81 106.78 184.36 107.75 183.91 C116.62 180.21 126.5 178.64 135.86 181.57 C140.63 183.84 144.52 186.51 147.84 190.62 C148.33 191.16 148.82 191.7 149.32 192.26 C158.04 202.58 158.91 215.4 158.07 228.34 C157.14 237.29 153.71 245.57 149.84 253.62 C149.19 255.1 148.54 256.58 147.9 258.06 C145.71 263 143.29 267.81 140.84 272.62 C140.18 272.62 139.52 272.62 138.84 272.62 C138.74 273.32 138.65 274.02 138.55 274.73 C137.7 278.15 136.19 280.85 134.34 283.81 C133.98 284.38 133.63 284.95 133.26 285.54 C130.32 290.14 126.88 294.04 123.14 298.02 C120.54 300.96 118.26 304.02 116.02 307.25 C115.66 307.76 115.3 308.27 114.93 308.8 C110.21 315.74 107.32 322.36 105.84 330.62 C105.67 331.48 105.5 332.35 105.33 333.24 C104.45 337.88 103.69 342.53 103.05 347.21 C101.37 359.05 98.71 370.13 94.9 381.43 C94.69 382.06 94.48 382.69 94.26 383.34 C91.83 390.52 89.14 397.47 85.89 404.32 C82.9 410.85 82.9 410.85 83.84 414.62 C86.08 418.16 88.7 421.17 91.55 424.23 C92.78 425.56 93.96 426.92 95.12 428.3 C102.91 437.35 110.77 443.14 121.84 447.62 C122.58 447.95 123.33 448.29 124.1 448.63 C140.04 454.39 158.85 453.3 174.13 446.31 C192.62 437.41 204.43 421.79 211.45 402.79 C218.91 381.2 220.36 354.9 210.84 333.62 C209.77 333.91 208.71 334.2 207.62 334.5 C206.19 334.87 204.76 335.25 203.34 335.62 C202.64 335.81 201.94 336 201.23 336.2 C196.51 337.42 191.71 338.4 186.84 337.62 C183.19 335.33 181.58 332.6 180.25 328.52 C179.39 324.6 179.64 320.6 179.71 316.61 C179.71 316.13 179.71 316.13 179.73 313.7 C179.77 309.61 179.82 305.51 179.88 301.42 C180.13 280.43 180.13 280.43 178.27 271.97 C177.4 267.23 177.51 262.26 179.71 257.89 C181.47 255.71 183.01 254.81 185.75 254.19 C202.95 253.16 223.8 266.95 236.19 277.81 C243.58 284.46 248.81 290.34 249.52 300.62 C249.35 306.26 247.7 309.08 243.76 313 C241.84 314.62 239.87 316.14 237.84 317.62 C238.43 320.97 239.26 323.96 240.54 327.11 C240.88 327.95 241.22 328.8 241.57 329.67 C241.92 330.56 242.28 331.45 242.65 332.37 C248.01 346.08 251.94 360.19 252.04 375 C252.04 375.68 252.05 376.37 252.06 377.08 C252.07 378.53 252.07 379.98 252.08 381.42 C252.09 383.59 252.12 385.75 252.15 387.91 C252.24 400.44 250.49 412.31 246.15 424.12 C245.89 424.82 245.64 425.52 245.38 426.24 C239.26 442.54 229.73 455.99 217.84 468.62 C217.24 469.3 216.63 469.97 216.02 470.67 C200.13 487.83 174.48 498.62 151.3 499.74 C131.1 500.33 111.86 498.66 92.84 491.62 C91.82 491.25 90.8 490.88 89.75 490.5 C76.2 485.23 64.22 477.55 52.84 468.62 C50.52 466.93 48.18 465.27 45.84 463.62 C45.68 464.63 45.52 465.63 45.36 466.66 C43.14 479.93 40.52 493.28 29.19 501.87 C23.99 505.44 20.13 506.34 13.88 506.26 C13.01 506.27 12.15 506.28 11.25 506.29 C8.37 506.31 5.48 506.3 2.59 506.28 C0.52 506.29 -1.56 506.3 -3.64 506.32 C-9.26 506.34 -14.89 506.34 -20.52 506.33 C-24.04 506.32 -27.56 506.32 -31.07 506.33 C-31.66 506.33 -32.24 506.33 -32.85 506.33 C-34.04 506.33 -35.22 506.34 -36.41 506.34 C-47.54 506.36 -58.67 506.35 -69.81 506.32 C-79.35 506.31 -88.88 506.32 -98.42 506.35 C-109.52 506.39 -120.61 506.4 -131.7 506.39 C-132.89 506.39 -134.07 506.39 -135.25 506.39 C-135.84 506.38 -136.42 506.38 -137.02 506.38 C-141.11 506.38 -145.21 506.39 -149.3 506.41 C-154.82 506.43 -160.33 506.42 -165.85 506.39 C-167.87 506.38 -169.89 506.39 -171.91 506.4 C-174.68 506.42 -177.44 506.4 -180.21 506.38 C-180.61 506.38 -180.61 506.38 -182.62 506.42 C-188.92 506.29 -192.59 503.85 -197.16 499.62 C-204.74 491.13 -208.49 478.76 -209.64 467.58 C-210.39 460.9 -211.29 456.67 -216.71 452.33 C-219.2 450.51 -221.73 448.76 -224.27 447.01 C-242.98 433.32 -255.12 410.26 -262.16 388.62 C-262.16 387.96 -262.16 387.3 -262.16 386.62 C-270.07 384.64 -278 383.75 -286.11 382.94 C-297.59 381.65 -308.52 378.57 -316.04 369.32 C-325.58 355.49 -328.01 340.72 -325.69 324.23 C-322.94 311.57 -316.12 301.52 -308.16 291.62 C-307.63 290.94 -307.09 290.26 -306.54 289.56 C-301.1 282.92 -294.4 277.74 -287.66 272.5 C-287.14 272.09 -286.62 271.68 -286.08 271.26 C-285.56 270.86 -285.04 270.46 -284.51 270.05 C-283.98 269.64 -283.45 269.22 -282.91 268.8 C-281.16 267.62 -281.16 267.62 -279.04 266.76 C-276.49 265.64 -275 264.74 -273.16 262.62 C-271.98 258.16 -271.74 253.78 -271.57 249.17 C-271.41 245.22 -271.13 241.28 -270.86 237.33 C-270.81 236.52 -270.76 235.71 -270.7 234.88 C-270.16 226.69 -269.11 218.6 -267.85 210.5 C-267.75 209.81 -267.64 209.13 -267.53 208.43 C-260.97 166.68 -248.75 120.68 -216.48 91.25 C-208.47 83.33 -205.85 72.67 -204.79 61.85 C-202.79 41.99 -197.51 17.78 -181.48 4.18 C-177.03 1.18 -172.38 0.73 -167.16 1.62 C-161.97 4.32 -159.78 7.91 -157.9 13.27 C-156.52 17.69 -155.45 22.19 -154.35 26.68 C-152.24 35.08 -149.72 43.02 -146.27 50.95 C-145.16 53.62 -145.16 53.62 -145.16 55.62 C-144.76 55.54 -144.76 55.54 -142.74 55.1 C-139.69 54.45 -136.65 53.81 -133.6 53.17 C-132.29 52.89 -130.99 52.61 -129.69 52.34 C-114.7 49.13 -100.26 47.25 -84.91 47.37 C-84.2 47.37 -83.48 47.38 -82.74 47.38 C-67.6 47.46 -52.97 48.18 -38.32 52.3 C-34.81 53.29 -31.8 53.7 -28.16 53.62 C-23.71 44.93 -21.3 36.25 -19.04 26.81 C-18.54 24.73 -18.03 22.66 -17.52 20.58 C-17.2 19.3 -16.9 18.03 -16.6 16.75 C-15.29 11.43 -13.59 6.24 -9.1 2.81 C-8.85 2.61 -8.85 2.61 -7.57 1.6 C-4.9 -0.26 -3.22 -0.64 0 0 Z M-137.16 67.62 C-137.14 68.14 -137.14 68.14 -136.99 70.77 C-136.57 81.51 -137.84 88.94 -145.1 97.31 C-154.21 105.77 -167.44 110.27 -179.61 109.94 C-186.61 109.49 -193.2 106.59 -198.16 101.62 C-199.62 99.67 -200.89 97.7 -202.16 95.62 C-212.4 103.35 -219.91 113.9 -226.2 124.94 C-226.84 126.05 -227.48 127.15 -228.14 128.25 C-251.07 166.67 -254.77 214.17 -258.46 257.73 C-258.54 258.57 -258.61 259.41 -258.68 260.28 C-258.75 261.06 -258.81 261.83 -258.88 262.64 C-258.93 263.31 -258.99 263.99 -259.05 264.68 C-259.17 266.67 -259.18 268.63 -259.16 270.62 C-259.83 270.86 -260.5 271.09 -261.19 271.34 C-264.95 272.96 -268.32 275.01 -271.79 277.18 C-272.14 277.4 -272.14 277.4 -273.93 278.52 C-280.1 282.46 -285.64 286.83 -291.16 291.62 C-291.83 292.15 -292.49 292.69 -293.18 293.23 C-297.66 296.85 -300.87 300.92 -304.16 305.62 C-304.75 306.42 -305.34 307.22 -305.95 308.04 C-311.31 315.39 -315.49 322.42 -316.16 331.62 C-316.22 332.21 -316.27 332.8 -316.32 333.41 C-316.88 344.69 -312.84 354.35 -305.38 362.59 C-298.65 369.11 -290.97 371.79 -281.66 372.06 C-263.16 371.36 -247.37 361.6 -235.02 348.31 C-231.99 344.56 -230.87 342.56 -231.16 337.62 C-231.77 337.37 -232.37 337.11 -232.99 336.85 C-242.24 332.87 -242.24 332.87 -244.16 330.62 C-246.05 324.3 -244.67 319.51 -241.66 313.75 C-241.16 310.62 -241.16 310.62 -242.38 308.71 C-243.49 307.35 -244.62 305.99 -245.74 304.63 C-247.19 302.58 -247.68 301.53 -247.79 299.06 C-247.13 295.44 -246.06 293.21 -244.04 290.2 C-243.16 288.62 -243.16 288.62 -243.16 285.62 C-252.46 281.37 -264.18 283.79 -274.16 284.62 C-267.81 278.8 -263.66 276.36 -254.93 276.42 C-250.39 276.75 -246.28 278.07 -241.98 279.5 C-240.27 280.04 -238.57 280.57 -236.87 281.11 C-236.47 281.24 -236.47 281.24 -234.42 281.9 C-227.73 284.04 -221.17 285.37 -214.22 286.39 C-210.18 287.04 -207.11 287.56 -204.16 290.62 C-203.41 294.69 -204.32 297.16 -206.23 300.68 C-207.57 303.21 -208.16 304.34 -208.16 307.25 C-207.29 309.33 -206.42 310.7 -205.1 312.5 C-203.27 315.16 -202.37 317.45 -202.6 320.79 C-203.86 324.87 -207.24 327.65 -210.16 330.62 C-211.97 332.55 -213.76 334.49 -215.54 336.43 C-215.77 336.69 -215.77 336.69 -216.95 337.97 C-229.52 351.68 -229.52 351.68 -231.16 356.62 C-232.48 357.32 -233.82 357.98 -235.16 358.62 C-236.73 360.07 -236.73 360.07 -238.29 361.75 C-242.56 366.16 -247.32 369.87 -252.16 373.62 C-250.91 380.81 -248.49 387.16 -245.54 393.81 C-245.09 394.82 -244.65 395.83 -244.19 396.87 C-236.74 413.49 -228.26 426.85 -214.16 438.62 C-212.72 439.85 -211.28 441.07 -209.85 442.31 C-209.24 442.83 -208.62 443.35 -207.99 443.88 C-203.47 448.19 -201.38 452.06 -199.73 457.93 C-199.52 458.63 -199.31 459.32 -199.1 460.04 C-198.22 462.95 -197.38 465.86 -196.55 468.78 C-190.46 490.18 -190.46 490.18 -181.99 495.04 C-176.21 496.89 -169.25 496.5 -163.83 493.71 C-158.12 489.98 -153.51 485.05 -148.91 480.06 C-148.5 479.61 -148.09 479.17 -147.66 478.71 C-145.55 476.36 -143.8 474.06 -142.18 471.34 C-140.16 468.62 -140.16 468.62 -137.83 467.93 C-135.24 467.63 -133.04 467.66 -130.45 467.93 C-129.55 468.01 -128.65 468.1 -127.72 468.19 C-127.23 468.24 -127.23 468.24 -124.79 468.5 C-116.61 469.27 -108.44 469.89 -100.23 470.25 C-99.79 470.27 -99.79 470.27 -97.58 470.37 C-83.1 470.95 -68.75 470.49 -54.29 469.62 C-48.89 469.3 -43.49 468.99 -38.09 468.73 C-36.39 468.63 -34.7 468.5 -33.01 468.37 C-27.15 468.03 -27.15 468.03 -24.49 469.62 C-22.96 471.02 -21.74 472.47 -20.48 474.12 C-20.02 474.67 -19.56 475.21 -19.09 475.78 C-17.76 477.37 -16.46 479 -15.16 480.62 C-3.17 494.76 -3.17 494.76 6.84 496.62 C11.74 496.82 16.43 496.18 20.43 493.1 C27.98 485.15 30.39 475.1 31.85 464.6 C33.85 450.48 38 443.98 48.54 434.6 C55.91 428.02 62.61 420.65 66.84 411.62 C66.84 410.63 66.84 409.64 66.84 408.62 C67.5 408.62 68.16 408.62 68.84 408.62 C79.57 387.08 89.15 362.08 88.9 337.68 C88.89 337.11 88.89 337.11 88.87 334.22 C88.86 333.36 88.85 332.5 88.84 331.62 C86.53 332.74 84.43 333.89 82.27 335.31 C81.47 335.74 80.66 336.17 79.84 336.62 C78.85 336.29 77.86 335.96 76.84 335.62 C78.09 325.3 89.77 316.57 96.84 309.61 C100.38 306.1 103.68 302.48 106.84 298.62 C107.22 298.15 107.61 297.68 108.01 297.2 C118.89 284 129.34 269.54 135.84 253.62 C136.32 252.49 136.81 251.35 137.3 250.22 C140.07 243.65 142.44 237.09 144.21 230.18 C144.38 229.55 144.55 228.91 144.72 228.25 C146.89 219.24 146.08 210.86 141.77 202.57 C138.36 197.32 134.41 194.48 128.33 193.02 C120.67 191.91 113.57 193.25 107.19 197.79 C106.02 199 106.02 199 104.84 201.62 C105.43 205.96 107.48 208.55 110.02 212.06 C112.07 215.02 113.31 216.86 112.84 220.5 C111.47 224.77 111.47 224.77 109.84 226.62 C106.81 226.3 105.28 226.12 103.21 223.8 C102.76 223.04 102.3 222.28 101.84 221.5 C101.34 220.69 100.84 219.88 100.33 219.05 C100.08 218.65 100.08 218.65 98.84 216.62 C97.89 215.26 96.93 213.9 95.96 212.56 C95.55 211.99 95.14 211.42 94.72 210.84 C94.43 210.44 94.14 210.03 93.84 209.62 C90.97 210.19 89.97 210.48 87.84 212.62 C87.5 214.23 87.5 214.23 87.38 216.16 C87.32 216.87 87.26 217.59 87.2 218.33 C87.17 218.72 87.17 218.72 87.02 220.68 C85.29 238.78 78.96 257.07 69.21 272.43 C68.85 273 68.49 273.57 68.12 274.16 C65.77 277.68 63.42 280.32 59.84 282.62 C58.85 282.29 57.86 281.96 56.84 281.62 C56.08 273.32 59.08 268.76 63.59 261.99 C64.18 261.09 64.78 260.18 65.4 259.25 C65.96 258.43 66.51 257.62 67.09 256.79 C72.35 247.96 73.9 237.96 75.46 228 C76.23 223.2 77.02 218.41 77.84 213.62 C77.91 213.16 77.91 213.16 78.3 210.82 C79.37 205.09 79.37 205.09 81.63 202.82 C81.96 202.64 81.96 202.64 83.59 201.75 C85.37 200.42 85.37 200.42 86.84 198.62 C86.83 196.34 86.83 196.34 86.23 193.7 C86.02 192.71 85.81 191.73 85.59 190.72 C85.34 189.7 85.09 188.68 84.84 187.62 C84.6 186.64 84.37 185.66 84.13 184.64 C75.36 148.99 63.11 114.69 33.23 91.37 C31.84 90.62 31.84 90.62 28.84 90.62 C28.7 90.95 28.7 90.95 27.99 92.6 C24.77 99.62 21.43 104.67 14.16 107.76 C10.04 108.83 6.26 108.96 2.02 108.93 C1.22 108.93 0.42 108.92 -0.41 108.92 C-6.14 108.8 -11.01 108.28 -16.16 105.62 C-16.99 105.21 -17.82 104.79 -18.67 104.37 C-26.31 100.18 -32.26 94.79 -35.59 86.63 C-36.67 82.86 -36.47 79.08 -36.35 75.18 C-36.34 74.36 -36.32 73.53 -36.31 72.68 C-36.28 70.66 -36.23 68.64 -36.16 66.62 C-63.47 56.37 -110.38 54.23 -137.16 67.62 Z " fill="#3F3652" transform="translate(367.1640625,176.37890625)"/>
<path d="M0 0 C1.16 2.83 1.05 3.87 -0.11 6.77 C-0.65 7.77 -1.19 8.78 -1.75 9.81 C-3.45 13 -5.09 16.13 -6.48 19.47 C-11.02 30.28 -17.73 39.86 -25 49 C-25.34 49.44 -25.34 49.44 -27.08 51.66 C-34.66 61.19 -43.04 70.1 -51.68 78.66 C-54.25 81.22 -56.71 83.81 -59 86.62 C-59.6 87.34 -60.2 88.05 -60.81 88.79 C-62 91 -62 91 -61.69 93.77 C-61.46 94.51 -61.23 95.24 -61 96 C-57.14 94.88 -54.7 93.98 -52 91 C-51.34 91 -50.68 91 -50 91 C-49.02 105.96 -52.7 120.75 -57 135 C-57.3 136.03 -57.59 137.06 -57.9 138.12 C-60.96 148.52 -64.95 158.41 -70 168 C-70.66 168 -71.32 168 -72 168 C-72.09 168.7 -72.18 169.4 -72.27 170.12 C-73.15 173.57 -74.73 176.13 -76.75 179 C-77.14 179.56 -77.53 180.11 -77.93 180.69 C-83.31 188.14 -90.03 195.51 -97.58 200.81 C-104.32 206.91 -105.85 214.64 -107 223.31 C-110.36 245.14 -110.36 245.14 -119 252 C-119.29 252.29 -119.29 252.29 -120.75 253.75 C-125.24 256.24 -129.68 256.42 -134.68 255.52 C-146.13 252.08 -152.96 242.35 -160.09 233.35 C-164.35 228.12 -164.35 228.12 -166.84 227.67 C-167.21 227.68 -167.21 227.68 -169.05 227.75 C-169.5 227.76 -169.5 227.76 -171.75 227.83 C-172.82 227.89 -173.89 227.94 -175 228 C-175.64 228.03 -176.28 228.06 -176.94 228.1 C-183.14 228.4 -189.34 228.77 -195.53 229.15 C-212.04 230.13 -228.27 230.12 -244.78 229.2 C-247.26 229.06 -249.74 228.93 -252.22 228.8 C-253.03 228.75 -253.84 228.71 -254.67 228.67 C-256.26 228.58 -257.85 228.5 -259.44 228.41 C-262.88 228.23 -266.28 228 -269.7 227.53 C-272.53 227.17 -275.16 226.84 -278 227 C-280.52 229.14 -280.52 229.14 -282 232 C-298.59 253.46 -298.59 253.46 -308 255 C-318.23 255.94 -318.23 255.94 -322.31 253.56 C-331.27 246.08 -333.66 234.58 -336.59 223.84 C-340.35 210.09 -345.91 203.74 -356.73 194.62 C-370.76 182.65 -378.47 167.13 -385.5 150.38 C-385.93 149.34 -386.37 148.31 -386.81 147.25 C-390.65 137.87 -390.65 137.87 -391 133 C-389.92 131.3 -389.92 131.3 -388.25 129.96 C-387.64 129.47 -387.03 128.97 -386.4 128.45 C-385.76 127.95 -385.11 127.45 -384.44 126.94 C-383.82 126.43 -383.19 125.93 -382.55 125.41 C-381.32 124.41 -380.07 123.42 -378.82 122.44 C-376.17 120.35 -373.59 118.17 -371 116 C-371.33 116.74 -371.66 117.49 -372 118.25 C-372.97 120.9 -373.08 122.25 -373 125 C-373.23 126.04 -373.47 127.08 -373.71 128.16 C-374.37 132.69 -372.76 135.7 -370.62 139.62 C-370.44 139.97 -370.44 139.97 -369.52 141.73 C-356.15 166.6 -335.14 186.46 -308.22 195.87 C-306.44 196.5 -304.66 197.15 -302.92 197.91 C-295.53 201.11 -288 202.67 -280.12 204.12 C-279.44 204.25 -278.75 204.38 -278.04 204.52 C-227.81 213.88 -170.1 212.46 -126.48 182.67 C-123.55 180.57 -120.77 178.32 -118 176 C-117.13 175.27 -116.26 174.54 -115.37 173.79 C-96.85 157.65 -83.98 136.51 -75.08 113.73 C-74.34 111.87 -73.55 110.02 -72.7 108.2 C-69.96 102.22 -68.49 96.85 -67.5 90.38 C-65.12 75.24 -57.23 66.02 -45.37 56.59 C-29.78 44.07 -18.91 28.43 -8.94 11.27 C-3.59 2.17 -3.59 2.17 0 0 Z " fill="#9E63A5" transform="translate(506,417)"/>
<path d="M0 0 C5.23 0.53 9.24 1.74 13.94 4.06 C14.53 4.34 15.11 4.63 15.72 4.92 C17.15 5.6 18.58 6.3 20 7 C20 7.66 20 8.32 20 9 C20.72 9.1 21.43 9.2 22.17 9.31 C31.51 11.59 42.48 20.56 47.56 28.62 C49.16 31.77 49.34 34.47 49 38 C43.03 39.83 37.07 41.54 31 43 C30.19 45.74 29.61 47.96 30.65 50.71 C31.71 52.6 32.83 54.42 34 56.25 C50.65 84.15 54.15 114.34 46.83 145.71 C46.69 146.25 46.69 146.25 46 149 C45.87 149.53 45.87 149.53 45.2 152.23 C41.56 165.42 34.97 176.73 26 187 C25.74 187.33 25.74 187.33 24.43 189 C11.53 205.05 -8.29 215.2 -28 220 C-28.75 220.18 -29.5 220.37 -30.27 220.56 C-36.91 222.05 -43.33 222.35 -50.12 222.31 C-51.22 222.31 -52.32 222.3 -53.45 222.3 C-62.26 222.17 -70.51 221.33 -79 219 C-79.31 218.92 -79.31 218.92 -80.86 218.5 C-102.42 212.45 -122.5 200.15 -138 184 C-136.35 179.66 -133.1 177 -129.81 173.88 C-124.42 168.64 -119.98 163.4 -116 157 C-113.03 158.31 -111.22 159.6 -109.19 162.12 C-108.68 162.74 -108.16 163.36 -107.64 164 C-107.1 164.66 -106.56 165.32 -106 166 C-92.94 181.41 -76.61 193.59 -56 196 C-44.23 196.87 -32.19 197.14 -21 193 C-20.04 192.67 -19.07 192.34 -18.08 192 C2.23 184.4 18.51 167.73 27.81 148.36 C29.35 144.96 30.72 141.5 32 138 C32.2 137.45 32.41 136.89 32.62 136.32 C35.43 128.56 37.13 121.4 37.24 113.12 C37.25 112.47 37.26 111.82 37.27 111.15 C37.52 89.69 36.91 68.17 24 50 C24 49.34 24 48.68 24 48 C17.7 48.82 14.44 51.12 9.9 55.45 C7.23 57.63 5.39 57.92 2 58 C-0.68 51.38 -1.41 45.67 -1.25 38.56 C-1.24 38.08 -1.24 38.08 -1.22 35.61 C-1.04 23.74 -0.54 11.86 0 0 Z " fill="#AA83B9" transform="translate(557,443)"/>
<path d="M0 0 C0.12 5.75 0.12 5.75 -1 8 C-2.85 8.63 -2.85 8.63 -5.06 9.12 C-5.8 9.29 -6.53 9.46 -7.29 9.63 C-7.85 9.75 -8.42 9.88 -9 10 C-8.99 10.55 -8.98 11.1 -8.97 11.66 C-8.72 26.87 -9.64 39.09 -16 53 C-16.66 53 -17.32 53 -18 53 C-18.12 53.28 -18.12 53.28 -18.72 54.69 C-23.52 63.35 -31.84 68.89 -41 72 C-41.92 72.32 -42.85 72.63 -43.8 72.96 C-59.06 77.46 -71.62 74.98 -86 69 C-86 68.34 -86 67.68 -86 67 C-86.74 66.75 -87.47 66.49 -88.23 66.23 C-96.1 62.73 -100.36 55.79 -104 48.38 C-106.82 42.63 -109.46 39.17 -114.88 35.55 C-118.87 32.62 -121.8 28.41 -124 24 C-124.07 21.78 -124.09 19.59 -124.06 17.38 C-124.06 16.76 -124.05 16.15 -124.05 15.52 C-124.04 14.02 -124.02 12.51 -124 11 C-122.68 10.67 -121.36 10.34 -120 10 C-119.04 10.96 -118.11 11.95 -117.19 12.94 C-116.67 13.48 -116.14 14.03 -115.61 14.59 C-114.02 16.97 -113.27 18.94 -112.4 21.65 C-112.14 22.46 -111.87 23.28 -111.6 24.12 C-111.4 24.74 -111.2 25.36 -111 26 C-110.53 25.83 -110.05 25.66 -109.56 25.49 C-13.34 -8.55 -13.34 -8.55 0 0 Z " fill="#403753" transform="translate(394,352)"/>
<path d="M0 0 C6.8 -0.35 12.68 0.6 19.22 2.39 C20.21 2.65 21.19 2.91 22.2 3.18 C35.46 6.83 48.44 11.36 61.44 15.81 C65.88 17.33 70.32 18.85 74.76 20.35 C76.51 20.94 78.25 21.54 79.99 22.14 C85.71 24.08 90.98 25.54 97 26 C97.46 25.22 97.92 24.44 98.39 23.63 C99.01 22.61 99.63 21.58 100.25 20.56 C100.55 20.05 100.85 19.53 101.16 19 C102.64 16.58 103.54 15.18 106.23 14.15 C106.82 14.1 107.4 14.05 108 14 C110.3 16.45 110.23 18.85 110.18 22.1 C109.89 25.14 108.8 27.82 107.59 30.59 C107.35 31.18 107.11 31.77 106.85 32.38 C106.08 34.23 105.29 36.09 104.5 37.94 C103.97 39.21 103.44 40.47 102.91 41.74 C101.62 44.84 100.31 47.92 99 51 C99.94 50.68 100.88 50.35 101.84 50.02 C108.23 47.96 114.5 48.19 120.53 51.2 C121.01 51.46 121.5 51.73 122 52 C122.8 52.39 123.61 52.78 124.44 53.19 C124.95 53.46 125.47 53.72 126 54 C126 54.66 126 55.32 126 56 C125.47 55.92 125.47 55.92 122.81 55.5 C105.6 53.45 105.6 53.45 98.4 57.72 C97 59 97 59 95.88 62.06 C96.01 65.14 96.32 65.63 98 68 C98.12 71.19 98.12 71.19 98 74 C93.65 73.52 91.81 71.12 89 68 C88.67 67.34 88.34 66.68 88 66 C83.93 67.3 80.05 68.79 76.12 70.5 C65.68 74.85 54.95 77.34 44 73 C43.33 72.74 42.65 72.49 41.96 72.22 C28.75 66.78 18.99 59.28 13.12 46 C8.84 34.6 8.74 24.03 9 12 C8.07 11.71 7.14 11.42 6.19 11.12 C1.46 9.46 1.46 9.46 0 8 C-0.4 5.32 -0.13 2.7 0 0 Z " fill="#403753" transform="translate(147,352)"/>
<path d="M0 0 C1.96 3.91 -1.02 9.53 -2.35 13.55 C-6.3 24.65 -12.28 34.16 -20 43 C-20.52 43.66 -21.03 44.32 -21.57 45 C-34.47 61.05 -54.29 71.2 -74 76 C-74.75 76.18 -75.5 76.37 -76.27 76.56 C-82.91 78.05 -89.33 78.35 -96.12 78.31 C-97.22 78.31 -98.32 78.3 -99.45 78.3 C-108.26 78.17 -116.51 77.33 -125 75 C-125.31 74.92 -125.31 74.92 -126.86 74.5 C-148.42 68.45 -168.5 56.15 -184 40 C-182.35 35.66 -179.1 33 -175.81 29.88 C-170.42 24.64 -165.98 19.4 -162 13 C-159.03 14.31 -157.22 15.6 -155.19 18.12 C-154.68 18.74 -154.16 19.36 -153.64 20 C-153.1 20.66 -152.56 21.32 -152 22 C-144.55 30.85 -136.45 38.77 -126 44 C-129.71 47.91 -129.71 47.91 -131 49 C-131.66 49 -132.32 49 -133 49 C-131.63 51.74 -129.75 51.98 -127.02 53.08 C-124.88 54.05 -123.02 55.21 -121.06 56.5 C-113.97 61.02 -107.36 62.63 -99 63 C-97.86 63.05 -96.73 63.11 -95.55 63.16 C-71.9 63.9 -48.52 55.12 -31.12 39.06 C-29.05 37.08 -27.02 35.05 -25 33 C-24.21 32.21 -23.42 31.42 -22.61 30.61 C-13.89 21.4 -6.98 10.55 0 0 Z " fill="#9D62A4" transform="translate(603,587)"/>
<path d="M0 0 C3 1 3 1 4.03 2.58 C6.12 7.72 7.35 12.59 8.3 18.04 C10.06 28.09 12.94 36.15 17.9 45.03 C28.92 64.82 28.92 64.82 28 72 C26.33 77.09 23.5 80.25 19 83 C11.13 86.7 4.28 89.18 -4.44 89.19 C-5.2 89.2 -5.97 89.21 -6.75 89.22 C-14.07 89.24 -14.07 89.24 -17 87 C-18.23 85.23 -18.23 85.23 -19.19 83.19 C-19.35 82.85 -19.35 82.85 -20.17 81.17 C-22.64 74.73 -22.24 67.92 -22.25 61.12 C-22.25 60.52 -22.25 59.91 -22.25 59.29 C-22.24 49.87 -21.61 41.08 -19 32 C-18.74 30.99 -18.49 29.97 -18.23 28.93 C-15.11 17.99 -8.59 7.49 0 0 Z " fill="#AE7DB9" transform="translate(194,187)"/>
<path d="M0 0 C8.97 3.76 13.8 14.49 17.46 22.97 C20.05 29.43 21.63 36.19 23 43 C23.19 43.9 23.39 44.8 23.59 45.73 C24.22 50.75 24.23 55.75 24.25 60.81 C24.27 61.85 24.29 62.9 24.31 63.97 C24.35 71.44 23.85 78.95 18.81 84.88 C13.13 89.73 6.44 90.61 -0.84 90.42 C-6.36 89.69 -11.08 87.53 -16 85 C-16.64 84.68 -17.28 84.36 -17.95 84.02 C-22.05 81.65 -24.41 78.38 -26 74 C-27.81 65.1 -22.81 57.24 -18.34 49.95 C-13.7 42.36 -10.43 35.71 -8.46 26.97 C-7.73 23.82 -6.91 20.68 -6.1 17.55 C-5.67 15.89 -5.25 14.23 -4.84 12.57 C-3.68 8.03 -2.27 4.11 0 0 Z " fill="#AE7CB9" transform="translate(365,186)"/>
<path d="M0 0 C6.12 -0.11 12.18 -0.02 18.29 0.35 C28.8 1 39.29 1.15 49.82 1.13 C52.56 1.12 55.31 1.13 58.06 1.14 C70.58 1.14 83.15 0.98 95.61 -0.38 C100.15 -0.85 102.81 -0.93 106.48 1.95 C108.85 4.55 110.91 7.17 113 10 C116.88 14.73 120.56 18.75 125.71 22.09 C126.14 22.39 126.56 22.69 127 23 C127 23.33 127 23.66 127 24 C77.83 24 28.66 24 -22 24 C-17 20 -17 20 -14.79 18.43 C-8.21 13.7 -2.61 7.83 0 0 Z " fill="#303031" transform="translate(232,658)"/>
<path d="M0 0 C3.12 11.14 -0.01 22.33 -5.32 32.24 C-10.91 41.44 -19.97 46.13 -29.91 49.68 C-42.26 51.56 -55.01 50.63 -65.64 43.83 C-72.02 38.89 -76.7 32.06 -78 24 C-77.67 23.01 -77.34 22.02 -77 21 C-74.26 21.35 -73.25 21.69 -71.51 23.89 C-71.05 24.67 -70.6 25.45 -70.12 26.25 C-65.08 34.12 -65.08 34.12 -61 36 C-56.29 36.86 -51.78 36.89 -47.62 34.31 C-39.94 27.54 -37.8 21.16 -37.11 11.16 C-37.08 10.45 -37.04 9.73 -37 9 C-30.48 5.93 -23.77 4.02 -16.81 2.25 C-15.96 2.03 -15.1 1.8 -14.22 1.58 C-9.34 0.37 -5.03 -0.24 0 0 Z " fill="#DDDDDF" transform="translate(375,366)"/>
<path d="M0 0 C5.23 0.53 9.24 1.74 13.94 4.06 C14.23 4.2 14.23 4.2 15.72 4.92 C17.15 5.6 18.58 6.3 20 7 C20 7.66 20 8.32 20 9 C20.72 9.1 21.43 9.2 22.17 9.31 C31.51 11.59 42.48 20.56 47.56 28.62 C49.16 31.77 49.34 34.47 49 38 C47.5 38.46 46 38.92 44.5 39.38 C43.59 39.65 42.68 39.93 41.75 40.21 C38.75 41.07 35.75 41.72 32.69 42.28 C31 43 31 43 29.63 44.98 C27.42 47.71 25.73 47.74 22.31 48.31 C16.66 49.53 13.8 51.46 9.76 55.48 C7.2 57.69 5.32 57.92 2 58 C-0.68 51.38 -1.41 45.67 -1.25 38.56 C-1.24 38.08 -1.24 38.08 -1.22 35.61 C-1.04 23.74 -0.54 11.86 0 0 Z " fill="#AE89B9" transform="translate(557,443)"/>
<path d="M0 0 C3.32 1.13 5.73 2.28 8 5 C8.88 8.01 9.26 10.88 9.59 13.99 C10.35 19.56 12.46 23.57 16.56 27.38 C17.37 27.91 18.17 28.45 19 29 C19.45 29.36 19.89 29.71 20.36 30.08 C23.88 32.05 28.11 31.45 32 31 C37.31 29.49 39.82 26.03 43 21.69 C46.46 17.15 46.46 17.15 48.82 16.5 C50.7 16.77 52.23 17.28 54 18 C55.31 18.36 56.62 18.72 57.94 19.06 C58.95 19.37 59.96 19.68 61 20 C58.71 29.16 51.98 36.27 44.09 41.19 C34.81 46.2 23.58 47.88 13.38 44.88 C2.84 40.83 -5.58 33.3 -10.22 22.98 C-13.36 15 -13.21 7.45 -13 -1 C-9.01 -2.99 -4.13 -1.09 0 0 Z " fill="#DDDCDE" transform="translate(179,371)"/>
<path d="M0 0 C0.66 0.18 1.31 0.35 1.99 0.54 C12.6 3.51 22.55 7.56 30 16 C29.67 16.99 29.34 17.98 29 19 C23.28 19.37 19.77 18.33 14.69 15.81 C-12.64 3.14 -42.35 4.02 -71.25 10.81 C-72.27 11.05 -73.29 11.28 -74.35 11.53 C-82.94 13.67 -90.18 17.3 -97.75 21.81 C-101.44 23.91 -103.8 24.54 -108 24 C-108.68 22.24 -108.68 22.24 -109 20 C-102.77 9.17 -86.96 5.28 -75.75 2.25 C-72.51 1.44 -69.26 0.7 -66 0 C-65.62 -0.08 -65.62 -0.08 -63.67 -0.5 C-43.48 -4.63 -20.03 -5.41 0 0 Z " fill="#432D57" transform="translate(311,452)"/>
<path d="M0 0 C1.36 2.5 2.41 5.04 3.37 7.71 C3.61 8.4 3.86 9.09 4.11 9.79 C4.62 11.22 5.12 12.64 5.61 14.07 C7.2 18.45 8.99 21.47 12 25 C12 25.66 12 26.32 12 27 C13.32 27.69 14.66 28.35 16 29 C16.49 29.25 16.98 29.5 17.49 29.76 C22.07 31.93 25.96 32.51 31 32.44 C31.37 32.43 31.37 32.43 33.22 32.42 C43.63 32.13 54.07 29.43 63 24 C63.91 23.46 64.81 22.92 65.75 22.37 C73.91 17.36 73.91 17.36 76.88 14 C77.23 13.67 77.23 13.67 79 12 C81.81 12.19 81.81 12.19 84 13 C84.38 17.32 83.57 19.26 80.88 22.62 C70.72 34.62 56.02 45.31 40 47 C28.53 47.94 19.6 46.36 10.62 38.88 C2.8 31.3 -0.98 21.72 -1.19 10.88 C-1.09 7.19 -0.6 3.63 0 0 Z " fill="#9C62A4" transform="translate(52,501)"/>
<path d="M0 0 C10.31 -1.06 10.31 -1.06 15 0 C17.26 1.96 18.16 3.76 19.48 6.44 C21.33 9.56 23.74 11.34 26.62 13.44 C31.96 17.43 34.32 21.58 36 28 C33.4 28.67 30.79 29.34 28.19 30 C27.45 30.19 26.71 30.38 25.95 30.58 C25.24 30.76 24.53 30.94 23.79 31.12 C23.14 31.29 22.48 31.46 21.81 31.63 C20 32 20 32 17 32 C17 31.34 17 30.68 17 30 C16.11 29.71 15.23 29.42 14.31 29.12 C11 28 11 28 8.75 26.88 C2.75 24.96 -3.9 25.72 -10 27 C-7.59 17.64 -3.77 8.87 0 0 Z " fill="#9B61A3" transform="translate(256,376)"/>
<path d="M0 0 C4.61 1.51 6.67 4.03 9.25 8.06 C11.64 12.93 13.29 17.73 14.25 23.06 C14.46 24.2 14.66 25.33 14.88 26.5 C14.86 28.3 14.86 28.3 14.25 30.06 C12.18 31.91 10.03 33.24 7.63 34.64 C5.5 35.91 3.86 37.2 2.06 38.88 C-0.67 41.27 -3.1 41.8 -6.75 42.06 C-9.69 35.02 -10.15 28.76 -10 21.19 C-9.99 20.16 -9.99 19.12 -9.98 18.06 C-9.91 10.53 -9.91 10.53 -8.75 7.06 C-8.09 7.06 -7.43 7.06 -6.75 7.06 C-6.46 6.28 -6.17 5.5 -5.88 4.69 C-4.41 1.26 -3.83 0.09 0 0 Z " fill="#DCDCDE" transform="translate(565.75,458.9375)"/>
<path d="M0 0 C-0.21 8.75 -2.24 18.57 -8.56 25.06 C-9.37 25.7 -10.17 26.34 -11 27 C-11.58 27.58 -12.15 28.15 -12.75 28.75 C-17.4 31.33 -21.94 31.57 -27.03 30.16 C-29.73 29.18 -32.37 28.15 -35 27 C-35.18 24.73 -35.21 23.36 -34.07 21.36 C-27.37 13.58 -11.26 0 0 0 Z " fill="#AC7BB8" transform="translate(398,642)"/>
<path d="M0 0 C2.41 0.22 3.6 0.57 5.25 2.37 C5.42 2.65 5.42 2.65 6.29 4.09 C6.67 4.71 7.06 5.33 7.45 5.97 C7.65 6.29 7.65 6.29 8.62 7.94 C9.41 9.22 10.19 10.5 10.98 11.78 C11.32 12.35 11.66 12.92 12.01 13.5 C13 15 13 15 15 17 C16.32 17 17.64 17 19 17 C20.32 14.03 21.64 11.06 23 8 C27.72 11.77 27.72 11.77 28.44 14.9 C28.62 20.75 26.85 24.93 22.94 29.31 C20.09 31.79 17.82 32.54 14 32.46 C8.87 31.27 5.17 26.85 2.45 22.57 C1.6 21 0.78 19.42 0.01 17.82 C-1 16 -1 16 -3 15 C-3.33 15.99 -3.66 16.98 -4 18 C-4.2 12.27 -4.38 7.29 -2 2 C-1.34 1.34 -0.68 0.68 0 0 Z " fill="#9F6FAA" transform="translate(458,386)"/>
<path d="M0 0 C0.4 0.34 0.8 0.68 1.21 1.02 C0.88 2.34 0.55 3.66 0.21 5.02 C-1.26 4.92 -2.73 4.82 -4.2 4.72 C-5.48 4.63 -6.76 4.54 -8.04 4.46 C-10.92 4.26 -13.75 4.03 -16.6 3.63 C-23.11 2.73 -28.69 3.5 -35.04 4.91 C-39.4 5.86 -43.32 6.17 -47.79 6.02 C-48.12 5.03 -48.45 4.04 -48.79 3.02 C-37.85 -9.24 -12.72 -9.98 0 0 Z " fill="#9F63A6" transform="translate(300.78515625,473.9765625)"/>
<path d="M0 0 C2.21 1.1 4.07 2.48 6 4 C6.48 4.34 6.96 4.68 7.46 5.02 C12.38 8.69 15.97 13.7 19 19 C19 19.99 19 20.98 19 22 C14.03 23.66 8.21 24.01 3.16 22.42 C-2.89 18.88 -6.76 11.41 -9 5 C-9.12 2.19 -9.12 2.19 -9 0 C-5.96 -1.52 -3.17 -0.86 0 0 Z " fill="#A06FAB" transform="translate(182,649)"/>
<path d="M0 0 C0.76 -0.04 1.52 -0.07 2.3 -0.11 C7.85 -0.2 7.85 -0.2 10.35 1.51 C11.73 2.9 11.73 2.9 13.69 5.38 C10.44 11.53 6.22 14.63 -0.27 16.83 C-4.11 17.86 -7.34 18.35 -11.08 16.5 C-13.44 14.83 -14.99 13.42 -15.86 10.62 C-16.01 8.65 -15.93 7.26 -15.31 5.38 C-10.37 0.44 -6.61 0.12 0 0 Z " fill="#87B3C5" transform="translate(144.3125,489.625)"/>
<path d="M0 0 C-0.33 20.05 -3.38 40.86 -18 56 C-21.26 58.32 -24.07 58.18 -28 58 C-27.62 57.56 -27.25 57.13 -26.86 56.68 C-26.35 56.08 -25.84 55.49 -25.31 54.88 C-24.77 54.24 -24.22 53.61 -23.66 52.96 C-22.16 51.18 -20.7 49.38 -19.25 47.56 C-18.88 47.14 -18.88 47.14 -17 45 C-16.34 45 -15.68 45 -15 45 C-14.88 44.29 -14.75 43.57 -14.62 42.84 C-13.79 39.03 -12.36 35.54 -10.94 31.91 C-8.81 25.3 -8.74 18.45 -8.44 11.56 C-8.39 10.64 -8.35 9.72 -8.31 8.77 C-8.2 6.51 -8.1 4.26 -8 2 C-5.09 0.74 -3.2 0 0 0 Z " fill="#9D62A4" transform="translate(393,360)"/>
<path d="M0 0 C1.49 0.66 1.49 0.66 9 4 C9.03 5.11 9.05 6.23 9.08 7.38 C9.57 22.3 11.33 35.49 20 48 C21.01 49.66 22.01 51.33 23 53 C21.21 53.64 21.21 53.64 19 54 C12.62 50.85 9.39 44.37 7 38 C2.93 25.7 1.55 12.8 0 0 Z " fill="#9C62A3" transform="translate(147,360)"/>
<path d="M0 0 C8.06 5.68 10.4 13.57 12.47 22.96 C13.83 31.49 13.23 40.39 13 49 C11.02 49 9.04 49 7 49 C6.89 48.09 6.78 47.18 6.67 46.24 C4.79 30.78 2.7 15.34 0 0 Z " fill="#BF9ECC" transform="translate(370,204)"/>
<path d="M0 0 C4.1 0.63 7.37 1.6 10 5 C8.6 8.37 7.11 10.08 4 12 C-1.36 13.7 -8.78 14.57 -13.93 12.06 C-15.31 10.81 -15.31 10.81 -17 8 C-17 5.11 -16.5 3.7 -14.83 1.37 C-10.9 -1.58 -4.73 -0.33 0 0 Z " fill="#94A5BE" transform="translate(145,467)"/>
<path d="M0 0 C0.12 6.75 0.12 6.75 -1 9 C-10.37 9.18 -19.66 8.61 -29 8 C-29.18 5.64 -29.18 5.64 -29 3 C-27.79 1.67 -27.79 1.67 -26.19 0.75 C-25.67 0.44 -25.14 0.12 -24.61 -0.2 C-17.3 -3.83 -7.46 -2.78 0 0 Z " fill="#BE9ECB" transform="translate(272,408)"/>
<path d="M0 0 C0.17 1.15 0.17 1.15 1 7 C-0.08 7.2 -1.16 7.39 -2.27 7.59 C-6.27 8.33 -10.27 9.07 -14.27 9.83 C-16 10.15 -17.74 10.47 -19.47 10.78 C-21.96 11.24 -24.44 11.7 -26.93 12.18 C-27.71 12.31 -28.48 12.45 -29.28 12.59 C-29.64 12.66 -29.64 12.66 -31.47 13.02 C-32.1 13.13 -32.74 13.25 -33.39 13.37 C-35 14 -35 14 -37 17 C-37 14.36 -37 11.72 -37 9 C-30.48 5.93 -23.77 4.02 -16.81 2.25 C-15.96 2.03 -15.1 1.8 -14.22 1.58 C-9.34 0.37 -5.03 -0.24 0 0 Z " fill="#C7C5CC" transform="translate(375,366)"/>
<path d="M0 0 C0 0.66 0 1.32 0 2 C-3.29 2.65 -6.58 3.3 -9.88 3.94 C-10.79 4.12 -11.71 4.3 -12.66 4.49 C-26.22 7.12 -26.22 7.12 -31 7 C-33 5 -33 5 -33.12 2.38 C-33.08 1.59 -33.04 0.81 -33 0 C-7.87 -3.57 -7.87 -3.57 0 0 Z " fill="#BB9BC8" transform="translate(124,462)"/>
<path d="M0 0 C0.66 0 1.32 0 2 0 C2.1 8.66 2.09 17.29 1.56 25.94 C1.52 26.62 1.48 27.3 1.44 28 C1.13 32.75 1.13 32.75 0 35 C-0.66 35 -1.32 35 -2 35 C-6.39 27.5 -6.04 18.25 -4.39 9.91 C-2.36 2.84 -2.36 2.84 0 0 Z " fill="#BE9DCB" transform="translate(182,219)"/>
<path d="M0 0 C2 2 2 2 2 5 C-2.21 8.77 -8.28 11.77 -14 12 C-14.66 11.34 -15.32 10.68 -16 10 C-15.94 7.62 -15.94 7.62 -15 5 C-10.16 0.41 -6.41 -0.35 0 0 Z " fill="#BF9ECB" transform="translate(116,519)"/>
<path d="M0 0 C0.8 0.39 1.61 0.78 2.44 1.19 C2.95 1.46 3.47 1.72 4 2 C4 2.66 4 3.32 4 4 C2.95 3.83 1.9 3.67 0.81 3.5 C-7.54 2.48 -16.03 2.04 -24 5 C-22.68 -0.53 -22.68 -0.53 -20 -2.38 C-12.73 -3.89 -6.54 -3.56 0 0 Z " fill="#47305B" transform="translate(269,404)"/>
<path d="M0 0 C2.93 1.34 5.67 2.75 8 5 C8 5.99 8 6.98 8 8 C0.94 6.88 -6.05 5.65 -13 4 C-13 2.35 -13 0.7 -13 -1 C-9.03 -2.98 -4.11 -1.13 0 0 Z " fill="#C8C7CD" transform="translate(179,371)"/>
<path d="M0 0 C0.33 0.66 0.66 1.32 1 2 C-1.56 8.31 -4.87 12.94 -11 16 C-13 16.04 -15 16.04 -17 16 C-16.62 15.56 -16.25 15.13 -15.86 14.68 C-15.35 14.08 -14.84 13.49 -14.31 12.88 C-13.76 12.24 -13.21 11.6 -12.64 10.95 C-11.64 9.75 -10.65 8.54 -9.7 7.3 C-6.84 3.6 -4.33 1.81 0 0 Z " fill="#9F6FAA" transform="translate(382,402)"/>
<path d="M0 0 C1.18 2.86 1.02 3.95 -0.07 6.91 C-0.6 7.97 -1.14 9.02 -1.69 10.06 C-1.94 10.59 -2.2 11.12 -2.47 11.67 C-4.15 14.97 -5.79 17.11 -9 19 C-9.66 19 -10.32 19 -11 19 C-11 10.83 -5.54 5.54 0 0 Z " fill="#B797C4" transform="translate(67,478)"/>
<path d="M0 0 C6.43 -0.29 6.43 -0.29 9 2 C8.25 8.75 8.25 8.75 6 11 C4 10.88 4 10.88 2 10 C-0.36 6.82 -0.17 3.85 0 0 Z " fill="#BE9CCB" transform="translate(371,258)"/>
<path d="M0 0 C8.11 -0.68 13.28 0.35 20 5 C16.58 6.71 13.04 5.05 9.44 4.19 C9.04 4.1 9.04 4.1 7.03 3.65 C6.66 3.56 6.66 3.56 4.75 3.11 C4.4 3.02 4.4 3.02 2.64 2.61 C1 2 1 2 0 0 Z " fill="#4A315D" transform="translate(254,394)"/>
</svg>
