<?xml version="1.0" encoding="UTF-8"?>
<!-- Generator: visioncortex VTracer 0.6.5 -->
<svg version="1.1" xmlns="http://www.w3.org/2000/svg" width="682" height="682">
<path d="M0 0 C225.06 0 450.12 0 682 0 C682 225.06 682 450.12 682 682 C456.94 682 231.88 682 0 682 C0 456.94 0 231.88 0 0 Z " fill="#303031" transform="translate(0,0)"/>
<path d="M0 0 C-0.07 1.09 -0.14 2.18 -0.21 3.3 C-0.66 13.26 -0.2 20.74 6 29 C12.43 35.74 22.56 41.39 31.98 42.16 C34.24 42.21 36.49 42.24 38.75 42.25 C39.52 42.27 40.3 42.29 41.09 42.31 C47.33 42.35 53.21 41.56 57.95 37.2 C58.38 36.56 58.81 35.91 59.25 35.25 C59.72 34.55 60.19 33.86 60.68 33.14 C62.54 30.13 64.32 27.11 66 24 C96.73 41.07 108.35 76.65 117.56 108.27 C117.97 109.76 118.36 111.25 118.75 112.75 C118.93 113.4 119.11 114.05 119.3 114.71 C120.28 118.86 119.66 121.08 117.81 124.82 C116.75 127.67 116.47 130.5 116.18 133.51 C116.12 134.11 116.07 134.71 116.01 135.34 C115.88 136.61 115.76 137.88 115.64 139.15 C114.17 153.74 110.27 165.18 103 178 C99.1 185.24 96.06 191.77 95 200 C107.83 194.3 114.81 178.3 120 166 C123.58 156.52 125.16 147.41 125.52 137.33 C125.73 132.85 126.36 129.18 128 125 C130.12 124.63 130.12 124.63 133 125 C135.29 126.72 137.15 128.81 139.06 130.94 C140.09 132.06 141.12 133.17 142.16 134.28 C142.61 134.77 143.06 135.27 143.52 135.78 C145.29 137.24 146.77 137.6 149 138 C150.66 133.81 151.26 131.34 150 127 C148.47 124.38 146.79 121.91 145.08 119.4 C144 117 144 117 144.58 114.86 C146.17 112.77 147.63 111.66 149.88 110.31 C150.21 110.1 150.21 110.1 151.93 109.05 C157.94 106 164.37 106.31 170.69 108.25 C175.43 110.04 178.75 111.59 181.19 116.28 C187.6 131.77 182.63 148.56 176.49 163.41 C169.39 179.88 161.05 195.99 149.23 209.58 C147.88 211.14 146.56 212.71 145.23 214.29 C139.13 221.56 132.94 228.76 126.56 235.81 C125.4 237.09 124.24 238.39 123.09 239.68 C121.85 241.05 120.61 242.41 119.35 243.76 C116.37 247.05 115.32 249.56 115 254 C116.23 253.71 117.46 253.42 118.69 253.12 C119.37 252.96 120.06 252.8 120.76 252.63 C123.26 251.93 125.6 250.98 128 250 C128.35 259.22 127.35 267.76 125.75 276.81 C125.69 277.14 125.69 277.14 125.4 278.82 C123.76 288.36 122.02 297.78 119 307 C118.88 307.38 118.88 307.38 118.26 309.3 C107.36 342.71 90.99 370.46 58.89 387.2 C27.43 402.89 -7.62 407.22 -42.38 407.19 C-43.12 407.19 -43.86 407.19 -44.62 407.19 C-58.13 407.19 -71.56 406.54 -85.03 405.57 C-88.02 405.36 -91.01 405.18 -94 405 C-94.52 404.96 -94.52 404.96 -97.17 404.76 C-104.93 404.39 -104.93 404.39 -108.28 407.16 C-109.19 408.1 -110.07 409.07 -110.94 410.06 C-111.94 411.08 -112.94 412.09 -113.96 413.1 C-114.46 413.59 -114.96 414.09 -115.48 414.6 C-126.06 424.31 -140.27 427.26 -154.19 427 C-162.07 426.85 -162.07 426.85 -166 428 C-168.07 428.2 -168.07 428.2 -170.12 428.25 C-170.81 428.28 -171.49 428.3 -172.2 428.33 C-174 428 -174 428 -175.25 426.66 C-176.53 423.83 -175.86 421.93 -175 419 C-172.8 415.14 -170.49 412.87 -166.19 411.62 C-165.14 411.42 -164.08 411.21 -163 411 C-158.74 414.41 -157.95 417.86 -157 423 C-154.33 419.21 -153.31 416.64 -154 412 C-155.87 409.7 -157.36 408.32 -160 407 C-161.67 407.01 -163.33 407.06 -165 407.12 C-173.48 407.23 -181.69 405.57 -190 404 C-187.89 396.71 -185.53 389.52 -183.07 382.33 C-181.8 378.58 -180.64 374.93 -180 371 C-180.82 370.83 -181.65 370.67 -182.5 370.5 C-193.99 366.52 -201.24 350.84 -206.22 340.61 C-207.88 337.1 -209.46 333.56 -211 330 C-211.28 329.36 -211.56 328.72 -211.85 328.06 C-216.75 316.67 -216.75 316.67 -215 312 C-213 309.79 -213 309.79 -210.44 307.62 C-209.98 307.23 -209.53 306.84 -209.07 306.44 C-207.06 304.7 -205.02 303.01 -202.95 301.36 C-194.5 294.44 -187.93 285.36 -182.31 276.06 C-179.66 271.73 -176.8 268.74 -172.86 265.56 C-168.92 262.26 -165.34 258.48 -164.62 253.25 C-165.02 249.85 -165.28 249.37 -167.44 247 C-170.11 244.05 -171.08 242.11 -171 238 C-170.12 236.05 -170.12 236.05 -169 234 C-167.47 231.2 -167 229.98 -166.81 226.69 C-168.24 223.46 -169.57 222.96 -172.76 221.7 C-177.26 220.29 -181.91 219.69 -186.56 219 C-193.35 217.94 -200.07 216.85 -206.75 215.25 C-216.74 213.04 -225.58 212.9 -234.65 217.91 C-236 219 -236 219 -237 222 C-235.98 221.86 -234.97 221.71 -233.92 221.56 C-225.54 220.42 -217.47 219.71 -209 220 C-207.91 221.73 -207.91 221.73 -207 224 C-207.5 226.15 -207.5 226.15 -208.44 228.38 C-209.9 232.39 -210.45 234.84 -209 239 C-208.12 240.12 -207.22 241.22 -206.31 242.31 C-204.58 244.54 -203.98 245.49 -204.08 248.34 C-204.6 250.63 -205.22 252.79 -206 255 C-207.14 258.43 -207.67 261.44 -207 265 C-203.42 269.97 -198.6 271.82 -193 274 C-193.81 280.44 -197.86 284.26 -202 289 C-202.61 289.71 -203.22 290.42 -203.85 291.14 C-213.67 301.73 -227.48 308.63 -241.85 310.2 C-251.52 310.46 -260.76 307.48 -268 301 C-275.48 292.3 -278.41 281.41 -278.28 270.1 C-276.95 255.27 -268.96 244.4 -259 234 C-258.36 233.28 -257.72 232.57 -257.05 231.83 C-250.92 225.24 -243.72 220.2 -236.4 215.02 C-236.04 214.75 -236.04 214.75 -234.19 213.42 C-232 212 -232 212 -229.73 211.06 C-227.22 209.96 -225.79 209.1 -224 207 C-222.73 202.48 -222.41 198.04 -222.14 193.37 C-222 190.96 -221.8 188.56 -221.59 186.15 C-221.28 182.7 -220.99 179.24 -220.71 175.78 C-216.4 123.3 -208.05 67.24 -168 29 C-167.34 29 -166.68 29 -166 29 C-165.11 30.4 -164.22 31.8 -163.34 33.2 C-160.19 37.43 -156.01 41.33 -151 43 C-137.06 44.07 -123.86 41.63 -112.52 32.85 C-107.21 27.97 -103.07 21.24 -102.68 13.99 C-102.64 13.23 -102.6 12.47 -102.56 11.69 C-102.52 10.91 -102.48 10.12 -102.44 9.31 C-102.42 8.91 -102.42 8.91 -102.31 6.9 C-102.2 4.93 -102.1 2.97 -102 1 C-90.84 -2.64 -79.64 -4.57 -68 -6 C-67.69 -6.04 -67.69 -6.04 -66.13 -6.24 C-45.83 -8.7 -18.98 -8.14 0 0 Z " fill="#AF7DBA" transform="translate(375,137)"/>
<path d="M0 0 C5.09 2.22 7.67 5.04 9.72 10.22 C11.84 16.67 13.22 23.32 14.73 29.93 C16.71 38.42 19.76 45.93 23.66 53.72 C24.44 53.58 25.21 53.44 26.01 53.3 C28.96 52.76 31.91 52.23 34.85 51.7 C36.12 51.47 37.38 51.24 38.64 51.01 C69.49 45.4 99.24 43.46 130.08 50.49 C130.86 50.66 131.65 50.84 132.46 51.02 C133.16 51.18 133.85 51.34 134.56 51.5 C137.29 51.79 139.06 51.68 141.66 50.72 C143 48.78 143.85 47.24 144.74 45.1 C144.99 44.52 145.24 43.94 145.5 43.35 C148.29 36.68 149.87 29.76 151.41 22.72 C151.84 20.79 152.28 18.86 152.73 16.93 C153.12 15.21 153.5 13.48 153.89 11.75 C155.78 4.34 155.78 4.34 158.29 2.58 C164.45 0.45 170.39 -0.37 176.66 1.72 C176.66 2.38 176.66 3.04 176.66 3.72 C176.96 3.77 176.96 3.77 178.45 4 C183.41 5.62 186.26 11.06 188.6 15.51 C196.03 30.81 201.78 48.19 201.71 65.39 C201.72 68.39 201.77 70.86 202.66 73.72 C204.86 75.7 207.07 76.83 209.71 78.13 C225.44 86.62 236.32 104.54 244.66 119.72 C245 120.34 245.34 120.96 245.69 121.6 C253.87 136.7 265.44 158.15 264.66 175.72 C265.13 175.29 265.61 174.85 266.09 174.4 C275.89 165.58 285.47 158.93 299.15 159.44 C309.68 160.62 317.69 165.49 324.34 173.67 C328.17 179.63 330.14 186.71 330.66 193.72 C330.71 194.34 330.76 194.95 330.82 195.59 C332 221.78 316.29 247.06 303.47 268.79 C303.11 269.4 302.75 270.02 302.38 270.66 C301.53 272.05 300.6 273.39 299.66 274.72 C299 274.72 298.34 274.72 297.66 274.72 C297.55 275.47 297.45 276.21 297.34 276.98 C296.62 279.9 295.74 281.33 293.86 283.65 C293.58 284.01 293.58 284.01 292.15 285.81 C291.85 286.18 291.85 286.18 290.35 288.04 C284.42 295.38 279.66 302.1 278.1 311.6 C277.98 312.26 277.86 312.92 277.74 313.6 C276.62 320.27 275.91 327 275.16 333.72 C273.5 348.64 271.09 362.52 266.32 376.75 C265.66 378.71 265.03 380.67 264.4 382.64 C261.44 391.83 258.21 400.86 253.75 409.44 C253.43 410.07 253.1 410.7 252.77 411.35 C252.13 412.57 251.47 413.79 250.81 415 C249.55 417.39 248.63 419.18 248.77 421.91 C251.51 427.49 257.28 431.4 262.38 434.68 C262.8 435.02 263.22 435.37 263.66 435.72 C263.66 436.38 263.66 437.04 263.66 437.72 C264.37 437.84 265.08 437.95 265.81 438.07 C269.84 438.99 273.39 440.75 277.14 442.47 C285.65 445.82 294.82 446.06 303.85 446.04 C304.36 446.04 304.36 446.04 306.96 446.08 C312.9 446.09 318.44 445.82 323.66 442.72 C325.66 440.04 325.66 440.04 326.66 437.72 C326.01 437.49 325.36 437.25 324.7 437.01 C308.91 430.32 291.01 420.94 284.27 404.39 C278.06 388.32 276.38 373.02 282.88 356.65 C289.91 341.39 301.5 332.71 316.9 326.72 C317.81 326.39 318.72 326.06 319.66 325.72 C320.32 325.48 320.99 325.23 321.67 324.97 C336.18 320.45 351.82 324.72 364.87 331.34 C376.86 337.85 383.58 348.43 390.66 359.72 C397.12 350.69 397 335.01 395.29 324.41 C392.67 310.86 392.67 310.86 389.66 306.72 C388.76 307.29 387.85 307.85 386.92 308.44 C385.73 309.18 384.54 309.92 383.35 310.66 C382.75 311.03 382.16 311.41 381.54 311.79 C380.97 312.15 380.39 312.51 379.8 312.88 C379.27 313.2 378.74 313.53 378.19 313.87 C374.52 315.91 370.76 316.43 366.66 315.72 C359.43 311.61 357.93 304.33 355.6 296.85 C355.16 295.5 354.73 294.15 354.3 292.8 C341.36 252.01 341.36 252.01 347.66 239.72 C353.17 235.17 362.79 236.09 369.48 236.51 C387.48 238.26 408.7 245.36 421.22 258.84 C424.69 263.37 427.1 268.1 426.66 273.91 C425.68 278.93 422.78 283.64 418.66 286.72 C416.47 286.91 416.47 286.91 414.66 286.72 C415.13 294.43 418.66 301.09 421.79 308.02 C426.97 319.55 430.25 330.67 430.1 343.47 C430.09 344.41 430.08 345.35 430.08 346.32 C429.53 370.31 418.61 389.95 403.99 408.34 C398.12 415.9 395.06 423.58 392.72 432.79 C387.26 452.52 370.27 466.88 353.02 476.88 C324.63 492.73 288.11 495.21 257.12 486.47 C247.12 483.47 238.46 479.25 229.66 473.72 C228.47 472.99 227.28 472.27 226.08 471.54 C223.88 470.2 221.69 468.85 219.5 467.48 C216.9 465.87 214.29 464.29 211.66 462.72 C211.62 462.95 211.62 462.95 211.4 464.09 C210.26 469.61 208.78 475.01 207.22 480.41 C207.12 480.77 207.12 480.77 206.6 482.61 C205.34 486.92 203.8 490.76 201.66 494.72 C201 494.72 200.34 494.72 199.66 494.72 C199.55 495.31 199.43 495.9 199.31 496.51 C197.9 501.3 194.38 504.65 190.21 507.25 C180.74 512.13 170.83 513.34 160.41 510.6 C151.18 507.4 142.41 499.47 137.67 490.95 C134.85 486.07 134.85 486.07 131.7 485.15 C129.28 485.01 126.96 485.09 124.55 485.26 C123.66 485.29 122.77 485.32 121.86 485.36 C119.02 485.46 116.18 485.62 113.35 485.79 C111.48 485.87 109.62 485.95 107.75 486.03 C105 486.14 102.24 486.26 99.48 486.39 C86.84 486.98 74.24 486.76 61.6 486.29 C60.37 486.25 59.15 486.21 57.93 486.17 C52.87 486 47.86 485.82 42.84 485.12 C33.87 483.87 33.87 483.87 30.26 486.42 C28.8 487.98 27.38 489.59 26.01 491.23 C15.14 502.74 -6.38 506.37 -21.4 506.91 C-25.01 507 -28.63 507 -32.24 506.98 C-34.47 506.97 -36.7 506.98 -38.92 507 C-59.56 507.02 -59.56 507.02 -64.3 503.1 C-65.87 501.38 -67.11 499.69 -68.34 497.72 C-68.88 496.96 -69.41 496.2 -69.96 495.41 C-71.61 492.19 -71.87 489.51 -71.84 485.97 C-71.84 485.3 -71.84 484.63 -71.83 483.94 C-71.57 474.95 -69.51 466.17 -67.63 457.41 C-67.42 456.43 -67.21 455.44 -67 454.43 C-66.34 451.72 -66.34 451.72 -65.51 449.55 C-64.31 446.33 -63.95 444.62 -65.35 441.4 C-67 438.73 -68.78 436.24 -70.65 433.72 C-71.97 431.86 -73.28 429.99 -74.59 428.12 C-74.91 427.66 -74.91 427.66 -76.54 425.34 C-82.48 416.69 -87.17 407.2 -91.9 397.85 C-92.25 397.16 -92.6 396.48 -92.95 395.77 C-95.34 390.97 -95.34 390.97 -95.34 388.72 C-95.88 388.76 -96.41 388.79 -96.96 388.83 C-113.36 389.39 -130.59 384.83 -143.15 373.98 C-152.52 364.3 -155.86 353.46 -155.76 340.32 C-154.96 316.91 -141.48 297.78 -125.12 282.08 C-119.12 276.57 -110.68 268.99 -102.34 267.72 C-102.37 266.64 -102.41 265.55 -102.45 264.44 C-103.59 210.89 -93.3 140.63 -56.34 99.72 C-54.6 97.92 -52.84 96.16 -51.04 94.42 C-48.51 91.89 -46.22 89.16 -43.92 86.42 C-42.34 84.72 -42.34 84.72 -40.7 83.8 C-38.59 82.13 -38.66 80.41 -38.28 77.79 C-38.2 77.25 -38.2 77.25 -37.8 74.52 C-37.45 71.78 -37.17 69.02 -36.91 66.27 C-34.92 44.73 -30.42 20.72 -13.34 5.72 C-12.73 5.17 -12.13 4.62 -11.5 4.06 C-7.76 0.91 -4.97 -1.35 0 0 Z M31.66 66.72 C31.65 67.83 31.63 68.94 31.62 70.09 C31.35 80.25 30.46 88.66 23.35 96.54 C11.4 106.26 -2.07 110.26 -17.34 108.72 C-23.55 107.06 -27.56 101.65 -31.34 96.72 C-31.67 96.06 -32 95.4 -32.34 94.72 C-47.36 101.13 -58.71 124.68 -65.34 138.72 C-65.64 139.34 -65.93 139.97 -66.24 140.61 C-82.18 174.67 -84.65 213.12 -87.73 250.03 C-87.78 250.64 -87.83 251.25 -87.88 251.87 C-88.12 254.75 -88.36 257.64 -88.59 260.52 C-88.68 261.55 -88.76 262.57 -88.85 263.62 C-88.92 264.51 -88.99 265.4 -89.06 266.32 C-89.73 272.15 -89.73 272.15 -91.62 273.94 C-92.16 274.27 -92.7 274.6 -93.26 274.95 C-93.87 275.34 -94.47 275.72 -95.1 276.12 C-95.43 276.32 -95.43 276.32 -97.09 277.35 C-98.47 278.24 -99.85 279.13 -101.23 280.03 C-101.92 280.48 -102.61 280.93 -103.33 281.39 C-121.01 293.08 -138.85 308.78 -143.93 330.2 C-145.72 341.15 -144.07 352.83 -137.65 362.05 C-131.59 369.79 -124.19 374.47 -114.34 375.72 C-102.04 377.12 -88.47 371.79 -78.68 364.49 C-71.18 358.38 -60.65 349.64 -59.34 339.72 C-59.76 339.52 -59.76 339.52 -61.89 338.52 C-63 337.98 -64.11 337.45 -65.21 336.91 C-65.77 336.65 -66.33 336.39 -66.9 336.12 C-72.13 333.57 -72.13 333.57 -73.34 330.72 C-73.78 326.31 -73.29 323.26 -71.78 319.1 C-70.51 315.51 -69.81 313.36 -71.34 309.72 C-72.2 308.59 -73.08 307.46 -73.96 306.35 C-76.07 303.54 -76.34 302.99 -76.28 299.29 C-76 298.09 -75.69 296.9 -75.34 295.72 C-74.94 294.29 -74.54 292.85 -74.15 291.41 C-73.95 290.75 -73.75 290.1 -73.55 289.42 C-73.48 288.86 -73.41 288.3 -73.34 287.72 C-75.34 285.72 -75.34 285.72 -77.6 285.46 C-86.29 285.5 -94.74 286.5 -103.34 287.72 C-102.23 284.4 -101.93 284.17 -99.03 282.6 C-98.73 282.43 -98.73 282.43 -97.23 281.59 C-87.91 277.31 -76.65 279.93 -67.09 282.04 C-64.9 282.5 -62.72 282.96 -60.53 283.42 C-59.48 283.64 -58.43 283.87 -57.34 284.1 C-52.62 285.08 -47.87 285.93 -43.11 286.73 C-39.9 287.31 -37.09 287.92 -34.34 289.72 C-33.19 292.73 -32.88 294.69 -34.21 297.68 C-34.59 298.36 -34.96 299.03 -35.34 299.72 C-36.85 302.49 -37.34 303.61 -37.4 306.85 C-36.4 309.55 -35.65 310.66 -33.78 312.72 C-31.78 314.95 -31.36 315.64 -30.78 318.72 C-32.32 326.94 -39.97 332.68 -45.9 338.04 C-48.25 340.37 -49.85 343.04 -51.59 345.85 C-57.68 355.61 -64.88 363.6 -73.45 371.21 C-73.91 371.63 -74.38 372.05 -74.86 372.48 C-76.34 373.72 -76.34 373.72 -78.07 374.91 C-79.73 376.08 -81.07 377.13 -82.34 378.72 C-82.67 385.11 -79.33 391.05 -76.78 396.79 C-76.32 397.81 -75.87 398.83 -75.41 399.88 C-70.55 410.7 -65.63 420.57 -57.71 429.47 C-57.49 429.72 -57.49 429.72 -56.37 430.99 C-53.28 434.28 -50.72 435.62 -46.34 436.72 C-48.5 445.59 -51.07 454.12 -54.41 462.62 C-56.34 467.55 -56.34 467.55 -56.34 469.72 C-53.03 470.23 -49.72 470.73 -46.4 471.22 C-45.48 471.37 -44.55 471.51 -43.6 471.66 C-38.41 472.42 -33.46 472.86 -28.21 472.64 C-25.33 472.77 -23.54 473.94 -21.34 475.72 C-19.93 478.54 -20.09 480.59 -20.34 483.72 C-21.84 486.6 -21.84 486.6 -23.34 488.72 C-23.5 488.02 -23.66 487.33 -23.82 486.61 C-25.72 479.21 -25.72 479.21 -28.65 476.91 C-32.22 476.66 -34.53 477.65 -37.34 479.72 C-40.77 483.15 -42.13 485.85 -42.34 490.72 C-41.57 492.39 -41.57 492.39 -40.34 493.72 C-38.68 494.05 -38.68 494.05 -36.71 493.97 C-36 493.95 -35.28 493.92 -34.54 493.89 C-31.86 493.69 -29.23 493.32 -26.58 492.93 C-23.94 492.68 -21.37 492.77 -18.71 492.85 C0.53 492.94 13.96 484.42 27.66 471.72 C27.99 471.39 28.32 471.06 28.66 470.72 C36.62 470.19 44.65 471.01 52.59 471.58 C110.53 475.62 173.62 473.76 219.75 433.91 C226.77 427.26 232.04 419.05 236.85 410.72 C237.16 410.19 237.46 409.66 237.78 409.11 C242.98 399.86 246.82 390.09 250.16 380.04 C250.35 379.46 250.55 378.88 250.75 378.28 C254.73 366.29 257.49 354.17 259.66 341.72 C259.79 341 259.92 340.27 260.05 339.52 C261.46 331.55 261.93 323.82 261.66 315.72 C260.92 316.03 260.19 316.34 259.43 316.65 C257.06 317.57 254.81 318.26 252.35 318.85 C251.65 319.02 250.95 319.18 250.23 319.36 C249.71 319.48 249.2 319.6 248.66 319.72 C249.9 313.99 251.75 310.9 255.85 306.79 C256.85 305.74 257.85 304.69 258.85 303.64 C259.34 303.14 259.82 302.63 260.32 302.12 C265.21 297.02 269.67 291.54 274.12 286.06 C276.08 283.64 278.06 281.24 280.11 278.88 C290.69 266.59 298.85 253.42 305.66 238.72 C305.82 238.39 305.82 238.39 306.62 236.69 C313.99 220.92 321.75 202.13 315.97 184.72 C313.85 179.58 311.79 177.09 306.62 174.83 C299.22 172.04 292.92 171.7 285.56 174.72 C282.52 176.33 280.18 178.39 277.66 180.72 C278.69 184.56 279.83 187.07 282.35 190.16 C283.81 192.09 284.62 193.19 284.8 195.62 C284.4 198.43 283.56 201.03 282.66 203.72 C277.21 202.09 274.43 198.64 270.77 194.54 C267.25 190.79 267.25 190.79 263.82 190.39 C263.1 190.5 262.39 190.61 261.66 190.72 C259.81 195.47 259.4 199.53 259.29 204.6 C258.34 225.53 249.45 247.56 234.66 262.72 C232.69 263.95 230.81 264.82 228.66 265.72 C229.28 259.24 231.35 253.89 234.29 248.16 C234.63 247.47 234.98 246.78 235.34 246.07 C237.09 242.65 238.9 239.29 240.82 235.97 C246.63 225.46 248.17 215.1 249.38 203.32 C249.45 202.69 249.51 202.07 249.58 201.42 C249.71 200.19 249.83 198.96 249.96 197.72 C250.34 194.25 251.08 191.42 252.5 188.24 C254.88 181.83 251.84 175.12 249.85 168.91 C249.42 167.52 248.99 166.13 248.57 164.74 C240.04 137.25 227.58 105.31 200.99 90.39 C200.77 90.28 200.77 90.28 199.66 89.72 C199.15 90.61 198.64 91.51 198.12 92.43 C197.43 93.61 196.73 94.79 196.04 95.97 C195.7 96.56 195.37 97.15 195.03 97.75 C192.23 102.46 189.14 105.67 183.72 107.31 C173.42 109.37 162 108.5 152.66 103.72 C152.22 103.5 152.22 103.5 149.98 102.4 C141.87 98 136.32 91.63 133.66 82.72 C133.33 79.73 133.37 76.79 133.47 73.79 C133.49 73.01 133.5 72.23 133.51 71.42 C133.55 69.52 133.6 67.62 133.66 65.72 C107.25 54.39 57.63 53.74 31.66 66.72 Z " fill="#3F3652" transform="translate(241.33984375,71.27734375)"/>
<path d="M0 0 C0.33 0 0.66 0 1 0 C1 1.98 1 3.96 1 6 C2.23 5.71 3.46 5.42 4.69 5.12 C5.37 4.96 6.06 4.8 6.76 4.63 C9.26 3.93 11.6 2.98 14 2 C14.35 11.22 13.35 19.76 11.75 28.81 C11.64 29.48 11.52 30.14 11.4 30.82 C9.76 40.36 8.02 49.78 5 59 C4.88 59.38 4.88 59.38 4.26 61.3 C-6.64 94.71 -23.01 122.46 -55.11 139.2 C-86.57 154.89 -121.62 159.22 -156.38 159.19 C-157.12 159.19 -157.86 159.19 -158.62 159.19 C-172.13 159.19 -185.56 158.54 -199.03 157.57 C-202.02 157.36 -205.01 157.18 -208 157 C-209.04 156.92 -210.09 156.84 -211.17 156.76 C-218.93 156.39 -218.93 156.39 -222.28 159.16 C-223.19 160.1 -224.07 161.07 -224.94 162.06 C-225.94 163.08 -226.94 164.09 -227.96 165.1 C-228.46 165.59 -228.96 166.09 -229.48 166.6 C-240.06 176.31 -254.27 179.26 -268.19 179 C-276.07 178.85 -276.07 178.85 -280 180 C-282.07 180.2 -282.07 180.2 -284.12 180.25 C-284.47 180.26 -284.47 180.26 -286.2 180.33 C-288 180 -288 180 -289.25 178.66 C-290.53 175.83 -289.86 173.93 -289 171 C-286.8 167.14 -284.49 164.87 -280.19 163.62 C-279.14 163.42 -278.08 163.21 -277 163 C-272.74 166.41 -271.95 169.86 -271 175 C-268.33 171.21 -267.31 168.64 -268 164 C-269.87 161.7 -271.36 160.32 -274 159 C-275.67 159.01 -277.33 159.06 -279 159.12 C-287.48 159.23 -295.69 157.57 -304 156 C-301.89 148.71 -299.53 141.52 -297.07 134.33 C-295.8 130.58 -294.64 126.93 -294 123 C-294.82 122.83 -295.65 122.67 -296.5 122.5 C-307.99 118.52 -315.24 102.84 -320.22 92.61 C-321.88 89.1 -323.46 85.56 -325 82 C-325.14 81.68 -325.14 81.68 -325.85 80.06 C-330.75 68.67 -330.75 68.67 -329 64 C-327 61.79 -327 61.79 -324.44 59.62 C-323.98 59.23 -323.53 58.84 -323.07 58.44 C-321.06 56.7 -319.02 55.01 -316.95 53.36 C-306.97 45.18 -299.57 33.99 -293 23 C-291.68 23.66 -290.36 24.32 -289 25 C-289.51 29.78 -290.78 32.74 -293.5 36.69 C-293.85 37.2 -294.2 37.71 -294.56 38.24 C-299.05 44.67 -304.07 50.74 -309.31 56.57 C-311 59 -311 59 -311.02 60.96 C-303.59 80.1 -287.52 105.7 -268.17 114.25 C-267.81 114.37 -267.81 114.37 -266 115 C-266 115.66 -266 116.32 -266 117 C-265.17 117.26 -264.33 117.53 -263.48 117.8 C-260.39 118.83 -257.43 120.07 -254.45 121.36 C-231.47 131.23 -206.31 137.13 -181.22 137.17 C-180.82 137.17 -180.82 137.17 -178.77 137.18 C-177.06 137.18 -175.35 137.19 -173.65 137.19 C-171.1 137.19 -168.55 137.21 -166.01 137.22 C-151.22 137.28 -136.61 136.25 -122.19 132.81 C-121.28 132.6 -120.37 132.39 -119.43 132.17 C-91.98 125.5 -63.39 114.04 -43.31 93.38 C-42.93 92.98 -42.93 92.98 -41 91 C-40.34 91 -39.68 91 -39 91 C-38.75 90.44 -38.49 89.87 -38.23 89.29 C-36.83 86.69 -35.15 84.64 -33.25 82.38 C-28.71 76.8 -24.29 70.88 -22 64 C-21.34 64 -20.68 64 -20 64 C-19.88 63.6 -19.88 63.6 -19.25 61.56 C-18.38 58.95 -17.33 56.49 -16.17 53.99 C-13.78 48.64 -11.85 43.18 -10 37.62 C-9.65 36.58 -9.3 35.54 -8.94 34.47 C-6.3 26.37 -4.34 18.27 -2.79 9.9 C-2.14 6.46 -1.19 3.28 0 0 Z " fill="#9E62A5" transform="translate(489,385)"/>
<path d="M0 0 C18.57 -1.47 38.89 5.44 54 16 C57.34 18.89 59.75 21.23 60.38 25.69 C58.13 29.46 55.06 30.59 51 32 C48.91 32.42 46.81 32.79 44.71 33.11 C43.64 33.28 42.56 33.45 41.46 33.63 C40.65 33.75 39.84 33.87 39 34 C39.36 34.62 39.71 35.24 40.08 35.87 C54.42 60.77 67.34 83.33 61 113 C60.87 113.75 60.73 114.5 60.6 115.27 C57.47 131.78 47.7 146.28 36 158 C35.32 158.7 34.63 159.39 33.93 160.11 C19.72 173.66 2.21 179.75 -17.19 179.46 C-23.86 179.22 -29.8 178.6 -36 176 C-36.42 175.84 -36.42 175.84 -38.52 175 C-49.95 169.93 -58.97 160.68 -63.75 149.12 C-68.32 135.48 -68.3 123.88 -62 111 C-61.84 110.67 -61.84 110.67 -61 109 C-60.34 109 -59.68 109 -59 109 C-58.9 108.42 -58.8 107.84 -58.7 107.24 C-56.73 100.95 -50.4 96.99 -44.84 94.04 C-33.4 88.34 -21.71 85.75 -9 89 C5.53 94.12 14.49 102.03 21.81 115.44 C22.2 116.14 22.58 116.84 22.98 117.57 C28.23 127.64 28.23 127.64 28 133 C26.42 135.93 24.25 137.89 21.75 140.06 C21.44 140.35 21.44 140.35 19.89 141.82 C15.38 146 15.38 146 13 146 C12.85 144.98 12.71 143.97 12.55 142.92 C10.71 131.22 8.05 120.05 -1.81 112.4 C-10.31 106.96 -18.18 105.76 -28.05 107.55 C-36.35 109.77 -41.31 113.95 -46 121 C-47.3 123.7 -47.79 126.02 -48 129 C-48.08 129.78 -48.16 130.56 -48.24 131.37 C-48.65 138.9 -47.04 145.48 -42.05 151.27 C-31.58 161.14 -20.92 162.48 -7.14 162.28 C5.88 161.8 17.48 155.91 27 147.16 C43.32 129.56 51.81 105.32 51.18 81.52 C50.85 73.78 48.76 66.98 46.12 59.75 C45.88 59.08 45.64 58.4 45.38 57.71 C43.32 52.28 40.65 46.68 36 43 C34.67 42.64 33.34 42.3 32 42 C31.4 42.82 30.79 43.64 30.17 44.48 C29.36 45.57 28.56 46.66 27.75 47.75 C27.35 48.29 26.96 48.83 26.55 49.38 C21.66 55.96 21.66 55.96 19 58 C16.41 58 16.41 58 14 57 C3.82 45.04 -0.86 16.67 -0.14 1.52 C-0.09 1.02 -0.05 0.52 0 0 Z " fill="#A578B1" transform="translate(598,318)"/>
<path d="M0 0 C0.12 6.75 0.12 6.75 -1 9 C-2.63 9.63 -2.63 9.63 -4.56 10.12 C-5.2 10.29 -5.84 10.46 -6.5 10.63 C-7 10.75 -7.49 10.88 -8 11 C-8.75 14.37 -9.13 17.5 -9.18 20.95 C-9.2 21.88 -9.22 22.81 -9.25 23.77 C-9.29 25.7 -9.32 27.62 -9.34 29.54 C-9.63 39.31 -12.61 47.11 -18.75 54.69 C-18.97 54.96 -18.97 54.96 -20.08 56.36 C-28.21 66.35 -38.41 73.73 -51.44 75.75 C-66.66 77.22 -80.13 73.3 -92.05 63.61 C-94.49 61.52 -96.84 59.39 -99 57 C-99 56.34 -99 55.68 -99 55 C-99.66 55 -100.32 55 -101 55 C-102.17 52.38 -103.34 49.75 -104.5 47.12 C-104.83 46.38 -105.17 45.63 -105.51 44.86 C-105.83 44.15 -106.14 43.43 -106.47 42.7 C-106.76 42.04 -107.06 41.38 -107.36 40.7 C-108 39 -108 39 -108 37 C-108.72 36.75 -109.44 36.5 -110.19 36.25 C-116.4 33.49 -120.27 29.15 -123 23 C-124.2 18.18 -124.67 14.45 -122.56 9.88 C-122.05 9.26 -121.53 8.64 -121 8 C-115.78 9.86 -113.67 14.61 -111.25 19.25 C-110 22 -110 22 -110 24 C-93.82 20.29 -78.21 15.27 -62.5 9.94 C-51.43 6.19 -40.4 2.65 -29 0.03 C-28.12 -0.18 -27.24 -0.38 -26.33 -0.59 C-18.22 -2.36 -7.46 -4.53 0 0 Z " fill="#403753" transform="translate(438,244)"/>
<path d="M0 0 C5.58 0.16 10.87 0.8 16.34 1.94 C17.2 2.12 18.05 2.29 18.94 2.48 C29.22 4.67 39.24 7.76 49.28 10.85 C59.88 14.1 70.45 17.34 81.28 19.76 C82.02 19.92 82.76 20.09 83.52 20.26 C86.81 20.96 89.78 21.43 93.16 21.35 C93.43 20.63 93.69 19.91 93.97 19.16 C95.56 15.41 97.27 12.24 100.16 9.35 C103.09 9.72 104.02 10.21 106.16 12.35 C105.89 20.36 102.12 28.05 99.1 35.35 C98.63 36.49 98.17 37.63 97.7 38.77 C94.45 46.77 94.45 46.77 93.16 49.35 C93.72 49.27 93.72 49.27 96.53 48.85 C106.32 47.71 112.51 48.2 121.16 53.35 C121.16 53.68 121.16 54.01 121.16 54.35 C120.46 54.33 119.77 54.32 119.05 54.3 C115.88 54.24 112.71 54.2 109.53 54.16 C108.44 54.14 107.34 54.11 106.22 54.09 C95.79 53.99 95.79 53.99 91.16 57.35 C90.1 60.16 90.1 60.16 90.16 63.35 C91.12 65.37 92.13 67.37 93.16 69.35 C93.35 72.72 93.35 72.72 93.16 75.35 C89.62 74.79 88.17 73.65 85.91 70.91 C85.65 70.6 85.65 70.6 84.33 69.04 C83.16 67.35 83.16 67.35 83.16 65.35 C82.15 65.83 81.13 66.31 80.09 66.81 C78.74 67.45 77.39 68.09 76.03 68.72 C75.37 69.04 74.7 69.36 74.02 69.68 C67.88 72.57 61.96 74.75 55.16 75.35 C54.79 75.39 54.79 75.39 52.95 75.58 C45.23 76.03 39.02 73.52 32.16 70.35 C31.27 69.94 30.38 69.53 29.46 69.1 C19.34 63.75 11.15 53.47 7.59 42.61 C5.79 36.02 5.78 29.49 5.68 22.69 C5.65 21.79 5.63 20.88 5.6 19.95 C5.59 19.14 5.57 18.33 5.56 17.49 C5.06 14.84 4.25 13.99 2.16 12.35 C-0.53 11.16 -0.53 11.16 -2.84 10.35 C-4.07 3.84 -4.07 3.84 -3.1 1.75 C-1.84 0.35 -1.84 0.35 0 0 Z " fill="#403753" transform="translate(196.84133911132813,244.6510009765625)"/>
<path d="M0 0 C13.48 6.74 21.36 20.14 26 34 C34.14 59.11 31.58 87.38 19.75 110.81 C18.52 113.22 17.26 115.61 16 118 C15.34 118 14.68 118 14 118 C13.93 118.55 13.86 119.1 13.79 119.67 C12.72 122.83 10.69 124.88 8.44 127.25 C8.01 127.71 7.59 128.17 7.15 128.64 C6.11 129.77 5.05 130.88 4 132 C5.93 135.42 7.97 138.18 10.69 141 C18.35 149.48 25.04 159.7 26.38 171.25 C25.9 174.74 25.33 176.31 23 179 C15.19 183.49 9.08 184 0 184 C0 123.28 0 62.56 0 0 Z " fill="#3F3652" transform="translate(0,453)"/>
<path d="M0 0 C-4.14 8.98 -8.47 16.52 -15 24 C-15.38 24.48 -15.76 24.95 -16.15 25.44 C-29.72 42.42 -52.88 52.25 -74 55 C-78.8 55.34 -83.57 55.44 -88.38 55.44 C-88.7 55.44 -88.7 55.44 -90.36 55.44 C-117.65 55.36 -142.87 45.21 -164 28 C-163.44 24.48 -162.39 23.14 -159.62 20.94 C-155.88 17.82 -152.42 14.52 -149 11.06 C-148.51 10.57 -148.01 10.07 -147.51 9.56 C-146.34 8.37 -145.17 7.19 -144 6 C-140.2 7.69 -137.97 9.94 -135.17 12.95 C-129.02 18.75 -122.77 22.29 -114.88 25.25 C-114.01 25.59 -113.14 25.93 -112.25 26.27 C-94.72 33.05 -79.21 33.1 -61 29 C-60.46 28.88 -60.46 28.88 -57.71 28.26 C-50.37 26.22 -45.16 22.52 -39.4 17.73 C-31.25 11.1 -23.42 6.54 -13.5 3 C-12.41 2.59 -11.31 2.18 -10.22 1.77 C-2.28 -1.14 -2.28 -1.14 0 0 Z " fill="#9D62A4" transform="translate(626,496)"/>
<path d="M0 0 C10.52 5.1 15.74 16.41 19.41 26.94 C19.87 28.31 20.31 29.69 20.75 31.06 C20.85 31.37 20.85 31.37 21.35 32.95 C24.2 42.41 25.35 51.7 25.31 61.56 C25.33 62.53 25.34 63.49 25.36 64.48 C25.37 73.2 24.01 82.32 18 89 C10.85 92.5 2.2 91.23 -5.23 89.06 C-12.39 86.31 -19.08 82.78 -23.19 76.05 C-25.54 70.71 -25.34 65.55 -23.28 60.08 C-22.37 58.14 -21.39 56.26 -20.38 54.38 C-20.2 54.03 -20.2 54.03 -19.29 52.26 C-17.64 49.05 -15.95 45.88 -14.12 42.77 C-9.17 34.03 -7.04 24.82 -5.04 15.06 C-3.91 9.61 -2.88 4.8 0 0 Z " fill="#AE7CB9" transform="translate(408,80)"/>
<path d="M0 0 C3.31 6.55 4.87 12.74 6.12 19.94 C8.21 30.62 12.11 38.87 17.82 48.05 C19.56 50.93 21.08 53.91 22.56 56.94 C23.02 57.85 23.47 58.77 23.94 59.71 C25.84 63.82 26.65 67.5 26 72 C22.23 80.04 13.95 83.81 6.14 87.24 C1.58 88.86 -2.74 89.16 -7.56 89.19 C-8.68 89.2 -9.79 89.22 -10.94 89.23 C-13.99 89 -15.55 88.79 -18 87 C-19.45 84.79 -19.45 84.79 -20.69 82.19 C-21.1 81.34 -21.52 80.48 -21.95 79.61 C-28.93 62.3 -24.32 36.76 -17.38 19.97 C-7.94 -0.31 -7.94 -0.31 0 0 Z " fill="#AE7DB9" transform="translate(239,82)"/>
<path d="M0 0 C6.26 -0.2 12.52 -0.34 18.79 -0.44 C20.91 -0.48 23.04 -0.53 25.17 -0.6 C28.24 -0.7 31.3 -0.75 34.38 -0.78 C35.32 -0.82 36.26 -0.86 37.23 -0.91 C42.74 -0.91 45.52 -0.09 49.5 3.83 C52.56 7.28 55.28 10.89 57.69 14.81 C57.87 15.11 57.87 15.11 58.82 16.63 C68.27 32.1 68.27 32.1 66.7 40.13 C65.5 43.33 63.98 44.39 61 46 C47.87 51.43 32.37 51.91 19 47 C9.24 42.51 2.83 35.99 -1.27 26.08 C-2.68 22.06 -3.18 18.53 -3.25 14.25 C-3.28 13.27 -3.3 12.28 -3.33 11.27 C-3.04 8.37 -2.52 6.46 -1.48 3.8 C-1.2 3.08 -0.93 2.37 -0.64 1.64 C-0.43 1.1 -0.22 0.56 0 0 Z " fill="#3F3651" transform="translate(588,0)"/>
<path d="M0 0 C2 11.73 1.43 24.32 -5.69 34.38 C-6.76 35.62 -7.86 36.82 -9 38 C-9.64 38.69 -10.27 39.37 -10.93 40.08 C-19.35 48.39 -28.56 51.44 -40.12 51.5 C-52.13 51.26 -61.04 48.88 -69.72 40.3 C-74.05 35.58 -76.83 31.04 -77.19 24.56 C-77.16 24.14 -77.16 24.14 -77 22 C-75.21 22.17 -75.21 22.17 -73 23 C-71.32 25.36 -71.32 25.36 -69.69 28.31 C-67.31 32.29 -65.21 35.58 -60.88 37.54 C-56.15 38.7 -52.1 38.08 -47.79 35.86 C-42.87 32.53 -39.61 28.77 -38 23 C-37.71 19.86 -37.56 16.79 -37.57 13.64 C-37 11 -37 11 -35.11 9.34 C-30.75 7.46 -26.31 6.19 -21.75 4.94 C-20.85 4.68 -19.94 4.43 -19.01 4.16 C-4.14 0 -4.14 0 0 0 Z " fill="#DEDEDF" transform="translate(419,257)"/>
<path d="M0 0 C1.21 0.08 2.42 0.17 3.62 0.27 C3.93 0.29 3.93 0.29 5.52 0.42 C11.41 0.97 17.74 1.76 22.06 6.08 C22.24 8.29 22.33 10.44 22.37 12.64 C22.67 19.06 23.86 24 28.06 29.08 C32.34 32.93 36.76 34.25 42.43 34.46 C43.37 34.51 44.31 34.56 45.27 34.61 C51.19 33.49 54.34 27.45 57.56 22.77 C57.92 22.22 58.29 21.67 58.66 21.1 C59.78 19.53 59.78 19.53 62.06 17.08 C64.78 16.66 64.78 16.66 67.06 17.08 C68.5 18.53 68.3 19.62 68.37 21.64 C68.24 28.52 65.04 33.3 60.5 38.27 C51.73 46.64 41.56 48.39 30.02 48.23 C19.59 47.93 11.82 43.64 4.66 36.09 C-2.55 27.05 -5.29 15.65 -5.24 4.3 C-4.75 0.66 -3.57 0.1 0 0 Z " fill="#DDDDDE" transform="translate(215.94140625,260.91796875)"/>
<path d="M0 0 C4.77 3.97 7.35 6.51 10.12 11.69 C10.47 12.31 10.81 12.93 11.16 13.57 C21.12 32.04 24.45 54.4 18.46 74.83 C16.46 80.78 13.85 86.42 11 92 C10.34 92 9.68 92 9 92 C8.91 92.73 8.81 93.45 8.72 94.2 C7.88 97.45 6.6 99.22 4.5 101.81 C3.87 102.6 3.24 103.39 2.59 104.21 C2.07 104.8 1.54 105.39 1 106 C0.67 106 0.34 106 0 106 C0 71.02 0 36.04 0 0 Z " fill="#AB84BA" transform="translate(0,465)"/>
<path d="M0 0 C3.77 4.17 4.69 6.53 5 12 C4.67 12.66 4.34 13.32 4 14 C0.06 13.48 -1.87 12.58 -4.69 9.81 C-21.63 -5.55 -42.97 -6.82 -64.79 -6.18 C-77.61 -5.45 -90.2 -1.97 -102 3 C-103.02 3.43 -104.05 3.86 -105.1 4.3 C-112.2 7.55 -117.72 11.79 -123.5 16.93 C-126 19 -126 19 -129 20 C-130.56 18.81 -130.56 18.81 -132 17 C-132.12 12.78 -129.97 9.95 -127.24 6.96 C-95.69 -20.63 -33.44 -27.07 0 0 Z " fill="#422D57" transform="translate(387,355)"/>
<path d="M0 0 C5.28 0 10.56 0 16 0 C15.2 1.13 14.39 2.27 13.56 3.44 C10.92 7.66 9.36 11.96 10 17 C11.5 18.76 11.5 18.76 13 20 C14.9 19.28 14.9 19.28 17 18 C17.94 15.91 17.94 15.91 18.56 13.5 C19.66 9.31 19.66 9.31 21.41 7.71 C24.2 6.46 26.13 7.16 29 8 C34.13 11.2 36.9 15.58 39.69 20.81 C39.88 21.15 39.88 21.15 40.83 22.85 C47 34.11 47 34.11 47 40 C32.53 42.88 16.61 42.16 4 34 C-0.58 29.87 -3.58 25.47 -4.34 19.24 C-4.43 11.84 -3.15 6.7 0 0 Z " fill="#A983B8" transform="translate(599,0)"/>
<path d="M0 0 C0.28 0.58 0.57 1.17 0.86 1.77 C2.28 4.55 3.9 7.15 5.58 9.77 C6.56 11.31 7.51 12.86 8.45 14.41 C11.45 19.25 13.57 22.06 19 24 C19 24.66 19 25.32 19 26 C35.91 29.1 51.67 25.6 66 16 C76.28 8.44 76.28 8.44 78 5 C80.31 5.66 82.62 6.32 85 7 C84.19 13.44 80.14 17.26 76 22 C75.39 22.71 74.78 23.42 74.15 24.14 C64.33 34.73 50.52 41.63 36.15 43.2 C26.48 43.46 17.24 40.48 10 34 C3.03 25.9 -0.19 15.8 -0.06 5.19 C-0.05 4.21 -0.04 3.24 -0.04 2.23 C-0.02 1.49 -0.01 0.76 0 0 Z " fill="#9C62A4" transform="translate(97,404)"/>
<path d="M0 0 C4.87 1.66 8.63 3.55 11.35 8.02 C14.68 16.02 15.8 24.73 15.31 33.33 C2.69 35.35 -6.3 36.24 -17.51 29.03 C-21.45 25.96 -23.25 23.01 -24.05 18.1 C-24.31 13.63 -23.84 10.28 -21 6.75 C-20.57 6.28 -20.14 5.81 -19.69 5.33 C-19.44 5.05 -19.44 5.05 -18.21 3.63 C-12.7 -1.96 -7.33 -1.82 0 0 Z " fill="#303031" transform="translate(584.6875,436.66796875)"/>
<path d="M0 0 C0 3 0 3 -1.18 4.58 C-17.81 20.98 -39.6 28.43 -62.75 28.5 C-75.84 28.31 -91.69 27.97 -101.81 18.56 C-107 12.49 -107 12.49 -107 8 C-100.96 8.42 -95.74 10.51 -90.18 12.75 C-70.98 20.31 -51.44 16.8 -32.25 10.96 C-29.24 10.07 -26.25 9.37 -23.19 8.69 C-15.13 6.74 -7.58 3.29 0 0 Z " fill="#AB84BA" transform="translate(608,511)"/>
<path d="M0 0 C0.29 0.64 0.58 1.28 0.87 1.93 C2.35 4.64 3.53 4.89 6.44 5.75 C7.22 5.99 8 6.23 8.81 6.48 C11 7 11 7 14 7 C15.32 8.79 15.32 8.79 16.69 11.19 C18.82 14.61 20.29 16.42 23.94 18.12 C30.09 21.44 32.98 29.58 35 36 C35 36.99 35 37.98 35 39 C16.05 39.95 16.05 39.95 8.19 35.12 C1.98 31.95 -6.34 34.24 -13 35 C-12.71 34.3 -12.43 33.59 -12.13 32.86 C-11.05 30.2 -9.97 27.53 -8.89 24.87 C-8.43 23.72 -7.96 22.58 -7.5 21.44 C-4.63 14.39 -2.02 7.35 0 0 Z " fill="#9C61A3" transform="translate(302,260)"/>
<path d="M0 0 C-1.75 10.66 -4.17 21.34 -13.45 28.1 C-19.4 31.55 -25.38 31.47 -32 30 C-36.98 28.05 -40.42 24.88 -44 21 C-44.6 20.4 -45.2 19.8 -45.81 19.19 C-46.2 18.8 -46.6 18.4 -47 18 C-46 15 -46 15 -44.52 14.14 C-43.89 13.92 -43.25 13.69 -42.59 13.46 C-42.22 13.32 -42.22 13.32 -40.37 12.65 C-39.97 12.51 -39.97 12.51 -37.94 11.81 C-37.11 11.52 -36.28 11.22 -35.43 10.92 C-32.62 9.93 -29.81 8.96 -27 8 C-25.94 7.64 -24.89 7.27 -23.8 6.9 C-20.53 5.78 -17.27 4.67 -14 3.56 C-12.96 3.21 -11.91 2.85 -10.84 2.49 C-9.86 2.16 -8.88 1.84 -7.88 1.5 C-7.01 1.21 -6.14 0.92 -5.24 0.62 C-3 0 -3 0 0 0 Z " fill="#9D62A4" transform="translate(438,539)"/>
<path d="M0 0 C7.27 0.27 13.37 4.37 18.25 9.5 C21.65 13.6 28 21.87 28 27.44 C14.14 27.44 0.28 27.44 -14 27.44 C-7.81 1.14 -7.81 1.14 0 0 Z " fill="#3F3651" transform="translate(413,654.5625)"/>
<path d="M0 0 C0.41 0 0.41 0 2.48 0.03 C2.79 0.03 2.79 0.03 4.38 0.06 C4.38 0.72 4.38 1.38 4.38 2.06 C4.97 2.29 5.57 2.52 6.19 2.75 C9.9 4.97 11.12 8.2 12.32 12.25 C12.57 13.37 12.81 14.48 13.06 15.62 C13.31 16.74 13.57 17.86 13.82 19 C14.38 22.06 14.38 22.06 14.38 26.06 C0.84 26.06 -12.69 26.06 -26.62 26.06 C-19.85 13.64 -19.85 13.64 -16.06 9.62 C-15.7 9.23 -15.7 9.23 -13.87 7.25 C-9.42 2.91 -6.31 -0.09 0 0 Z " fill="#3F3651" transform="translate(247.625,655.9375)"/>
<path d="M0 0 C2.12 -0.37 2.12 -0.37 5 0 C7.29 1.72 9.15 3.81 11.06 5.94 C12.09 7.06 13.12 8.17 14.16 9.28 C14.61 9.77 15.06 10.27 15.52 10.78 C17.29 12.24 18.77 12.6 21 13 C21.31 12.05 21.62 11.1 21.94 10.12 C23 7 23 7 24 5 C26.65 5.97 27.8 6.66 29.25 9.12 C30.63 14.42 30.89 18.89 28.25 23.81 C26.48 26.51 24.96 28.56 22 30 C17.17 30.63 14.3 30.21 10.41 27.27 C6.97 24.17 4.32 20.87 2.31 16.69 C1 14 1 14 -1 13 C-1 15.31 -1 17.62 -1 20 C-1.33 20 -1.66 20 -2 20 C-2.05 17.79 -2.09 15.58 -2.12 13.38 C-2.14 12.76 -2.16 12.14 -2.18 11.5 C-2.22 7.23 -1.56 3.98 0 0 Z " fill="#9D62A4" transform="translate(503,262)"/>
<path d="M0 0 C22.53 13.71 22.53 13.71 28 22 C27.78 25.6 25.73 28.12 23.69 31 C23.39 31.42 23.39 31.42 21.89 33.56 C18.28 38.22 18.28 38.22 16 40 C13.41 40 13.41 40 11 39 C3.06 29.67 0.29 11.86 0 0 Z " fill="#DDDCDE" transform="translate(601,336)"/>
<path d="M0 0 C1.28 1.31 1.28 1.31 2 3 C1.16 7.87 -2.06 12.15 -6 15 C-11.62 18.34 -17.45 20.44 -24 19 C-26.69 17.61 -27.28 16.69 -29 14 C-29.56 11.29 -29.27 9.46 -28 7 C-21.25 0.05 -9.17 -0.85 0 0 Z " fill="#87B2C4" transform="translate(202,384)"/>
<path d="M0 0 C5.84 -0.18 11 0.37 16.69 1.69 C17.08 1.78 17.08 1.78 19.06 2.23 C30.58 4.98 46.14 9.46 54 19 C54 19.66 54 20.32 54 21 C38.07 22.86 22.84 13.82 9 7 C9 6.34 9 5.68 9 5 C8.26 4.92 7.51 4.83 6.75 4.75 C3.49 3.86 2.19 2.51 0 0 Z " fill="#BA9BC7" transform="translate(601,318)"/>
<path d="M0 0 C0.79 1.73 1.58 3.46 2.38 5.19 C2.82 6.15 3.26 7.11 3.71 8.11 C7 15.49 7 15.49 7 19 C2.37 19.91 -2.04 20.15 -6.75 20.12 C-7.42 20.13 -8.09 20.13 -8.79 20.14 C-13.75 20.13 -13.75 20.13 -16 19 C-17.02 15.38 -17.11 11.93 -17.06 8.19 C-17.05 7.21 -17.04 6.24 -17.04 5.23 C-17.02 4.49 -17.01 3.76 -17 3 C-11.18 1.03 -6.17 -0.4 0 0 Z " fill="#DEDDDF" transform="translate(639,21)"/>
<path d="M0 0 C1.15 0.45 2.29 0.91 3.44 1.38 C3.76 1.5 3.76 1.5 5.37 2.15 C7 3 7 3 8 5 C8.12 6.46 8.18 7.93 8.21 9.4 C8.65 24.45 9.47 34.79 19 47 C20.15 48.54 21.29 50.08 22.44 51.62 C23.29 52.75 24.14 53.88 25 55 C19.84 54.59 15.79 53.78 12 50 C1.08 35.84 -0.47 17.25 0 0 Z " fill="#9B61A3" transform="translate(195,255)"/>
<path d="M0 0 C0.48 12.14 -1.97 22.89 -6.12 34.25 C-6.5 35.29 -6.87 36.34 -7.25 37.41 C-8.16 39.94 -9.08 42.47 -10 45 C-10.66 45 -11.32 45 -12 45 C-12.17 45.7 -12.33 46.4 -12.5 47.12 C-14.85 51.62 -18.98 55.02 -23.86 56.6 C-25.5 56.88 -25.5 56.88 -28 57 C-27.67 56.65 -27.34 56.29 -27 55.93 C-23.5 52 -20.35 47.86 -17.31 43.56 C-16.93 43.04 -16.55 42.51 -16.16 41.97 C-10.76 34.22 -9.57 27.23 -9.44 17.88 C-9.22 5.82 -9.22 5.82 -7 1 C-4.54 -0.23 -2.72 -0.07 0 0 Z " fill="#9B61A2" transform="translate(437,253)"/>
<path d="M0 0 C3.38 4.5 3.38 4.5 4.35 7.9 C4.56 8.63 4.77 9.35 4.99 10.1 C5.2 10.85 5.41 11.6 5.62 12.38 C5.84 13.12 6.06 13.86 6.28 14.62 C9.66 26.44 11.23 39.51 6 51 C5.34 51 4.68 51 4 51 C3.34 52.32 2.68 53.64 2 55 C1.34 55 0.68 55 0 55 C0 36.85 0 18.7 0 0 Z " fill="#9E63A5" transform="translate(0,484)"/>
<path d="M0 0 C0.76 -0.03 1.51 -0.05 2.29 -0.08 C7.61 -0.09 12.82 0.75 16.94 4.38 C17.66 7.02 17.66 7.02 17.94 9.38 C17.27 9.36 16.61 9.35 15.92 9.34 C-6.62 9.03 -6.62 9.03 -15.71 10.93 C-19.77 11.7 -24.29 12.26 -28.06 10.38 C-28.06 9.71 -28.06 9.06 -28.06 8.38 C-19.18 1.55 -10.85 0.24 0 0 Z " fill="#9F63A6" transform="translate(328.0625,357.625)"/>
<path d="M0 0 C4.5 2.25 4.5 2.25 6.44 5.2 C6.86 5.83 7.28 6.46 7.71 7.12 C8.14 7.78 8.56 8.44 9 9.12 C9.43 9.76 9.85 10.4 10.29 11.06 C18 22.84 18 22.84 18 28 C16.13 28.34 14.25 28.67 12.38 29 C11.33 29.19 10.29 29.37 9.21 29.56 C6 30 6 30 0 30 C0 20.1 0 10.2 0 0 Z " fill="#AB84BA" transform="translate(0,598)"/>
<path d="M0 0 C-0.36 7.11 -4.52 12.52 -9.44 17.44 C-15.79 21.31 -21.8 21.63 -29 20 C-29.66 19.34 -30.32 18.68 -31 18 C-23.95 10.24 -10.93 -0.8 0 0 Z " fill="#9E6EA9" transform="translate(435,549)"/>
<path d="M0 0 C-5.02 4.42 -11.39 5.18 -17.82 6.07 C-18.13 6.11 -18.13 6.11 -19.69 6.33 C-20.99 6.51 -22.29 6.69 -23.59 6.86 C-25.56 7.12 -27.53 7.4 -29.51 7.68 C-30.78 7.85 -32.05 8.02 -33.32 8.2 C-34.46 8.35 -35.59 8.51 -36.77 8.66 C-39.87 8.99 -42.88 9.06 -46 9 C-42.57 2.19 -36.79 0.81 -29.99 -1.76 C-20.23 -4.76 -9.37 -3.63 0 0 Z " fill="#BB9CC8" transform="translate(594,409)"/>
<path d="M0 0 C-0.31 2.9 -0.57 4.55 -2.62 6.69 C-9 10.21 -15.82 10.91 -23 10 C-25.75 8.38 -25.75 8.38 -27 6 C-26.94 2.84 -26.69 0.87 -24.7 -1.64 C-18.63 -6.52 -5.54 -4.72 0 0 Z " fill="#87B2C4" transform="translate(200,366)"/>
<path d="M0 0 C0.92 5.38 1.11 10.54 1 16 C0.67 16 0.34 16 0 16 C0 13.69 0 11.38 0 9 C-12.37 10.09 -25.8 12.4 -37 18 C-37.49 12.82 -37.49 12.82 -37 11 C-32.68 7.46 -27.04 6.39 -21.75 4.94 C-20.85 4.68 -19.94 4.43 -19.01 4.16 C-4.14 0 -4.14 0 0 0 Z " fill="#C5C4CA" transform="translate(419,257)"/>
<path d="M0 0 C5.31 3.04 7.68 7.5 10 13 C-4.84 17.06 -4.84 17.06 -12 15 C-13.74 13.95 -13.74 13.95 -15 13 C-14.54 12.6 -14.07 12.2 -13.59 11.79 C-11.27 9.18 -10.76 6.37 -9.84 3.06 C-7.86 -1.78 -4.56 -1.34 0 0 Z " fill="#9E6FAA" transform="translate(628,8)"/>
<path d="M0 0 C2.36 3.94 2.17 7.55 2 12 C-3.06 14.26 -8.4 16.34 -14 15 C-15.93 12.89 -16 12.14 -15.94 9.19 C-14.48 4.23 -11.92 1.15 -7.5 -1.5 C-4.24 -2.15 -2.81 -1.75 0 0 Z " fill="#87B2C4" transform="translate(215,550)"/>
<path d="M0 0 C3.84 1.68 3.84 1.68 5.25 4.56 C6 8 6 8 6 17 C-0.27 17 -6.54 17 -13 17 C-9.55 10.1 -5.7 5.19 0 0 Z " fill="#AB7BB7" transform="translate(245,665)"/>
<path d="M0 0 C1.32 0.66 2.64 1.32 4 2 C4.12 13.38 3.87 24.65 3 36 C0.59 35.04 -0.74 34.43 -2.11 32.18 C-3.61 28.51 -3.34 24.86 -3.31 20.94 C-3.31 20.51 -3.31 20.51 -3.31 18.37 C-3.21 11.83 -2.32 6.15 0 0 Z " fill="#BF9ECC" transform="translate(223,114)"/>
<path d="M0 0 C3.53 1.48 5.6 3.46 8.12 6.31 C8.81 7.07 9.49 7.83 10.2 8.61 C12 11 12 11 14 16 C7.73 16 1.46 16 -5 16 C-3.62 3.62 -3.62 3.62 0 0 Z " fill="#AB7BB6" transform="translate(415,666)"/>
<path d="M0 0 C19.1 0.1 19.1 0.1 25 6 C25.2 8.6 25.2 8.6 25.12 11.62 C25.11 12.63 25.09 13.63 25.07 14.66 C25.05 15.43 25.02 16.21 25 17 C24.67 17 24.34 17 24 17 C24 14.36 24 11.72 24 9 C15.42 8.01 6.84 7.02 -2 6 C-1 1 -1 1 0 0 Z " fill="#C0BFC6" transform="translate(213,261)"/>
<path d="M0 0 C2.31 0.38 2.31 0.38 3.31 1.38 C4.1 8.59 1.87 13.17 -1.69 19.38 C-5.52 17.65 -5.52 17.65 -7 15.19 C-8.21 10.24 -7.54 6.8 -4.94 2.44 C-2.69 0.38 -2.69 0.38 0 0 Z " fill="#86A1B8" transform="translate(191.6875,545.625)"/>
<path d="M0 0 C0.66 0.33 1.32 0.66 2 1 C-2.45 10.15 -7.23 18.79 -13.38 26.94 C-13.89 27.62 -14.4 28.3 -14.92 29 C-17.11 31.82 -18.92 34.14 -22 36 C-19.73 31.34 -17.04 26.94 -14.38 22.5 C-13.84 21.61 -13.31 20.72 -12.76 19.8 C-8.69 13.07 -4.47 6.47 0 0 Z " fill="#955E9D" transform="translate(543,313)"/>
<path d="M0 0 C5.44 10.88 3.29 24.49 1 36 C0.67 36 0.34 36 0 36 C0 24.12 0 12.24 0 0 Z " fill="#483A5A" transform="translate(0,502)"/>
<path d="M0 0 C0.66 0.33 1.32 0.66 2 1 C1.29 1.77 0.57 2.55 -0.16 3.34 C-8.87 12.81 -8.87 12.81 -12.88 17.44 C-15.47 20.43 -18.16 23.25 -21 26 C-20.56 21.01 -18.34 18.68 -15 15.25 C-14.51 14.73 -14.02 14.21 -13.52 13.68 C-9.1 9.03 -4.58 4.48 0 0 Z " fill="#955E9D" transform="translate(513,357)"/>
<path d="M0 0 C4.5 2.25 4.5 2.25 6.25 5.62 C6.42 5.94 6.42 5.94 7.27 7.54 C7.39 7.78 7.39 7.78 8 9 C7.05 9.67 6.09 10.34 5.12 11 C4.59 11.37 4.06 11.74 3.51 12.12 C2 13 2 13 0 13 C0 8.71 0 4.42 0 0 Z " fill="#9E6FAA" transform="translate(0,598)"/>
<path d="M0 0 C7.14 -0.62 7.14 -0.62 10.5 1.81 C12 4 12 4 12 7 C10.73 7.05 9.46 7.09 8.19 7.12 C7.48 7.15 6.77 7.17 6.04 7.2 C3.74 6.97 2.71 6.54 1 5 C0.31 2.38 0.31 2.38 0 0 Z " fill="#D6D6D8" transform="translate(241,269)"/>
<path d="M0 0 C8.08 -0.57 13.24 1.7 20 6 C16.83 7.06 16.26 7.01 13.24 6.07 C12.53 5.85 11.83 5.63 11.1 5.41 C10.36 5.17 9.63 4.93 8.88 4.69 C8.13 4.46 7.39 4.24 6.63 4 C2.54 2.71 2.54 2.71 1 2 C0.67 1.34 0.34 0.68 0 0 Z " fill="#4F3462" transform="translate(298,285)"/>
<path d="M0 0 C0.99 0.33 1.98 0.66 3 1 C2.44 4.23 1.63 5.98 -1 8 C-1.99 8 -2.98 8 -4 8 C-3.4 4.64 -2.15 2.62 0 0 Z " fill="#BE9CCB" transform="translate(195,315)"/>
</svg>
