<?xml version="1.0" encoding="UTF-8"?>
<!-- Generator: visioncortex VTracer 0.6.5 -->
<svg version="1.1" xmlns="http://www.w3.org/2000/svg" width="682" height="682">
<path d="M0 0 C225.06 0 450.12 0 682 0 C682 225.06 682 450.12 682 682 C456.94 682 231.88 682 0 682 C0 456.94 0 231.88 0 0 Z " fill="#303031" transform="translate(0,0)"/>
<path d="M0 0 C0.36 0 0.36 0 2.17 0 C13.93 0.04 25.29 0.85 36.81 3.31 C37.16 3.38 37.16 3.38 38.89 3.75 C42.55 4.53 46.19 5.38 49.81 6.31 C50.82 10.35 50.74 13.86 50.5 18 C50.32 26.29 53.24 31.21 58.65 37.42 C66.94 45.63 78.35 52.06 90.19 52.12 C97.77 51.87 104.02 49.87 109.64 44.6 C112.48 41.44 114.78 38.04 116.81 34.31 C154.22 62.56 165.29 122.09 171.44 165.68 C172.4 172.71 173.26 179.76 174.05 186.82 C174.09 187.13 174.09 187.13 174.27 188.71 C174.61 191.88 174.86 195.03 175 198.22 C175.03 198.85 175.05 199.48 175.09 200.13 C175.16 201.87 175.21 203.6 175.26 205.33 C176.1 209.85 178.62 212.05 182.1 214.86 C182.66 215.34 183.23 215.82 183.81 216.31 C183.81 216.97 183.81 217.63 183.81 218.31 C184.1 218.44 184.1 218.44 185.55 219.07 C193.75 223.58 200.13 233 205.81 240.31 C206.43 241.09 207.05 241.87 207.69 242.67 C216.72 254.69 221.78 267.22 220.12 282.37 C218.52 292.41 211.03 299.37 203.24 305.25 C187.19 316.09 166.71 321.25 147.51 317.7 C143.9 316.68 141.49 315.99 138.81 313.31 C139.15 310.05 139.94 307.95 141.81 305.31 C141.18 305.07 140.55 304.83 139.91 304.58 C135.67 302.92 131.44 301.23 127.31 299.31 C126.68 299.02 126.05 298.74 125.41 298.44 C123.35 296.99 122.71 295.64 121.81 293.31 C121.62 290.44 121.62 290.44 122.81 287.31 C125.08 285.59 127.39 284.18 129.88 282.8 C130.52 282.31 131.16 281.82 131.81 281.31 C131.81 279.99 131.81 278.67 131.81 277.31 C128.84 276.32 125.87 275.33 122.81 274.31 C122.44 269.71 122.45 266.61 125.38 262.77 C131.98 256.04 140.82 253.17 149.5 250.19 C164.26 245.07 164.26 245.07 168.81 241.31 C169.69 239.06 169.69 239.06 169.81 237.31 C164.36 235.85 161.68 236.87 156.94 239.38 C151.51 242.1 146.1 244.37 140.38 246.38 C128.77 250.55 121.64 257.17 115.88 268.03 C111.49 277.39 111.73 287.76 114.71 297.55 C120.02 310.84 129.07 319.1 141.93 324.66 C148.41 327.32 154.86 329.26 161.81 330.31 C161.15 331.96 160.49 333.61 159.81 335.31 C159.15 335.31 158.49 335.31 157.81 335.31 C157.72 336.02 157.62 336.73 157.53 337.46 C155.53 345.42 148.59 352.79 143.44 359.06 C143.01 359.59 142.58 360.11 142.14 360.65 C141.08 361.92 139.95 363.12 138.81 364.31 C138.15 364.31 137.49 364.31 136.81 364.31 C137.21 365.39 137.6 366.46 138.01 367.57 C139.46 371.55 140.92 375.54 142.37 379.53 C143 381.25 143.63 382.98 144.26 384.71 C145.17 387.18 146.07 389.66 146.97 392.14 C147.25 392.92 147.54 393.69 147.83 394.48 C148.09 395.2 148.35 395.92 148.62 396.67 C148.85 397.3 149.08 397.93 149.32 398.59 C149.81 400.31 149.81 400.31 149.81 403.31 C149.15 403.39 148.48 403.46 147.8 403.54 C144.76 403.89 141.72 404.26 138.69 404.62 C137.64 404.74 136.59 404.86 135.52 404.98 C128.94 405.79 123.65 406.47 118.81 411.31 C118.55 413.27 118.55 413.27 118.56 415.56 C118.56 416.31 118.55 417.06 118.55 417.83 C118.87 420.85 119.78 423.47 120.81 426.31 C111.95 425.54 103.19 424.69 94.56 422.44 C93.97 422.29 93.37 422.14 92.76 421.99 C88.49 420.79 85.32 418.92 81.81 416.31 C81.31 415.95 80.81 415.59 80.3 415.21 C78.77 414.09 77.26 412.95 75.75 411.81 C75.25 411.43 74.74 411.06 74.22 410.67 C73.98 410.48 73.98 410.48 72.71 409.53 C72.22 409.17 71.73 408.8 71.22 408.43 C69.81 407.31 69.81 407.31 67.5 404.97 C63.44 402.47 60.36 403.46 55.81 404.31 C53.85 404.63 51.89 404.94 49.92 405.25 C46.75 405.78 43.57 406.31 40.4 406.85 C27.88 408.92 15.42 409.54 2.75 409.56 C2.4 409.56 2.4 409.56 0.64 409.57 C-13.18 409.58 -26.86 408.58 -40.61 407.26 C-43.4 407 -46.19 406.76 -48.98 406.51 C-50.53 406.37 -52.07 406.22 -53.61 406.07 C-56.08 405.82 -58.54 405.61 -61 405.4 C-61.76 405.32 -62.52 405.24 -63.3 405.15 C-65.38 404.99 -67.14 404.92 -69.19 405.31 C-71.55 407.68 -71.55 407.68 -73.19 410.31 C-85.75 421.22 -100.57 426.07 -117.19 425.31 C-117.04 424.51 -116.9 423.7 -116.75 422.88 C-116.05 418.71 -115.63 414.51 -115.19 410.31 C-119.99 406.62 -125.24 406.37 -131.12 405.69 C-133.07 405.45 -135.02 405.2 -136.96 404.96 C-137.88 404.85 -138.79 404.74 -139.73 404.63 C-141.68 404.38 -143.63 404.06 -145.57 403.73 C-148.15 403.32 -150.57 403.24 -153.19 403.31 C-149.78 391.37 -146.07 379.74 -141.19 368.31 C-141.72 367.84 -142.25 367.36 -142.8 366.87 C-158.19 352.42 -166.06 333.19 -172.19 313.31 C-172.09 309.82 -171.58 308.7 -169.07 306.24 C-168.16 305.56 -167.25 304.89 -166.31 304.19 C-165.3 303.39 -164.28 302.6 -163.27 301.79 C-162.76 301.38 -162.24 300.97 -161.71 300.55 C-152.92 293.4 -146.25 284.74 -139.67 275.57 C-136.08 270.62 -132.32 266.28 -127.93 262.03 C-123.33 257.5 -119.22 251.83 -118.73 245.23 C-119.54 241.85 -122.08 240.05 -124.72 237.95 C-125.2 237.41 -125.69 236.87 -126.19 236.31 C-125.94 233.9 -125.18 232.31 -124.12 230.12 C-122.84 226.26 -122.48 222.35 -123.19 218.31 C-125.1 215.85 -126.15 215.32 -129.19 214.31 C-130.4 214.22 -131.61 214.18 -132.82 214.17 C-141.84 213.97 -149.8 213.02 -158.35 210.04 C-165.61 207.57 -171.62 207.79 -178.88 210.12 C-179.95 210.46 -181.03 210.8 -182.14 211.14 C-185.08 212.27 -187.52 213.66 -190.19 215.31 C-189.45 215.28 -188.7 215.24 -187.94 215.2 C-185.18 215.08 -182.43 214.95 -179.67 214.83 C-178.48 214.78 -177.29 214.72 -176.09 214.66 C-174.38 214.58 -172.66 214.51 -170.95 214.43 C-169.92 214.39 -168.89 214.34 -167.82 214.29 C-165.19 214.31 -165.19 214.31 -162.19 215.31 C-162.61 217.84 -162.99 219.96 -164.23 222.22 C-165.93 225.93 -165.32 229.47 -164.19 233.31 C-162.71 235.46 -162.71 235.46 -161 237.5 C-159.36 239.46 -159.36 239.46 -158.19 241.31 C-158.69 244.56 -159.69 246.45 -161.31 249.25 C-162.9 252.99 -162.71 256.38 -161.68 260.21 C-160.2 263.62 -158.96 265 -155.47 266.42 C-152.72 267.17 -149.99 267.8 -147.19 268.31 C-150.87 281.18 -163.05 291.58 -174.19 298.31 C-184.87 304.01 -196.98 308.26 -209.14 304.75 C-220.46 300.46 -226.97 293.52 -232.24 282.71 C-235.86 273.54 -234.25 264.42 -231.19 255.31 C-220.92 231.86 -198.68 213.94 -175.77 203.89 C-174.19 203.31 -174.19 203.31 -172.19 203.31 C-172.19 201.66 -172.19 200.01 -172.19 198.31 C-174.83 197.98 -177.47 197.65 -180.19 197.31 C-179.55 186.4 -178.39 175.59 -177 164.75 C-176.89 163.9 -176.78 163.05 -176.67 162.18 C-170.73 116.24 -160.13 65.94 -121.62 36.1 C-120.19 35.31 -120.19 35.31 -117.19 35.31 C-116.97 35.83 -116.75 36.35 -116.52 36.89 C-113.83 42.82 -110.86 46.37 -105.09 49.42 C-94.34 52.72 -80.15 51.37 -70.19 46.31 C-61.79 41.58 -55.17 35.28 -51.65 26.16 C-50.11 19.99 -51.37 13.51 -52.19 7.31 C-49 6.51 -45.81 5.72 -42.62 4.94 C-42.19 4.83 -42.19 4.83 -39.97 4.27 C-26.7 1.03 -13.63 -0.07 0 0 Z " fill="#AF7DBA" transform="translate(379.1875,139.6875)"/>
<path d="M0 0 C14.22 8.61 19.48 26.09 23.36 41.28 C24.89 47.77 26.05 54.34 27.14 60.91 C27.28 61.75 27.43 62.59 27.57 63.45 C27.87 65.2 28.14 66.96 28.41 68.71 C29.27 73.82 29.96 76.96 34.06 80.44 C53.44 98.14 66.23 122.6 75 147 C75.27 147.74 75.54 148.48 75.81 149.25 C85.16 175.75 89.41 203.4 93.31 231.11 C94.05 236.35 94.8 241.59 95.57 246.83 C95.63 247.24 95.63 247.24 95.92 249.34 C97.93 262.92 103.56 271.77 113.34 281.26 C126.91 294.43 139.92 312.1 140.38 331.78 C140.34 345.39 136.75 355.01 127.19 364.86 C117.07 374.35 104.9 378.84 92.01 383.24 C91.35 383.49 90.68 383.74 90 384 C89.32 384.26 88.63 384.51 87.93 384.77 C85.29 386.45 84.46 388.31 83.05 391.09 C82.54 392.1 82.02 393.11 81.48 394.16 C80.95 395.23 80.41 396.3 79.88 397.38 C79.33 398.44 78.79 399.51 78.25 400.57 C76.82 403.37 75.41 406.18 74 409 C73.81 409.39 73.81 409.39 72.83 411.33 C72.7 411.61 72.7 411.61 72 413 C83.66 421.13 95.71 428.81 109 434 C109.01 433.22 109.02 432.44 109.03 431.64 C109.07 428.67 109.13 425.71 109.21 422.75 C109.24 421.48 109.26 420.21 109.27 418.94 C109.49 400.58 115.35 385.28 128.58 372.33 C140.24 361.4 156.32 356.34 172.18 356.75 C183 357.71 193.31 359.97 203 365 C203.66 365.2 204.32 365.41 205 365.62 C207.72 366.74 209.12 367.7 211 370 C212.24 375.82 212.01 381.62 211.91 387.55 C211.91 389.37 211.91 391.2 211.91 393.02 C211.91 397.97 211.87 402.92 211.81 407.86 C211.76 413.04 211.76 418.21 211.75 423.38 C211.72 433.17 211.66 442.96 211.58 452.76 C211.49 463.9 211.44 475.05 211.4 486.2 C211.32 509.13 211.18 532.07 211 555 C209.07 555.01 207.15 555.02 205.22 555.03 C204.14 555.03 203.07 555.04 201.96 555.04 C191.94 554.9 183.55 551.18 176.25 544.37 C168.19 535.7 166.51 525.59 166.73 514.18 C167.41 499.36 176.37 488.43 186.15 478.21 C190.99 473.12 195.07 467.81 199 462 C199.43 461.39 199.86 460.79 200.3 460.16 C204.84 453.67 205.39 448.32 205.38 440.56 C205.37 439.58 205.37 438.6 205.37 437.6 C205.19 426.97 203.43 417.69 197 409 C194.23 406.47 191.84 405 188 405 C188.55 405.92 189.11 406.84 189.68 407.78 C197.46 420.86 197.46 420.86 198 427 C198.08 427.89 198.16 428.78 198.24 429.69 C198.82 442.83 194.48 453.27 186 463 C183.83 465.32 181.61 467.2 179 469 C178.32 469.49 177.63 469.98 176.93 470.48 C152.47 485.8 117.23 484.45 90.19 478.37 C84.75 477.05 79.36 475.58 74 474 C73.93 474.45 73.93 474.45 73.57 476.75 C72.32 483.88 70.44 488.27 64.72 492.87 C61.64 494.9 58.94 495.13 55.36 495.18 C54.41 495.19 53.47 495.2 52.5 495.22 C51.48 495.22 50.46 495.23 49.4 495.24 C48.34 495.25 47.28 495.25 46.18 495.26 C43.92 495.28 41.66 495.29 39.4 495.3 C37.12 495.31 34.84 495.33 32.56 495.36 C13.26 495.61 -8.28 495.6 -23.45 481.77 C-24.85 480.39 -26.21 478.97 -27.51 477.5 C-34.16 473.49 -44.21 476.46 -51.6 477.42 C-68.41 479.59 -85.05 480.4 -102 480.38 C-102.5 480.38 -102.5 480.38 -105.01 480.38 C-116.41 480.38 -127.66 479.95 -139 478.69 C-152.51 477.2 -152.51 477.2 -156.41 479.29 C-157.1 479.87 -157.79 480.46 -158.5 481.06 C-175.97 494.22 -197.33 496.7 -218.57 496.52 C-221.66 496.5 -224.74 496.52 -227.82 496.55 C-229.81 496.54 -231.8 496.54 -233.79 496.53 C-234.7 496.54 -235.61 496.55 -236.54 496.56 C-243.66 496.45 -249.08 494.76 -254.31 489.81 C-261.55 477.74 -259.53 464.21 -256.54 451.1 C-255.42 446.77 -254 442.51 -252.45 438.32 C-251.43 435.4 -250.86 433.62 -251.54 430.56 C-253.63 426.89 -255.86 423.32 -258.12 419.75 C-263.49 411.12 -267.91 402.29 -272 393 C-272.34 392.24 -272.67 391.48 -273.02 390.7 C-275.04 386.15 -277.03 381.58 -279 377 C-279.63 376.96 -280.27 376.92 -280.92 376.88 C-299.1 375.68 -313.07 374.49 -326.19 360.81 C-330.31 356 -332.81 350.92 -335 345 C-335.25 344.35 -335.49 343.69 -335.75 343.02 C-340.2 328.65 -335.83 313.72 -329.25 300.86 C-321.67 286.64 -308.61 268.84 -293.48 261.83 C-286.52 258.43 -286.52 258.43 -285.07 254.46 C-284.69 251.26 -284.61 248.16 -284.62 244.94 C-284.57 243.12 -284.49 241.31 -284.42 239.49 C-284.36 238.23 -284.31 236.97 -284.27 235.72 C-284.02 228.94 -283.2 222.27 -282.25 215.56 C-282.17 214.96 -282.08 214.36 -281.99 213.75 C-276.13 172.68 -265.21 129.34 -238 97 C-237.59 96.51 -237.18 96.02 -236.76 95.52 C-231.48 89.28 -225.87 84.01 -219.35 79.07 C-213.6 74 -213.36 68.69 -212.62 61.44 C-210.38 42.12 -206.76 17.61 -190.95 4.27 C-185.91 0.93 -180.5 -1.22 -174.38 -1.25 C-171.96 -0.72 -171.16 -0.23 -169.72 1.82 C-165.92 9.52 -163.73 17.42 -161.6 25.68 C-159.55 33.54 -157.04 40.51 -153.17 47.68 C-152 50 -152 50 -152 52 C-151.07 51.8 -150.15 51.6 -149.2 51.39 C-113.91 43.74 -113.91 43.74 -98 43 C-97.39 42.97 -96.79 42.94 -96.17 42.9 C-79.81 42.16 -63.5 44.54 -47.64 48.32 C-38.45 50.5 -38.45 50.5 -34 50 C-28.11 45.34 -25.89 39.61 -24.5 32.35 C-24.38 31.74 -24.26 31.12 -24.13 30.48 C-23.75 28.53 -23.37 26.58 -23 24.62 C-18.9 3.17 -18.9 3.17 -14 -1 C-9.08 -2.64 -4.84 -1.66 0 0 Z M-144 65 C-143.93 65.53 -143.87 66.06 -143.8 66.6 C-143.61 68.05 -143.43 69.5 -143.25 70.96 C-143.07 72.41 -142.88 73.87 -142.69 75.33 C-142.16 83.2 -145.8 90.24 -150.83 96.14 C-160.19 104.88 -171.41 108.36 -183.94 108.38 C-184.79 108.4 -185.65 108.42 -186.53 108.45 C-193.14 108.48 -198.68 107.15 -203.59 102.49 C-206.18 99.61 -207.8 96.71 -209 93 C-217.9 94.47 -227.92 105.6 -233.14 112.51 C-239.45 121.42 -244.45 131.09 -249 141 C-249.13 141.29 -249.13 141.29 -249.82 142.77 C-262.15 170.03 -266.21 200.38 -269.81 229.81 C-269.92 230.72 -270.04 231.63 -270.15 232.57 C-270.47 235.18 -270.78 237.79 -271.08 240.39 C-271.18 241.17 -271.27 241.95 -271.37 242.76 C-271.84 246.87 -272.1 250.86 -272 255 C-269.36 255.33 -266.72 255.66 -264 256 C-264 257.65 -264 259.3 -264 261 C-264.5 261.14 -265 261.27 -265.51 261.41 C-279.33 265.55 -289.57 273.32 -300 283 C-300.54 283.49 -301.08 283.98 -301.64 284.49 C-313.04 294.92 -324.61 308.97 -326 325 C-326.05 325.59 -326.1 326.18 -326.16 326.79 C-326.64 336.98 -322.56 345.4 -316 353 C-313.51 355.36 -310.94 357.23 -308 359 C-307.35 359.41 -306.69 359.82 -306.02 360.25 C-297.94 364.61 -287.59 364.21 -278.88 361.94 C-262.61 356.08 -248.78 345 -240 330 C-239.3 327.69 -239.3 327.69 -239 326 C-239.75 325.86 -240.5 325.73 -241.27 325.59 C-249.05 323.89 -249.05 323.89 -251.62 321.49 C-253.99 317.63 -255.01 313.48 -254 309 C-253 306.88 -251.92 304.89 -250.68 302.89 C-250 301 -250 301 -250.75 298.93 C-252 297 -252 297 -254.06 294.31 C-256.62 290.52 -257.25 286.53 -257 282 C-255.56 279.19 -255.56 279.19 -254 277 C-253.81 274.69 -253.81 274.69 -254 273 C-262.51 270.16 -273.16 272.39 -282 273 C-273.21 268.28 -264.24 264.07 -254.05 266.46 C-252.06 267.08 -250.09 267.75 -248.12 268.44 C-241.03 270.75 -234.43 271.6 -226.98 271.63 C-222.08 271.7 -218.63 272.37 -215 276 C-214.52 280.36 -214.38 284.42 -216.56 288.31 C-218 291 -218 291 -217.79 293 C-216.86 295.36 -215.85 296.19 -213.88 297.75 C-212.03 299.51 -211.09 300.41 -210.69 302.95 C-211.38 310.56 -216.06 315.13 -221.02 320.48 C-224.94 324.79 -228.46 329.38 -232 334 C-237.08 340.61 -242.24 346.97 -248 353 C-248.59 353.63 -249.18 354.26 -249.79 354.91 C-254.15 359.44 -258.96 363.24 -264 367 C-263.42 373.16 -261.56 378.45 -259.31 384.19 C-258.95 385.12 -258.59 386.05 -258.21 387.01 C-252.19 402.32 -244.81 414.53 -233 426 C-233.13 426.33 -233.13 426.33 -233.78 428.03 C-234.75 430.57 -235.72 433.11 -236.68 435.65 C-237.3 437.27 -237.92 438.89 -238.54 440.5 C-241.09 447.25 -243.24 454 -245 461 C-244.46 460.98 -243.93 460.96 -243.37 460.94 C-239.79 460.81 -236.73 461.02 -233.26 461.95 C-228.26 463.27 -223.24 463.69 -218.09 464.12 C-213.67 464.57 -210.7 465.32 -207 468 C-207.53 473.03 -208.11 478.02 -209 483 C-193.62 484.13 -178.34 479.25 -166.48 469.45 C-165 468 -165 468 -163.33 465.33 C-161 463 -161 463 -159.27 462.67 C-157.09 462.68 -154.98 462.85 -152.82 463.09 C-152.02 463.16 -151.22 463.22 -150.4 463.29 C-147.93 463.5 -145.47 463.75 -143 464 C-141.56 464.13 -140.12 464.26 -138.69 464.38 C-135.89 464.63 -133.09 464.89 -130.29 465.16 C-99.43 468.07 -68.76 468.57 -38.28 462.23 C-33.6 461.29 -29.66 460.5 -25 462 C-22.66 463.71 -22.66 463.71 -20.5 465.81 C-17.13 468.98 -13.92 471.56 -10 474 C-9.55 474.33 -9.55 474.33 -7.25 475.98 C-4.11 478.07 -0.89 479.21 2.75 480.12 C3.38 480.29 4.01 480.45 4.66 480.62 C12.65 482.58 20.82 483.29 29 484 C28.68 483.11 28.36 482.21 28.03 481.29 C26.71 477.07 26.21 473.37 27 469 C32.16 462.71 41.92 462.63 49.5 461.88 C50.32 461.79 51.14 461.7 51.99 461.61 C53.99 461.4 56 461.2 58 461 C56.56 452.45 53.4 444.52 50.38 436.44 C49.85 435.03 49.33 433.63 48.81 432.22 C47.55 428.81 46.28 425.41 45 422 C45.61 421.73 46.21 421.46 46.84 421.18 C49.02 419.99 50.07 419.02 51.59 417.09 C52.04 416.52 52.49 415.94 52.96 415.35 C53.43 414.74 53.89 414.13 54.38 413.5 C54.86 412.88 55.34 412.25 55.84 411.61 C66 398.28 66 398.28 66 393 C66.66 393 67.32 393 68 393 C68.66 391.35 69.32 389.7 70 388 C68.97 387.77 67.95 387.54 66.89 387.3 C50.16 383.42 36.41 377.51 26.52 362.8 C21.26 353.98 19.34 343.8 21.5 333.65 C22.21 331.36 23.05 329.2 24 327 C24.35 326.16 24.7 325.33 25.07 324.46 C31.05 311.37 41.2 306.49 54.15 301.65 C55.54 301.14 56.94 300.63 58.34 300.12 C61.93 298.82 65.28 297.43 68.62 295.56 C71.15 294.2 72.65 293.8 75.5 294.25 C75.91 294.37 75.91 294.37 78 295 C77.1 297.93 76.52 299.62 74 301.45 C67.78 304.31 61.49 306.68 55 308.88 C35.7 315.65 35.7 315.65 31 325 C30.71 327.02 30.71 327.02 30.81 328.81 C30.84 329.34 30.84 329.34 31 332 C33.97 332.99 36.94 333.98 40 335 C40 337.19 40 337.19 39 340 C37.19 341.23 37.19 341.23 35 342.44 C31.13 344.64 31.13 344.64 29.88 348.06 C30.01 351.12 30.4 352.44 32 355 C33.59 356.12 33.59 356.12 35.5 357 C35.85 357.16 35.85 357.16 37.62 357.98 C41.72 359.74 45.84 361.4 50 363 C49.51 363.61 49.01 364.21 48.5 364.84 C47 367 47 367 46.94 369.56 C48 372 48 372 50.75 373.75 C66.22 379.7 84.75 375.77 99.55 369.58 C110.77 364.28 122.66 355.83 127.42 343.92 C130.7 333.12 128.2 321.56 123.16 311.8 C116.76 300.28 108.38 290.71 99.32 281.2 C98.78 280.63 98.23 280.06 97.67 279.47 C95.89 277.91 94.12 277.04 92 276 C91.33 274.67 90.67 273.33 90 272 C89.55 271.66 89.1 271.33 88.63 270.98 C85.55 268.66 84.18 266.81 83.32 263 C82.95 259.84 82.77 256.68 82.61 253.5 C82.42 249.8 82.12 246.11 81.83 242.42 C81.77 241.65 81.71 240.88 81.65 240.08 C77.52 190.08 64.65 127.09 26 92 C23.75 94.12 22.05 96.32 20.31 98.88 C16.56 103.97 11.98 107.01 6 109 C-7.76 110.61 -18.03 107.08 -29.05 98.78 C-34.78 93.96 -40.49 88.66 -41.19 80.85 C-41.41 75.56 -41.28 70.29 -41 65 C-46.25 63.45 -51.53 62.13 -56.88 60.94 C-57.25 60.85 -57.25 60.85 -59.15 60.41 C-69.68 58.06 -80.06 57.76 -90.81 57.75 C-91.18 57.75 -91.18 57.75 -93.03 57.75 C-110.65 57.76 -127.02 60.33 -144 65 Z " fill="#3F3652" transform="translate(471,82)"/>
<path d="M0 0 C5.37 0.05 10.2 0.66 15.38 2.07 C16.18 2.29 16.98 2.5 17.81 2.73 C33.66 7.22 48.95 13.76 64.21 19.91 C64.98 20.22 65.74 20.53 66.54 20.85 C70.28 22.36 74.02 23.87 77.75 25.4 C84.71 28.24 91.69 30.89 98.86 33.17 C99.51 33.39 100.17 33.6 100.85 33.82 C104.35 34.9 107.42 35.65 111.13 35.26 C112.82 33.72 112.82 33.72 114.25 31.63 C114.5 31.27 114.5 31.27 115.78 29.43 C116.92 27.59 117.87 25.8 118.75 23.82 C120.13 21.26 120.13 21.26 122.13 20.26 C124.49 20.26 125.26 20.9 127.13 22.26 C127.59 31.59 124.53 37.16 118.5 43.85 C115.46 46.97 112.09 49.62 108.61 52.22 C106 54.36 104.15 56.58 102.13 59.26 C92.72 70.89 80.88 79.25 65.77 80.98 C50.39 82.26 34.68 76.31 22.94 66.42 C13.6 57.51 7.47 46.93 7.05 33.81 C7.03 31 7.04 28.19 7.06 25.38 C7.07 24.41 7.07 23.43 7.08 22.43 C7.09 20.04 7.11 17.65 7.13 15.26 C6.37 15.13 5.61 14.99 4.83 14.86 C1.3 14.08 -1.49 13.07 -3.87 10.26 C-4.5 7.51 -4.49 5.01 -3.87 2.26 C-1.87 0.26 -1.87 0.26 0 0 Z " fill="#403753" transform="translate(262.8740234375,255.740966796875)"/>
<path d="M0 0 C1.21 1.52 1.21 1.52 2 3 C-0.58 7.31 -2.43 9.66 -7 12 C-8.63 12.85 -8.63 12.85 -10 14 C-10.35 15.63 -10.35 15.63 -10.34 17.57 C-10.35 18.29 -10.35 19.02 -10.36 19.76 C-10.37 20.54 -10.37 21.32 -10.38 22.12 C-10.9 38.5 -16.17 52.35 -27.88 64.06 C-28.64 64.78 -29.4 65.49 -30.18 66.22 C-32 68 -32 68 -33 70 C-34.41 70.76 -34.41 70.76 -36.2 71.47 C-36.85 71.73 -37.51 71.99 -38.18 72.26 C-38.86 72.52 -39.54 72.79 -40.25 73.06 C-40.92 73.33 -41.59 73.6 -42.28 73.88 C-55.28 79 -69.15 78.36 -82 73 C-85.1 71.48 -88.08 69.84 -91 68 C-91.16 68.34 -91.16 68.34 -91.99 70.08 C-92.43 70.98 -92.86 71.88 -93.31 72.81 C-93.74 73.71 -94.17 74.6 -94.61 75.52 C-95.89 77.81 -96.97 79.36 -99 81 C-99.66 81 -100.32 81 -101 81 C-102.35 74 -102.35 74 -100 70 C-99.96 68.67 -99.95 67.33 -100 66 C-107.37 61.27 -114.12 60.97 -122.59 62.68 C-125.75 63.38 -128.88 64.17 -132 65 C-132 64.34 -132 63.68 -132 63 C-130.68 61.78 -130.68 61.78 -128.88 60.5 C-128.58 60.29 -128.58 60.29 -127.12 59.22 C-121.97 56.25 -116.92 55.64 -111.12 55.38 C-110.44 55.34 -109.75 55.3 -109.04 55.26 C-107.36 55.16 -105.68 55.08 -104 55 C-104.91 52.66 -105.83 50.33 -106.75 48 C-107.02 47.31 -107.29 46.62 -107.57 45.91 C-108.99 42.36 -110.47 39 -112.38 35.69 C-114.65 31.3 -114.86 26.83 -114 22 C-112.88 19.83 -111.81 18.69 -110 17 C-106.9 18.06 -106.03 18.96 -104.3 21.82 C-103.77 22.92 -103.25 24.02 -102.75 25.12 C-102.48 25.69 -102.21 26.25 -101.94 26.83 C-101.28 28.22 -100.64 29.61 -100 31 C-92.69 30.61 -86.39 28.67 -79.56 26.12 C-78.48 25.73 -77.4 25.34 -76.29 24.93 C-67.74 21.77 -59.35 18.26 -50.98 14.67 C-13.3 -1.51 -13.3 -1.51 0 0 Z " fill="#403753" transform="translate(516,258)"/>
<path d="M0 0 C8.46 5.97 13.03 20.27 15 30 C16.5 39.43 12.8 46.7 7.38 54.26 C3.41 58.76 -1.36 61.57 -6.62 64.31 C-7.24 64.64 -7.85 64.96 -8.49 65.3 C-20.09 70.95 -32.65 71.55 -45.31 71.44 C-45.67 71.44 -45.67 71.44 -47.51 71.43 C-58.49 71.37 -68.54 70.53 -79 67 C-80.35 66.58 -81.7 66.17 -83.06 65.76 C-86.75 64.61 -90.4 63.42 -94 62 C-94.34 61.88 -94.34 61.88 -96.06 61.25 C-102 58.75 -103.98 55.53 -106.38 49.69 C-106.7 48.95 -107.03 48.22 -107.37 47.46 C-110.36 40.63 -112.31 34.5 -112 27 C-105.94 26.27 -102 28.77 -96.81 31.69 C-95.11 32.61 -93.4 33.54 -91.7 34.46 C-90.88 34.9 -90.07 35.35 -89.23 35.8 C-70.14 46.05 -45.35 54.61 -23.49 49.27 C-18.22 47.51 -13.77 45.12 -10 41 C-9.79 40.79 -9.79 40.79 -8.75 39.73 C-5.44 35.74 -5.47 31.59 -5.68 26.54 C-6.19 22.45 -7.81 20.33 -10.5 17.33 C-15.73 11.44 -15.73 11.44 -16 7 C-6.62 -1.19 -6.62 -1.19 0 0 Z " fill="#A272AC" transform="translate(643,480)"/>
<path d="M0 0 C1.85 0.17 1.85 0.17 4 1 C5.27 3.2 5.27 3.2 6.38 6.25 C6.58 6.81 6.79 7.38 7 7.96 C8.6 12.45 9.84 17.01 11.08 21.61 C13.76 31.53 17.19 40.24 22.08 49.26 C29.12 62.56 29.12 62.56 29.25 69.88 C29.28 70.72 29.3 71.56 29.33 72.43 C28.77 76.78 26.99 79.22 23.58 81.91 C13.36 88.23 2.34 93.39 -9.99 90.54 C-14.63 88.85 -16.91 86.39 -19 82 C-21.65 74.91 -21.36 67.39 -21.31 59.94 C-21.31 59.61 -21.31 59.61 -21.31 57.98 C-21.2 35.77 -15.58 16.5 0 0 Z " fill="#AE7DB9" transform="translate(290,91)"/>
<path d="M0 0 C4.73 0.51 7.92 3.67 10.81 7.23 C18.28 18.77 22.49 31.54 25 45 C25.07 45.34 25.07 45.34 25.4 47.05 C27.26 58.79 27.51 74.32 21 84.69 C18.17 87.96 16.96 88.9 12.59 89.34 C0.84 89.6 -9.59 87.59 -19 80 C-22.49 76.53 -23.9 72.52 -24.21 67.65 C-23.46 58.19 -18.36 49.61 -13.94 41.44 C-7.88 30.24 -4.9 19.24 -2.31 6.83 C-2.15 6.08 -1.99 5.34 -1.83 4.58 C-1.7 3.91 -1.56 3.25 -1.42 2.56 C-1 1 -1 1 0 0 Z " fill="#AE7CB9" transform="translate(463,92)"/>
<path d="M0 0 C0.71 0.17 1.42 0.34 2.16 0.52 C9.81 2.61 16.42 7.42 22 13 C22.18 15.65 22.23 18.2 22.2 20.85 C22.19 21.63 22.19 22.4 22.19 23.2 C22.18 25.67 22.15 28.15 22.12 30.62 C22.11 32.3 22.11 33.98 22.1 35.66 C22.08 39.77 22.04 43.89 22 48 C20.16 45.3 18.65 42.51 17.12 39.62 C12.1 30.47 5.7 24.02 -4.19 20.06 C-12.27 17.79 -21.78 17.51 -29.5 21 C-36.96 25.43 -41.66 31.51 -44.35 39.74 C-46.24 49.23 -45.38 59.48 -44 69 C-47.54 70.18 -50.81 70.26 -54.5 70.31 C-54.84 70.33 -54.84 70.33 -56.55 70.4 C-59.65 70.44 -61.49 70.45 -63.86 68.34 C-68.94 57.88 -69.8 43.97 -66.94 32.75 C-62.26 19.62 -52.43 8.87 -40.16 2.44 C-27.85 -3.17 -12.94 -3.91 0 0 Z " fill="#AB84BA" transform="translate(660,451)"/>
<path d="M0 0 C0.33 0 0.66 0 1 0 C1 28.38 1 56.76 1 86 C-21.57 84.39 -21.57 84.39 -28.6 77.66 C-32.84 72.64 -34.02 66.46 -34 60 C-33.36 54.78 -32.23 49.79 -30 45 C-29.34 45 -28.68 45 -28 45 C-27.93 44.31 -27.86 43.63 -27.79 42.92 C-26.75 39.06 -24.8 36.44 -22.44 33.25 C-21.99 32.63 -21.54 32.01 -21.07 31.37 C-18.52 27.88 -15.85 24.64 -12.88 21.5 C-7.36 15.55 -2.57 7.71 0 0 Z " fill="#AA84B9" transform="translate(681,542)"/>
<path d="M0 0 C0.29 9.36 0.03 18.37 -4 27 C-4.66 27 -5.32 27 -6 27 C-6.04 27.37 -6.04 27.37 -6.27 29.25 C-7.77 34.89 -13.39 39.03 -18.06 42.31 C-29.02 48.61 -41.73 49.93 -54.12 47.35 C-65.08 43.35 -71.07 35.12 -76 25 C-76.69 22.64 -76.69 22.64 -77 21 C-72.69 22.72 -70.29 25.89 -67.44 29.37 C-64.36 32.97 -61.63 34.56 -56.97 35.34 C-51.83 35.44 -48.82 34.45 -45 31 C-44.55 30.61 -44.09 30.22 -43.62 29.82 C-40.27 26.45 -39.76 23.73 -39.12 19.06 C-37.96 13.82 -37.96 13.82 -35.68 11.87 C-31.42 9.24 -26.7 7.66 -22 6 C-20.47 5.42 -18.94 4.83 -17.41 4.25 C-5 -0.4 -5 -0.4 0 0 Z " fill="#DDDDDE" transform="translate(495,277)"/>
<path d="M0 0 C2.38 2 2.38 2 4 4 C3.34 6.31 2.68 8.62 2 11 C2.78 11.23 3.57 11.45 4.38 11.69 C7.17 12.61 9.61 13.85 12.19 15.25 C38.4 28.53 73.13 31.78 101.18 23 C108.48 20.42 115.16 16.94 121.83 13.03 C126.86 10.2 131.24 9.24 137 9 C136.51 13.3 135.18 16.12 132 19 C109.4 36.31 77.38 39.87 49.96 36.46 C45.92 35.84 41.97 34.97 38 34 C37.35 33.85 36.7 33.7 36.02 33.55 C28.23 31.75 21.02 29.47 13.83 25.9 C10.49 24.26 7.12 22.68 3.75 21.08 C-0.51 19.06 -4.75 17.03 -9 15 C-8.97 16.09 -8.94 17.19 -8.91 18.32 C-8.8 21.95 -9.84 24.03 -12 27 C-13.88 26.75 -13.88 26.75 -16 26 C-19.15 21.21 -18.71 15.49 -18 10 C-15.09 3.44 -7.04 -1.25 0 0 Z " fill="#422D57" transform="translate(324,347)"/>
<path d="M0 0 C1.29 0.14 2.58 0.29 3.88 0.44 C4.23 0.48 4.23 0.48 6.05 0.68 C8 1 8 1 10 2 C9.93 2.96 9.86 3.91 9.79 4.89 C9.33 13.92 10.14 20.64 16 28 C17.94 29.67 19.74 30.76 22 32 C22 32.66 22 33.32 22 34 C29.39 34.44 36 34.84 42 30 C44.85 26.83 47.15 23.37 49.39 19.75 C51 18 51 18 53.06 17.65 C62.55 18.79 71.34 22.25 79 28 C78.21 34.24 74.65 37.09 70 41 C57.92 49.76 45.34 51.62 30.81 49.38 C19.9 46.78 10.35 39.95 4.4 30.45 C3.13 28 2.02 25.56 1 23 C0.76 22.44 0.51 21.88 0.26 21.3 C-1.94 15.32 -1.35 8.28 -1 2 C-0.67 1.34 -0.34 0.68 0 0 Z " fill="#DEDDDF" transform="translate(281,276)"/>
<path d="M0 0 C0.33 0 0.66 0 1 0 C1.34 6.88 1.01 12.97 -0.57 19.68 C-5.39 40.34 -8 60.78 -9.49 81.91 C-9.9 87.79 -10.34 93.67 -10.79 99.55 C-10.84 100.18 -10.88 100.8 -10.93 101.45 C-11.79 112.71 -13.17 123.86 -15 135 C-16.17 135.27 -17.34 135.54 -18.52 135.81 C-19.21 135.97 -19.9 136.13 -20.61 136.3 C-22.04 136.63 -23.47 136.95 -24.9 137.27 C-28.6 138.16 -31.55 139.22 -34.78 141.27 C-36.47 142.32 -36.47 142.32 -38 143 C-40.44 142.25 -40.44 142.25 -42 141 C-39.46 139.7 -36.92 138.41 -34.38 137.12 C-34.02 136.94 -34.02 136.94 -32.21 136.02 C-28.2 133.99 -24.31 132.29 -20 131 C-20 129.35 -20 127.7 -20 126 C-22.64 125.67 -25.28 125.34 -28 125 C-27.36 114.09 -26.2 103.28 -24.81 92.44 C-24.7 91.59 -24.6 90.74 -24.48 89.86 C-20.4 58.33 -13.18 29.09 0 0 Z " fill="#9C62A4" transform="translate(227,212)"/>
<path d="M0 0 C4.78 3.22 9.3 8.03 11.26 13.52 C11.5 16.45 11.45 19.34 11.39 22.27 C11.38 23.07 11.37 23.86 11.36 24.68 C11.34 26.63 11.3 28.57 11.26 30.52 C9.43 27.83 7.91 25.03 6.39 22.15 C1.36 12.99 -5.03 6.54 -14.93 2.59 C-23 0.31 -32.52 0.04 -40.24 3.52 C-47.7 7.96 -52.4 14.03 -55.09 22.26 C-56.98 31.75 -56.12 42.01 -54.74 51.52 C-58.28 52.7 -61.55 52.78 -65.24 52.84 C-65.92 52.86 -66.59 52.89 -67.29 52.92 C-70.55 52.97 -72.26 52.98 -74.66 50.68 C-75.85 48.29 -76.37 46.16 -76.74 43.52 C-75.58 43.36 -75.58 43.36 -69.74 42.52 C-69.63 41.78 -69.52 41.05 -69.41 40.29 C-67.3 26.82 -63.86 9.87 -52.74 0.52 C-37.11 -10.25 -16.51 -8.77 0 0 Z " fill="#9C62A4" transform="translate(670.73828125,468.4765625)"/>
<path d="M0 0 C0.33 0 0.66 0 1 0 C1.63 11.82 1.93 20.84 -5.95 30.35 C-18.25 43.55 -36.5 51.38 -54.47 52.29 C-62.5 52.52 -70.61 52.6 -78 49 C-78.66 48.34 -79.32 47.68 -80 47 C-79.68 43.85 -79.1 41.4 -77 39 C-75.25 38.63 -75.25 38.63 -73.13 38.63 C-72.34 38.61 -71.55 38.6 -70.73 38.59 C-69.87 38.58 -69.01 38.57 -68.12 38.56 C-47.57 37.93 -25.33 33.79 -9.98 19.06 C-4.92 13.61 -0.94 7.51 0 0 Z " fill="#9D62A4" transform="translate(598,406)"/>
<path d="M0 0 C1.3 2.68 2.59 5.37 3.88 8.06 C4.24 8.81 4.6 9.57 4.98 10.34 C7.12 14.84 8.78 19.17 10 24 C8.95 24.03 7.9 24.05 6.82 24.08 C-1.25 24.37 -7.86 24.89 -15 29 C-16.33 29.67 -17.66 30.34 -19 31 C-19 31.66 -19 32.32 -19 33 C-26.37 32.42 -33.02 30.29 -40 28 C-37.85 22.97 -35.24 19.98 -31.12 16.44 C-20.26 6.86 -20.26 6.86 -18.12 2.12 C-14.37 -3.57 -5.78 -0.87 0 0 Z " fill="#9C62A4" transform="translate(403,290)"/>
<path d="M0 0 C0.33 0 0.66 0 1 0 C0.66 5.13 0.14 9.52 -2.28 14.1 C-3.38 17 -3.62 19.93 -4 23 C5.67 23.6 15.3 24.19 25 24 C24.83 23.67 24.83 23.67 24 22 C33.39 21.45 39.74 26.02 47.28 30.9 C49.53 32.34 51.81 33.69 54.12 35 C54.77 35.37 55.41 35.74 56.07 36.12 C58.35 37.16 60.54 37.59 63 38 C53.22 45.81 40.19 47.55 28 47 C28.14 46.2 28.29 45.39 28.44 44.56 C29.14 40.4 29.56 36.2 30 32 C25.2 28.3 19.95 28.06 14.06 27.38 C12.12 27.13 10.17 26.89 8.22 26.65 C7.31 26.54 6.4 26.43 5.46 26.32 C3.5 26.06 1.56 25.75 -0.38 25.41 C-2.97 25 -5.38 24.97 -8 25 C-7.05 21.77 -6.09 18.54 -5.12 15.31 C-4.86 14.4 -4.59 13.49 -4.31 12.55 C-4.18 12.11 -4.18 12.11 -3.51 9.86 C-3.27 9.05 -3.03 8.24 -2.78 7.4 C-1.96 4.88 -1.01 2.45 0 0 Z " fill="#A06FAB" transform="translate(234,518)"/>
<path d="M0 0 C0 3.77 -0.15 5.96 -2.57 8.92 C-8.91 14.74 -15.27 17.67 -23.95 17.36 C-27.18 16.8 -28.86 15.41 -31 13 C-32.06 11.12 -32.06 11.12 -32 9 C-29.56 3.69 -26.6 1.85 -21.23 -0.25 C-14.51 -2.5 -6.33 -3.63 0 0 Z " fill="#88B3C5" transform="translate(254,384)"/>
<path d="M0 0 C3.85 3.25 6.53 7.16 8 12 C7.01 12 6.02 12 5 12 C4.97 12.55 4.95 13.09 4.92 13.65 C4.37 21 2.23 28.53 -3 34 C-3.66 34 -4.32 34 -5 34 C-5.05 33.17 -5.1 32.33 -5.16 31.47 C-5.94 23.67 -7.25 19.53 -13.22 14 C-15.29 11.67 -15.65 10.06 -16 7 C-6.62 -1.19 -6.62 -1.19 0 0 Z " fill="#9C61A3" transform="translate(643,480)"/>
<path d="M0 0 C0.33 0 0.66 0 1 0 C1 8.25 1 16.5 1 25 C-1.97 25.66 -4.94 26.32 -8 27 C-10.56 29.12 -10.56 29.12 -12 31 C-10.68 31.33 -9.36 31.66 -8 32 C-8.75 36.75 -8.75 36.75 -11 39 C-14.13 38.84 -15.74 38.2 -18.25 36.31 C-20.42 33.44 -20.72 31.58 -21 28 C-18.19 19.29 -11.48 12.77 -5.26 6.36 C-4.01 5.01 -2.86 3.6 -1.73 2.15 C-1.16 1.44 -0.59 0.73 0 0 Z " fill="#3F3652" transform="translate(681,572)"/>
<path d="M0 0 C3.63 1.65 7.26 3.3 11 5 C11.04 6.38 11.07 7.75 11.11 9.17 C11.77 28.86 11.77 28.86 15 38 C15.23 38.68 15.46 39.37 15.7 40.07 C18.96 47.92 26.08 54.08 32 60 C26.92 60.08 22.95 59.49 18.88 56.31 C4.75 42.41 2.56 18.58 0 0 Z " fill="#9C62A4" transform="translate(259,266)"/>
<path d="M0 0 C0.79 16.86 -1.75 35.84 -12.52 49.54 C-17.18 54.15 -22.37 57.66 -29 58 C-28.12 56.98 -27.25 55.96 -26.38 54.94 C-26.1 54.61 -26.1 54.61 -24.71 52.98 C-23.66 51.76 -22.58 50.56 -21.48 49.4 C-11.03 38.18 -7.61 23.99 -7.55 9.1 C-7.43 3.47 -7.43 3.47 -5.15 0.97 C-3 0 -3 0 0 0 Z " fill="#9B61A2" transform="translate(512,269)"/>
<path d="M0 0 C0.76 -0.02 1.52 -0.04 2.3 -0.06 C6.96 -0.09 9.84 0.33 13.69 3.25 C13.77 7.78 13.77 7.78 12.69 10.25 C6.76 14.38 -1.16 16.13 -8.31 15.25 C-11.19 14.12 -11.19 14.12 -13.31 12.25 C-14.38 9.38 -14.38 9.38 -14.31 6.25 C-10.24 -0.07 -6.93 0.05 0 0 Z " fill="#87B2C4" transform="translate(235.3125,358.75)"/>
<path d="M0 0 C16.5 0 33 0 50 0 C50 0.66 50 1.32 50 2 C48.86 2.64 47.71 3.26 46.56 3.88 C45.92 4.22 45.29 4.57 44.63 4.93 C37.26 7.93 29.82 8.36 21.94 8.38 C21.47 8.39 21.47 8.39 19.08 8.45 C12.99 8.47 7.97 7.75 3 4 C2.01 2.68 1.02 1.36 0 0 Z " fill="#9F64A6" transform="translate(365,395)"/>
<path d="M0 0 C1.75 0.12 1.75 0.12 4 1 C11.36 9.92 11.4 20.04 11.19 31.06 C11.17 32.42 11.16 33.77 11.15 35.13 C11.11 38.42 11.06 41.71 11 45 C9.35 44.67 7.7 44.34 6 44 C5.08 41.25 4.78 39.18 4.57 36.32 C4.53 35.86 4.53 35.86 4.35 33.52 C4.28 32.55 4.2 31.57 4.12 30.56 C3.52 23.23 2.64 16.44 0.6 9.36 C-0.22 6.13 -0.23 3.31 0 0 Z " fill="#BF9ECC" transform="translate(471,113)"/>
<path d="M0 0 C4.59 3.79 6.09 7.28 8 13 C-1.57 13 -11.14 13 -21 13 C-16.48 5.09 -16.48 5.09 -13.44 2.62 C-13.15 2.38 -13.15 2.38 -11.68 1.16 C-7.96 -1.41 -4.15 -1.57 0 0 Z " fill="#3E3551" transform="translate(297,669)"/>
<path d="M0 0 C5.95 2.69 10.77 7.09 15 12 C15 12.33 15 12.66 15 13 C5.1 13 -4.8 13 -15 13 C-12.72 5.01 -12.72 5.01 -8 1 C-5.07 -0.47 -3.28 -0.36 0 0 Z " fill="#3E3550" transform="translate(470,669)"/>
<path d="M0 0 C3.5 0.21 5.33 1.03 7.65 3.55 C8.57 4.65 9.48 5.76 10.38 6.88 C10.85 7.46 11.33 8.05 11.83 8.65 C28.27 29.06 28.27 29.06 28.31 40.19 C28.21 41.12 28.11 42.04 28 43 C24.55 41.61 23.29 40.32 21.67 37 C21.27 36.2 20.86 35.4 20.45 34.58 C20.24 34.15 20.24 34.15 19.19 32 C15.06 23.87 10.71 16.65 5.02 9.51 C4.37 8.7 3.73 7.9 3.06 7.06 C2.48 6.35 1.89 5.64 1.29 4.91 C0 3 0 3 0 0 Z " fill="#BA9BC8" transform="translate(570,367)"/>
<path d="M0 0 C0.87 0.14 1.73 0.29 2.62 0.44 C2.62 1.1 2.62 1.76 2.62 2.44 C2.93 2.48 2.93 2.48 4.5 2.69 C6.62 3.44 6.62 3.44 7.94 5.12 C8.89 8.32 8.64 10.27 7.62 13.44 C3.82 17.25 -0.87 16.79 -5.95 16.84 C-8.38 16.44 -8.38 16.44 -9.71 15.09 C-10.88 12.19 -10.29 10.4 -9.38 7.44 C-6.84 3.32 -4.93 0.64 0 0 Z " fill="#89A5BC" transform="translate(251.375,549.5625)"/>
<path d="M0 0 C2.96 1.86 5.42 3.85 7 7 C7.19 9.36 7.09 11.62 7 14 C5.21 15.79 2.61 15.21 0.19 15.25 C-0.87 15.28 -1.93 15.3 -3.02 15.33 C-6.35 14.96 -7.7 14.42 -10 12 C-10.76 9.27 -10.54 6.76 -10 4 C-7.31 -0.14 -4.8 -0.86 0 0 Z " fill="#89A6BD" transform="translate(511,551)"/>
<path d="M0 0 C0 1.98 0 3.96 0 6 C-3.35 7.16 -6.71 8.3 -10.08 9.42 C-11.22 9.8 -12.35 10.19 -13.49 10.58 C-21.18 13.25 -27.85 14.59 -36 14 C-36.33 14.99 -36.66 15.98 -37 17 C-37 15.68 -37 14.36 -37 13 C-29.1 9.11 -21.17 5.53 -12.88 2.56 C-12.52 2.43 -12.52 2.43 -10.72 1.78 C-7.03 0.49 -3.97 -0.32 0 0 Z " fill="#C6C5CB" transform="translate(495,277)"/>
<path d="M0 0 C3.72 1.46 6.02 3.57 8 7 C13.14 19.08 16.5 35.81 11.95 48.63 C9.06 54.47 9.06 54.47 6 56 C6.13 55.3 6.27 54.59 6.4 53.87 C9.58 36.12 9.04 21.81 2 5 C1.33 3.33 0.66 1.67 0 0 Z " fill="#353045" transform="translate(664,488)"/>
<path d="M0 0 C10.37 0.25 19.71 3.78 28 10 C27.62 12.44 27.62 12.44 27 15 C26.67 15.17 26.67 15.17 25 16 C25 15.34 25 14.68 25 14 C24.32 13.84 23.64 13.68 22.95 13.52 C15.6 11.68 7.49 9.49 2 4 C-0.12 3.88 -0.12 3.88 -2 4 C-1.34 2.68 -0.68 1.36 0 0 Z " fill="#C2C0C7" transform="translate(332,294)"/>
<path d="M0 0 C0.98 0.01 1.95 0.02 2.96 0.03 C3.33 0.03 3.33 0.03 5.19 0.06 C5.19 0.39 5.19 0.72 5.19 1.06 C1.29 1.72 -2.6 2.36 -6.5 3 C-7.58 3.18 -8.67 3.36 -9.78 3.55 C-22.22 5.58 -34.49 6.23 -47.07 6.19 C-49.18 6.19 -51.29 6.19 -53.4 6.2 C-62.57 6.2 -71.67 5.79 -80.81 5.06 C-80.81 4.73 -80.81 4.4 -80.81 4.06 C-79.86 4.04 -78.92 4.02 -77.94 4 C-60.38 3.63 -42.84 3.13 -25.31 2.06 C-24.96 2.04 -24.96 2.04 -23.18 1.94 C-21.2 1.82 -19.21 1.69 -17.22 1.56 C-16.1 1.49 -14.98 1.42 -13.82 1.34 C-9.1 0.9 -4.77 -0.06 0 0 Z " fill="#9468A0" transform="translate(429.8125,542.9375)"/>
<path d="M0 0 C0.03 2.31 0.05 4.62 0.06 6.94 C0.07 7.6 0.08 8.26 0.09 8.94 C0.1 10.62 0.05 12.31 0 14 C-1 15 -1 15 -4.38 15.1 C-5.77 15.09 -7.17 15.08 -8.56 15.06 C-8.92 15.06 -8.92 15.06 -10.72 15.05 C-12.48 15.04 -14.24 15.02 -16 15 C-15.38 14.71 -14.76 14.42 -14.12 14.12 C-12 13 -12 13 -10 11 C-9.88 8.88 -9.88 8.88 -10 7 C-10.99 6.67 -11.98 6.34 -13 6 C-12.07 3.67 -11.35 2.26 -9.31 0.75 C-6.13 -0.28 -3.34 -0.05 0 0 Z " fill="#9E6FA9" transform="translate(682,597)"/>
<path d="M0 0 C0.72 0.14 1.44 0.29 2.19 0.44 C3.95 5.88 2.33 9.86 0.49 15.14 C-0.81 17.44 -0.81 17.44 -2.85 18.32 C-4.81 18.44 -4.81 18.44 -6.56 17.5 C-8.56 14.2 -8.54 11.18 -7.81 7.44 C-6.02 3.51 -4.41 0.69 0 0 Z " fill="#84ADC0" transform="translate(233.8125,547.5625)"/>
<path d="M0 0 C3.81 -0.44 5.59 -0.26 8.88 1.81 C12 5.25 11.38 9.38 11.18 13.77 C11.12 14.51 11.06 15.24 11 16 C8.64 16.15 8.64 16.15 6 16 C1.7 11.33 0.92 6.14 0 0 Z " fill="#88A4BB" transform="translate(521,549)"/>
<path d="M0 0 C7.03 -0.46 7.03 -0.46 10.5 1.19 C12 3 12 3 12.31 5.62 C12 8 12 8 11 9 C9.04 9.2 9.04 9.2 6.62 9.25 C5.83 9.28 5.04 9.3 4.23 9.33 C2 9 2 9 0.19 7.68 C-1 6 -1 6 -0.69 2.81 C-0.46 1.88 -0.23 0.96 0 0 Z " fill="#D8D8DA" transform="translate(296,282)"/>
<path d="M0 0 C-2.77 11 -2.77 11 -7 14 C-7.66 14 -8.32 14 -9 14 C-10.13 8.97 -10.04 6.07 -7.89 1.38 C-5.79 -1.89 -3.3 -0.78 0 0 Z " fill="#452F59" transform="translate(424,325)"/>
<path d="M0 0 C3.61 2.73 3.61 2.73 5 5 C5.15 8.11 4.67 10.97 4 14 C2.68 14.33 1.36 14.66 0 15 C-1.94 13.14 -2.98 11.79 -3.05 9.06 C-2.65 5.48 -2.21 2.91 0 0 Z " fill="#353046" transform="translate(625,501)"/>
<path d="M0 0 C-0.38 2.44 -0.38 2.44 -1 5 C-4.09 6.54 -6.91 5.31 -10.12 4.56 C-10.78 4.41 -11.44 4.27 -12.12 4.12 C-13.75 3.75 -15.37 3.38 -17 3 C-17 2.01 -17 1.02 -17 0 C-11.46 -1.43 -5.45 -1.82 0 0 Z " fill="#B897C5" transform="translate(217,355)"/>
<path d="M0 0 C0.33 0 0.66 0 1 0 C0.66 5.24 -0.02 9.55 -2.3 14.29 C-3.46 17.13 -3.69 19.96 -4 23 C-3.55 23.03 -3.55 23.03 -1.26 23.18 C-0.07 23.27 1.12 23.35 2.31 23.44 C2.91 23.48 3.5 23.52 4.12 23.56 C6.95 23.76 9.29 24.1 12 25 C12 25.66 12 26.32 12 27 C7.9 26.57 3.82 26.14 -0.25 25.44 C-2.89 25.02 -5.33 24.97 -8 25 C-7.05 21.77 -6.09 18.54 -5.12 15.31 C-4.86 14.4 -4.59 13.49 -4.31 12.55 C-4.18 12.11 -4.18 12.11 -3.51 9.86 C-3.27 9.05 -3.03 8.24 -2.78 7.4 C-1.96 4.88 -1.01 2.45 0 0 Z " fill="#93689F" transform="translate(234,518)"/>
<path d="M0 0 C0.84 0.07 1.67 0.14 2.53 0.21 C4.99 0.43 7.43 0.7 9.88 1 C10.54 1.08 11.21 1.16 11.89 1.24 C21.28 2.41 21.28 2.41 23.88 5 C23.52 4.97 23.52 4.97 21.71 4.82 C19.02 4.59 16.32 4.37 13.63 4.15 C11.91 4 10.19 3.86 8.46 3.71 C-4.1 2.68 -4.1 2.68 -9.12 3 C-11.38 5.38 -11.38 5.38 -13.12 8 C-15.38 9.31 -15.38 9.31 -17.12 10 C-13.86 1.52 -8.6 -0.96 0 0 Z " fill="#996CA4" transform="translate(319.125,542)"/>
<path d="M0 0 C1.29 0.14 2.58 0.29 3.88 0.44 C4.23 0.48 4.23 0.48 6.05 0.68 C8 1 8 1 10 2 C10 5.3 10 8.6 10 12 C8 8 8 8 8 6 C5.03 6 2.06 6 -1 6 C-0.67 4.02 -0.34 2.04 0 0 Z " fill="#C7C5CC" transform="translate(281,276)"/>
<path d="M0 0 C-2.56 1.32 -5.12 2.63 -7.69 3.94 C-8.05 4.12 -8.05 4.12 -9.87 5.07 C-13.57 6.94 -16.84 8.48 -21 9 C-16.55 3.81 -6.93 -2.31 0 0 Z " fill="#49305C" transform="translate(404,306)"/>
<path d="M0 0 C0.66 0 1.32 0 2 0 C2 0.66 2 1.32 2 2 C2.59 2.26 3.19 2.51 3.8 2.77 C6.21 4.12 7.51 5.49 9.25 7.62 C9.77 8.26 10.29 8.89 10.83 9.54 C11.02 9.78 11.02 9.78 12 11 C10.16 11.6 10.16 11.6 8 12 C4.22 9.61 1.95 7.01 0 3 C0 2.01 0 1.02 0 0 Z " fill="#A27EB1" transform="translate(561,356)"/>
<path d="M0 0 C0.83 0.33 0.83 0.33 5 2 C4.25 6.75 4.25 6.75 2 9 C-0.62 8.62 -0.62 8.62 -3 8 C-3 4.42 -1.91 2.95 0 0 Z " fill="#422D57" transform="translate(668,602)"/>
<path d="M0 0 C1.98 0 3.96 0 6 0 C6 2.31 6 4.62 6 7 C4.35 7.33 2.7 7.66 1 8 C0.67 5.36 0.34 2.72 0 0 Z " fill="#BE9DCB" transform="translate(472,165)"/>
<path d="M0 0 C-3.29 2.98 -5.43 3.36 -9.81 3.25 C-10.34 3.24 -10.34 3.24 -13 3.17 C-16.4 2.98 -19.65 2.61 -23 2 C-23 1.67 -23 1.34 -23 1 C-20.1 0.83 -17.21 0.67 -14.31 0.5 C-13.9 0.48 -13.9 0.48 -11.84 0.36 C-7.89 0.13 -3.96 -0.06 0 0 Z " fill="#A372AE" transform="translate(409,545)"/>
<path d="M0 0 C0.66 0.33 1.32 0.66 2 1 C2 1.66 2 2.32 2 3 C0.93 3.73 -0.16 4.43 -1.25 5.12 C-1.55 5.32 -1.55 5.32 -3.08 6.32 C-5 7 -5 7 -7.23 6.12 C-7.53 5.93 -7.53 5.93 -9 5 C-7.55 4.14 -6.09 3.28 -4.62 2.44 C-4.22 2.2 -4.22 2.2 -2.16 1 C-1.45 0.67 -0.74 0.34 0 0 Z " fill="#9569A1" transform="translate(194,348)"/>
<path d="M0 0 C3.39 0.59 5.21 1.77 7.75 4.06 C8.06 4.34 8.06 4.34 9.61 5.72 C9.84 5.93 9.84 5.93 11 7 C10.67 7.66 10.34 8.32 10 9 C8.33 7.69 6.66 6.38 5 5.06 C4.52 4.69 4.05 4.32 3.55 3.93 C2.35 2.98 1.17 1.99 0 1 C0 0.67 0 0.34 0 0 Z " fill="#9669A2" transform="translate(443,541)"/>
<path d="M0 0 C1.68 0.97 3.35 1.97 5 3 C5 3.33 5 3.66 5 4 C3.02 4 1.04 4 -1 4 C-0.67 2.68 -0.34 1.36 0 0 Z " fill="#996FA6" transform="translate(466,678)"/>
<path d="M0 0 C1.32 0.66 2.64 1.32 4 2 C4 2.33 4 2.66 4 3 C2.02 3 0.04 3 -2 3 C-1.34 2.01 -0.68 1.02 0 0 Z " fill="#9F73AB" transform="translate(291,679)"/>
</svg>
