<?xml version="1.0" encoding="UTF-8"?>
<!-- Generator: visioncortex VTracer 0.6.5 -->
<svg version="1.1" xmlns="http://www.w3.org/2000/svg" width="682" height="682">
<path d="M0 0 C225.06 0 450.12 0 682 0 C682 225.06 682 450.12 682 682 C456.94 682 231.88 682 0 682 C0 456.94 0 231.88 0 0 Z " fill="#303031" transform="translate(0,0)"/>
<path d="M0 0 C0.83 0 1.65 0.01 2.51 0.01 C18.2 0.09 35.68 0.18 50.06 7.38 C50.05 7.9 50.05 7.9 49.96 10.56 C49.72 20.64 49.66 29.73 56.93 37.55 C69.05 47.93 81.93 53.54 98.06 52.38 C103.57 51.21 108.37 48.66 112.06 44.38 C113.92 41.46 115.54 38.47 117.06 35.38 C136.48 44.1 148.64 75.29 155.75 93.69 C162.77 112.71 167.31 132.67 170.75 152.62 C170.85 153.21 170.96 153.8 171.07 154.41 C172.5 162.68 173.25 170.85 173.67 179.23 C175.62 213.17 175.62 213.17 187.68 224.42 C191.16 227.51 194.75 230.44 198.44 233.27 C201.83 235.99 204.51 238.94 207.06 242.44 C207.43 242.93 207.79 243.43 208.17 243.94 C216.46 255.76 222.81 269.7 221.06 284.38 C220.1 287.94 218.74 291.1 217.06 294.38 C216.74 295.07 216.41 295.77 216.07 296.49 C208.8 310.13 189.58 317.09 175.61 321.38 C165.51 324.31 155.12 326.2 145.06 322.38 C143.06 321.12 143.06 321.12 142.06 319.38 C142.33 316.14 143.04 313.45 144.06 310.38 C140.72 308.81 137.62 308.12 134 307.56 C128.56 306.51 128.56 306.51 126.38 304.12 C125.06 301.38 125.06 301.38 124.88 298.5 C126.33 294.66 128.41 292.76 131.47 290.09 C133.06 288.38 133.06 288.38 134.06 284.38 C130.76 282.73 127.46 281.07 124.06 279.38 C127.31 271.25 131.79 264.28 140 260.48 C143.81 258.91 147.68 257.49 151.54 256.06 C155.47 254.61 159.33 253.08 163.12 251.31 C164.06 250.89 165 250.46 165.97 250.03 C168.06 248.38 168.06 248.38 168.87 245.19 C168.93 244.26 169 243.33 169.06 242.38 C160.24 242.38 153.65 246.23 146.06 250.31 C144.21 251.3 142.34 252.25 140.46 253.18 C130.17 258.35 122.54 263.77 117.94 274.66 C114.85 284.23 114.38 297.89 117.45 307.52 C124.07 319.23 135.76 328.19 148.49 332.12 C153.59 333.39 158.83 333.91 164.06 334.38 C164.06 341.91 155.72 350.24 151.31 356.06 C147.13 361.6 142.96 367.15 138.94 372.81 C138.48 373.44 138.02 374.06 137.54 374.71 C134.24 379.41 132.94 383.73 132.06 389.38 C132.01 389.71 132.01 389.71 131.73 391.4 C131.44 393.24 131.18 395.09 130.94 396.94 C130.89 397.25 130.89 397.25 130.68 398.84 C130.47 400.35 130.26 401.86 130.06 403.38 C126.82 404.11 124 404.43 120.69 404.25 C117.51 404.2 115.35 404.48 112.5 405.88 C108.69 407.74 105.25 407.92 101.06 407.38 C99.39 406.74 97.72 406.07 96.06 405.38 C92.84 404.82 90.96 404.78 88.2 406.61 C85.82 408.6 83.65 410.45 81.98 413.07 C81.68 413.5 81.38 413.93 81.06 414.38 C80.4 414.38 79.74 414.38 79.06 414.38 C77.49 412.05 75.98 409.72 74.6 407.29 C73.1 404.98 72.02 403.58 69.26 402.98 C66.82 402.94 64.49 403.12 62.06 403.38 C61.03 403.47 60 403.56 58.94 403.66 C55.41 404.01 51.89 404.4 48.38 404.81 C33.64 406.5 19.03 407.6 4.19 407.62 C3.46 407.63 2.74 407.63 2 407.63 C-11.04 407.64 -23.88 406.73 -36.83 405.33 C-39.24 405.07 -41.66 404.82 -44.07 404.57 C-45.37 404.43 -46.67 404.29 -47.97 404.15 C-50.01 403.93 -52.05 403.73 -54.1 403.54 C-54.41 403.51 -54.41 403.51 -55.98 403.32 C-59.24 403.05 -60.69 403.2 -63.4 405.1 C-65.16 407.1 -66.53 409.12 -67.94 411.38 C-68.91 412.4 -69.9 413.41 -70.94 414.38 C-71.4 413.82 -71.86 413.27 -72.33 412.7 C-72.94 411.97 -73.56 411.25 -74.19 410.5 C-74.79 409.78 -75.39 409.06 -76.02 408.32 C-77.96 406.35 -79.34 405.3 -81.94 404.38 C-84.05 404.36 -84.05 404.36 -86.25 404.69 C-87.04 404.79 -87.84 404.89 -88.65 405 C-90.94 405.38 -90.94 405.38 -94.31 406.25 C-97.9 406.84 -100.2 405.43 -103.38 403.81 C-107.11 401.95 -109.29 400.93 -113.38 402.06 C-113.97 402.29 -114.57 402.52 -115.18 402.76 C-117.19 403.46 -118.82 403.42 -120.94 403.38 C-121.03 402.79 -121.13 402.2 -121.23 401.59 C-121.67 398.87 -122.15 396.15 -122.62 393.44 C-122.77 392.51 -122.92 391.59 -123.08 390.63 C-124.64 381.87 -127.92 375.02 -134.12 368.56 C-134.9 367.72 -135.68 366.89 -136.48 366.02 C-136.88 365.59 -137.28 365.16 -137.7 364.71 C-156.94 343.96 -156.94 343.96 -156.94 334.38 C-156.36 334.37 -155.78 334.36 -155.18 334.35 C-128.52 333.81 -128.52 333.81 -117.23 322.79 C-116.47 321.99 -115.72 321.2 -114.94 320.38 C-114.25 319.66 -113.57 318.95 -112.86 318.21 C-105.85 310.13 -104.41 300.66 -104.71 290.2 C-105.43 281.24 -107.95 274.2 -114.06 267.44 C-114.77 266.64 -115.47 265.85 -116.2 265.04 C-122.65 258.45 -130.58 253.5 -138.31 248.56 C-140.07 247.43 -141.83 246.3 -143.59 245.17 C-144.35 244.68 -145.12 244.19 -145.9 243.68 C-146.57 243.25 -147.25 242.82 -147.94 242.38 C-148.52 242.03 -149.11 241.68 -149.71 241.33 C-150.11 241.01 -150.52 240.7 -150.94 240.38 C-150.94 239.72 -150.94 239.06 -150.94 238.38 C-151.6 238.7 -151.6 238.7 -154.94 240.38 C-155.22 242.64 -155.22 242.64 -154.94 245.38 C-153.06 247.26 -153.06 247.26 -150.38 249.06 C-149.89 249.4 -149.4 249.73 -148.9 250.07 C-146.04 252.03 -143.12 253.9 -140.22 255.8 C-119.44 269.36 -119.44 269.36 -114.94 278.38 C-114.69 281.25 -114.69 281.25 -114.94 283.38 C-116.09 284.03 -116.09 284.03 -121.94 287.38 C-121.35 290.72 -120.31 292.3 -117.94 294.69 C-114.73 298.23 -114.13 300.65 -113.94 305.38 C-119.25 308.42 -123.8 310.05 -129.94 310.38 C-129.63 311.45 -129.32 312.52 -129 313.62 C-128.26 316.2 -127.56 318.77 -126.94 321.38 C-141.63 328 -155.78 325.86 -170.51 320.37 C-184.82 314.82 -199.09 307.17 -206 292.75 C-206.69 290.97 -207.34 289.18 -207.94 287.38 C-208.19 286.64 -208.45 285.9 -208.71 285.14 C-211.96 273.63 -208.91 261.05 -203.54 250.67 C-197.41 240.44 -189.21 231.41 -180.62 223.19 C-175.14 217.84 -169.39 211.11 -167.94 203.38 C-168.99 203.5 -170.04 203.62 -171.12 203.75 C-171.42 203.78 -171.42 203.78 -172.92 203.96 C-175.4 204.47 -177.61 205.39 -179.94 206.38 C-178.53 153.44 -171.88 83.22 -131.37 44.54 C-122.21 36.38 -122.21 36.38 -117.94 36.38 C-117.72 36.89 -117.5 37.41 -117.27 37.95 C-114.25 44.59 -110.22 49.18 -103.23 51.87 C-90.56 54.67 -77.97 51.64 -67 45.06 C-59.62 40.03 -54.35 34.17 -52.5 25.29 C-51.69 19.55 -52.16 14.09 -52.94 8.38 C-50.65 7.59 -48.36 6.82 -46.06 6.06 C-45.45 5.85 -44.84 5.64 -44.21 5.42 C-29.85 0.75 -14.99 -0.15 0 0 Z " fill="#AF7DBA" transform="translate(381.9375,45.625)"/>
<path d="M0 0 C134.31 0 268.62 0 407 0 C407.16 57.4 407.33 114.8 407.5 173.94 C407.57 192.06 407.65 210.17 407.72 228.84 C407.76 250.98 407.76 250.98 407.76 261.35 C407.77 268.58 407.8 275.82 407.84 283.05 C407.9 291.4 407.92 299.76 407.91 308.11 C407.9 312.38 407.91 316.64 407.95 320.91 C408.27 353.37 408.27 353.37 399 367 C398.67 367.55 398.34 368.11 398.01 368.68 C397.67 369.11 397.34 369.55 397 370 C396.34 370 395.68 370 395 370 C394.91 370.55 394.83 371.09 394.74 371.65 C393.77 374.73 392.06 377.03 390.12 379.56 C389.72 380.09 389.32 380.61 388.91 381.15 C366.82 409.45 331.26 426.03 296.35 431.61 C290.72 432.26 285.11 432.3 279.45 432.26 C277.44 432.25 275.42 432.26 273.4 432.27 C265.73 432.28 258.52 431.73 251 430 C250.88 430.79 250.77 431.57 250.65 432.38 C249.45 440.32 248.11 448.23 246.62 456.12 C246.53 456.67 246.53 456.67 246.03 459.43 C244.17 469.3 241.7 482.32 233.59 489.19 C230.23 491.19 227.34 491.23 223.64 490.54 C222 490 222 490 219.69 488.25 C215.83 486.46 213.65 487.88 209.75 489.2 C206.91 490.03 204.39 490.41 201.44 490.56 C201.02 490.58 201.02 490.58 198.93 490.69 C189.91 488.56 184.56 481.57 179.5 474.31 C178.88 473.46 178.26 472.6 177.62 471.72 C173.17 465.5 173.17 465.5 172 462 C171.49 462.05 171.49 462.05 168.92 462.28 C147.19 464.18 125.57 465.3 103.75 465.25 C102.71 465.25 101.67 465.25 100.61 465.25 C88.56 465.22 76.65 464.93 64.66 463.77 C53.8 462.77 53.8 462.77 49.52 465.69 C47.43 468.02 45.71 470.38 44 473 C37.9 481.33 32.45 487.73 22 490 C19.57 490.25 17.18 490.26 14.75 490.22 C14.08 490.21 13.42 490.21 12.73 490.2 C11.34 490.17 9.95 490.14 8.56 490.11 C6.44 490.06 4.32 490.07 2.21 490.07 C-7.61 489.93 -7.61 489.93 -11.21 487.52 C-12.76 485.76 -13.9 484.07 -15 482 C-15.5 481.25 -15.99 480.5 -16.5 479.73 C-20.71 471.39 -25.31 460.5 -25 451 C-25.84 451.07 -26.68 451.14 -27.54 451.22 C-53.34 453.28 -74.17 452.09 -96 437 C-96.69 436.53 -97.38 436.06 -98.09 435.58 C-103.16 431.93 -107.13 427.89 -111 423 C-111.65 422.19 -112.3 421.37 -112.97 420.54 C-124.4 405.56 -129.62 388.91 -134 370.81 C-139.56 347.95 -139.56 347.95 -147 342 C-147.21 342.14 -147.21 342.14 -148.29 342.88 C-154.51 346.57 -160.9 347.49 -168 346 C-171.21 343.84 -173.03 341.29 -175 338 C-175.2 337.69 -175.2 337.69 -176.2 336.14 C-181.7 326.55 -182.5 315.1 -182.39 304.29 C-182.37 302.43 -182.39 300.58 -182.41 298.73 C-182.42 290.88 -181.78 283.43 -179 276 C-175.33 272.52 -171.84 272.8 -166.88 272.62 C-148.06 273.2 -129.78 282.42 -116 295 C-114.64 296.63 -114.64 296.63 -114 298 C-114.25 300.5 -114.25 300.5 -114.59 302.05 C-114.91 303.59 -115.16 305.14 -115.38 306.7 C-116.51 314.34 -116.51 314.34 -119 317.69 C-121 319 -121 319 -123 319 C-118.15 329.82 -113.3 340.61 -107.9 351.16 C-105.81 355.27 -103.92 359.42 -102.11 363.65 C-88.64 395 -88.64 395 -75.35 400.65 C-70.71 402.32 -66.39 402.34 -61.5 402.19 C-61.09 402.18 -61.09 402.18 -59.01 402.15 C-57 402.11 -55 402.06 -53 402 C-54.55 398.91 -56.13 395.83 -57.74 392.77 C-58.55 391.21 -59.33 389.65 -60.12 388.08 C-64.57 379.66 -64.57 379.66 -68.62 377.91 C-69.18 377.76 -69.18 377.76 -72 377 C-72.4 376.84 -72.4 376.84 -74.43 376.05 C-75.09 375.81 -75.76 375.56 -76.44 375.31 C-77.12 375.06 -77.8 374.81 -78.5 374.55 C-78.99 374.37 -79.49 374.19 -80 374 C-80 373.34 -80 372.68 -80 372 C-80.71 371.94 -81.41 371.87 -82.14 371.81 C-85.94 370.73 -87.95 368.76 -90.75 366.06 C-91.01 365.81 -91.01 365.81 -92.33 364.56 C-93.9 363.05 -95.45 361.53 -97 360 C-97.43 359.58 -97.87 359.16 -98.32 358.73 C-107.67 349.6 -115.78 335.76 -116.05 322.37 C-115.86 319.53 -115.48 316.8 -115 314 C-114.91 313.44 -114.91 313.44 -114.43 310.62 C-111.96 297.17 -106.78 286.95 -98.18 276.44 C-96.58 274.49 -95.03 272.5 -93.5 270.5 C-93.28 270.22 -93.28 270.22 -92.16 268.78 C-89.18 264.19 -88.53 259.63 -88 254.31 C-87.92 253.53 -87.83 252.75 -87.75 251.94 C-87.28 247.41 -86.92 242.88 -86.64 238.34 C-84.92 210.53 -80.32 182.88 -73 156 C-72.88 155.56 -72.88 155.56 -72.28 153.32 C-64.04 122.95 -50.53 96.6 -28.31 74.19 C-27.87 73.74 -27.43 73.3 -26.98 72.84 C-26.55 72.41 -26.12 71.98 -25.68 71.54 C-25.25 71.11 -24.82 70.68 -24.38 70.24 C-23 69 -23 69 -21.37 67.94 C-18.69 66.14 -17.24 64.92 -16.4 61.73 C-16.1 58.89 -15.96 56.1 -15.88 53.25 C-14.7 33.33 -9.57 17.54 0 0 Z M54 54 C54.05 54.38 54.05 54.38 54.29 56.27 C55.39 66.41 54.99 74.47 48.82 82.9 C40.91 92.04 29.56 97.31 17.58 98.27 C8.59 98.61 1.34 97.83 -5.65 91.51 C-8.22 88.63 -9.81 85.69 -11 82 C-16.75 82.94 -20.72 87.32 -25 91 C-25.7 91.6 -26.39 92.2 -27.11 92.82 C-61.11 124.36 -67.89 183.46 -71.75 227.06 C-71.82 227.79 -71.88 228.52 -71.95 229.28 C-72.61 236.86 -73.24 244.38 -73 252 C-72.32 251.69 -71.64 251.38 -70.94 251.06 C-67.57 249.84 -64.55 249.42 -61 249 C-63.6 258.68 -70.32 265.45 -77.31 272.25 C-91.2 285.81 -101.78 300.76 -103.03 320.59 C-102.94 332.03 -98.38 341.89 -90.56 350.06 C-77.06 363.31 -56.08 371.18 -37.41 371.26 C-31.23 371.17 -25.55 369.77 -20 367 C-20.31 366.3 -20.62 365.6 -20.94 364.88 C-22.03 361.91 -22.56 359.12 -23 356 C-22.52 355.97 -22.03 355.95 -21.53 355.92 C-15.97 355.45 -11.82 353.76 -7 351 C-7.13 344.8 -9.17 342.15 -13.5 337.8 C-15 336 -15 336 -15 333 C-13.85 332.34 -13.85 332.34 -8 329 C-8.12 323.12 -9.85 320.25 -13.88 316.02 C-20.94 309.28 -28.79 304.05 -37.02 298.86 C-44.79 293.95 -44.79 293.95 -48 291 C-48.31 288.25 -48.31 288.25 -48 286 C-47.34 285.67 -47.34 285.67 -44 284 C-44 284.66 -44 285.32 -44 286 C-41.84 287.59 -39.69 289.06 -37.44 290.5 C-36.77 290.94 -36.09 291.38 -35.4 291.84 C-31.94 294.11 -28.47 296.34 -24.98 298.57 C-15.32 304.79 -5.91 311.18 -1 322 C-0.61 322.85 -0.22 323.69 0.19 324.56 C3.62 334.87 2.94 346.94 -1 357 C-3.01 360.34 -5.35 363.15 -8 366 C-8.55 366.64 -9.1 367.28 -9.66 367.93 C-15.29 374.12 -22.96 378.48 -31.38 379.21 C-32.24 379.24 -33.1 379.28 -33.98 379.32 C-34.92 379.36 -35.85 379.4 -36.82 379.44 C-37.78 379.48 -38.75 379.52 -39.75 379.56 C-40.73 379.61 -41.72 379.65 -42.73 379.69 C-45.15 379.8 -47.58 379.9 -50 380 C-46.13 392.65 -37.76 403.55 -28.31 412.62 C-17.85 422.9 -16.11 434.98 -14 449 C-12.77 448.86 -11.54 448.71 -10.31 448.56 C-9.63 448.48 -8.94 448.4 -8.24 448.32 C-6 448 -6 448 -3.54 447.31 C-0.25 446.91 1.07 447.81 3.88 449.5 C8.59 452.02 10.96 452.36 16 451 C24.56 449.27 24.56 449.27 28.25 451.56 C31.29 453.98 33.63 456.94 36 460 C36.72 459.3 37.44 458.6 38.19 457.88 C38.42 457.65 38.42 457.65 39.61 456.52 C41 455 41 455 41.92 453.3 C43.12 451.21 43.93 450.28 46 449 C48.35 448.93 50.44 449 52.77 449.24 C53.1 449.27 53.1 449.27 54.78 449.41 C56.86 449.59 58.93 449.79 61 450 C61.62 450.06 62.24 450.12 62.87 450.19 C65.28 450.44 67.69 450.69 70.1 450.95 C98.87 454.08 127.01 453.58 155.74 450.36 C159.45 449.95 163.16 449.59 166.87 449.24 C168.4 449.07 169.93 448.85 171.45 448.6 C174.03 448.18 175.51 448.13 178 449 C181.21 452.37 183.62 456.01 186 460 C189.13 458.96 189.61 458.54 191.5 456.06 C193.15 453.91 194.59 452.3 197 451 C200.19 450.72 202.41 450.75 205.38 452 C209.31 453.5 213.64 453.99 217.61 452.32 C218.13 452.05 218.65 451.78 219.19 451.5 C224.33 448.94 230.42 449.77 236 450 C237.78 446.29 238.26 443.11 238.53 439.08 C239.18 430.04 241.35 424.18 247 417 C247.92 415.78 248.83 414.56 249.74 413.34 C251.25 411.31 252.77 409.29 254.29 407.28 C258.03 402.35 261.62 397.34 265.12 392.25 C265.59 391.58 266.05 390.92 266.52 390.23 C268.57 387.23 270.51 384.32 272 381 C270.44 379.44 268.6 379.65 266.49 379.41 C255.61 378.14 246.31 375.43 238 368 C237.52 367.58 237.04 367.16 236.54 366.73 C229.31 360.38 223.83 355.04 223 345 C222.49 337.03 222 328.54 225 321 C225.28 320.21 225.57 319.43 225.86 318.62 C232.17 303.66 247.71 298.37 261.54 292.13 C263.56 291.2 265.52 290.23 267.49 289.19 C270.49 287.77 272.72 287.77 276 288 C275.81 290.82 275.81 290.82 275 294 C272.91 295.65 272.91 295.65 270.06 296.94 C269.54 297.18 269.02 297.42 268.49 297.67 C265.23 299.16 261.92 300.41 258.55 301.62 C247.48 305.61 238.73 309.47 232.38 319.94 C231 323 231 323 231 325 C234.3 326.65 237.6 328.3 241 330 C239.23 334.42 238.46 335.81 235.31 338.94 C232.02 342.57 232.02 342.57 231.88 346.31 C233.04 349.1 233.65 350.18 236 352 C238.22 352.64 240.31 353.14 242.56 353.56 C248.74 354.74 248.74 354.74 251 357 C250.65 357.74 250.3 358.49 249.94 359.25 C248.93 362.19 248.7 363.22 250 366 C254.35 370.19 259.55 370.31 265.31 370.21 C283.94 368.75 305.5 360.93 319.32 348.06 C326.64 339.1 328.75 329.31 328 318 C325.85 305.3 318.38 293.46 310 284 C309.68 283.62 309.68 283.62 308.05 281.73 C304.59 277.76 301.25 274.15 297.14 270.85 C287.32 262.62 283.29 255.89 281.98 243.11 C281.71 239.82 281.51 236.54 281.31 233.25 C281.12 230.95 280.91 228.66 280.7 226.36 C280.29 221.89 279.9 217.42 279.53 212.94 C275.74 168.57 261.38 114.44 228 83 C225.74 81.73 225.74 81.73 224 81 C223.67 81.65 223.34 82.3 223 82.98 C219.21 89.96 214.82 95.05 207.09 97.64 C193.35 100.01 181.8 95.78 170.41 88.3 C163.36 83.08 158.7 77.78 157 69 C156.79 66.18 156.81 63.39 156.88 60.56 C156.88 59.83 156.89 59.1 156.9 58.35 C156.93 56.56 156.96 54.78 157 53 C152.22 50.8 147.79 49.33 142.62 48.38 C142.02 48.25 141.41 48.13 140.78 48.01 C133.09 46.53 125.41 45.84 117.58 45.76 C116.81 45.75 116.04 45.74 115.24 45.73 C112.77 45.71 110.29 45.69 107.81 45.69 C106.97 45.68 106.12 45.68 105.25 45.68 C87.52 45.67 70.62 47.41 54 54 Z " fill="#3F3652" transform="translate(275,0)"/>
<path d="M0 0 C65.01 0 130.02 0 197 0 C197 66 197 132 197 200 C192 195 192 195 190.18 193.15 C185.21 188.42 179.83 184.82 174 181.25 C173.25 180.79 172.51 180.33 171.74 179.86 C164.16 175.31 156.2 171.96 147.94 168.88 C147.28 168.62 146.63 168.37 145.95 168.11 C131.68 162.75 131.68 162.75 126 165 C120.92 172.22 121.76 182.3 121.75 190.69 C121.75 191.3 121.75 191.91 121.75 192.53 C121.8 239.18 121.8 239.18 133 251 C136.78 253.13 139.25 253.13 143.44 252.25 C144.4 252.05 145.36 251.85 146.34 251.65 C148.43 251.14 150.42 250.59 152.44 249.88 C154.88 249.04 156.47 248.92 159 249 C169.97 272.22 170.18 300.14 162 324.24 C155.26 342.92 143.17 356.42 126 366 C125.15 366.49 124.31 366.98 123.44 367.49 C117.13 370.75 110.44 372.27 103.56 373.88 C103.08 373.99 103.08 373.99 100.62 374.57 C99.69 374.77 98.77 374.97 97.82 375.18 C96.99 375.36 96.15 375.55 95.3 375.73 C92.9 376.01 91.28 375.74 89 375 C89.79 374.54 90.58 374.08 91.39 373.6 C106.78 364.45 122.48 354.29 127.57 336.05 C130.71 321.14 127.62 304.95 120.02 291.91 C114.22 283.16 106.65 275.51 99.12 268.25 C86.26 255.68 84.07 241.79 82.47 224.69 C78.69 185.14 71.12 143.2 52 108 C51.68 107.39 51.36 106.79 51.03 106.17 C44.18 93.27 35.5 82.29 25.54 71.66 C25.13 71.2 24.71 70.75 24.28 70.28 C23 69 23 69 20.27 66.91 C16.4 63.04 16.92 57.13 16.56 52 C14.93 33.76 10.42 17.76 1 2 C0.67 1.34 0.34 0.68 0 0 Z " fill="#303031" transform="translate(485,0)"/>
<path d="M0 0 C0.33 0 0.66 0 1 0 C0.97 7.34 -1.02 13.23 -4 19.82 C-6 24.37 -6 24.37 -6 27.1 C-4.46 30.04 -2.27 32.25 0.06 34.56 C0.32 34.82 0.32 34.82 1.64 36.13 C8.39 42.62 17.02 50.01 26 53 C26 53.66 26 54.32 26 55 C26.66 55.25 27.32 55.5 28 55.75 C30.26 56.69 32.34 57.68 34.5 58.81 C49.51 66.36 65.8 70.22 82.31 72.75 C82.66 72.8 82.66 72.8 84.43 73.08 C126.74 79.41 180.61 76.53 216.54 50.9 C218.74 49.23 220.86 47.47 222.95 45.66 C225 44 225 44 227.14 43.02 C229.53 41.71 229.91 40.46 231 38 C232.51 35.99 234.08 34.05 235.66 32.1 C237.32 29.49 237.95 28.12 238 25 C236.84 22.16 235.29 19.61 233.69 17 C226.72 5.32 226.72 5.32 227.46 1.86 C227.55 1.55 227.55 1.55 228 0 C228.18 0.2 228.18 0.2 229.09 1.19 C241.92 14.97 253.09 21.3 272 23 C272 30.53 263.66 38.87 259.25 44.69 C255.06 50.23 250.9 55.78 246.88 61.44 C246.41 62.06 245.95 62.69 245.48 63.33 C242.18 68.03 240.88 72.36 240 78 C239.94 78.33 239.94 78.33 239.67 80.03 C239.38 81.87 239.12 83.71 238.88 85.56 C238.79 86.19 238.7 86.82 238.61 87.46 C238.41 88.97 238.2 90.49 238 92 C234.76 92.74 231.94 93.05 228.62 92.88 C225.45 92.82 223.29 93.1 220.44 94.5 C216.63 96.37 213.19 96.54 209 96 C207.32 95.36 205.65 94.7 204 94 C200.78 93.44 198.89 93.41 196.13 95.24 C193.76 97.22 191.59 99.07 189.92 101.7 C189.62 102.13 189.31 102.56 189 103 C188.34 103 187.68 103 187 103 C185.43 100.68 183.92 98.35 182.54 95.91 C181.03 93.6 179.96 92.21 177.2 91.61 C174.76 91.56 172.43 91.75 170 92 C168.97 92.09 167.94 92.19 166.88 92.29 C163.35 92.63 159.83 93.03 156.31 93.44 C141.58 95.13 126.96 96.23 112.12 96.25 C111.4 96.25 110.68 96.25 109.93 96.26 C96.9 96.26 84.06 95.36 71.11 93.95 C68.69 93.69 66.28 93.44 63.87 93.19 C62.57 93.06 61.27 92.92 59.97 92.77 C57.93 92.55 55.89 92.36 53.84 92.17 C53.22 92.09 52.59 92.02 51.95 91.95 C48.7 91.67 47.24 91.83 44.54 93.73 C42.77 95.72 41.41 97.75 40 100 C39.03 101.03 38.04 102.04 37 103 C36.54 102.45 36.08 101.89 35.61 101.32 C35 100.6 34.38 99.87 33.75 99.12 C33.15 98.41 32.54 97.69 31.92 96.95 C29.97 94.97 28.6 93.92 26 93 C23.89 92.99 23.89 92.99 21.69 93.31 C21.29 93.36 21.29 93.36 19.29 93.62 C17 94 17 94 13.62 94.88 C10.03 95.47 7.74 94.05 4.56 92.44 C0.83 90.57 -1.35 89.56 -5.44 90.69 C-6.03 90.92 -6.63 91.15 -7.25 91.39 C-9.26 92.09 -10.88 92.04 -13 92 C-13.09 91.41 -13.19 90.82 -13.29 90.22 C-13.74 87.49 -14.21 84.78 -14.69 82.06 C-14.84 81.14 -14.99 80.21 -15.14 79.26 C-16.71 70.49 -19.99 63.64 -26.19 57.19 C-26.96 56.35 -27.74 55.51 -28.54 54.65 C-28.94 54.22 -29.34 53.78 -29.76 53.34 C-49 32.58 -49 32.58 -49 23 C-48.71 23 -48.71 23 -47.25 22.97 C-20.73 22.43 -20.73 22.43 -9.3 11.46 C-6.39 8.35 -3.78 5.1 -1.28 1.65 C-0.86 1.11 -0.43 0.56 0 0 Z " fill="#9E62A5" transform="translate(274,357)"/>
<path d="M0 0 C18.97 1.87 40.86 13.61 53.62 27.75 C56.14 30.97 58.19 33.89 57.81 38.12 C56.8 40.46 56.03 41.44 54 43 C51.01 43.57 48.12 43.9 45.09 44.17 C42.34 44.48 40.36 44.75 38.07 46.38 C36.61 48.59 36.75 50.32 37.23 52.88 C38.19 55.54 39.6 57.6 41.19 59.94 C57.13 84.03 62.41 123.88 56.76 152.01 C54.11 162.43 50.8 172.36 46 182 C45.34 182 44.68 182 44 182 C43.95 182.36 43.95 182.36 43.71 184.18 C39.79 199.66 20.03 214.26 7.3 222 C-5.74 229.64 -19.42 235.09 -34 239 C-34.39 239.11 -34.39 239.11 -36.37 239.64 C-50.9 243.43 -65.11 243.46 -80 243 C-79.43 240.14 -78.71 238.31 -76.85 236.07 C-76.41 235.53 -75.97 234.99 -75.51 234.43 C-74.52 233.24 -73.53 232.05 -72.54 230.86 C-69.9 227.63 -67.65 224.53 -65.79 220.78 C-61.63 212.69 -61.63 212.69 -58 210 C-52.07 208.14 -45.73 208.75 -39.6 208.98 C-20.34 209.15 -1.12 199.35 13 187 C13.55 186.43 14.09 185.85 14.66 185.26 C16 184 16 184 18 184 C18.25 183.45 18.49 182.89 18.75 182.32 C20.24 179.55 22.07 177.3 24.06 174.88 C27.9 170.19 27.9 170.19 29 168 C29.66 168 30.32 168 31 168 C31.08 167.32 31.16 166.64 31.25 165.94 C31.91 163.36 32.48 162.08 33.85 159.91 C36.34 155.65 37.76 151.2 39.19 146.5 C39.45 145.68 39.71 144.87 39.97 144.03 C42.16 136.99 43.15 130.31 43.2 122.95 C43.21 122.3 43.22 121.65 43.22 120.97 C43.24 118.88 43.25 116.78 43.25 114.69 C43.25 113.97 43.25 113.26 43.25 112.52 C43.23 93.41 41 75.97 31.17 59.18 C30 57 30 57 30 55 C29.56 55.24 29.11 55.48 28.66 55.73 C26.61 56.84 24.56 57.92 22.5 59 C22.15 59.19 22.15 59.19 20.39 60.16 C15.31 62.79 11.71 63.41 6 63 C3.46 58.43 2.24 54.32 1.38 49.19 C1.25 48.53 1.13 47.87 1.01 47.19 C0.64 45.13 0.31 43.07 0 41 C-0.1 40.35 -0.2 39.71 -0.3 39.05 C-1.23 32.1 -1.15 25.13 -1.13 18.13 C-1.12 15.98 -1.13 13.82 -1.14 11.67 C-1.14 10.3 -1.13 8.93 -1.13 7.56 C-1.13 6.92 -1.14 6.27 -1.14 5.61 C-1.11 1.11 -1.11 1.11 0 0 Z " fill="#9D62A4" transform="translate(619,177)"/>
<path d="M0 0 C13.05 0.1 25.52 4.91 37.66 9.31 C38.2 9.5 38.2 9.5 40.93 10.49 C52.58 14.72 64.07 19.33 75.56 23.98 C79.42 25.54 83.28 27.09 87.15 28.64 C89.18 29.46 91.21 30.28 93.25 31.11 C97.37 32.77 101.5 34.42 105.64 36.02 C106.26 36.26 106.87 36.5 107.5 36.74 C110.26 37.62 111.55 37.59 114.13 36.26 C116.09 33.75 117.61 31.06 119.13 28.26 C121.98 23.42 121.98 23.42 124.13 21.26 C126.26 21.64 126.26 21.64 128.13 22.26 C129.85 28.82 128.4 33.39 125.13 39.26 C121.65 44.21 118.12 48 112.63 50.64 C107.58 53.14 105.1 57.04 102.03 61.55 C94.38 72.53 82.34 79.36 69.26 81.8 C53.45 83.63 40.56 79.36 27.59 70.53 C16.93 61.85 10.25 48.68 8.13 35.26 C7.68 29.05 7.28 22.26 9.13 16.26 C8.53 16.1 7.93 15.95 7.31 15.78 C3.38 14.64 0.65 13.72 -2.43 10.95 C-4.13 7.76 -4.34 5.83 -3.87 2.26 C-1.87 0.26 -1.87 0.26 0 0 Z " fill="#403753" transform="translate(262.865234375,163.736572265625)"/>
<path d="M0 0 C1 1 1 1 1.25 3.75 C0.96 7.47 0.38 9.14 -2 12 C-4 12.68 -6 13.35 -8 14 C-8.98 16.68 -9.17 19.37 -9.36 22.2 C-10.21 33.44 -12.13 43.42 -16 54 C-16.66 54 -17.32 54 -18 54 C-18.25 54.73 -18.5 55.45 -18.75 56.2 C-22.93 65.6 -33.54 74.36 -42.84 78.16 C-59.87 83.08 -76.63 79.19 -92 71 C-92.11 71.6 -92.22 72.21 -92.33 72.83 C-93.91 80.77 -93.91 80.77 -97 84 C-98.32 83.67 -99.64 83.34 -101 83 C-101.16 79.56 -101.05 77.14 -99.88 73.88 C-99 71 -99 71 -99.5 68.75 C-102.28 65.51 -105.44 65.14 -109.49 64.78 C-115.4 64.58 -120.33 65.39 -125.91 67.34 C-128 68 -128 68 -131 68 C-130.04 64.78 -129.37 63.27 -126.62 61.25 C-122.98 59.52 -119.91 58.87 -115.89 58.9 C-115.14 58.91 -114.38 58.91 -113.61 58.91 C-112.83 58.92 -112.05 58.93 -111.25 58.94 C-110.46 58.94 -109.66 58.95 -108.85 58.95 C-106.9 58.96 -104.95 58.98 -103 59 C-103.3 58.32 -103.6 57.64 -103.9 56.94 C-105.01 54.4 -106.11 51.87 -107.22 49.34 C-107.7 48.24 -108.17 47.15 -108.65 46.05 C-109.34 44.48 -110.03 42.9 -110.71 41.32 C-111.13 40.38 -111.54 39.43 -111.97 38.45 C-113.74 34.24 -114.57 30.56 -114 26 C-112.69 23.06 -112.69 23.06 -111 21 C-110.01 21 -109.02 21 -108 21 C-106.72 22.61 -106.72 22.61 -105.5 24.75 C-105.28 25.11 -105.28 25.11 -104.17 26.95 C-103.32 28.44 -102.52 29.96 -101.75 31.5 C-99.15 33.73 -96.88 33.32 -93.54 33.26 C-89.16 32.81 -85.32 31.26 -81.27 29.6 C-80.36 29.24 -79.45 28.89 -78.52 28.52 C-67.53 24.12 -56.81 19.12 -46.07 14.13 C-10.47 -2.38 -10.47 -2.38 0 0 Z " fill="#403753" transform="translate(518,164)"/>
<path d="M0 0 C49.17 0 98.34 0 149 0 C146.86 14.95 143.04 28.62 136 42 C135.13 41.67 134.25 41.35 133.35 41.01 C126.26 38.46 119.26 36.47 111.81 35.25 C111.11 35.13 110.42 35.02 109.7 34.9 C98.7 33.22 87.67 32.76 76.56 32.75 C76.24 32.75 76.24 32.75 74.58 32.75 C57.83 32.78 42.03 35.13 25.84 39.46 C25.01 39.68 24.19 39.89 23.34 40.11 C22.62 40.3 21.9 40.5 21.16 40.7 C19 41 19 41 14 40 C8 28 8 28 0 0 Z " fill="#303031" transform="translate(305,0)"/>
<path d="M0 0 C2.77 4.82 3.55 8.9 4.19 14.38 C5.58 24.06 9.17 31.59 14 40 C15.21 42.14 16.42 44.28 17.63 46.42 C18.39 47.76 19.16 49.09 19.94 50.42 C23.8 57.08 27.41 64.12 26 72 C22.45 79.72 14.93 83.44 7.25 86.31 C0.53 88.64 -7 90.62 -14 88.35 C-19.82 85.42 -21.9 80.97 -24.09 75.08 C-25.61 69.53 -25.35 63.77 -25.31 58.06 C-25.31 57.46 -25.31 56.86 -25.31 56.24 C-25.26 46.58 -24.67 37.33 -22 28 C-21.83 27.39 -21.66 26.79 -21.48 26.16 C-18.25 15.22 -13.08 -0.74 0 0 Z " fill="#AE7DB9" transform="translate(295,0)"/>
<path d="M0 0 C7.19 -0.48 7.19 -0.48 10.07 1.22 C23.48 17.72 28.15 40.02 28.25 60.81 C28.27 61.84 28.29 62.87 28.31 63.93 C28.35 70.68 28.3 78.96 23.8 84.47 C18.4 89.01 11.47 88.53 4.81 88.18 C-4.82 87.21 -14.86 81.4 -21 74 C-23.53 68.93 -23.4 64.37 -22 59 C-19.8 53.62 -16.99 48.59 -13.96 43.65 C-8.88 35.28 -6.06 27.54 -4 18 C-3.63 16.35 -3.25 14.7 -2.88 13.05 C-1.89 8.71 -0.94 4.36 0 0 Z " fill="#AE7CB9" transform="translate(464,0)"/>
<path d="M0 0 C18.97 1.87 40.86 13.61 53.62 27.75 C56.14 30.97 58.19 33.89 57.81 38.12 C56.8 40.46 56.03 41.44 54 43 C51.01 43.57 48.12 43.9 45.09 44.17 C42.37 44.47 40.34 44.77 38.04 46.3 C36.68 48.52 36.86 49.65 37.31 52.19 C37.43 52.9 37.55 53.62 37.68 54.36 C37.78 54.9 37.89 55.44 38 56 C32.25 54.12 32.25 54.12 30 53 C30 53.66 30 54.32 30 55 C27.51 56.36 25.01 57.68 22.5 59 C21.8 59.38 21.11 59.76 20.39 60.16 C15.31 62.79 11.71 63.41 6 63 C3.46 58.43 2.24 54.32 1.38 49.19 C1.25 48.53 1.13 47.87 1.01 47.19 C0.64 45.13 0.31 43.07 0 41 C-0.1 40.35 -0.2 39.71 -0.3 39.05 C-1.23 32.1 -1.15 25.13 -1.13 18.13 C-1.12 15.98 -1.13 13.82 -1.14 11.67 C-1.14 10.3 -1.13 8.93 -1.13 7.56 C-1.13 6.92 -1.14 6.27 -1.14 5.61 C-1.11 1.11 -1.11 1.11 0 0 Z " fill="#AE7DB9" transform="translate(619,177)"/>
<path d="M0 0 C4.2 0.73 7.77 1.67 10.72 4.86 C12.39 7.5 13.71 10.15 15 13 C15.25 13.55 15.5 14.1 15.75 14.66 C25.71 37.23 28.56 62.56 28 87 C27.5 86.84 27.5 86.84 25 86 C24.7 86.87 24.39 87.74 24.08 88.64 C17.25 108.14 9.45 126.69 -6 141 C-6.32 141.33 -6.32 141.33 -7.96 143.02 C-20.83 155.61 -36.87 161.2 -54.63 161.33 C-59.17 161.27 -62.78 160.68 -67 159 C-67 158.01 -67 157.02 -67 156 C-66 155.84 -64.99 155.68 -63.96 155.52 C-45.84 152.5 -28.3 145.86 -15.34 132.26 C-14 131 -14 131 -12 131 C-11.88 130.72 -11.88 130.72 -11.25 129.32 C-9.76 126.55 -7.93 124.3 -5.94 121.88 C-2.1 117.19 -2.1 117.19 -1 115 C-0.34 115 0.32 115 1 115 C1.08 114.32 1.16 113.64 1.25 112.94 C1.91 110.36 2.48 109.08 3.85 106.91 C6.34 102.65 7.76 98.2 9.19 93.5 C9.45 92.68 9.71 91.87 9.97 91.03 C12.16 83.99 13.15 77.31 13.2 69.95 C13.21 69.3 13.22 68.65 13.22 67.97 C13.24 65.88 13.25 63.78 13.25 61.69 C13.25 60.97 13.25 60.26 13.25 59.52 C13.23 40.54 11.14 22.96 1.17 6.38 C-0.01 3.97 -0.27 2.63 0 0 Z " fill="#AA84B9" transform="translate(649,230)"/>
<path d="M0 0 C4.06 2.89 6.46 5.86 8.84 10.25 C9.18 10.86 9.52 11.47 9.87 12.1 C13.77 19.23 17.18 26.61 20.56 34 C24.22 41.93 27.88 49.86 31.75 57.69 C32.03 58.26 32.3 58.82 32.59 59.4 C39.23 72.69 51 83.11 65.03 88.07 C69.94 89.35 74.45 90.05 79.51 90.08 C93.32 90.17 93.32 90.17 98.38 94.94 C102.58 100.1 106 106.22 106 113 C83.33 116.21 63.76 112.88 45 99 C25.56 82.69 18.47 58.31 11 35 C10.64 33.88 10.28 32.76 9.92 31.64 C6.51 21.12 3.14 10.6 0 0 Z " fill="#9F6FAA" transform="translate(138,325)"/>
<path d="M0 0 C0.77 13.96 -1.65 26 -10.63 36.99 C-17.42 44.33 -27.13 49.45 -37.14 50.25 C-44.86 50.39 -51.7 49.43 -59 47 C-59 46.34 -59 45.68 -59 45 C-59.68 44.98 -60.36 44.96 -61.06 44.94 C-66.93 43.06 -70.66 38.08 -73.44 32.75 C-74.69 30.14 -75 28.98 -75 26 C-71.38 27.35 -68.17 28.98 -64.88 31 C-64.03 31.52 -63.18 32.03 -62.3 32.56 C-60 34 -60 34 -58.46 35.16 C-55.27 36.99 -51.52 36.56 -48 36 C-42.79 33.71 -40.5 28.76 -38.08 23.89 C-37 21 -37 21 -36.83 18.86 C-36.56 16.22 -36.2 14.37 -35 12 C-31.38 9.45 -27.39 8.04 -23.25 6.56 C-22.15 6.14 -21.06 5.72 -19.96 5.29 C-16.99 4.15 -14 3.06 -11 2 C-9.95 1.63 -8.9 1.26 -7.82 0.88 C-5.03 0.01 -2.9 -0.17 0 0 Z " fill="#DDDDDF" transform="translate(498,184)"/>
<path d="M0 0 C2.9 0.99 4.42 1.67 6.56 3.88 C7.11 6.43 7.07 8.96 7.06 11.56 C7.29 18.65 7.95 24.03 12.98 29.39 C17.61 33.54 22.22 35.37 28.45 35.19 C34.81 34.24 39.43 30.56 43.56 25.88 C43.95 25.32 44.33 24.76 44.73 24.19 C45.92 22.53 46.98 21.16 48.56 19.88 C51.48 19.76 52.87 19.99 55.56 20.88 C56.44 21.15 57.31 21.43 58.21 21.71 C63.71 23.59 68.63 25.81 73.56 28.88 C73.56 33.79 72.63 36.31 69.25 39.94 C59.48 49 47.6 52.43 34.6 52.12 C22.88 51.56 12.78 46.66 4.69 38.12 C-3.07 28.52 -5.6 17.54 -5.8 5.51 C-5.44 2.88 -5.44 2.88 -4.07 1.01 C-2.44 -0.12 -2.44 -0.12 0 0 Z " fill="#DCDCDE" transform="translate(286.4375,183.125)"/>
<path d="M0 0 C13.61 0.91 28.92 6.63 38.99 16.05 C41.31 18.98 41.54 21.4 41.41 25.06 C40.78 28.04 39.49 29.23 37.04 30.96 C31.83 33.75 26 36.44 19.99 36.05 C19.74 36.88 19.49 37.7 19.24 38.55 C17.5 43.68 15.75 48.56 11.55 52.12 C8.41 53.27 7.08 53.32 3.99 52.05 C0.59 48.45 -1.08 44.93 -2.26 40.18 C-2.43 39.5 -2.6 38.83 -2.77 38.14 C-5.36 26.39 -5.24 12.88 -3.01 1.05 C-2.01 0.05 -2.01 0.05 0 0 Z " fill="#89B5C7" transform="translate(108.01171875,281.9453125)"/>
<path d="M0 0 C2.06 2.66 2.81 5.42 3.75 8.62 C8.55 23.3 18.81 31.94 32 39 C46.4 46.14 61.22 47.68 77 49 C79.2 56.65 79.2 56.65 80 60 C65.3 66.63 51.16 64.49 36.43 59 C22.12 53.44 7.85 45.8 0.94 31.38 C0.25 29.6 -0.4 27.81 -1 26 C-1.13 25.63 -1.13 25.63 -1.77 23.77 C-3.68 17.02 -3.79 8.09 -0.95 1.61 C-0.64 1.08 -0.32 0.55 0 0 Z " fill="#9D62A4" transform="translate(175,307)"/>
<path d="M0 0 C0.33 0 0.66 0 1 0 C2.06 14.77 -1.3 28.94 -5.1 43.14 C-6.19 47.48 -6.63 51.8 -7 56.25 C-7.08 57.19 -7.16 58.13 -7.25 59.1 C-7.83 66.32 -8.17 73.53 -8.46 80.77 C-8.48 81.24 -8.48 81.24 -8.58 83.67 C-8.78 88.51 -8.97 93.36 -9.13 98.2 C-9.51 108.75 -10.48 118.74 -13 129 C-13.33 128.01 -13.66 127.02 -14 126 C-15.05 126.12 -16.1 126.25 -17.19 126.38 C-17.48 126.41 -17.48 126.41 -18.98 126.59 C-21.46 127.1 -23.67 128.01 -26 129 C-24.84 85.09 -18.93 40.09 0 0 Z " fill="#9F6FAA" transform="translate(228,123)"/>
<path d="M0 0 C0.66 0 1.32 0 2 0 C2.51 8.32 1.81 14.56 -2 22 C-2.16 22.35 -2.16 22.35 -2.99 24.12 C-10.26 37.75 -29.48 44.71 -43.46 49 C-53.55 51.93 -63.94 53.82 -74 50 C-76 48.75 -76 48.75 -77 47 C-76.78 43.51 -76.38 40.63 -74 38 C-71.96 37.46 -71.96 37.46 -69.44 37.23 C-68.51 37.13 -67.57 37.03 -66.61 36.93 C-65.61 36.83 -64.6 36.73 -63.56 36.62 C-44.52 34.41 -21.28 30.37 -8 15 C-4.52 10.35 -2.13 5.38 0 0 Z " fill="#9D62A4" transform="translate(601,318)"/>
<path d="M0 0 C4.95 0 9.9 0 15 0 C16.41 3.36 17.81 6.73 19.22 10.09 C19.7 11.23 20.17 12.38 20.65 13.52 C21.34 15.17 22.03 16.81 22.71 18.46 C23.13 19.45 23.54 20.44 23.97 21.46 C24.71 23.28 25.38 25.13 26 27 C25.75 26.99 25.75 26.99 24.47 26.95 C22.15 26.89 19.83 26.85 17.5 26.81 C16.71 26.79 15.92 26.76 15.1 26.74 C9.7 26.67 4.75 27.21 0 30 C-1.31 32.62 -1.31 32.62 -2 35 C-2.5 35.16 -2.5 35.16 -5 36 C-5 35.34 -5 34.68 -5 34 C-5.35 34.12 -5.35 34.12 -7.15 34.71 C-11 35.1 -12.47 33.86 -15.62 31.69 C-16.57 31.05 -17.51 30.42 -18.48 29.76 C-19.31 29.18 -20.14 28.6 -21 28 C-22 27.33 -23 26.66 -24 26 C-20.42 20.34 -17.15 17.27 -11.18 14.27 C-5.45 10.93 -2.9 5.8 0 0 Z " fill="#9C61A3" transform="translate(390,197)"/>
<path d="M0 0 C1.94 0.56 1.94 0.56 4 2 C5.15 6.07 5.46 7.91 3.81 11.81 C1.54 14.55 -0.48 15.71 -3.98 16.37 C-9.88 16.55 -14.76 15.28 -20.31 13.5 C-31.88 9.85 -41.81 9.52 -53 15 C-59.16 18.3 -63.91 22.59 -68.46 27.84 C-69.64 29.12 -69.64 29.12 -72 31 C-74.8 30.79 -74.8 30.79 -77 30 C-77.63 25.78 -77.06 23.61 -74.56 20.12 C-66.73 10.58 -57.5 3.81 -45 2 C-34.87 1.32 -25.2 1.92 -15.33 4.25 C-11.82 5.04 -8.6 5.76 -5 6 C-3.22 4.79 -3.22 4.79 -2.06 3.06 C-1.66 2.5 -1.26 1.93 -0.85 1.35 C-0.71 1.13 -0.71 1.13 0 0 Z " fill="#432D57" transform="translate(444,274)"/>
<path d="M0 0 C6.98 -0.24 10.33 2.32 15.25 6.88 C18.64 10.37 21.51 14.2 24.38 18.12 C24.82 18.72 25.26 19.32 25.71 19.94 C28.07 23.26 29.58 25.84 30 30 C27.51 31.36 25.01 32.68 22.5 34 C21.8 34.38 21.11 34.76 20.39 35.16 C15.31 37.79 11.71 38.41 6 38 C3.57 33.58 2.21 29.57 1.31 24.62 C1.19 23.94 1.06 23.26 0.93 22.55 C-0.35 15.04 -0.27 7.59 0 0 Z " fill="#DEDEE0" transform="translate(619,202)"/>
<path d="M0 0 C19.37 3.36 39.64 14.54 53 29 C55.01 32.02 56.11 34.6 55.81 38.31 C55 40 55 40 53 42 C47.94 41.88 44.57 38.79 40.75 35.81 C40.06 35.28 39.36 34.75 38.65 34.2 C28.18 26.13 17.91 17.78 8.12 8.88 C7.64 8.44 7.16 8 6.67 7.55 C4.14 5.21 1.97 2.83 0 0 Z " fill="#BB9CC9" transform="translate(621,177)"/>
<path d="M0 0 C4.15 1.38 4.7 3.47 6.68 7.21 C8.34 10.73 9.7 14.32 11.05 17.97 C12.55 21.96 14.21 25.84 16.06 29.69 C16.53 30.66 16.99 31.63 17.47 32.64 C19.11 35.17 20.21 35.97 23 37 C22.78 37.34 22.78 37.34 21.69 39.06 C20.39 41.32 19.52 43.23 18.62 45.62 C17.52 48.27 16.92 49.07 14.62 51 C11.45 52.21 10.15 52.29 7 51 C3.6 47.4 1.93 43.87 0.75 39.12 C0.58 38.45 0.41 37.78 0.24 37.08 C-2.38 25.22 -2.04 11.95 0 0 Z " fill="#8BA8BF" transform="translate(105,283)"/>
<path d="M0 0 C4.27 8.53 -2.65 27.3 -5.55 36.12 C-9.34 46.72 -14.69 56.75 -24.88 62.31 C-29.09 64.24 -33.45 65.2 -38 66 C-35.24 63.13 -32.37 60.7 -29.19 58.31 C-23.82 54.08 -19.08 49.17 -16 43 C-15.34 43 -14.68 43 -14 43 C-13.88 42.16 -13.75 41.33 -13.62 40.47 C-13.12 37.42 -12.35 34.48 -11.54 31.49 C-9.58 24.26 -8.5 17.47 -8.27 9.99 C-7.99 6.9 -7.46 4.73 -6 2 C-2.88 0.69 -2.88 0.69 0 0 Z " fill="#95629F" transform="translate(516,175)"/>
<path d="M0 0 C2.55 1.93 4.56 4.12 6 7 C6.57 13.64 6.45 19.21 3 25 C1.19 26.62 1.19 26.62 -1 27 C-4.59 25.76 -6.36 24.75 -8.81 21.88 C-10.97 16.65 -11.91 11.49 -9.75 6.12 C-7.41 1.57 -5.51 -1.05 0 0 Z " fill="#89A6BD" transform="translate(479,457)"/>
<path d="M0 0 C3.6 0.97 5.64 2.57 7.56 5.69 C9.98 12.24 9.86 18.14 7.56 24.69 C6.92 26.03 6.26 27.37 5.56 28.69 C-0.66 28.45 -0.66 28.45 -2.76 26.39 C-6.89 20.21 -7.13 13.97 -6.44 6.69 C-5.24 3.14 -3.75 1.06 0 0 Z " fill="#87B2C4" transform="translate(271.4375,453.3125)"/>
<path d="M0 0 C4.06 1.81 6.66 3.06 9 7 C10.85 12.55 10.68 17.16 8.06 22.44 C6.26 25.74 6.26 25.74 5 27 C2.64 26.82 0.34 26.38 -2 26 C-4.97 19.68 -6.59 12.96 -4.39 6.1 C-3.23 3.67 -1.91 1.91 0 0 Z " fill="#89A5BC" transform="translate(499,455)"/>
<path d="M0 0 C6.23 -0.49 6.23 -0.49 9.88 1.81 C13.14 5.17 13.33 8.34 13.3 12.8 C12.76 16.76 10.87 21.13 8 24 C2.93 24.56 2.93 24.56 1 24 C-2.1 20.21 -2.44 16.73 -2.31 12 C-2.32 11.4 -2.32 10.79 -2.32 10.17 C-2.28 6.36 -1.63 3.43 0 0 Z " fill="#94A5BE" transform="translate(292,457)"/>
<path d="M0 0 C2.77 2.06 3.55 3.51 4.44 6.81 C-4.31 9.34 -21.11 13.36 -29.4 8.8 C-29.79 8.47 -30.17 8.15 -30.56 7.81 C-30.49 5.98 -30.49 5.98 -29.56 3.81 C-27.21 2.65 -25.17 1.83 -22.69 1.06 C-22.01 0.85 -21.34 0.63 -20.64 0.41 C-13.85 -1.61 -6.75 -2.81 0 0 Z " fill="#BD9DCA" transform="translate(414.5625,229.1875)"/>
<path d="M0 0 C3.61 1.53 4.91 2.75 6.81 6.19 C7.48 9.03 7.58 11.36 6.81 14.19 C5.11 16.37 3.16 17.76 0.81 19.19 C0.11 19.62 -0.59 20.05 -1.31 20.5 C-3.4 21.26 -4.99 21.24 -7.19 21.19 C-8.08 19.64 -8.95 18.07 -9.81 16.5 C-10.3 15.63 -10.79 14.76 -11.29 13.86 C-12.19 11.19 -12.19 11.19 -11.54 8.57 C-8.9 3.92 -5.48 0.32 0 0 Z " fill="#C6C5CB" transform="translate(142.1875,294.8125)"/>
<path d="M0 0 C0 1.98 0 3.96 0 6 C-3.19 7.13 -6.37 8.25 -9.56 9.38 C-10.46 9.69 -11.35 10.01 -12.28 10.34 C-26.4 15.3 -26.4 15.3 -31.44 15.12 C-32.12 15.11 -32.8 15.09 -33.5 15.07 C-33.99 15.05 -34.49 15.02 -35 15 C-35 14.01 -35 13.02 -35 12 C-31.69 10.61 -28.38 9.22 -25.08 7.84 C-23.95 7.37 -22.83 6.9 -21.71 6.42 C-20.08 5.74 -18.46 5.06 -16.84 4.38 C-15.86 3.97 -14.89 3.57 -13.88 3.15 C-9.15 1.27 -5.14 -0.3 0 0 Z " fill="#C6C5CB" transform="translate(498,184)"/>
<path d="M0 0 C0 11.88 0 23.76 0 36 C-2.35 31.3 -4.16 26.48 -6 21.55 C-6.63 19.87 -7.26 18.19 -7.9 16.51 C-8.3 15.45 -8.69 14.4 -9.1 13.3 C-9.47 12.34 -9.83 11.37 -10.21 10.37 C-11 8 -11 8 -11 6 C-8.85 4.49 -8.85 4.49 -6.06 2.88 C-5.15 2.34 -4.23 1.8 -3.29 1.24 C-1 0 -1 0 0 0 Z " fill="#303031" transform="translate(682,226)"/>
<path d="M0 0 C8.49 3.34 13.57 14.47 17.12 22.31 C17.43 22.97 17.74 23.63 18.06 24.3 C20.05 28.96 20.29 32.07 19 37 C18.67 37.17 18.67 37.17 17 38 C16.69 36.97 16.39 35.94 16.07 34.88 C13.11 25.47 9.3 17.62 3.61 9.54 C3.14 8.87 2.68 8.2 2.2 7.51 C1.77 6.93 1.35 6.35 0.91 5.74 C-0.16 3.69 -0.18 2.29 0 0 Z " fill="#BB9BC8" transform="translate(582,283)"/>
<path d="M0 0 C1.66 5.69 1.66 5.69 -0.02 9.04 C-1.57 11.16 -3.21 13.08 -5 15 C-5.51 15.56 -6.02 16.12 -6.54 16.7 C-11.39 21.44 -17.45 23.56 -24 25 C-24.66 24.67 -25.32 24.34 -26 24 C-25.14 23.37 -24.29 22.74 -23.4 22.09 C-15.65 16.32 -8.39 10.83 -4 2 C-1.5 0 -1.5 0 0 0 Z " fill="#9B73A3" transform="translate(504,216)"/>
<path d="M0 0 C9.07 0.81 17.31 4.22 25 9 C25 10.65 25 12.3 25 14 C18.73 11.98 12.57 9.73 6.44 7.31 C5.62 6.99 4.8 6.67 3.96 6.34 C1.97 5.56 -0.01 4.78 -2 4 C-1.34 2.68 -0.68 1.36 0 0 Z " fill="#C2C0C7" transform="translate(335,203)"/>
<path d="M0 0 C3.62 0.03 5.8 1.11 8.75 3.25 C8.42 5.23 8.09 7.21 7.75 9.25 C6.13 9.3 4.5 9.34 2.88 9.38 C1.97 9.4 1.07 9.42 0.13 9.45 C-2.25 9.25 -2.25 9.25 -4.25 7.25 C-4.44 4.19 -4.44 4.19 -4.25 1.25 C-3.25 0.25 -3.25 0.25 0 0 Z " fill="#D8D7DA" transform="translate(301.25,189.75)"/>
<path d="M0 0 C0 2.94 -0.43 5.25 -1.09 8.11 C-1.32 9.09 -1.54 10.07 -1.78 11.08 C-2.02 12.11 -2.25 13.13 -2.5 14.19 C-2.74 15.22 -2.98 16.26 -3.22 17.33 C-3.81 19.88 -4.4 22.44 -5 25 C-6.65 24.67 -8.3 24.34 -10 24 C-10.33 24.66 -10.66 25.32 -11 26 C-11.33 24.68 -11.66 23.36 -12 22 C-11.38 21.77 -10.76 21.55 -10.12 21.31 C-7.22 19.52 -6.96 18.29 -6 15 C-5.45 12.47 -4.94 9.94 -4.46 7.4 C-4.31 6.61 -4.16 5.82 -4 5 C-3.88 4.26 -3.76 3.52 -3.63 2.75 C-3.53 2.46 -3.53 2.46 -3 1 C-2.01 0.67 -1.02 0.34 0 0 Z " fill="#353046" transform="translate(164,297)"/>
<path d="M0 0 C3.76 0.3 6.37 1.27 9 4 C9 5.65 9 7.3 9 9 C7.02 8.5 7.02 8.5 -3 6 C-2 2 -2 2 0 0 Z " fill="#C3C2C9" transform="translate(284,183)"/>
<path d="M0 0 C6.32 -0.49 6.32 -0.49 9.44 1.75 C11.11 4.15 11.41 5.15 11 8 C4.56 7.39 4.56 7.39 2.12 5.69 C0.87 3.8 0.38 2.22 0 0 Z " fill="#BE9CCB" transform="translate(509,236)"/>
<path d="M0 0 C-2.25 1.15 -4.5 2.3 -6.75 3.44 C-7.07 3.6 -7.07 3.6 -8.67 4.42 C-11.74 5.98 -14.58 7.39 -18 8 C-17 5 -17 5 -14.82 3.65 C-13.93 3.23 -13.04 2.81 -12.12 2.38 C-11.68 2.16 -11.68 2.16 -9.45 1.09 C-5.77 -0.55 -3.84 -1.19 0 0 Z " fill="#4B325E" transform="translate(404,216)"/>
</svg>
