<?xml version="1.0" encoding="UTF-8"?>
<!-- Generator: visioncortex VTracer 0.6.5 -->
<svg version="1.1" xmlns="http://www.w3.org/2000/svg" width="682" height="682">
<path d="M0 0 C225.06 0 450.12 0 682 0 C682 225.06 682 450.12 682 682 C456.94 682 231.88 682 0 682 C0 456.94 0 231.88 0 0 Z " fill="#303031" transform="translate(0,0)"/>
<path d="M0 0 C16.97 -0.94 34.8 2.03 50.95 7.13 C50.79 7.86 50.63 8.6 50.47 9.36 C48.94 17.57 49.95 24.96 54.17 32.22 C60.86 41.87 70.52 47.8 81.95 50.13 C90.48 51.25 99.73 51.37 106.95 46.13 C111.65 41.93 114.43 36.83 116.95 31.13 C148.85 51.03 160.8 87.66 169.59 122.44 C170.41 126.28 170.64 129.05 168.5 132.4 C166.7 135.56 166.33 137.96 165.92 141.57 C165.85 142.18 165.77 142.79 165.7 143.42 C165.38 146.01 165.09 148.59 164.8 151.18 C163.51 162.46 161.52 174.14 153.95 183.13 C153.29 183.13 152.63 183.13 151.95 183.13 C151.84 183.86 151.73 184.59 151.61 185.34 C150.74 189 148.98 191.68 147.01 194.84 C145.79 197.47 145.68 199.26 145.95 202.13 C146.95 203.13 146.95 203.13 149.14 203.63 C152.87 202.96 153.92 201.62 156.21 198.7 C168.51 180.51 174.68 161.77 175.74 139.92 C175.95 137.13 175.95 137.13 176.95 134.13 C179.01 132.94 179.01 132.94 180.95 132.13 C184.15 134.41 186.26 136.44 188.39 139.75 C190.82 143.36 192.74 144.24 196.95 145.13 C198.03 140.53 198.72 136.75 196.65 132.38 C195.54 130.67 194.4 128.99 193.2 127.35 C191.95 125.13 191.95 125.13 192.07 123.03 C194.39 118.03 200.03 114.52 205.06 112.59 C210.04 111.37 215.05 111.75 219.95 113.13 C219.95 113.79 219.95 114.45 219.95 115.13 C220.55 115.2 221.14 115.28 221.76 115.36 C224.68 116.38 225.42 117.73 227.08 120.31 C227.57 121.07 228.07 121.83 228.58 122.61 C231.79 128.52 232.31 133.73 232.26 140.31 C232.26 141.16 232.25 142.01 232.25 142.88 C232.13 149.4 231.14 154.98 228.95 161.13 C228.6 162.27 228.26 163.41 227.92 164.56 C224.96 174.3 220.71 183.14 215.95 192.13 C215.29 192.13 214.63 192.13 213.95 192.13 C213.86 192.84 213.76 193.55 213.67 194.28 C211.15 204.3 201.3 214.11 194.95 222.13 C194.76 222.36 194.76 222.36 193.82 223.56 C189.35 229.22 184.66 234.59 179.76 239.88 C179.25 240.43 178.74 240.99 178.21 241.56 C176.12 243.81 174.04 246.04 171.89 248.22 C168.05 252.27 166.98 255.53 166.95 261.13 C167.65 260.76 168.35 260.4 169.07 260.03 C169.98 259.57 170.89 259.1 171.83 258.63 C172.73 258.16 173.64 257.7 174.57 257.22 C176.95 256.13 176.95 256.13 178.95 256.13 C180.41 275.73 175.02 295.62 168.95 314.13 C168.52 315.48 168.09 316.83 167.67 318.18 C163.46 331.29 157.46 343.03 150.95 355.13 C150.29 355.13 149.63 355.13 148.95 355.13 C148.86 355.68 148.77 356.23 148.68 356.79 C146.07 365.17 137.62 373.4 130.91 378.75 C123.95 384.37 120.17 390.84 118.95 399.78 C118.74 401.73 118.56 403.68 118.39 405.63 C117.41 416.52 115.37 426.49 106.95 434.13 C101.75 437.87 96.13 438.03 89.95 437.13 C79.99 433.58 73.24 422.6 66.89 414.63 C66.4 414.01 65.91 413.4 65.4 412.77 C64.95 412.2 64.5 411.62 64.04 411.03 C63.84 410.78 63.84 410.78 62.82 409.48 C61.95 408.13 61.95 408.13 61.95 406.13 C61.21 406.26 60.47 406.39 59.71 406.52 C28.86 411.86 -3.05 411.28 -34.15 408.56 C-36.12 408.41 -38.08 408.27 -40.05 408.13 C-41.05 408.04 -42.06 407.96 -43.1 407.87 C-50.08 407.52 -50.08 407.52 -52.61 409.09 C-53.86 410.49 -54.75 411.87 -55.67 413.5 C-56.4 414.61 -57.13 415.71 -57.87 416.81 C-58.22 417.37 -58.58 417.92 -58.95 418.5 C-64.38 426.55 -71.32 433.31 -80.61 436.5 C-85.56 437.4 -88.84 437.51 -93.09 434.84 C-102.32 427.5 -104.94 416.93 -107.61 405.88 C-109.91 396.34 -111.75 389.64 -119.36 383.06 C-120.15 382.38 -120.94 381.7 -121.75 381 C-123.68 379.43 -125.61 378.01 -127.67 376.63 C-131.85 373.72 -134.88 370.07 -138.05 366.13 C-138.74 365.3 -139.43 364.47 -140.14 363.61 C-151.92 349.01 -158.84 331.66 -165.05 314.13 C-163.3 312.52 -161.55 310.92 -159.8 309.31 C-159.31 308.86 -158.82 308.41 -158.31 307.94 C-150.85 301.13 -150.85 301.13 -148.05 301.13 C-147.8 300.57 -147.55 300.01 -147.29 299.43 C-145.85 296.75 -144.12 294.6 -142.17 292.25 C-141.78 291.78 -141.39 291.31 -140.99 290.82 C-138.74 288.11 -136.46 285.44 -134.14 282.79 C-128.98 276.88 -123.98 270.92 -119.36 264.56 C-119.15 264.28 -119.15 264.28 -118.08 262.83 C-115.85 259.69 -114.17 257.09 -114.05 253.13 C-115.08 250.88 -115.08 250.88 -116.55 248.69 C-118.47 245.51 -119.06 244.51 -118.92 240.69 C-118.05 238.13 -118.05 238.13 -117.05 236.13 C-116.82 234.42 -116.64 232.71 -116.49 231 C-116.44 230.55 -116.44 230.55 -116.23 228.24 C-116.17 227.54 -116.11 226.85 -116.05 226.13 C-125.98 223.68 -135.96 221.47 -145.99 219.44 C-147.03 219.22 -148.07 219.01 -149.14 218.79 C-166.74 215.27 -166.74 215.27 -174.42 217.44 C-175.4 217.7 -176.38 217.97 -177.39 218.24 C-179.77 219.03 -181.89 219.84 -184.05 221.13 C-184.38 221.79 -184.71 222.45 -185.05 223.13 C-184.21 223.12 -183.37 223.12 -182.51 223.11 C-179.41 223.09 -176.3 223.08 -173.2 223.07 C-171.85 223.07 -170.51 223.06 -169.16 223.05 C-167.23 223.04 -165.3 223.03 -163.37 223.03 C-162.77 223.02 -162.17 223.02 -161.54 223.01 C-157.28 223.01 -157.28 223.01 -155.05 224.13 C-155.38 225.45 -155.71 226.77 -156.05 228.13 C-156.71 228.13 -157.37 228.13 -158.05 228.13 C-159.79 237.67 -159.79 237.67 -158 241.17 C-157.09 242.29 -156.15 243.41 -155.21 244.51 C-153.1 247.45 -153.54 249.6 -154.05 253.13 C-155.03 255.13 -156.03 257.13 -157.05 259.13 C-157.59 262.83 -157.28 265.16 -155.36 268.31 C-152.38 272.29 -149.12 274.08 -144.24 274.81 C-143.18 274.92 -142.13 275.02 -141.05 275.13 C-142.63 286.02 -154.21 295 -162.65 301.33 C-173.68 309.13 -185.34 313.36 -199.05 312.13 C-200.72 311.82 -202.39 311.5 -204.05 311.13 C-204.05 310.47 -204.05 309.81 -204.05 309.13 C-204.79 309.02 -205.54 308.92 -206.3 308.81 C-213.23 307.08 -218.18 300.33 -221.8 294.5 C-226.81 285 -227.59 274.9 -224.71 264.6 C-217.19 240.73 -194.71 222.97 -174.06 210.37 C-172.05 209.13 -172.05 209.13 -171.05 208.13 C-170.87 206.83 -170.74 205.53 -170.65 204.22 C-170.62 203.8 -170.62 203.8 -170.45 201.69 C-170.39 200.77 -170.32 199.85 -170.25 198.91 C-170.1 196.94 -169.95 194.97 -169.79 193 C-169.71 191.96 -169.63 190.92 -169.55 189.85 C-166.28 147.97 -161.46 105.61 -141.05 68.13 C-140.77 67.59 -140.48 67.05 -140.19 66.5 C-135.46 57.58 -129.44 49.9 -123.05 42.13 C-122.4 41.32 -121.75 40.51 -121.08 39.68 C-118.21 36.2 -118.21 36.2 -117.05 35.13 C-116.39 35.13 -115.73 35.13 -115.05 35.13 C-113.75 36.95 -113.75 36.95 -112.3 39.38 C-108.28 45.59 -104.22 48.09 -97.05 50.13 C-82.79 51.52 -70.41 48.19 -59.05 39.13 C-56.69 36.63 -54.82 34.06 -53.05 31.13 C-52.71 30.61 -52.37 30.1 -52.03 29.57 C-48.35 23.34 -50.07 15.91 -51.05 9.13 C-34.42 2.59 -17.72 1.09 0 0 Z " fill="#AF7DBA" transform="translate(374.04931640625,232.87451171875)"/>
<path d="M0 0 C11.14 5.08 16.14 15.1 20.24 25.98 C22.35 32.11 23.76 38.29 25.09 44.62 C25.27 45.49 25.46 46.35 25.65 47.23 C26.58 51.61 27.46 55.99 28.28 60.39 C31 74.13 31 74.13 36.98 78.91 C38.63 79.98 40.3 81.01 42 82 C42.96 82.75 43.9 83.52 44.81 84.33 C45.53 84.96 46.26 85.6 47 86.25 C66.7 104.35 78.04 128.6 86.44 153.56 C86.66 154.22 86.88 154.87 87.11 155.55 C89.38 162.31 91.5 168.83 92 176 C92.64 175.34 93.28 174.68 93.94 174 C94.96 173 95.98 172 97 171 C97.64 170.35 98.29 169.7 98.95 169.03 C106.27 162 113.38 158.88 123.56 158.5 C132.71 158.84 139.61 161.8 146.25 168.09 C153.85 176.4 156.56 186.04 156.44 197.12 C156.43 198.04 156.43 198.95 156.42 199.9 C156.24 208.1 154.57 215.26 152 223 C151.5 224.81 151 226.62 150.5 228.44 C149.36 232.18 147.85 235.52 146.01 238.98 C144.96 241.07 144.18 243.17 143.38 245.38 C136.6 262.58 125.81 278.34 113.13 291.7 C111 294 111 294 109.34 296.3 C109.12 296.58 109.12 296.58 108 298 C107.34 298 106.68 298 106 298 C106.03 298.9 106.07 299.8 106.11 300.73 C106.85 329.92 101.37 358.79 91 386 C90.58 387.12 90.15 388.23 89.73 389.35 C88.26 393.23 86.79 397.12 85.31 401 C84.8 402.36 84.28 403.72 83.76 405.08 C82.51 408.39 81.25 411.69 80 415 C82.38 415.06 84.76 415.1 87.15 415.14 C87.82 415.16 88.49 415.17 89.17 415.19 C96.51 415.27 102.35 412.68 107.75 407.69 C113.56 400.92 117.83 393.85 121.81 385.88 C127.16 375.39 132.83 365.35 140 356 C138.91 353.74 137.76 351.6 136.46 349.45 C131.47 341.07 131.47 341.07 131.88 337.25 C132.25 336.18 132.62 335.11 133 334 C133.1 333.71 133.1 333.71 133.59 332.27 C136.56 325.57 143.31 321.96 149.81 319.24 C154.14 317.59 158.54 316.25 163 315 C163.41 314.88 163.41 314.88 165.51 314.25 C174.52 311.99 186.22 310.75 195 314.17 C198.62 317.2 199.72 319.96 200.34 324.51 C201.61 340.95 200.96 361.75 190.56 375.44 C187.4 378.9 184.51 379.82 179.88 380.38 C174.63 380.24 169.8 377.94 165 376 C164.06 375.63 163.13 375.25 162.16 374.87 C161.45 374.58 160.74 374.29 160 374 C159.85 374.46 159.71 374.93 159.55 375.41 C157.19 382.69 154.48 389.85 151.76 397.01 C151.06 398.85 150.37 400.69 149.68 402.54 C147.05 409.5 144.17 416.27 141 423 C140.34 423 139.68 423 139 423 C138.9 423.73 138.81 424.46 138.71 425.21 C136.09 435.49 123.03 445.57 114.44 451.25 C101.83 458.37 87.93 461.2 73.62 461.19 C73.15 461.19 73.15 461.19 70.72 461.19 C62.04 461.13 53.58 460.27 45 459 C44.87 459.69 44.75 460.39 44.62 461.1 C38.4 495.09 38.4 495.09 29.11 502.51 C28.47 502.9 27.84 503.29 27.19 503.69 C26.87 503.89 26.87 503.89 25.29 504.89 C19.47 507.72 14.08 508.29 7.71 508.27 C7.3 508.27 7.3 508.27 5.26 508.28 C2.57 508.29 -0.12 508.29 -2.81 508.29 C-4.75 508.3 -6.68 508.3 -8.62 508.31 C-13.87 508.33 -19.11 508.33 -24.36 508.33 C-27.64 508.34 -30.93 508.34 -34.21 508.35 C-45.07 508.36 -55.94 508.37 -66.8 508.37 C-67.39 508.37 -67.97 508.37 -68.57 508.37 C-69.16 508.37 -69.74 508.37 -70.35 508.37 C-79.83 508.37 -89.32 508.39 -98.8 508.42 C-108.56 508.45 -118.32 508.46 -128.08 508.46 C-133.55 508.46 -139.02 508.46 -144.49 508.48 C-149.64 508.5 -154.78 508.5 -159.93 508.49 C-161.81 508.49 -163.7 508.49 -165.58 508.5 C-186.57 508.63 -186.57 508.63 -194.05 502.25 C-202.56 493.8 -204.95 481.24 -207.68 470.01 C-210.03 460.73 -213.18 453.45 -221.25 448 C-222.41 447.15 -223.57 446.3 -224.73 445.45 C-225.01 445.24 -225.01 445.24 -226.43 444.19 C-240.88 433.24 -249.26 416.24 -257.27 400.45 C-257.74 399.54 -258.21 398.64 -258.69 397.72 C-260 395 -260 395 -261.04 392.15 C-262.12 389.37 -263.06 387.27 -265 385 C-268.97 383.44 -272.83 383.29 -277.06 383.12 C-279.33 382.94 -281.59 382.76 -283.85 382.56 C-284.92 382.47 -286 382.39 -287.1 382.3 C-299 381.08 -310.1 374.91 -318.25 366.26 C-325.87 356.44 -328.15 343.42 -326.81 331.28 C-324.99 316.8 -319.62 305.01 -310 294 C-309.31 293.19 -308.62 292.38 -307.91 291.55 C-300.11 282.6 -291.64 275.29 -282 268.44 C-281.25 267.9 -280.49 267.36 -279.71 266.81 C-279 266.31 -278.29 265.82 -277.56 265.31 C-276.92 264.86 -276.29 264.42 -275.63 263.96 C-274 263 -274 263 -272 263 C-272.01 262.49 -272.01 262.49 -272.06 259.93 C-272.2 249.07 -271.51 238.47 -270.31 227.69 C-270.27 227.28 -270.27 227.28 -270.04 225.2 C-264.99 178.94 -255.18 127.88 -222 93 C-220.74 91.59 -219.49 90.17 -218.25 88.75 C-217.99 88.46 -217.99 88.46 -216.7 86.98 C-216.14 86.33 -215.58 85.67 -215 85 C-214.79 84.81 -214.79 84.81 -213.74 83.86 C-208.86 79.03 -208.98 73.43 -208.5 66.88 C-208.29 64.53 -208.05 62.19 -207.8 59.86 C-207.74 59.27 -207.68 58.69 -207.62 58.09 C-206.68 49.51 -204.51 41.24 -202 33 C-201.81 32.36 -201.61 31.73 -201.41 31.07 C-197.37 18.2 -190.36 8.12 -178.38 1.56 C-175.15 0.8 -173.17 1.01 -170 2 C-162.94 7.55 -160.65 15.54 -158.75 24 C-157.13 30.65 -155.07 36.75 -152 42.88 C-151.68 43.52 -151.36 44.17 -151.03 44.84 C-148.87 48.94 -146.42 51.87 -143 55 C-141.94 54.6 -140.89 54.2 -139.8 53.79 C-104.87 41.08 -65.76 44.49 -30 52 C-25.51 43.18 -23.2 34.56 -21.09 24.96 C-19.03 15.68 -16.6 6.83 -8.59 0.86 C-5.62 -0.75 -3.16 -0.88 0 0 Z M-93.57 59.13 C-126.59 60.88 -126.59 60.88 -140 68 C-139.87 69.05 -139.74 70.1 -139.61 71.18 C-138.7 79.78 -138.33 85.93 -144 93 C-144.61 93.83 -145.23 94.66 -145.86 95.52 C-152.83 103.61 -164.21 108.52 -174.74 109.38 C-183.1 109.77 -191.37 109.17 -197.87 103.32 C-200.47 100.42 -202.33 97.52 -204 94 C-206 94 -206 94 -207.38 95.29 C-209.28 97.51 -211.15 99.74 -213 102 C-213.38 102.46 -213.75 102.91 -214.14 103.38 C-239.77 134.58 -250.09 173.81 -255.12 213.19 C-255.21 213.84 -255.29 214.5 -255.38 215.18 C-256.43 223.45 -257.14 231.69 -257.56 240.02 C-257.66 241.71 -257.76 243.4 -257.85 245.09 C-258.04 248.34 -258.17 251.59 -258.26 254.85 C-258.74 265.56 -258.74 265.56 -262.16 269.48 C-264.7 271.27 -267.2 272.66 -270 274 C-270.99 274.65 -271.97 275.31 -272.93 276.01 C-273.71 276.56 -274.5 277.12 -275.31 277.69 C-281.5 282.2 -287.04 287.34 -292.56 292.63 C-293.78 293.79 -295.03 294.93 -296.29 296.05 C-306.5 305.52 -313.84 318.19 -315.34 332.13 C-315.74 344.33 -311.78 352.86 -304 362 C-298.35 367.91 -298.35 367.91 -294.8 368.14 C-294.2 368.1 -293.61 368.05 -293 368 C-293 368.66 -293 369.32 -293 370 C-279.65 372.98 -267.43 370.19 -256 363 C-246.73 356.88 -235.05 348.15 -230 338 C-229.86 335.78 -229.86 335.78 -230 334 C-230.3 333.95 -230.3 333.95 -231.79 333.7 C-237.67 332.59 -241.73 331.24 -245.31 326.12 C-246.66 321.95 -246.5 318.98 -244.5 315.06 C-242.8 311.59 -242.08 308.76 -243 305 C-244.18 303.12 -245.51 301.43 -246.88 299.69 C-249.13 296.29 -248.16 292.91 -247.5 289.12 C-247.33 288.42 -247.17 287.72 -247 287 C-246.01 286.67 -245.02 286.34 -244 286 C-244 285.01 -244 284.02 -244 283 C-246.74 281.63 -249.32 281.88 -252.32 281.9 C-252.94 281.9 -253.56 281.91 -254.2 281.91 C-256.17 281.91 -258.15 281.92 -260.12 281.94 C-261.46 281.94 -262.8 281.95 -264.14 281.95 C-267.43 281.96 -270.71 281.98 -274 282 C-271.87 279.79 -270.26 278.46 -267.38 277.38 C-266.76 277.14 -266.15 276.9 -265.52 276.65 C-256.9 274.43 -249.24 275.47 -240.62 277.12 C-239.39 277.35 -238.15 277.58 -236.91 277.81 C-227.95 279.49 -219.14 281.6 -210.37 284.08 C-207 285 -207 285 -205 285 C-205.11 286.58 -205.24 288.17 -205.38 289.75 C-205.44 290.63 -205.51 291.51 -205.59 292.42 C-206 295.01 -206.81 296.7 -208 299 C-207.8 303.59 -206.3 306.52 -203.74 310.19 C-202.66 312.83 -203.14 314.3 -204 317 C-205.53 319.51 -205.53 319.51 -207.5 322.12 C-207.68 322.36 -207.68 322.36 -208.58 323.57 C-215.2 332.32 -222.34 340.62 -229.57 348.87 C-237 357.38 -237 357.38 -237 360 C-237.54 360.24 -238.09 360.48 -238.65 360.72 C-241.58 362.31 -244.07 364.32 -246.62 366.44 C-247.11 366.83 -247.6 367.23 -248.11 367.63 C-252.94 371.6 -252.94 371.6 -254 374 C-253.44 376.31 -253.44 376.31 -252.29 379.02 C-251.87 380.01 -251.46 381.01 -251.03 382.04 C-250.56 383.11 -250.09 384.18 -249.62 385.25 C-249.16 386.34 -248.69 387.44 -248.22 388.53 C-242.48 401.81 -236.12 413.75 -227 425 C-226.45 425.72 -225.9 426.43 -225.33 427.17 C-221.83 431.5 -217.87 434.74 -213.44 438.06 C-202.55 446.27 -199.3 453.8 -196.04 466.82 C-193.22 478.05 -190.35 488.42 -180 495 C-175.79 496.97 -172.08 495.97 -167.75 494.69 C-156.03 489.99 -148.08 479.36 -141.7 468.87 C-140 467 -140 467 -137.74 466.57 C-136.86 466.61 -135.99 466.65 -135.09 466.69 C-134.1 466.72 -133.12 466.76 -132.1 466.8 C-128.05 467.06 -124.01 467.36 -119.96 467.71 C-92.06 470.12 -64.28 469.56 -36.43 466.75 C-35.82 466.69 -35.21 466.63 -34.58 466.57 C-31.88 466.28 -29.59 465.86 -27 465 C-26.77 465.52 -26.55 466.05 -26.32 466.59 C-24.52 469.88 -22.27 472.7 -19.94 475.62 C-19.45 476.24 -18.96 476.86 -18.46 477.49 C-15.43 481.28 -12.37 485.03 -9.19 488.69 C-8.52 489.45 -7.85 490.22 -7.17 491.01 C-2.09 495.67 2.66 496.57 9.32 496.34 C15.26 495.59 18.56 492.83 22.25 488.25 C28.17 480.33 28.78 471.21 29.64 461.66 C30.89 450.19 35.11 442.99 43.81 435.56 C50.06 429.98 55.94 424.43 60 417 C60 416.01 60 415.02 60 414 C60.66 414 61.32 414 62 414 C72.88 393.81 72.88 393.81 76 385 C76.37 384.06 76.75 383.11 77.13 382.14 C85.2 361.01 90.89 337.7 90 315 C87.05 316.17 84.11 317.37 81.19 318.62 C80.14 319.08 79.08 319.53 78 320 C77.88 313.59 79.63 310.66 84.01 306.05 C84.88 305.16 85.75 304.27 86.62 303.39 C125 264.59 125 264.59 125 251 C125.66 251 126.32 251 127 251 C136.97 231.1 147.33 209.63 142.28 186.74 C140.39 181.76 137.81 177.72 134 174 C133.01 174 132.02 174 131 174 C131 173.34 131 172.68 131 172 C123.18 169.86 117.36 170.64 110.25 174.57 C107.23 176.49 105.14 178.12 103 181 C103.39 184.26 104.86 186.61 106.56 189.38 C109.21 194.02 109.6 197.14 108.5 202.38 C108.34 202.91 108.17 203.45 108 204 C101.8 202.1 99.24 199.25 95.58 193.96 C94 192 94 192 91 191 C89.38 191.75 89.38 191.75 88 193 C87.11 195.67 86.8 197.6 86.61 200.36 C85.23 218.3 81.72 232.24 73 248 C72.71 248.53 72.42 249.06 72.11 249.61 C69.51 254.28 67.05 258.44 63 262 C60.31 262.31 60.31 262.31 58 262 C57 261 57 261 56.75 258.79 C57.06 255.34 58.24 253.34 60 250.38 C63 245.31 63 245.31 63 242 C63.66 242 64.32 242 65 242 C66.4 240.13 66.4 240.13 67.94 237.56 C68.44 236.74 68.95 235.92 69.46 235.07 C74.06 225.88 75.06 216.33 76.23 206.27 C76.46 204.35 76.7 202.43 76.94 200.52 C77.07 199.38 77.2 198.25 77.34 197.09 C78 194 78 194 79.57 191.38 C82.37 186.71 80.54 181.35 79.38 176.28 C78.62 173.4 77.8 170.54 76.94 167.69 C76.63 166.65 76.32 165.61 76 164.54 C67.14 135.4 55.16 107.51 29 90 C26.26 91.37 26.03 92.91 24.81 95.69 C21.89 101.69 18.48 105.58 12.25 108.13 C0.87 111.18 -10.6 109.14 -21 104 C-29.44 98.89 -35.74 91.85 -38.54 82.3 C-39.66 76.71 -39.2 71.53 -38 66 C-55.94 60.34 -74.82 58.19 -93.57 59.13 Z " fill="#3F3652" transform="translate(463,174)"/>
<path d="M0 0 C1.25 2.31 1.25 2.31 1.19 4.88 C0.18 7.5 -0.47 8.68 -2.75 10.31 C-4.41 10.68 -6.08 11.02 -7.75 11.31 C-7.76 12.07 -7.77 12.83 -7.78 13.62 C-7.82 16.49 -7.88 19.37 -7.96 22.24 C-7.99 23.48 -8.01 24.71 -8.02 25.95 C-8.2 40.21 -12.01 49.97 -21.75 60.31 C-22.51 61.14 -23.28 61.97 -24.07 62.83 C-33.53 72.25 -45.88 75.52 -59 75.5 C-73.93 75.43 -83.44 71.04 -94.5 60.74 C-97.99 56.98 -100.36 52.82 -102.75 48.31 C-105.34 43.46 -107.67 40.17 -112.19 36.94 C-117.71 32.88 -121.66 27.83 -123.29 21.07 C-123.5 18.1 -123.36 16.17 -121.61 13.71 C-120.25 12.31 -120.25 12.31 -117.75 10.31 C-113.48 14.94 -111.11 19.51 -108.75 25.31 C-101.49 24.9 -95.21 23.42 -88.38 21 C-86.26 20.28 -84.15 19.55 -82.04 18.83 C-80.87 18.43 -79.7 18.03 -78.54 17.62 C-40.24 4.37 -40.24 4.37 -24.69 0.56 C-23.73 0.32 -22.77 0.08 -21.78 -0.16 C-6.13 -3.76 -6.13 -3.76 0 0 Z " fill="#403753" transform="translate(487.75,347.6875)"/>
<path d="M0 0 C1.18 0.4 2.37 0.81 3.55 1.21 C12.36 4.23 21.06 7.53 29.75 10.88 C38.1 14.09 46.45 17.23 55 19.88 C55.76 20.12 56.52 20.36 57.3 20.61 C62.71 22.22 68.2 23.19 73.81 22.19 C76.54 20 76.54 20 78.44 17.19 C79.09 16.26 79.74 15.33 80.41 14.38 C80.88 13.65 81.34 12.93 81.81 12.19 C83.46 12.85 85.11 13.51 86.81 14.19 C87.62 22.6 86.39 27.92 82.28 35.27 C80.18 39.44 79.4 43.59 78.81 48.19 C79.15 48.17 79.15 48.17 80.83 48.08 C87.99 47.87 94.02 48.98 100.81 51.19 C100.98 51.85 100.98 51.85 101.81 55.19 C100.95 55.02 100.08 54.86 99.19 54.69 C95.36 54.15 91.54 54.01 87.69 53.94 C87.09 53.92 86.49 53.89 85.88 53.87 C81.67 53.84 79.17 54.68 75.81 57.19 C72.72 61.2 72.72 61.2 73 64.25 C73.81 66.19 73.81 66.19 74.94 68.19 C76 70.63 75.69 71.73 74.81 74.19 C72.56 74.56 72.56 74.56 69.81 74.19 C67.43 71.86 65.84 69.46 65.77 66.08 C65.78 65.46 65.8 64.83 65.81 64.19 C65.59 64.3 65.59 64.3 64.47 64.89 C62.42 65.96 60.37 67.01 58.31 68.06 C57.96 68.24 57.96 68.24 56.2 69.17 C44.78 74.99 31.79 76.39 19.44 72.56 C6.7 67.63 -3.82 59.46 -10.19 47.19 C-15.08 35.16 -15.42 23 -15.19 10.19 C-16.3 9.94 -17.41 9.69 -18.56 9.44 C-21.98 8.45 -21.98 8.45 -23.62 6.38 C-24.3 3.76 -24.6 1.87 -24.19 -0.81 C-18.36 -7.85 -6.98 -2.44 0 0 Z " fill="#403753" transform="translate(266.1875,349.8125)"/>
<path d="M0 0 C1.81 0.17 3.62 0.38 5.42 0.63 C7.64 0.83 9.85 1.01 12.07 1.18 C12.7 1.23 13.33 1.28 13.98 1.34 C23.35 2.06 32.76 1.91 42.16 1.89 C45.48 1.88 48.79 1.9 52.11 1.91 C61.26 1.94 70.32 1.97 79.42 0.93 C95.41 -0.81 95.41 -0.81 99.73 2.28 C103.56 6.28 105.92 10.75 108.36 15.66 C111.46 20.88 116.4 24.12 122.04 26.13 C122.91 26.45 123.77 26.77 124.66 27.09 C125.3 27.31 125.95 27.53 126.61 27.76 C126.61 28.09 126.61 28.42 126.61 28.76 C72.82 28.76 19.03 28.76 -36.39 28.76 C-33.58 26.88 -30.91 25.64 -27.83 24.26 C-20.39 20.68 -14.12 15.38 -9.89 8.21 C-4.99 0.1 -4.99 0.1 0 0 Z " fill="#303031" transform="translate(333.39453125,653.2421875)"/>
<path d="M0 0 C3.17 1.47 3.66 3.68 4.95 6.8 C5.94 9.91 6.6 12.96 7.23 16.16 C9.11 25.67 12.2 33.43 16.85 41.91 C20.07 47.81 23.07 53.82 25.94 59.9 C26.17 60.38 26.17 60.38 27.32 62.81 C28.72 66.38 29.39 68.62 28.09 72.3 C23.2 80.52 14.99 85.21 6.12 88.21 C2.21 89.06 -1.51 89.33 -5.5 89.4 C-6.19 89.42 -6.87 89.44 -7.58 89.46 C-11.01 89.42 -12.6 89.25 -15.4 87.14 C-21.3 79.19 -22.25 69.48 -23.06 59.9 C-23.14 59.06 -23.21 58.22 -23.29 57.35 C-24.07 37.58 -17.27 18.22 -5.06 2.9 C-4.56 2.27 -4.06 1.64 -3.54 0.98 C-2.06 -0.1 -2.06 -0.1 0 0 Z " fill="#AE7DB9" transform="translate(288.0625,185.09765625)"/>
<path d="M0 0 C4.68 1.1 6.76 3.59 9.39 7.36 C21.8 27.73 27.96 53.64 23.7 77.26 C22.36 82.53 19.7 86.12 15 89 C6.26 91.91 -3.13 90.42 -11.3 86.55 C-17.43 83.03 -22.76 78.87 -25 72 C-26.68 62.22 -21.08 53.7 -15.99 45.82 C-14.97 44.23 -13.98 42.62 -13 41 C-12.66 40.45 -12.32 39.89 -11.97 39.32 C-8.39 32.93 -7.29 25.92 -5.94 18.81 C-5.57 16.92 -5.21 15.03 -4.83 13.14 C-4.48 11.43 -4.16 9.72 -3.83 8.01 C-2.98 4.92 -1.78 2.66 0 0 Z " fill="#AE7CB9" transform="translate(458,184)"/>
<path d="M0 0 C4.28 8.18 1.72 17.07 -0.8 25.51 C-2.22 29.85 -4.09 33.46 -7 37 C-7.25 37.31 -7.25 37.31 -8.52 38.86 C-15.49 46.53 -24.96 50.43 -35.15 51.25 C-47.24 51.81 -58.58 48.98 -68 41 C-72.02 37.08 -75.77 32.99 -76.11 27.14 C-76.12 25.42 -76.07 23.71 -76 22 C-71.52 23.68 -69.64 27.07 -67.18 30.92 C-64.53 34.83 -62.27 36.29 -58 38 C-52.21 38.75 -47.7 37.56 -43 34 C-38.53 28.52 -36.9 23.3 -36.44 16.31 C-36.39 15.71 -36.35 15.1 -36.31 14.47 C-36.2 12.98 -36.1 11.49 -36 10 C-32.25 8.89 -28.5 7.79 -24.75 6.69 C-23.71 6.38 -22.66 6.07 -21.59 5.75 C-14.43 3.65 -7.25 1.75 0 0 Z " fill="#DEDEDF" transform="translate(469,362)"/>
<path d="M0 0 C0.16 0.33 0.16 0.33 1 2 C0.15 3.56 -0.72 5.12 -1.63 6.64 C-7.37 16.51 -11.24 26.34 -14.47 37.25 C-19.71 54.47 -28.93 73.49 -45.01 82.73 C-62 91.36 -82.39 92.32 -101 89 C-99.31 84.76 -96.27 81.83 -93.19 78.56 C-92.67 78 -92.14 77.44 -91.61 76.87 C-90.57 75.75 -89.52 74.65 -88.46 73.56 C-87 72 -87 72 -85.94 70.5 C-83.97 67.89 -82.62 67.1 -79.34 66.58 C-75.99 66.42 -72.67 66.4 -69.31 66.44 C-57.54 66.52 -48.42 64.9 -39.2 57.19 C-28.68 46.71 -22.11 31.89 -15 19 C-14.34 19 -13.68 19 -13 19 C-12.93 18.28 -12.85 17.56 -12.77 16.82 C-11.8 13.26 -10.16 11.6 -7.62 8.94 C-4.9 6.06 -2.31 3.23 0 0 Z " fill="#A882B7" transform="translate(617,533)"/>
<path d="M0 0 C10.75 0.53 20.15 3.93 30 8 C30 8.66 30 9.32 30 10 C30.66 10 31.32 10 32 10 C32.1 10.94 32.2 11.88 32.3 12.85 C33.87 26.49 33.87 26.49 39.37 31.16 C40.58 32.11 41.79 33.06 43 34 C43 34.66 43 35.32 43 36 C57.9 36.73 57.9 36.73 61.76 33.41 C64.86 29.87 67.89 26.23 70 22 C70.99 22 71.98 22 73 22 C72.86 23.46 72.71 24.92 72.56 26.38 C72.52 26.78 72.52 26.78 72.32 28.84 C72 31 72 31 71 33 C70.34 33 69.68 33 69 33 C68.9 33.59 68.8 34.18 68.7 34.79 C67.05 40 61.79 42.98 57.25 45.56 C46.7 50.31 33.41 51.34 22.38 47.5 C12.34 42.5 5.51 34.12 1.75 23.67 C-0.74 16.14 -1.85 8.96 -1 1 C-0.67 0.67 -0.34 0.34 0 0 Z " fill="#DDDDDE" transform="translate(262,365)"/>
<path d="M0 0 C1.97 1.97 1.17 5.66 1.19 8.3 C1.16 36.16 1.16 36.16 -6.16 45.48 C-8.44 47.63 -9.95 48 -13.06 48.06 C-18.59 46.06 -20.08 41.9 -22.5 36.88 C-22.88 36.03 -23.26 35.18 -23.66 34.3 C-26.69 29.11 -31.82 27.8 -37.22 25.98 C-41 24.63 -43.5 23.17 -46 20 C-46.06 17 -46.06 17 -45 14 C-37.57 7.27 -27.78 4.77 -18.31 2.19 C-17.53 1.97 -16.75 1.75 -15.94 1.52 C-10.63 0.14 -5.5 -0.55 0 0 Z " fill="#AD7CB8" transform="translate(652,496)"/>
<path d="M0 0 C3.74 1.5 5.47 3.62 7.94 6.75 C15.99 16.23 28.99 20.12 41.08 21.3 C44.23 21.44 47.35 21.47 50.5 21.44 C51.63 21.43 52.75 21.42 53.92 21.41 C73.65 21.03 91.18 15.35 108.86 6.98 C113.2 4.99 116.33 4.91 121 5 C121.22 7.34 121.32 8.57 119.89 10.49 C99.75 27.47 68.6 32.81 43 31 C31.81 29.87 21.1 27.01 11.58 20.83 C11.01 20.45 10.43 20.08 9.83 19.7 C8.72 18.96 7.62 18.2 6.54 17.42 C5.01 16.38 5.01 16.38 2 15 C-1.23 15.77 -1.23 15.77 -4 17 C-6.38 17.12 -6.38 17.12 -8 17 C-9.34 10.47 -9.34 10.47 -8 7 C-6.15 5.08 -6.15 5.08 -3.94 3.25 C-3.2 2.64 -2.47 2.02 -1.71 1.39 C-1.15 0.93 -0.58 0.47 0 0 Z " fill="#422D57" transform="translate(314,442)"/>
<path d="M0 0 C0.33 0 0.66 0 1 0 C0.57 6.51 -0.79 12.11 -3.12 18.19 C-3.43 19 -3.74 19.82 -4.05 20.66 C-6.88 28.03 -10.27 35.05 -14 42 C-14.66 42 -15.32 42 -16 42 C-16.05 42.36 -16.05 42.36 -16.29 44.16 C-18.8 54.17 -28.65 63.99 -35 72 C-35.37 72.47 -35.74 72.95 -36.13 73.43 C-40.6 79.09 -45.29 84.47 -50.19 89.75 C-50.7 90.31 -51.22 90.86 -51.74 91.43 C-53.83 93.68 -55.91 95.91 -58.06 98.1 C-62.02 102.27 -62.8 105.24 -63 111 C-60.36 110.01 -57.72 109.02 -55 108 C-55.62 109.94 -55.62 109.94 -57 112 C-60 112.88 -60 112.88 -63 113 C-63.66 112.34 -64.32 111.68 -65 111 C-65.15 111.64 -65.3 112.28 -65.46 112.93 C-70.58 134.48 -70.58 134.48 -74.25 144.94 C-74.5 145.65 -74.74 146.35 -74.99 147.08 C-76.74 151.87 -76.74 151.87 -79 153 C-78.49 149.01 -77.56 145.63 -76.03 141.95 C-70.52 128.64 -67.67 114.32 -65.94 100.06 C-64.23 87.31 -55.66 78.35 -46.67 69.66 C-44.91 67.91 -43.3 66.08 -41.69 64.19 C-38.92 60.96 -35.98 57.97 -32.94 55 C-23.12 45.35 -23.12 45.35 -21 39 C-20.34 39 -19.68 39 -19 39 C-18.86 38.57 -18.86 38.57 -18.18 36.39 C-17.07 33.05 -15.63 29.89 -14.1 26.72 C-13.83 26.14 -13.55 25.57 -13.26 24.97 C-12.68 23.76 -12.1 22.55 -11.51 21.34 C-10.63 19.51 -9.75 17.67 -8.88 15.83 C-8.31 14.65 -7.73 13.46 -7.16 12.28 C-7.04 12.01 -7.04 12.01 -6.38 10.64 C-4.54 6.85 -2.45 3.42 0 0 Z " fill="#9C62A4" transform="translate(604,383)"/>
<path d="M0 0 C3.09 1.27 4.48 2.27 6.44 5 C7.76 9.07 7.96 11.94 6.06 15.81 C2.52 18.77 -1.15 19.84 -5.56 21 C-5.49 21.56 -5.42 22.11 -5.35 22.69 C-4.92 28.75 -6.22 31.8 -10.05 36.47 C-12.25 38.7 -14.07 39.25 -17.12 39.5 C-22.84 39.47 -26.62 35.82 -30.56 32 C-32.54 29.61 -33.07 27.33 -33.69 24.31 C-33.86 23.5 -34.02 22.7 -34.2 21.86 C-34.32 21.25 -34.44 20.63 -34.56 20 C-35.22 20.66 -35.88 21.32 -36.56 22 C-36.59 20.56 -36.61 19.13 -36.62 17.69 C-36.64 16.89 -36.65 16.09 -36.66 15.26 C-36.56 13 -36.56 13 -35.56 10 C-33.5 8.81 -33.5 8.81 -31.56 8 C-28.37 10.28 -26.26 12.31 -24.12 15.62 C-21.7 19.24 -19.78 20.12 -15.56 21 C-15.44 20.36 -15.32 19.72 -15.2 19.07 C-15.03 18.24 -14.86 17.41 -14.69 16.56 C-14.53 15.74 -14.36 14.92 -14.2 14.07 C-13.99 13.38 -13.78 12.7 -13.56 12 C-12.9 11.67 -12.24 11.34 -11.56 11 C-10.67 9.51 -10.67 9.51 -9.75 7.69 C-7.46 3.57 -5.09 0 0 0 Z " fill="#9D62A4" transform="translate(586.5625,357)"/>
<path d="M0 0 C0.56 0.72 1.11 1.44 1.69 2.19 C4.46 5.63 7.42 8.78 10.92 11.48 C16.8 16.12 19.38 21.04 22 28 C15.46 31.06 9.15 31.65 2 32 C1.67 30.68 1.34 29.36 1 28 C0.73 27.97 0.73 27.97 -0.64 27.82 C-1 27.77 -1 27.77 -2.81 27.56 C-3.52 27.48 -4.23 27.4 -4.96 27.32 C-7 27 -7 27 -10 26 C-11.89 25.93 -13.79 25.92 -15.69 25.94 C-16.68 25.95 -17.68 25.96 -18.7 25.96 C-19.46 25.98 -20.22 25.99 -21 26 C-22.96 20.12 -19.26 12.61 -16.62 7.14 C-15.46 5.07 -14.24 3.03 -13 1 C-8.71 1.33 -4.42 1.66 0 2 C0 1.34 0 0.68 0 0 Z " fill="#9C62A4" transform="translate(366,373)"/>
<path d="M0 0 C0.99 0.33 1.98 0.66 3 1 C-5.91 16.14 -16.79 25.04 -33.88 30 C-46.44 32.47 -61.42 32.25 -74 30 C-72.31 25.76 -69.27 22.83 -66.19 19.56 C-65.67 19 -65.14 18.44 -64.61 17.87 C-63.08 16.23 -61.54 14.62 -60 13 C-59.54 12.5 -59.07 12 -58.6 11.49 C-55.32 8.04 -55.32 8.04 -52.19 7.69 C-51.83 7.74 -51.83 7.74 -50 8 C-50.02 8.3 -50.02 8.3 -50.14 9.83 C-50.31 13.57 -50.42 16.21 -48.62 19.56 C-44.29 21.93 -40.82 21.89 -36 21 C-23.13 16.96 -11.93 9.47 -1.62 0.93 C-1.35 0.78 -1.35 0.78 0 0 Z " fill="#9C61A3" transform="translate(590,592)"/>
<path d="M0 0 C1.11 0.89 2.21 1.78 3.31 2.69 C3.93 3.19 4.54 3.69 5.18 4.2 C8.45 7.43 10.04 10.34 10.57 14.89 C11.88 26.09 11.88 26.09 15.68 29.52 C19.86 32.18 24.41 34.01 28.94 35.98 C33.71 38.34 37.33 42.2 41 46 C41.58 46.58 42.16 47.16 42.76 47.76 C43.17 48.17 43.58 48.58 44 49 C49.98 44.04 54.69 39.17 59.27 32.91 C59.84 32.28 60.41 31.65 61 31 C61.99 31 62.98 31 64 31 C48.02 52.88 48.02 52.88 34 56 C30.29 56.48 28.11 55.7 24.97 53.71 C15.71 46.43 13.1 35.78 10.44 24.75 C7.15 11.14 7.15 11.14 3 6 C2.58 5.45 2.16 4.89 1.73 4.32 C1.41 3.93 1.08 3.53 0.75 3.12 C0.17 2.42 -0.41 1.72 -1 1 C-0.67 0.67 -0.34 0.34 0 0 Z " fill="#9F6FAA" transform="translate(256,614)"/>
<path d="M0 0 C0.33 0 0.66 0 1 0 C1.64 31.54 1.64 31.54 -6.16 41.48 C-8.44 43.63 -9.95 44 -13.06 44.06 C-16.61 42.78 -18.29 41.27 -20 38 C-21.15 35.04 -22.12 32.05 -23 29 C-22.52 28.86 -22.03 28.72 -21.53 28.58 C-14.33 25.86 -11.51 20.17 -7.98 13.78 C-6.69 11.44 -5.35 9.12 -4 6.8 C-3.11 5.26 -2.23 3.72 -1.35 2.17 C-0.9 1.45 -0.46 0.74 0 0 Z " fill="#9C62A4" transform="translate(652,500)"/>
<path d="M0 0 C1.15 0.26 2.29 0.53 3.44 0.81 C4.08 0.96 4.71 1.11 5.37 1.27 C5.91 1.51 6.45 1.75 7 2 C8.04 5.11 8.04 7.06 7.94 10.31 C7.84 26.15 10.97 39.11 22 51 C24.58 53.45 27.26 55.73 30 58 C30.66 58.66 31.32 59.32 32 60 C25.73 60.33 21.6 59.27 16.75 55.19 C5.09 44.09 0.42 24.24 -0.12 8.59 C-0.12 5.72 -0.09 2.86 0 0 Z " fill="#9B61A3" transform="translate(244,358)"/>
<path d="M0 0 C1.08 2.98 1.18 4.51 0.06 7.5 C-4.76 13.35 -11.47 16.24 -18.85 17.25 C-22.01 17.46 -23.81 17.12 -26.5 15.44 C-28.23 12.62 -28.31 10.89 -27.59 7.67 C-26.58 4.8 -25.54 3.73 -23 2 C-16.45 -0.83 -6.73 -3.36 0 0 Z " fill="#87B2C4" transform="translate(252,484)"/>
<path d="M0 0 C4.24 8.48 -2.07 27.71 -4.84 36.76 C-7.5 44.19 -10.93 50.86 -17 56 C-17.38 56.37 -17.38 56.37 -19.31 58.25 C-22.82 60.53 -25.89 60.8 -30 61 C-27.78 57.99 -25.62 55.63 -22.69 53.31 C-15.12 46.97 -9.93 38.37 -8.69 28.52 C-8.52 25.97 -8.43 23.43 -8.38 20.88 C-7.89 4.85 -7.89 4.85 -5.62 2.7 C-5.09 2.51 -4.55 2.32 -4 2.12 C-1 1 -1 1 0 0 Z " fill="#9A60A2" transform="translate(487,355)"/>
<path d="M0 0 C0.86 -0.01 1.72 -0.02 2.61 -0.04 C7.05 -0.05 10.77 -0.05 14.75 2.19 C15.81 4 15.81 4 15.75 6.19 C13.7 10 11.66 11.48 7.62 13 C2.14 14.6 -4.01 15.43 -9.45 13.34 C-11.25 12.19 -11.25 12.19 -12.69 9.38 C-13.25 6.19 -13.25 6.19 -11.94 3.38 C-8.56 -1 -5.33 0 0 0 Z " fill="#87B2C4" transform="translate(235.25,460.8125)"/>
<path d="M0 0 C4.45 1.24 7.74 2.55 11 6 C11.31 9.25 11.31 9.25 11 12 C10.67 12 10.34 12 10 12 C10.04 12.79 10.08 13.58 10.12 14.4 C10.27 17.35 10.41 20.31 10.54 23.26 C10.6 24.54 10.66 25.81 10.72 27.09 C10.82 28.93 10.9 30.77 10.98 32.61 C11.03 33.71 11.08 34.82 11.14 35.95 C10.99 39.14 10.53 41.21 9 44 C8.5 44.16 8.5 44.16 6 45 C4.04 39.94 3.47 35.13 3 29.75 C2.51 24.58 2.02 19.51 0.88 14.44 C-0.21 9.61 -0.19 4.92 0 0 Z " fill="#BF9ECC" transform="translate(466,206)"/>
<path d="M0 0 C1.78 3.31 2.22 5.47 2.12 9.25 C2.11 10.14 2.09 11.03 2.07 11.95 C2.05 12.63 2.02 13.3 2 14 C1.34 12.68 0.68 11.36 0 10 C-10.37 10.18 -19.38 12.21 -29.21 15.44 C-31.12 16.04 -33.05 16.53 -35 17 C-35.17 17.66 -35.17 17.66 -36 21 C-36 17.37 -36 13.74 -36 10 C-32.25 8.89 -28.5 7.79 -24.75 6.69 C-24.23 6.53 -24.23 6.53 -21.59 5.75 C-14.43 3.65 -7.25 1.75 0 0 Z " fill="#C4C3CA" transform="translate(469,362)"/>
<path d="M0 0 C-0.29 4.88 -0.98 8.03 -4.36 11.64 C-10.6 16.81 -17.15 17.59 -25 17 C-25.75 14.81 -25.75 14.81 -26 12 C-23.04 6.07 -16.87 4.34 -11 2 C-10.69 1.87 -10.69 1.87 -9.12 1.24 C-6.02 0.09 -3.3 -0.19 0 0 Z " fill="#BD9DCA" transform="translate(632,500)"/>
<path d="M0 0 C0.4 -0 0.4 -0 2.42 -0 C8.17 0.05 8.17 0.05 10.44 1.19 C10.11 2.51 9.78 3.83 9.44 5.19 C8.78 5.19 8.12 5.19 7.44 5.19 C7.11 5.85 6.78 6.51 6.44 7.19 C3.5 8.22 0.42 8.74 -2.62 9.38 C-3.46 9.57 -4.29 9.76 -5.15 9.95 C-10.79 11.14 -17.1 12.29 -22.29 9.14 C-22.71 8.83 -23.13 8.51 -23.56 8.19 C-21.69 3.31 -21.69 3.31 -20.56 2.19 C-13.78 0.25 -7.01 0 0 0 Z " fill="#BD9DCA" transform="translate(208.5625,455.8125)"/>
<path d="M0 0 C3.19 2.21 4.3 4.21 5 7.94 C5.26 11.18 5.04 11.93 3.31 14.88 C0.36 17.59 -1.59 18.72 -5.5 19.5 C-8 19 -8 19 -10.31 16.44 C-12.29 13 -13.04 9.88 -12 6 C-8.89 0.89 -6.09 -1.89 0 0 Z " fill="#432D58" transform="translate(589,358)"/>
<path d="M0 0 C2.69 1.56 2.69 1.56 3.69 2.56 C3.81 5.06 3.81 5.06 3.69 7.56 C2.69 8.56 2.69 8.56 -0.09 8.68 C-1.31 8.68 -2.53 8.67 -3.75 8.66 C-4.4 8.66 -5.04 8.66 -5.7 8.66 C-7.76 8.65 -9.82 8.64 -11.88 8.62 C-13.27 8.62 -14.66 8.62 -16.05 8.61 C-19.47 8.6 -22.89 8.58 -26.31 8.56 C-25.61 4.26 -24.73 2.38 -21.31 -0.44 C-15.09 -2.51 -6.06 -2.6 0 0 Z " fill="#BD9DCA" transform="translate(365.3125,404.4375)"/>
<path d="M0 0 C2.02 -0.06 4.04 -0.09 6.06 -0.12 C7.19 -0.15 8.31 -0.17 9.47 -0.2 C12.59 -0.15 15.58 0.22 18.66 0.72 C29.2 2.36 39.7 2.27 50.35 2.21 C53.63 2.19 56.9 2.19 60.17 2.19 C69.6 2.17 78.95 2.09 88.34 1.22 C92.5 0.88 96.64 0.89 100.81 0.94 C101.61 0.94 102.41 0.95 103.24 0.95 C105.16 0.96 107.08 0.98 109 1 C109 1.33 109 1.66 109 2 C71.98 6.02 36.05 5.41 -1 2 C-0.67 1.34 -0.34 0.68 0 0 Z " fill="#966AA2" transform="translate(324,638)"/>
<path d="M0 0 C10.77 0.98 20.02 3.88 30 8 C30 8.66 30 9.32 30 10 C30.66 10.33 31.32 10.66 32 11 C30 13 30 13 28.25 13.19 C18.9 12.41 6.73 9.58 -1 4 C-0.67 2.68 -0.34 1.36 0 0 Z " fill="#C3C1C8" transform="translate(262,365)"/>
<path d="M0 0 C3.05 1.42 5.62 3.12 8.31 5.12 C28.27 19.08 51.37 25.21 75 30 C75 30.33 75 30.66 75 31 C68.17 31.33 62.23 30.14 55.62 28.44 C54.57 28.17 53.52 27.9 52.43 27.62 C33.57 22.64 14.89 14.95 0 2 C0 1.34 0 0.68 0 0 Z " fill="#A46BAC" transform="translate(260,590)"/>
<path d="M0 0 C17.34 4.19 17.34 4.19 25 7 C23.78 8.52 23.78 8.52 22 10 C19.84 10.11 19.84 10.11 17.5 9.75 C16.73 9.64 15.95 9.53 15.16 9.42 C13 9 13 9 10 8 C8.11 7.93 6.21 7.92 4.31 7.94 C3.32 7.95 2.32 7.96 1.3 7.96 C0.54 7.98 -0.22 7.99 -1 8 C-2.21 4.38 -1.54 3.36 0 0 Z " fill="#9A6BA5" transform="translate(346,391)"/>
<path d="M0 0 C0 3 0 3 -1.39 4.43 C-2 4.91 -2.62 5.38 -3.25 5.88 C-6.33 8.41 -8.9 10.59 -11 14 C-10.57 17.56 -9.45 20.62 -8.04 23.91 C-7.65 24.82 -7.26 25.72 -6.86 26.66 C-6.45 27.6 -6.04 28.53 -5.62 29.5 C-5.23 30.44 -4.83 31.37 -4.41 32.34 C-2.82 36.03 -1.31 39.51 0.85 42.91 C2 45 2 45 1.69 47.31 C1.46 47.87 1.23 48.43 1 49 C-5.66 37.46 -10.5 25.53 -15 13 C-13.25 11.39 -11.5 9.79 -9.75 8.19 C-9.26 7.74 -8.77 7.28 -8.26 6.82 C-5.6 4.39 -2.93 2.1 0 0 Z " fill="#996CA5" transform="translate(224,534)"/>
<path d="M0 0 C0 3.34 -0.48 4.07 -2.38 6.69 C-2.82 7.31 -3.26 7.93 -3.71 8.57 C-3.92 8.81 -3.92 8.81 -5 10 C-5.66 10 -6.32 10 -7 10 C-7.26 10.59 -7.52 11.17 -7.79 11.77 C-13.53 22.35 -27.16 30.38 -37.12 36.69 C-37.67 37.04 -38.21 37.39 -38.77 37.75 C-40.32 38.7 -40.32 38.7 -43 40 C-43.99 39.67 -44.98 39.34 -46 39 C-45.57 38.74 -45.14 38.48 -44.69 38.21 C-36.01 32.94 -27.68 27.67 -20 21 C-19.56 20.62 -19.12 20.25 -18.66 19.86 C-11.61 13.84 -5.65 7.34 0 0 Z " fill="#A267A9" transform="translate(507,565)"/>
<path d="M0 0 C1.89 2.39 3.02 4.07 4 7 C3.05 7.25 2.1 7.5 1.12 7.75 C-11.31 11.31 -11.31 11.31 -15 15 C-15 14.34 -15 13.68 -15 13 C-15.66 12.67 -16.32 12.34 -17 12 C-5.48 3.55 -5.48 3.55 0 0 Z " fill="#9B6DA7" transform="translate(203,441)"/>
<path d="M0 0 C2.05 2.05 2.77 3.73 3.8 6.39 C8.92 19.53 16.9 30.41 26.65 40.51 C28.62 42.59 30.35 44.67 32 47 C16.97 40.62 6.96 20.4 0.78 6.2 C-0.01 3.97 -0.17 2.34 0 0 Z " fill="#A065A7" transform="translate(228,543)"/>
<path d="M0 0 C2.67 0.2 4.37 0.43 6.38 2.25 C7.3 4.83 6.84 6.42 6 9 C4.44 10.81 4.44 10.81 3 12 C-1.81 9.91 -1.81 9.91 -3 7 C-2.68 3.68 -2.39 2.39 0 0 Z " fill="#442E58" transform="translate(437,436)"/>
<path d="M0 0 C9.99 -0.62 9.99 -0.62 13.75 1.69 C15 4 15 4 14.94 6.56 C13.97 9.08 13.06 10.3 11 12 C10.01 11.67 9.02 11.34 8 11 C8.99 10.67 9.98 10.34 11 10 C10.38 6.04 10.38 6.04 9 4 C6.11 2.56 3.14 1.74 0 1 C0 0.67 0 0.34 0 0 Z " fill="#47305B" transform="translate(474,346)"/>
<path d="M0 0 C0.66 0.33 1.32 0.66 2 1 C-8.57 15.34 -8.57 15.34 -15 20 C-15 15.96 -12.96 14.45 -10.31 11.69 C-9.39 10.71 -8.48 9.72 -7.56 8.74 C-7.12 8.27 -6.67 7.8 -6.22 7.32 C-4.04 4.96 -2.02 2.49 0 0 Z " fill="#9469A0" transform="translate(318,644)"/>
<path d="M0 0 C7.23 -0.54 12.7 0.28 19 4 C19.66 4.66 20.32 5.32 21 6 C13.98 4.75 6.98 3.42 0 2 C0 1.34 0 0.68 0 0 Z " fill="#4D3360" transform="translate(348,391)"/>
<path d="M0 0 C3.59 1.54 6.08 3.73 8.94 6.38 C12.2 9.39 15.5 12.26 19 15 C18.67 15.66 18.34 16.32 18 17 C11.16 12.35 4.95 7.77 0 1 C0 0.67 0 0.34 0 0 Z " fill="#996CA5" transform="translate(236,598)"/>
<path d="M0 0 C0.99 0.33 1.98 0.66 3 1 C2.46 4.79 0.92 6.59 -2 9 C-2.99 9 -3.98 9 -5 9 C-4.52 4.69 -3.25 2.83 0 0 Z " fill="#BE9CCB" transform="translate(246,419)"/>
<path d="M0 0 C2.19 0.17 3.6 0.61 5.19 2.16 C6.46 3.69 7.64 5.27 8.81 6.88 C9.02 7.15 9.02 7.15 10.08 8.52 C11.27 10.12 11.27 10.12 13 13 C12.67 13.99 12.34 14.98 12 16 C10 13.52 8 11.04 6 8.56 C5.43 7.86 4.86 7.15 4.27 6.42 C3.72 5.75 3.18 5.07 2.62 4.38 C2.12 3.76 1.62 3.13 1.1 2.49 C0 1 0 1 0 0 Z " fill="#986BA4" transform="translate(436,640)"/>
<path d="M0 0 C2.29 -0.03 4.58 -0.05 6.88 -0.06 C7.53 -0.07 8.18 -0.08 8.85 -0.09 C13.77 -0.11 13.77 -0.11 16 1 C16 1.66 16 2.32 16 3 C10.39 2.67 4.78 2.34 -1 2 C-0.67 1.34 -0.34 0.68 0 0 Z " fill="#9569A1" transform="translate(324,638)"/>
<path d="M0 0 C0.66 0.33 1.32 0.66 2 1 C0.87 4.4 -0.13 5.05 -3 7 C-3 6.34 -3 5.68 -3 5 C-3.66 4.67 -4.32 4.34 -5 4 C-3.35 2.68 -1.7 1.36 0 0 Z " fill="#946AA0" transform="translate(191,449)"/>
<path d="M0 0 C1.65 1.32 3.3 2.64 5 4 C4.67 4.99 4.34 5.98 4 7 C2.35 5.02 0.7 3.04 -1 1 C-0.67 0.67 -0.34 0.34 0 0 Z " fill="#8F669C" transform="translate(256,614)"/>
<path d="M0 0 C0.66 0.33 0.66 0.33 4 2 C3.67 3.32 3.34 4.64 3 6 C2.01 4.02 1.02 2.04 0 0 Z " fill="#986BA3" transform="translate(222,577)"/>
</svg>
