<?xml version="1.0" encoding="UTF-8"?>
<!-- Generator: visioncortex VTracer 0.6.5 -->
<svg version="1.1" xmlns="http://www.w3.org/2000/svg" width="682" height="682">
<path d="M0 0 C225.06 0 450.12 0 682 0 C682 225.06 682 450.12 682 682 C456.94 682 231.88 682 0 682 C0 456.94 0 231.88 0 0 Z " fill="#303031" transform="translate(0,0)"/>
<path d="M0 0 C-0.06 1.11 -0.12 2.22 -0.18 3.37 C-0.51 12.42 -0.36 19.3 5 27 C5.64 27.95 6.28 28.9 6.94 29.88 C8.69 31.68 10.17 32.85 12.25 34.19 C13.16 34.79 14.06 35.38 15 36 C15 36.66 15 37.32 15 38 C15.51 38.12 16.02 38.24 16.54 38.37 C17.23 38.53 17.92 38.7 18.62 38.88 C19.3 39.04 19.97 39.2 20.66 39.37 C23 40 23 40 25.79 41.05 C29.56 42.16 32.85 42.34 36.75 42.31 C37.45 42.31 38.15 42.3 38.88 42.3 C47.09 42.12 53.83 40.7 60 35 C61.45 33.01 62.64 30.91 63.81 28.75 C64.12 28.2 64.44 27.64 64.76 27.07 C65.51 25.72 66.26 24.36 67 23 C103.1 44.6 116.78 87.2 126.5 125.75 C127.35 129.12 128.18 132.5 129 135.88 C129.2 136.7 129.4 137.52 129.61 138.37 C130.18 140.72 130.75 143.08 131.31 145.43 C131.48 146.14 131.66 146.84 131.83 147.57 C132.58 150.77 133.23 153.69 133 157 C132.42 157.25 131.84 157.51 131.24 157.77 C130.46 158.11 129.68 158.46 128.88 158.81 C128.04 159.18 127.21 159.54 126.36 159.92 C124 161 124 161 121.19 162.62 C112.59 166.34 99.03 168.17 89.8 165.32 C88.2 164.56 86.6 163.78 85 163 C81.68 162.45 78.91 162.56 75.83 164.05 C73.15 166.9 73.45 169.79 73.44 173.5 C73.29 178.52 72.95 182.98 71.44 187.81 C68.23 198.46 69.85 208.89 74.9 218.75 C80 227.89 86.6 235.65 94 243 C94.73 243.73 95.46 244.46 96.21 245.21 C101.18 249.89 106.65 253.51 112.48 257.03 C114.02 257.97 115.51 258.98 117 260 C117 260.66 117 261.32 117 262 C118.44 262.2 119.87 262.38 121.31 262.56 C122.11 262.67 122.91 262.77 123.74 262.88 C126 263 126 263 129 262 C128.92 259.33 128.52 257.56 126.67 255.58 C122.28 251.83 117.73 248.96 112.69 246.19 C96.96 237.18 85.99 225.19 80 208 C79.64 207 79.27 205.99 78.89 204.96 C77.57 200.59 77.35 196.52 78 192 C79.03 190.59 80.06 189.19 81.18 187.84 C82.83 184.13 81.75 179.66 81.26 175.73 C81.18 174.83 81.09 173.93 81 173 C82 172 82 172 85 171.5 C89.69 171.54 92.34 174.28 95.8 177.18 C99.56 180.29 103.01 182.83 107.94 183.25 C108.62 183.17 109.3 183.09 110 183 C110.41 179.4 110.15 178.22 108 175.19 C107.34 174.47 106.68 173.74 106 173 C107.53 171.47 108.93 171.76 111.06 171.69 C119.78 171.84 126 177.26 132.68 182.29 C135 184 135 184 137 185 C136.68 179.59 135.69 177.28 132.01 173.36 C131 172 131 172 131.19 169.62 C131.46 169.09 131.72 168.55 132 168 C136.22 167.8 139.17 168.2 143 170 C143 170.66 143 171.32 143 172 C143.72 172.09 144.43 172.18 145.17 172.27 C154.93 174.8 162.07 185.1 167.02 193.31 C174.35 206.01 179.56 220.38 176.31 235.14 C174.32 241.75 171.7 246.95 167 252 C166.34 252.73 165.67 253.46 164.99 254.21 C159.33 259.84 153.48 263.04 146.15 266.09 C139.86 268.76 134.12 272.08 131.11 278.48 C130.63 279.71 130.18 280.94 129.75 282.19 C129.5 282.85 129.25 283.52 129 284.2 C127.37 288.66 126.07 293.16 124.89 297.76 C119.47 317.56 112.48 337.22 99 353 C98.63 353.43 98.63 353.43 96.79 355.6 C93.35 359.5 89.79 363.23 86.06 366.85 C76.28 376.37 73.28 384.9 71.56 398.21 C71 401 71 401 69 403 C66.05 403.12 63.17 403.04 60.23 402.92 C56.51 402.83 54.22 403.18 51 405 C47.08 405.54 43.68 405.23 39.94 403.94 C36.3 402.78 33.5 402.46 30 404 C27.07 406.44 24.51 409.13 22 412 C21.3 411.32 20.6 410.64 19.88 409.94 C19.4 409.49 18.93 409.04 18.45 408.57 C17 407 17 407 15.89 405.14 C14.45 402.88 13.24 401.5 11 400 C7 399.59 3.2 400.15 -0.75 400.76 C-4.4 401.3 -8.07 401.69 -11.75 402.07 C-12.55 402.16 -13.35 402.24 -14.18 402.33 C-24.89 403.39 -35.62 403.39 -46.38 403.38 C-47.42 403.38 -48.46 403.38 -49.54 403.38 C-60.29 403.38 -70.94 403.17 -81.64 402 C-82.45 401.92 -83.27 401.83 -84.11 401.74 C-87.87 401.33 -91.6 400.86 -95.34 400.28 C-104.63 399.01 -104.63 399.01 -108.69 401.95 C-110.72 404.2 -112.42 406.42 -114 409 C-117 408 -117 408 -118.94 405.56 C-121.46 402.43 -123.32 401.19 -127.33 400.73 C-131.4 400.76 -134.82 400.78 -138.62 402.31 C-142 403 -142 403 -143.93 402.02 C-145.27 401.08 -146.62 400.14 -147.95 399.19 C-152.55 396.52 -158.06 397.77 -163 399 C-165.07 394.56 -166.94 390.32 -168.12 385.56 C-170.57 377.9 -178.04 372.62 -184 367.62 C-198.82 354.77 -207.34 336.71 -215 319 C-215.31 318.29 -215.61 317.59 -215.93 316.86 C-216.21 316.17 -216.5 315.47 -216.79 314.75 C-217.05 314.13 -217.3 313.5 -217.57 312.86 C-218.11 310.54 -217.84 309.22 -217 307 C-215.26 305.31 -213.59 303.85 -211.69 302.38 C-211.2 301.98 -210.71 301.59 -210.21 301.18 C-208.14 299.53 -206.19 298.09 -203.77 296.98 C-201.45 295.7 -201.11 294.37 -200 292 C-198.66 290.47 -197.28 288.97 -195.88 287.5 C-192.45 283.83 -189.53 280.03 -186.81 275.81 C-182.75 269.53 -178.59 264.29 -172.88 259.44 C-165.68 253.24 -165.68 253.24 -164.59 248.06 C-164.3 244.08 -164.85 241.68 -167.38 238.56 C-168.91 236.92 -169.97 236.02 -172 235 C-171.66 230.79 -171.16 227.95 -168.88 224.38 C-167.38 221.95 -167 221.14 -166.94 218.19 C-168 216 -168 216 -169.98 214.93 C-174.1 213.66 -178.15 213.35 -182.44 213 C-202.51 211.17 -202.51 211.17 -209.07 209.46 C-218.39 207.24 -228.58 209.79 -237 214 C-237.33 214.99 -237.66 215.98 -238 217 C-237.51 216.94 -237.02 216.88 -236.52 216.82 C-214.06 214.07 -214.06 214.07 -209 215 C-207.6 216.25 -207.6 216.25 -207 218 C-207.68 220.09 -207.68 220.09 -208.88 222.38 C-211.78 228.48 -211.78 228.48 -211 232 C-209.06 234.69 -209.06 234.69 -207 237 C-205.29 240.43 -205.72 244.24 -206 248 C-206.63 249.68 -207.29 251.35 -208 253 C-208.44 256 -208.44 256 -208 259 C-206.5 260.91 -204.82 262.36 -203 264 C-203 264.66 -203 265.32 -203 266 C-202.07 266.1 -201.14 266.21 -200.19 266.31 C-197 267 -197 267 -195.06 268.25 C-194 270 -194 270 -194.25 272.38 C-197.17 282.63 -211.09 292.26 -220.06 297.44 C-231.14 303.55 -244.36 307.3 -256.95 303.78 C-265.57 300.51 -271.42 294.58 -275.29 286.22 C-277.19 281.24 -278.7 276.34 -279 271 C-279.11 270.01 -279.22 269.01 -279.33 267.99 C-280.23 254.47 -273.8 244.88 -265.25 234.88 C-263.91 233.36 -262.57 231.86 -261.21 230.37 C-260.1 229.12 -259.08 227.79 -258.07 226.46 C-255.55 223.46 -252.77 221.19 -249.69 218.81 C-249.09 218.34 -248.48 217.87 -247.86 217.39 C-242.07 212.93 -236.02 208.88 -229.89 204.9 C-227 203 -227 203 -226 202 C-225.76 200.44 -225.57 198.88 -225.42 197.31 C-225.31 196.31 -225.21 195.3 -225.1 194.27 C-224.99 193.16 -224.88 192.06 -224.77 190.93 C-224.58 189.18 -224.4 187.44 -224.22 185.69 C-224.03 183.84 -223.84 181.99 -223.65 180.13 C-218.2 127.5 -212.05 70.84 -172 32 C-170.69 30.97 -169.37 29.95 -168 29 C-167.61 29.59 -167.22 30.18 -166.82 30.79 C-162.48 36.92 -158.35 40.96 -151 43 C-137.95 45 -125.3 41.43 -114.45 34.05 C-107.18 27.96 -103.49 20.7 -102.67 11.46 C-102.39 7.97 -102.18 4.49 -102 1 C-71.42 -7.41 -30.26 -12.8 0 0 Z " fill="#AF7DBA" transform="translate(332,145)"/>
<path d="M0 0 C10.58 3.73 16.14 11.05 21.25 20.62 C27.39 33.49 30.11 46.86 32.39 60.88 C32.54 61.77 32.68 62.67 32.84 63.59 C33.19 66.13 33.19 66.13 33.29 68.4 C33.44 71.3 33.54 73.33 35.41 75.63 C37.08 77.07 38.8 78.32 40.62 79.56 C41.91 80.51 43.2 81.45 44.48 82.4 C44.8 82.63 44.8 82.63 46.4 83.8 C84.37 112.02 100.54 163.17 109.44 207.75 C112.12 221.12 116.7 229.66 127.12 238.71 C134.82 245.39 140.15 252.27 145.19 261.12 C145.69 261.97 146.19 262.81 146.71 263.68 C154.87 278.39 156.44 295.56 152.04 311.64 C151.25 313.93 150.33 315.99 149.19 318.12 C148.53 318.12 147.87 318.12 147.19 318.12 C147.08 318.71 146.98 319.29 146.87 319.89 C143.96 329.46 132.12 336.02 123.84 340.54 C123.08 340.95 122.32 341.37 121.54 341.81 C120.05 342.62 118.55 343.42 117.03 344.19 C111.2 347.37 109.11 350.84 107.19 357.12 C106.06 361.2 105.1 365.31 104.19 369.44 C101.56 381.21 98.34 392.35 93 403.19 C92.3 404.64 91.59 406.09 90.89 407.54 C90.59 408.16 90.29 408.78 89.97 409.41 C89.19 411.13 89.19 411.13 88.19 414.12 C100.81 416.93 112.97 414.67 123.96 407.94 C141.32 396.79 151.85 376.97 159.19 358.12 C159.19 357.13 159.19 356.14 159.19 355.12 C157.8 353.84 157.8 353.84 155.94 352.5 C151.22 348.63 148.96 344.13 147.81 338.16 C147.17 328.15 152.86 318.44 159.19 311.12 C169.95 299.16 181.24 290.01 195.5 282.62 C196.15 282.29 196.79 281.95 197.46 281.6 C201.81 279.45 206.26 277.86 211.19 278.12 C213.61 279.83 214.61 280.77 216.19 283.12 C216.53 283.63 216.88 284.13 217.24 284.64 C228.17 303.35 229.47 335.46 224.09 356.12 C222.11 362.71 219.64 366.81 213.52 370.24 C207.2 372.63 201.07 371.79 195 369.12 C193.72 368.48 192.44 367.82 191.19 367.12 C189.02 370.21 187.84 373.05 186.81 376.69 C185.07 382.72 182.75 388.4 180.19 394.12 C179.84 394.9 179.5 395.68 179.14 396.48 C173.89 408.27 168.28 419.04 160.19 429.12 C159.89 429.51 159.89 429.51 158.39 431.44 C146.81 445.56 130.42 454.82 113.19 460.12 C112.61 460.3 112.03 460.48 111.43 460.67 C91.71 466.43 69.84 463.62 50.19 459.12 C50.06 459.96 49.93 460.8 49.8 461.66 C43.53 499.14 43.53 499.14 33.62 507.56 C29.55 510.18 25.91 510.53 21.19 510.12 C19.54 509.74 17.89 509.35 16.25 508.94 C11.67 507.92 9.24 508.57 5.05 510.43 C1.88 511.61 -0.74 511.27 -3.81 510.12 C-12.12 506.03 -18.21 499.19 -22.48 491.04 C-26.54 483.54 -26.54 483.54 -30.03 482.4 C-32.4 482.38 -34.63 482.63 -36.97 482.92 C-49.35 484.29 -61.84 484.22 -74.27 483.93 C-78.6 483.83 -82.94 483.78 -87.27 483.72 C-92.73 483.65 -98.19 483.57 -103.65 483.43 C-108.12 483.31 -112.59 483.25 -117.06 483.22 C-118.75 483.19 -120.44 483.16 -122.13 483.1 C-132.82 482.75 -132.82 482.75 -136.81 484.12 C-139.96 487.09 -141.3 490.13 -142.81 494.12 C-147.92 501.83 -154.2 506.42 -163.07 508.71 C-168.89 509.59 -174.82 509.26 -180.68 509.15 C-182.59 509.13 -184.48 509.16 -186.38 509.21 C-187.41 509.21 -188.44 509.2 -189.5 509.19 C-189.95 509.19 -189.95 509.19 -192.2 509.22 C-197.6 506.96 -199.92 501.28 -202.07 496.1 C-203.06 493.33 -204 490.56 -204.88 487.76 C-205.45 485.96 -206.04 484.17 -206.63 482.38 C-208.46 476.76 -210.1 471.17 -211.3 465.39 C-213.03 457.19 -216.92 453.1 -223.45 448.17 C-225.4 446.68 -227.23 445.06 -229.06 443.44 C-229.38 443.16 -229.38 443.16 -230.99 441.74 C-231.59 441.21 -232.19 440.67 -232.81 440.12 C-233.37 439.64 -233.93 439.16 -234.51 438.67 C-246.84 427.34 -253.68 410.98 -260.91 396.21 C-261.17 395.67 -261.43 395.13 -261.71 394.58 C-263.21 391.47 -264.57 388.34 -265.81 385.12 C-266.93 385.17 -268.04 385.22 -269.19 385.27 C-285.63 385.74 -300.31 383.74 -312.86 372.25 C-321.87 362.7 -325.73 350.2 -326.25 337.25 C-325.68 319.85 -317.36 303.82 -305.81 291.12 C-305.42 290.69 -305.02 290.25 -304.61 289.8 C-299.38 284.07 -293.9 279.32 -287.5 274.94 C-279.62 269.51 -275.04 264.85 -273.26 255.22 C-272.44 249.53 -272.08 243.8 -271.67 238.07 C-268.4 193.7 -259.9 146.13 -233.81 109.12 C-233.22 108.28 -232.63 107.43 -232.03 106.56 C-225.93 98.42 -216.95 87.7 -207.81 83.12 C-207.37 80.62 -207.37 80.62 -207.1 77.28 C-206.99 76.05 -206.88 74.82 -206.77 73.59 C-206.72 72.94 -206.67 72.29 -206.61 71.63 C-204.67 48.96 -201.04 24.99 -183.58 8.56 C-180.86 6.35 -177.95 4.67 -174.81 3.12 C-174.15 2.8 -173.49 2.47 -172.81 2.12 C-169.13 1.72 -167.38 1.74 -164.27 3.85 C-156.57 10.98 -155.49 23.5 -153.69 33.32 C-152.44 39.93 -150.72 46.03 -147.81 52.12 C-147.7 52.42 -147.7 52.42 -147.13 53.9 C-145.81 55.12 -145.81 55.12 -142.59 55.38 C-139.12 55.23 -135.77 54.71 -132.36 54.07 C-131.77 53.96 -131.18 53.85 -130.57 53.74 C-128.71 53.39 -126.86 53.04 -125 52.69 C-110.61 49.97 -96.83 48.89 -82.19 48.88 C-81.32 48.87 -80.46 48.87 -79.57 48.87 C-61 48.88 -42.8 50.17 -24.81 55.12 C-23.07 49.53 -21.45 43.91 -19.94 38.25 C-19.85 37.94 -19.85 37.94 -19.43 36.38 C-18.42 32.57 -17.48 28.76 -16.59 24.93 C-16.37 24.04 -16.16 23.15 -15.94 22.23 C-15.53 20.49 -15.13 18.75 -14.74 17 C-13.3 10.95 -11.34 5.36 -5.94 1.69 C-2.81 0.12 -2.81 0.12 0 0 Z M-136.81 69.12 C-136.85 70.03 -136.89 70.94 -136.93 71.87 C-137.51 83.51 -139.24 92.53 -147.81 101.12 C-158.06 109.23 -171.2 112.64 -184.11 111.39 C-191.13 110.31 -195.63 106.76 -199.94 101.31 C-200.92 99.93 -201.88 98.54 -202.81 97.12 C-235.29 122.61 -247.33 166.27 -253.38 205.25 C-253.48 205.91 -253.58 206.57 -253.69 207.26 C-255.12 216.63 -256.1 225.99 -256.88 235.44 C-257.07 237.58 -257.26 239.72 -257.45 241.86 C-257.82 246.06 -258.13 250.26 -258.41 254.47 C-259.59 269.38 -259.59 269.38 -263.03 272.9 C-265.56 274.69 -267.96 275.94 -270.81 277.12 C-272.46 278.21 -272.46 278.21 -273.77 279.21 C-274.57 279.78 -275.37 280.35 -276.19 280.94 C-290.34 291.33 -300.77 301.89 -309.81 317.12 C-310.25 317.78 -310.68 318.43 -311.13 319.1 C-315.95 327.02 -314.56 338.1 -312.49 346.76 C-309.81 356.09 -306.06 364.05 -297.64 369.54 C-287.14 374.71 -275.56 373.6 -264.67 370.12 C-251.41 364.97 -237.89 355 -229.81 343.12 C-228.75 340.38 -228.75 340.38 -228.81 338.12 C-229.88 336.38 -229.88 336.38 -231.81 335.12 C-235 334.44 -235 334.44 -237.81 334.12 C-237.81 333.46 -237.81 332.81 -237.81 332.12 C-238.66 331.44 -239.5 330.76 -240.38 330.06 C-242.28 328.27 -242.79 327.52 -242.96 324.87 C-242.61 321.72 -242.24 318.97 -240.81 316.12 C-240.25 311.55 -240.12 307.55 -242.75 303.62 C-244.81 301.12 -244.81 301.12 -245.81 300.12 C-245.76 294.6 -244.17 290.05 -241.81 285.12 C-243.81 283.12 -243.81 283.12 -245.78 282.86 C-254.86 282.92 -263.81 284.01 -272.81 285.12 C-271.81 282.12 -271.81 282.12 -269.7 280.99 C-269.27 280.83 -269.27 280.83 -267.06 280 C-266.2 279.67 -265.34 279.33 -264.45 278.99 C-260.12 277.57 -256.12 276.97 -251.56 276.94 C-250.69 276.92 -249.82 276.91 -248.92 276.89 C-246.34 277.09 -244.17 277.47 -241.67 278.07 C-236.26 279.35 -230.85 279.73 -225.31 280.12 C-206.75 281.44 -206.75 281.44 -201.81 285.12 C-202.28 289.79 -203.67 293.11 -205.97 297.2 C-206.94 299.41 -207.19 300.74 -206.81 303.12 C-205.54 304.54 -205.54 304.54 -203.88 305.75 C-201.42 307.57 -200.08 308.67 -199.5 311.79 C-199.15 317.12 -200.49 320 -203.86 324.09 C-205.95 326.27 -208.18 328.18 -210.5 330.12 C-215.58 334.52 -219.01 339.49 -222.68 345.09 C-226 350.11 -229.62 354.54 -233.82 358.85 C-236.81 361.95 -236.81 361.95 -236.81 364.12 C-237.08 364.24 -237.08 364.24 -238.42 364.8 C-241.64 366.58 -244.28 368.87 -247.06 371.25 C-247.62 371.72 -248.17 372.19 -248.74 372.67 C-250.1 373.82 -251.46 374.97 -252.81 376.12 C-249.84 393.84 -238.87 414.05 -226.81 427.12 C-226.11 427.95 -225.4 428.77 -224.67 429.62 C-220.12 434.85 -215.32 439.52 -210.07 444.02 C-204.54 449.18 -202.67 453.89 -200.66 460.95 C-200.13 462.7 -199.48 464.42 -198.81 466.12 C-195.81 467.12 -195.81 467.12 -192.81 466.12 C-187.91 465.36 -184.81 465.84 -180.75 468.75 C-178.74 470.14 -178.74 470.14 -176.81 471.12 C-173.44 470.44 -173.44 470.44 -171.73 469.76 C-167.43 468.33 -162.2 468.14 -157.98 469.88 C-154.89 471.87 -152.3 474.45 -149.81 477.12 C-149.07 476.38 -148.33 475.64 -147.56 474.88 C-146.65 473.96 -145.73 473.04 -144.81 472.12 C-144.53 471.78 -144.53 471.78 -143.11 470.02 C-140.81 468.12 -140.81 468.12 -137.92 467.95 C-136.79 468.09 -135.66 468.24 -134.49 468.39 C-133.16 468.54 -131.83 468.69 -130.51 468.84 C-129.8 468.93 -129.09 469.02 -128.36 469.11 C-112.65 471 -96.99 471.5 -81.19 471.5 C-80.67 471.5 -80.67 471.5 -78.03 471.5 C-67.49 471.5 -57.04 471.31 -46.56 470.2 C-46.17 470.16 -46.17 470.16 -44.21 469.95 C-40.65 469.56 -37.12 469.12 -33.58 468.58 C-24.93 467.38 -24.93 467.38 -21.74 469.52 C-20.19 471.31 -19.02 473.1 -17.81 475.12 C-16.88 476.13 -15.93 477.12 -14.94 478.06 C-14.24 478.74 -13.54 479.42 -12.81 480.12 C-12.32 479.56 -11.82 478.99 -11.31 478.41 C-5.06 471.67 -5.06 471.67 -1.19 471 C2.35 471.13 4.86 471.97 8.19 473.12 C14.96 473.82 14.96 473.82 17.98 472.11 C21.07 470.73 24 470.99 27.31 471.12 C29.63 471.22 31.86 471.22 34.19 471.12 C36.38 468.93 36.5 468.42 36.9 465.49 C36.95 465.13 36.95 465.13 37.23 463.31 C37.28 462.93 37.28 462.93 37.56 461 C39.9 446.82 46.92 439.18 57.06 429.44 C76.54 410.28 84.5 385.05 92.28 359.57 C92.37 359.28 92.37 359.28 92.82 357.8 C93.31 356.18 93.8 354.56 94.29 352.94 C96.84 344.95 99.85 340.39 107.19 336.12 C109.79 334.82 112.43 333.57 115.06 332.31 C126.25 326.93 135.16 319.4 140.21 307.76 C144.65 294.97 142.14 282.1 136.52 270.14 C130.89 258.69 124.35 247.93 113.19 241.12 C110.39 240.41 110.39 240.41 108.19 240.12 C108.19 239.47 108.19 238.81 108.19 238.12 C104.36 236.32 101.41 235.93 97.19 236.12 C96.38 237.75 96.38 237.75 96.19 240.12 C97.2 241.48 97.2 241.48 98.56 242.94 C101.6 246.23 101.92 248.71 102.19 253.12 C90.82 245.99 90.82 245.99 85.62 242.07 C82.64 240.11 79.95 240.01 76.5 240.06 C75.69 240.07 74.88 240.08 74.05 240.09 C73.44 240.1 72.82 240.11 72.19 240.12 C72.19 241.12 72.19 242.11 72.19 243.12 C72.68 243.58 73.18 244.03 73.69 244.5 C75.19 246.12 75.19 246.12 75.38 248.81 C75.31 249.58 75.25 250.34 75.19 251.12 C67.5 250.8 62.12 246.85 56.56 241.75 C53.22 239.46 51.18 239.74 47.19 240.12 C46.19 241.12 46.19 241.12 46.06 244.31 C46.07 246.84 46.33 248.69 46.94 251.19 C47.24 254.75 46.16 255.63 44.14 258.4 C41.78 262.68 42.45 267.43 43.7 272 C46.32 280.38 49.62 288.25 55.19 295.12 C55.86 295.96 56.53 296.79 57.21 297.64 C63.37 304.87 70.23 309.68 78.24 314.64 C78.95 315.08 79.66 315.52 80.4 315.98 C81.81 316.85 83.23 317.72 84.65 318.57 C88.25 320.77 91.45 322.86 94.19 326.12 C94.44 328.38 94.44 328.38 94.19 330.12 C89.81 330.9 86.55 331.31 82.19 330.12 C82.19 329.46 82.19 328.81 82.19 328.12 C80.97 327.12 80.97 327.12 79.26 326.06 C78.63 325.66 78.01 325.26 77.36 324.85 C76.69 324.43 76.01 324 75.31 323.56 C68.66 319.24 62.81 314.75 57.19 309.12 C56.98 308.92 56.98 308.92 55.93 307.87 C44.68 296.55 35.34 282.99 34.75 266.5 C34.93 261.8 36.07 257.71 37.47 253.24 C38.52 248.7 38.62 244.17 38.63 239.52 C38.72 236.31 38.77 234.57 41.02 232.18 C44.1 230.68 46.87 230.57 50.19 231.12 C50.69 231.37 50.69 231.37 53.25 232.62 C61.53 236.54 74.75 234.48 83.19 232.12 C85.64 230.99 87.91 229.72 90.21 228.3 C92.79 226.76 95.3 225.94 98.19 225.12 C97.57 219.47 96.58 214.07 95.22 208.54 C95.12 208.14 95.12 208.14 94.62 206.11 C93.99 203.51 93.34 200.91 92.69 198.31 C92.58 197.87 92.58 197.87 92.01 195.62 C83.2 160.62 72.19 125.47 45.06 100.19 C44.58 99.74 44.11 99.29 43.61 98.83 C40.1 95.66 36.37 93.32 32.19 91.12 C31.68 92.02 31.17 92.91 30.65 93.83 C29.95 95.01 29.26 96.19 28.56 97.38 C28.23 97.96 27.9 98.55 27.56 99.15 C24.41 104.43 20.72 107.39 14.81 109.38 C4.48 111.55 -5.77 110.84 -15.55 107 C-17.81 106.12 -17.81 106.12 -19.81 106.12 C-19.81 105.47 -19.81 104.81 -19.81 104.12 C-20.99 103.24 -22.2 102.42 -23.44 101.62 C-29.15 97.52 -32.6 91.75 -34.81 85.12 C-34.89 83.79 -34.92 82.45 -34.91 81.11 C-34.91 80.36 -34.9 79.6 -34.9 78.82 C-34.89 78.03 -34.88 77.25 -34.88 76.44 C-34.87 75.64 -34.87 74.84 -34.86 74.02 C-34.85 72.06 -34.83 70.09 -34.81 68.12 C-65.08 55.33 -106.23 60.71 -136.81 69.12 Z " fill="#3F3652" transform="translate(366.8125,76.875)"/>
<path d="M0 0 C4.22 -0.2 7.17 0.2 11 2 C11 2.66 11 3.32 11 4 C11.72 4.09 12.43 4.18 13.17 4.27 C22.93 6.8 30.07 17.1 35.02 25.31 C42.35 38.01 47.56 52.38 44.31 67.14 C42.32 73.75 39.7 78.95 35 84 C34.34 84.73 33.67 85.46 32.99 86.21 C27.33 91.84 21.48 95.04 14.15 98.09 C7.86 100.76 2.12 104.08 -0.89 110.48 C-1.37 111.71 -1.82 112.94 -2.25 114.19 C-2.5 114.85 -2.75 115.52 -3 116.2 C-4.63 120.66 -5.93 125.16 -7.11 129.76 C-12.53 149.56 -19.52 169.22 -33 185 C-33.73 185.86 -34.46 186.71 -35.21 187.6 C-38.65 191.5 -42.21 195.23 -45.94 198.85 C-55.72 208.37 -58.72 216.9 -60.44 230.21 C-61 233 -61 233 -63 235 C-65.95 235.12 -68.83 235.04 -71.77 234.92 C-75.49 234.83 -77.78 235.18 -81 237 C-84.92 237.54 -88.32 237.23 -92.06 235.94 C-95.7 234.78 -98.5 234.46 -102 236 C-104.93 238.44 -107.49 241.13 -110 244 C-110.35 243.66 -110.35 243.66 -112.12 241.94 C-112.6 241.49 -113.07 241.04 -113.55 240.57 C-115 239 -115 239 -116.11 237.14 C-117.55 234.88 -118.76 233.5 -121 232 C-125 231.59 -128.8 232.15 -132.75 232.76 C-136.4 233.3 -140.07 233.69 -143.75 234.07 C-144.55 234.16 -145.35 234.24 -146.18 234.33 C-156.89 235.39 -167.62 235.39 -178.38 235.38 C-179.42 235.38 -180.46 235.38 -181.54 235.38 C-192.29 235.38 -202.94 235.17 -213.64 234 C-214.45 233.92 -215.27 233.83 -216.11 233.74 C-219.87 233.33 -223.6 232.86 -227.34 232.28 C-236.63 231.01 -236.63 231.01 -240.69 233.95 C-242.72 236.2 -244.42 238.42 -246 241 C-249 240 -249 240 -250.94 237.56 C-253.46 234.43 -255.32 233.19 -259.33 232.73 C-263.4 232.76 -266.82 232.78 -270.62 234.31 C-274 235 -274 235 -275.93 234.02 C-277.27 233.08 -278.62 232.14 -279.95 231.19 C-284.55 228.52 -290.06 229.77 -295 231 C-297.07 226.56 -298.94 222.32 -300.12 217.56 C-302.57 209.9 -310.04 204.62 -316 199.62 C-330.82 186.77 -339.34 168.71 -347 151 C-347.31 150.29 -347.61 149.59 -347.93 148.86 C-348.21 148.17 -348.5 147.47 -348.79 146.75 C-348.92 146.44 -348.92 146.44 -349.57 144.86 C-350.11 142.54 -349.84 141.22 -349 139 C-347.26 137.31 -345.59 135.85 -343.69 134.38 C-343.2 133.98 -342.71 133.59 -342.21 133.18 C-340.14 131.53 -338.19 130.09 -335.77 128.98 C-333.45 127.7 -333.11 126.37 -332 124 C-330.66 122.47 -329.28 120.97 -327.88 119.5 C-322.86 114.13 -318.91 108.2 -315 102 C-314.01 102.33 -313.02 102.66 -312 103 C-312.31 109.09 -313.8 113.27 -317.06 118.38 C-317.26 118.7 -317.26 118.7 -318.26 120.34 C-321.33 125.24 -324.78 129.55 -328.76 133.75 C-330 136 -330 136 -329.4 138.89 C-323.04 153 -314.62 164.72 -304 176 C-303.46 176.6 -302.92 177.21 -302.37 177.83 C-290.71 190.37 -274.23 199.05 -258 204 C-257.38 204.19 -256.76 204.39 -256.13 204.58 C-221.12 215.23 -178.82 217.3 -143 210 C-142.57 209.92 -142.57 209.92 -140.41 209.5 C-114.92 204.43 -92.17 194.43 -72 178 C-71.15 177.32 -70.3 176.63 -69.43 175.93 C-59.79 167.74 -48.04 155.13 -44 143 C-43.34 143 -42.68 143 -42 143 C-41.73 142.12 -41.46 141.24 -41.18 140.34 C-40.14 137.23 -38.74 134.45 -37.19 131.56 C-34.75 126.85 -32.79 122.07 -31.06 117.06 C-30.84 116.44 -30.62 115.81 -30.39 115.16 C-29.14 111.4 -28.54 108.73 -30 105 C-31.62 103.04 -33.21 101.29 -35 99.5 C-47.06 86.88 -58.45 70.98 -58.07 52.94 C-58.06 52.62 -58.06 52.62 -58 51 C-55.88 53.61 -53.81 56.24 -51.81 58.95 C-42.82 71.06 -33.67 80.04 -20.84 88.12 C-20.46 88.36 -20.46 88.36 -18.55 89.57 C-17.87 89.99 -17.18 90.41 -16.48 90.85 C-15.99 91.23 -15.5 91.61 -15 92 C-15 92.66 -15 93.32 -15 94 C-13.56 94.2 -12.13 94.38 -10.69 94.56 C-9.89 94.67 -9.09 94.77 -8.26 94.88 C-6 95 -6 95 -3 94 C-3.08 91.33 -3.48 89.56 -5.33 87.58 C-9.72 83.83 -14.27 80.96 -19.31 78.19 C-35.04 69.18 -46.01 57.19 -52 40 C-52.18 39.5 -52.18 39.5 -53.11 36.96 C-54.43 32.59 -54.65 28.52 -54 24 C-52.97 22.59 -51.94 21.19 -50.82 19.84 C-49.17 16.13 -50.25 11.66 -50.74 7.73 C-50.82 6.83 -50.91 5.93 -51 5 C-50 4 -50 4 -47 3.5 C-42.31 3.54 -39.66 6.28 -36.2 9.18 C-32.44 12.29 -28.99 14.83 -24.06 15.25 C-23.38 15.17 -22.7 15.08 -22 15 C-21.59 11.4 -21.85 10.22 -24 7.19 C-24.66 6.47 -25.32 5.74 -26 5 C-24.47 3.47 -23.07 3.76 -20.94 3.69 C-12.22 3.84 -6 9.26 0.68 14.29 C3 16 3 16 5 17 C4.68 11.59 3.69 9.28 0.01 5.36 C-1 4 -1 4 -0.81 1.62 C-0.54 1.09 -0.28 0.55 0 0 Z " fill="#9E62A5" transform="translate(464,313)"/>
<path d="M0 0 C0.62 0.5 1.24 0.99 1.88 1.5 C1.88 6.1 1.88 6.1 0.88 8.5 C-0.97 9.74 -0.97 9.74 -3.19 10.73 C-3.55 10.9 -3.55 10.9 -5.41 11.76 C-5.98 12 -6.54 12.25 -7.12 12.5 C-7.13 13.13 -7.14 13.76 -7.15 14.41 C-7.5 33.22 -8.88 48.86 -22.44 63.25 C-35.42 75.31 -49.22 79.29 -66.56 78.97 C-78.27 78.33 -88.62 72.3 -97.12 64.5 C-97.44 64.25 -97.44 64.25 -99.01 62.96 C-102.93 59.52 -104.88 56.04 -106.81 51.25 C-109.27 45.18 -112.74 41.46 -117.81 37.37 C-123.02 33.11 -126.42 28.14 -127.19 21.31 C-127.5 17.04 -127.5 17.04 -126.06 14.97 C-124.69 13.88 -124.69 13.88 -122.12 12.5 C-118.63 15.57 -117.06 18.44 -115.38 22.75 C-115.15 23.3 -114.93 23.86 -114.71 24.43 C-114.17 25.78 -113.65 27.14 -113.12 28.5 C-104.1 27.29 -95.79 24.02 -87.3 20.88 C-82.96 19.28 -78.6 17.7 -74.25 16.13 C-73.38 15.82 -72.52 15.5 -71.62 15.18 C-12.63 -6.06 -12.63 -6.06 0 0 Z " fill="#403753" transform="translate(397.125,253.5)"/>
<path d="M0 0 C1.8 0.59 3.59 1.2 5.38 1.81 C6.38 2.15 7.38 2.49 8.41 2.83 C21.1 7.18 33.55 12.21 46 17.18 C76.58 29.33 76.58 29.33 85.51 26.81 C87.7 24.65 89.01 22.61 90.42 19.88 C91.51 17.81 91.51 17.81 93.51 16.81 C95.57 18.25 95.57 18.25 97.51 20.81 C98.41 27.09 95.36 33.05 92.77 38.59 C90.77 42.9 89.52 47.17 88.51 51.81 C88.99 51.83 89.47 51.84 89.97 51.86 C92.19 51.93 94.41 52.03 96.63 52.12 C97.39 52.15 98.15 52.17 98.94 52.19 C103.87 52.43 107.34 53.08 111.51 55.81 C111.84 56.8 112.17 57.79 112.51 58.81 C111.94 58.8 111.37 58.78 110.78 58.76 C108.17 58.7 105.56 58.66 102.95 58.62 C102.05 58.6 101.15 58.57 100.23 58.55 C94.53 58.49 90.53 59.03 85.51 61.81 C84.12 64.59 84.32 66.73 84.51 69.81 C85.16 71.15 85.82 72.49 86.51 73.81 C86.63 76.56 86.63 76.56 86.51 78.81 C82.57 77.92 80.44 77.22 78.13 73.81 C76.51 70.81 76.51 70.81 76.51 68.81 C75.46 69.28 74.41 69.75 73.32 70.24 C69.07 72.13 64.79 73.98 60.51 75.81 C59.65 76.19 58.79 76.56 57.9 76.95 C46.03 81.54 34.72 78.48 23.51 73.81 C22.49 73.39 21.48 72.97 20.43 72.53 C9.19 67.13 1.24 55.76 -3.49 44.42 C-6.33 35.98 -6.73 27.14 -6.12 18.31 C-6.07 15.88 -6.07 15.88 -6.49 13.81 C-8.16 12.22 -9.86 11.23 -11.87 10.11 C-13.49 8.81 -13.49 8.81 -14.18 6.74 C-14.4 4.74 -14.53 2.82 -14.49 0.81 C-10.49 -2.96 -4.73 -1.39 0 0 Z " fill="#403653" transform="translate(160.4921875,254.1875)"/>
<path d="M0 0 C3.08 5.35 4.32 10.81 5.62 16.81 C5.84 17.76 6.06 18.71 6.28 19.68 C9.3 33.23 12.61 52.1 6 65 C4.1 67.72 1.99 69.46 -0.94 71.06 C-5.35 70.93 -8.81 67.29 -11.88 64.38 C-14 62 -14 62 -14 60 C-15.07 59.77 -16.14 59.55 -17.25 59.31 C-17.85 59.18 -18.46 59.06 -19.08 58.93 C-21.93 59.04 -22.93 60.05 -25 62 C-26 64.3 -26.77 66.42 -27.48 68.81 C-27.92 70.2 -28.36 71.59 -28.81 72.98 C-28.92 73.35 -28.92 73.35 -29.49 75.19 C-36.8 98.7 -45.31 121.25 -63 139 C-63.67 139.7 -64.35 140.39 -65.04 141.11 C-80.29 155.85 -102.19 161.42 -122.88 161.31 C-123.92 161.31 -124.96 161.31 -126.04 161.31 C-133.73 161.21 -140.69 160.4 -148 158 C-146.66 154.99 -145.2 153 -142.81 150.75 C-139.57 147.61 -136.6 144.32 -133.68 140.89 C-133.12 140.27 -132.57 139.64 -132 139 C-131.44 138.31 -130.87 137.61 -130.29 136.9 C-127.26 134.38 -125.59 134.58 -121.69 134.71 C-121.08 134.73 -120.47 134.74 -119.84 134.75 C-117.89 134.8 -115.95 134.86 -114 134.94 C-94.78 135.63 -80.68 131.06 -66.01 118.27 C-49.92 103.18 -32.89 77.05 -30 55 C-30.88 54.96 -31.76 54.93 -32.67 54.89 C-33.84 54.82 -35.01 54.75 -36.19 54.69 C-36.76 54.66 -36.76 54.66 -39.67 54.51 C-43.2 53.97 -45.18 53.16 -48 51 C-49.58 47.09 -49.42 45.2 -48.03 41.23 C-44.55 33.68 -39.94 27.82 -34 22 C-33.44 21.44 -32.88 20.89 -32.31 20.32 C-11.38 -0.31 -11.38 -0.31 0 0 Z " fill="#A06FAB" transform="translate(574,367)"/>
<path d="M0 0 C4.22 -0.2 7.17 0.2 11 2 C11 2.66 11 3.32 11 4 C11.72 4.09 12.43 4.18 13.17 4.27 C22.93 6.8 30.07 17.1 35.02 25.31 C39.87 33.71 43.36 42.4 45 52 C45.1 52.52 45.1 52.52 45.63 55.14 C46.03 58.54 46.1 60.74 45 64 C41.5 67.82 36.68 69.97 32 72 C31.31 72.31 30.63 72.61 29.92 72.93 C16.12 77.48 -0.45 73.33 -13.03 67.22 C-15.71 65.86 -18.36 64.45 -21 63 C-21 62.34 -21 61.68 -21 61 C-21.34 60.97 -21.34 60.97 -23.08 60.83 C-27.11 59.69 -29.57 57.47 -32.69 54.75 C-33.3 54.22 -33.91 53.7 -34.54 53.16 C-40.6 47.75 -45.31 41.59 -50 35 C-50.33 34.67 -50.66 34.34 -51 34 C-51.66 34.66 -52.32 35.32 -53 36 C-54.85 32.31 -54.49 28.03 -54 24 C-52.97 22.59 -51.94 21.19 -50.82 19.84 C-49.17 16.13 -50.25 11.66 -50.74 7.73 C-50.82 6.83 -50.91 5.93 -51 5 C-50 4 -50 4 -47 3.5 C-42.31 3.54 -39.66 6.28 -36.2 9.18 C-32.44 12.29 -28.99 14.83 -24.06 15.25 C-23.72 15.21 -23.72 15.21 -22 15 C-21.59 11.4 -21.85 10.22 -24 7.19 C-24.66 6.47 -25.32 5.74 -26 5 C-24.47 3.47 -23.07 3.76 -20.94 3.69 C-12.22 3.84 -6 9.26 0.68 14.29 C3 16 3 16 5 17 C4.68 11.59 3.69 9.28 0.01 5.36 C-1 4 -1 4 -0.81 1.62 C-0.54 1.09 -0.28 0.55 0 0 Z " fill="#AF7DBA" transform="translate(464,313)"/>
<path d="M0 0 C0.59 2.29 1.17 4.58 1.75 6.88 C1.93 7.59 2.12 8.31 2.31 9.05 C3.27 12.85 4.15 16.65 4.88 20.51 C6.97 31.43 10.6 40.32 16 50 C17.28 52.3 18.56 54.61 19.82 56.92 C20.63 58.4 21.45 59.87 22.29 61.33 C25.02 66.27 25.02 66.27 24.93 69.71 C21.78 77.44 15.46 83.46 8 87 C-0.98 90.12 -9.62 90.38 -19 90 C-23.28 82.23 -26.36 73.91 -27 65 C-27.05 64.32 -27.11 63.64 -27.16 62.95 C-27.46 55.15 -25.93 47.61 -24.4 40.01 C-24.05 38.27 -23.73 36.54 -23.41 34.8 C-20.63 21.54 -14.37 8.98 -3.39 0.8 C-2 0 -2 0 0 0 Z " fill="#AE7DB9" transform="translate(197,89)"/>
<path d="M0 0 C5.25 0.82 7.83 4.39 10.92 8.47 C21.89 24.07 25.43 42.52 25.5 61.25 C25.5 61.82 25.5 61.82 25.52 64.68 C25.41 71.51 25.23 79.16 20.62 84.64 C15.41 89.57 8.77 90.54 1.81 90.38 C-7.23 89.17 -16.17 85.14 -22 78 C-24.67 73.9 -25.33 70.21 -24.69 65.38 C-22.8 57.76 -18.12 51.06 -14.04 44.44 C-7.21 33.18 -5.13 20.59 -2.67 7.82 C-2.02 5.07 -1.12 2.6 0 0 Z " fill="#AE7CB9" transform="translate(365,88)"/>
<path d="M0 0 C2.89 10.34 0.73 22.54 -4 32 C-4.66 32 -5.32 32 -6 32 C-6.1 32.58 -6.21 33.16 -6.32 33.76 C-8.43 40.69 -15.29 45.39 -21.33 48.75 C-33.82 54.61 -47.05 54.1 -60 50 C-63.63 48.34 -66.8 46.37 -70 44 C-70.59 43.57 -71.19 43.15 -71.8 42.71 C-75.22 40.08 -78.47 37.11 -80 33 C-80.31 29.64 -80.24 26.37 -80 23 C-79.01 23 -78.02 23 -77 23 C-75.35 25.27 -75.35 25.27 -73.62 28.25 C-71.21 32.41 -69.11 35.4 -65 38 C-59.91 38.93 -54.02 39.15 -49.5 36.31 C-40.79 28.26 -39.49 21.36 -39 10 C-32.14 6.61 -25.24 4.55 -17.81 2.75 C-16.76 2.48 -15.7 2.21 -14.62 1.94 C-9.6 0.7 -5.2 -0.14 0 0 Z " fill="#DEDDDF" transform="translate(379,269)"/>
<path d="M0 0 C10.87 1.32 25.91 5.8 34.81 12.33 C36.45 14.64 36.37 16.38 36.44 19.19 C36.87 25.33 38.06 30.26 42.68 34.57 C47.11 37.91 50.88 39.13 56.44 39.25 C56.81 39.26 56.81 39.26 58.68 39.33 C61.79 38.89 63.49 37.89 66 36 C67.95 33.3 67.95 33.3 69.69 30.31 C70.74 28.51 71.83 26.73 73 25 C73.66 25 74.32 25 75 25 C74.97 32.27 73.17 36.85 68 42 C57.09 51.2 45.02 51.97 31.28 51.24 C26.78 50.77 22.9 49.3 19 47 C19 46.34 19 45.68 19 45 C18.42 44.91 17.84 44.81 17.25 44.71 C11.29 42.82 7.02 36.55 4.19 31.25 C-0.24 21.44 -1.86 11.68 -1 1 C-0.67 0.67 -0.34 0.34 0 0 Z " fill="#DDDDDF" transform="translate(165,271)"/>
<path d="M0 0 C7.92 -0.73 13.27 1.81 19.78 6.2 C21.69 7.79 22.92 9.21 23.18 11.73 C22.81 15.55 21.63 18.14 19 21 C16.12 19.75 14.52 18.78 13 16 C9.55 17.43 7 19.56 4.18 21.94 C-17.03 39.71 -42.3 51.06 -70.4 49.25 C-86.37 47.72 -101.35 43.46 -115.96 36.91 C-117.93 36.03 -119.91 35.22 -121.9 34.41 C-125.43 32.8 -126.96 31.27 -129 28 C-129 27.01 -129 26.02 -129 25 C-122.7 22.93 -117.97 25.68 -112.12 28.19 C-102.86 31.99 -93.82 35.03 -84 37 C-83.11 37.19 -82.22 37.38 -81.3 37.57 C-53.44 41.17 -27.5 34.68 -5 18 C3.24 11.52 3.24 11.52 5 8 C4.6 7.88 4.6 7.88 2.56 7.25 C0 6 0 6 -0.88 4 C-1 2 -1 2 0 0 Z " fill="#422D57" transform="translate(335,341)"/>
<path d="M0 0 C1.42 2.77 2.67 5.56 3.84 8.44 C4.18 9.27 4.52 10.1 4.87 10.96 C5.58 12.7 6.29 14.44 6.99 16.18 C7.33 17.01 7.67 17.84 8.03 18.69 C8.33 19.45 8.64 20.2 8.96 20.98 C10.74 24.44 12.3 25.77 16 27 C16 27.66 16 28.32 16 29 C29.18 31.67 43.59 31.32 56 26 C56.88 25.64 57.75 25.28 58.66 24.9 C66.5 21.33 74.05 16.15 79 9 C81.44 9.69 81.44 9.69 84 11 C85.06 13.25 85.06 13.25 85 16 C78 30.34 61.19 39.88 47.14 45.78 C37.84 48.91 26.89 49.09 17.92 45.07 C9.36 40.34 4.65 32.66 1.71 23.54 C-0.46 15.76 -0.1 8.01 0 0 Z " fill="#9D62A4" transform="translate(53,402)"/>
<path d="M0 0 C0.33 0.99 0.66 1.98 1 3 C3.14 2.83 3.14 2.83 14 2 C14.76 3.28 15.53 4.56 16.31 5.88 C18.97 9.94 21.87 12.71 25.56 15.75 C31.64 20.82 33.88 26.52 36 34 C35.09 34.06 34.19 34.12 33.25 34.18 C26.48 34.65 19.74 35.16 13 36 C13.33 35.83 13.33 35.83 15 35 C11.43 31.18 8.96 29.94 3.77 29.68 C2.97 29.64 2.16 29.6 1.34 29.56 C0.5 29.52 -0.33 29.48 -1.19 29.44 C-2.03 29.39 -2.88 29.35 -3.75 29.31 C-5.83 29.2 -7.92 29.1 -10 29 C-8.12 21.07 -5.41 13.71 -2.3 6.19 C-1.47 4.15 -0.7 2.09 0 0 Z " fill="#9C62A4" transform="translate(258,278)"/>
<path d="M0 0 C1.9 2.48 2.57 4.76 3.25 7.79 C3.47 8.73 3.68 9.67 3.9 10.64 C4.12 11.63 4.34 12.61 4.56 13.62 C4.78 14.59 5 15.55 5.23 16.54 C8.28 30.12 11.64 49.05 5 62 C3.1 64.72 0.99 66.46 -1.94 68.06 C-6.35 67.93 -9.81 64.29 -12.88 61.38 C-15 59 -15 59 -15 57 C-15.66 56.67 -16.32 56.34 -17 56 C-16.01 56 -15.02 56 -14 56 C-13.72 55.13 -13.44 54.25 -13.15 53.35 C-11.81 49.31 -10.05 45.47 -8.32 41.59 C-4.62 32.24 -3.25 22.14 -1.81 12.25 C-1.63 11.05 -1.45 9.85 -1.28 8.66 C-0.85 5.77 -0.42 2.89 0 0 Z " fill="#9C62A4" transform="translate(575,370)"/>
<path d="M0 0 C5.76 0.14 9.97 2.46 14.12 6.37 C18.01 10.6 20.31 14.05 22.94 19.31 C11.39 19.31 -0.16 19.31 -12.06 19.31 C-9.81 9.18 -9.81 9.18 -7 5.31 C-6.47 4.57 -5.95 3.83 -5.4 3.06 C-3.32 0.34 -3.32 0.34 0 0 Z " fill="#3E3551" transform="translate(365.0625,662.6875)"/>
<path d="M0 0 C1.42 2.84 1.31 4.86 1 8 C-3.53 14.15 -10.63 18.27 -18 20 C-21.37 20.19 -23.95 19.58 -26.94 17.94 C-28.72 14.69 -28.87 11.58 -28 8 C-24.65 3.53 -19.65 1.63 -14.38 0.38 C-9.58 -0.16 -4.82 -0.08 0 0 Z " fill="#87B2C4" transform="translate(159,386)"/>
<path d="M0 0 C6 4.47 8.56 10.82 10 18 C-1.22 18 -12.44 18 -24 18 C-17.24 7.85 -17.24 7.85 -13.25 4.5 C-12.49 3.85 -11.73 3.2 -10.95 2.53 C-7.5 -0.18 -4.31 -0.8 0 0 Z " fill="#3E3651" transform="translate(198,664)"/>
<path d="M0 0 C-1.2 19.23 -4.27 44 -19.05 57.93 C-24.06 61.87 -28.49 64.37 -35 64 C-32.71 61.64 -30.45 59.37 -27.91 57.27 C-18.53 49.48 -11.68 39.31 -10 27 C-9.74 21.96 -9.64 16.91 -9.77 11.87 C-9.76 4.77 -9.76 4.77 -7.47 2.43 C-4.95 0.94 -2.95 0 0 0 Z " fill="#9A61A2" transform="translate(398,262)"/>
<path d="M0 0 C4.22 -0.2 7.17 0.2 11 2 C11 2.66 11 3.32 11 4 C11.72 4.09 12.43 4.18 13.17 4.27 C22.93 6.8 30.06 17.08 35.01 25.29 C39.17 32.5 42.67 39.54 43 48 C41.35 48 39.7 48 38 48 C35.48 43.34 33.53 38.7 31.81 33.69 C28.52 24.64 22.55 16.62 14.05 11.84 C11.1 10.63 8.11 10.16 4.99 9.59 C2.81 8.95 1.86 8.32 0.38 6.62 C-1 4 -1 4 -0.75 1.69 C-0.5 1.13 -0.25 0.57 0 0 Z " fill="#BA9BC8" transform="translate(464,313)"/>
<path d="M0 0 C-6.84 7.47 -16.73 12.68 -26.99 13.13 C-30.33 13.12 -33.66 13.08 -37 13 C-37.35 13 -37.35 13 -39.12 13.02 C-44.7 12.75 -48.36 8.85 -52 5 C-52 4.67 -52 4.34 -52 4 C-51.66 4 -51.66 4 -49.96 3.99 C-36.45 3.84 -23.98 3.16 -10.86 -0.45 C-10.01 -0.68 -9.16 -0.9 -8.29 -1.14 C-7.55 -1.35 -6.82 -1.56 -6.06 -1.78 C-3.47 -2.06 -2.19 -1.33 0 0 Z " fill="#9F63A6" transform="translate(314,396)"/>
<path d="M0 0 C5.75 2.75 5.75 2.75 8 5 C8.12 7.04 8.12 7.04 8 9.62 C7.73 26.77 11.22 39.08 21.94 52.56 C22.2 52.89 22.2 52.89 23.52 54.56 C23.99 55.15 24.47 55.74 24.96 56.35 C26 58 26 58 26 61 C18.06 58.19 12.15 53.75 8.19 46.19 C3.38 36.1 2.24 25.85 1.31 14.88 C1.18 13.43 1.05 11.98 0.92 10.53 C0.6 7.02 0.3 3.51 0 0 Z " fill="#9B61A2" transform="translate(147,263)"/>
<path d="M0 0 C6.21 0.36 6.21 0.36 9.31 2.88 C12.42 7.52 13.29 13.89 12.78 19.35 C11.96 23.03 10.93 26.49 8 29 C4.81 29.25 4.81 29.25 2 29 C-2.78 21.43 -4.14 14.91 -3 6 C-2.24 3.61 -1.43 2.08 0 0 Z " fill="#87B2C4" transform="translate(175,549)"/>
<path d="M0 0 C4.02 0.41 7.81 1.1 11.06 3.56 C13.7 10.42 11.79 16.5 9.07 23.03 C8 25 8 25 6 26 C3.66 26.13 1.35 26.04 -1 26 C-4.32 19.64 -5.26 13.65 -3.36 6.62 C-1.49 1.49 -1.49 1.49 0 0 Z " fill="#94A5BE" transform="translate(199,551)"/>
<path d="M0 0 C2.38 0.06 2.38 0.06 5 1 C9.42 5.79 10.4 8.94 10.36 15.32 C9.79 19.56 7.9 22.88 5 26 C2 27 2 27 -0.5 25.81 C-3.04 23.97 -4.38 22.66 -6 20 C-6.81 14.75 -7.15 8.95 -4.12 4.38 C-2.79 2.88 -1.42 1.42 0 0 Z " fill="#87B1C4" transform="translate(366,554)"/>
<path d="M0 0 C3.72 1.49 5.52 2.33 7.88 5.62 C9.85 10.4 9.94 15.49 8.13 20.32 C5.68 25.32 5.68 25.32 4 27 C-2.35 26.65 -2.35 26.65 -4.88 24.12 C-7.35 19.45 -7.76 14.98 -6.47 9.91 C-5.03 5.72 -3.48 2.88 0 0 Z " fill="#89A5BC" transform="translate(391,552)"/>
<path d="M0 0 C0.56 -0.01 0.56 -0.01 3.41 -0.08 C6.38 0.25 6.38 0.25 8.25 1.58 C10.03 4.22 9.83 6.16 9.38 9.25 C4.51 13.79 -3 15.25 -9.5 15.75 C-13.02 15.19 -14.52 14.42 -16.8 11.75 C-17.62 10.25 -17.62 10.25 -17.75 7.12 C-16.62 4.25 -16.62 4.25 -14.38 2.44 C-9.63 0.39 -5.14 0.07 0 0 Z " fill="#86B1C4" transform="translate(146.625,362.75)"/>
<path d="M0 0 C5.7 2.38 7.88 7.43 10.25 12.88 C12.16 20.83 12.14 28.99 12.06 37.12 C12.06 38.08 12.05 39.04 12.05 40.02 C12.04 42.35 12.02 44.67 12 47 C10.35 46.67 8.7 46.34 7 46 C5.32 40.14 4.55 34.44 4.06 28.38 C3.41 21 2.33 13.95 0.59 6.75 C0.08 4.38 -0.13 2.4 0 0 Z " fill="#BF9ECC" transform="translate(372,109)"/>
<path d="M0 0 C0.17 1.15 0.17 1.15 1 7 C-3.91 8.14 -8.82 9.28 -13.73 10.42 C-15.4 10.8 -17.07 11.19 -18.74 11.58 C-21.15 12.14 -23.55 12.7 -25.95 13.25 C-26.7 13.42 -27.44 13.6 -28.21 13.78 C-28.91 13.94 -29.61 14.1 -30.33 14.27 C-30.95 14.41 -31.56 14.55 -32.19 14.7 C-34.16 15.03 -36.01 15.05 -38 15 C-38.33 15.99 -38.66 16.98 -39 18 C-39 15.36 -39 12.72 -39 10 C-32.14 6.61 -25.24 4.55 -17.81 2.75 C-16.76 2.48 -15.7 2.21 -14.62 1.94 C-9.6 0.7 -5.2 -0.14 0 0 Z " fill="#C6C5CB" transform="translate(379,269)"/>
<path d="M0 0 C1.81 3.05 2.25 4.78 1.5 8.25 C-0.68 16.66 -7.06 23.06 -14 28 C-16.93 29.54 -19.9 30.84 -23 32 C-22.44 23.18 -18.66 17.22 -12.12 11.38 C-11.26 10.64 -10.4 9.91 -9.52 9.15 C-6.16 6.28 -3.08 3.17 0 0 Z " fill="#BD9DCA" transform="translate(548,383)"/>
<path d="M0 0 C0.66 0 1.31 0.01 1.99 0.01 C6.8 0.1 11.04 0.75 15.62 2.25 C15.62 4.56 15.62 6.87 15.62 9.25 C14.96 9.25 14.31 9.25 13.62 9.25 C13.62 9.91 13.62 10.57 13.62 11.25 C10.94 11.5 10.94 11.5 7.62 11.25 C6.86 10.53 6.1 9.81 5.31 9.06 C2.62 7.25 2.62 7.25 0.63 7.55 C-1.75 8.36 -4.05 9.29 -6.38 10.25 C-8.06 10.83 -9.75 11.39 -11.44 11.94 C-11.81 12.06 -11.81 12.06 -13.72 12.7 C-14.27 12.88 -14.81 13.06 -15.38 13.25 C-16.38 12.25 -16.38 12.25 -16.62 9.44 C-16.34 5.86 -15.98 4.68 -13.38 2.25 C-8.79 0.36 -4.87 -0.07 0 0 Z " fill="#BD9DCA" transform="translate(260.375,311.75)"/>
<path d="M0 0 C10.65 1.29 26.34 5.7 34.83 12.45 C36.65 14.85 36.19 17.09 36 20 C35.67 20 35.34 20 35 20 C35 18.35 35 16.7 35 15 C34.27 15.19 33.55 15.37 32.8 15.57 C29.81 16.03 28.14 15.77 25.27 14.93 C24.38 14.67 23.5 14.41 22.58 14.15 C21.67 13.87 20.75 13.6 19.81 13.31 C18.92 13.06 18.02 12.8 17.1 12.53 C10.91 10.71 4.95 8.5 -1 6 C-1.04 4.33 -1.04 2.67 -1 1 C-0.67 0.67 -0.34 0.34 0 0 Z " fill="#C1C0C7" transform="translate(165,271)"/>
<path d="M0 0 C0.33 0.66 0.66 1.32 1 2 C1.98 1.95 2.96 1.91 3.96 1.86 C11.68 1.6 18.35 1.49 25 6 C27.49 8.34 27.93 9.29 28.25 12.69 C28 15 28 15 27 16 C25 16.04 23 16.04 21 16 C21.66 15.67 22.32 15.34 23 15 C19.43 11.18 16.96 9.94 11.77 9.68 C10.97 9.64 10.16 9.6 9.34 9.56 C8.5 9.52 7.67 9.48 6.81 9.44 C5.97 9.39 5.12 9.35 4.25 9.31 C2.17 9.2 0.08 9.1 -2 9 C-1.34 6.03 -0.68 3.06 0 0 Z " fill="#7A5189" transform="translate(250,298)"/>
<path d="M0 0 C0.33 0 0.66 0 1 0 C1 11.55 1 23.1 1 35 C-0.16 35.16 -0.16 35.16 -6 36 C-6.09 32.17 -6.14 28.33 -6.19 24.5 C-6.21 23.42 -6.24 22.34 -6.26 21.23 C-6.34 13.25 -5.61 6.12 0 0 Z " fill="#BD9CCA" transform="translate(182,121)"/>
<path d="M0 0 C4.35 0.01 6.55 2.24 9.59 5.12 C10.01 5.56 10.44 5.99 10.88 6.44 C4.12 13.38 4.12 13.38 0.19 13.56 C-0.19 13.54 -0.19 13.54 -2.12 13.44 C-4.18 9.2 -4.39 6.06 -4.12 1.44 C-3.12 0.44 -3.12 0.44 0 0 Z " fill="#8BA7BE" transform="translate(417.125,316.5625)"/>
<path d="M0 0 C0.99 0 1.98 0 3 0 C2.45 4.97 0.14 8.53 -2.44 12.69 C-2.85 13.36 -3.25 14.04 -3.67 14.74 C-5.32 17.43 -6.76 19.76 -9 22 C-9.99 22 -10.98 22 -12 22 C-11.48 17.33 -10.28 14.34 -7.69 10.44 C-7.39 9.98 -7.39 9.98 -5.89 7.68 C-2.16 2.39 -2.16 2.39 0 0 Z " fill="#B898C5" transform="translate(68,378)"/>
<path d="M0 0 C9.57 0 19.14 0 29 0 C23.75 3.5 17.29 4.84 11 4 C7.29 3.13 3.64 2.11 0 1 C0 0.67 0 0.34 0 0 Z " fill="#3D354F" transform="translate(179,0)"/>
<path d="M0 0 C-0.33 0.66 -0.66 1.32 -1 2 C1.97 2.33 4.94 2.66 8 3 C8 3.66 8 4.32 8 5 C1.97 6.07 -3.89 6.1 -10 6 C-9.71 4.11 -9.71 4.11 -9 2 C-7.44 0.92 -7.44 0.92 -5.56 0.19 C-4.95 -0.07 -4.33 -0.32 -3.69 -0.58 C-2 -1 -2 -1 0 0 Z " fill="#48325C" transform="translate(104,356)"/>
<path d="M0 0 C0.48 0.01 0.48 0.01 2.94 0.06 C3.91 5.34 3.91 5.34 3.94 7.06 C1.94 9.06 1.94 9.06 -0.56 9.38 C-3.06 9.06 -3.06 9.06 -4.44 7.88 C-5.31 5.33 -4.8 3.61 -4.06 1.06 C-3.06 0.06 -3.06 0.06 0 0 Z " fill="#BE9DCB" transform="translate(377.0625,160.9375)"/>
<path d="M0 0 C0.99 0.33 1.98 0.66 3 1 C3.33 3.97 3.66 6.94 4 10 C1 12 1 12 -2 12 C-3.76 7.51 -3.76 7.51 -4 5 C-2.12 2.06 -2.12 2.06 0 0 Z " fill="#BE9DCB" transform="translate(186,107)"/>
<path d="M0 0 C4.35 0.48 6.19 2.88 9 6 C9.33 6.66 9.66 7.32 10 8 C6.04 8 2.08 8 -2 8 C-1.12 2.25 -1.12 2.25 0 0 Z " fill="#A778B3" transform="translate(366,674)"/>
<path d="M0 0 C8.91 0 17.82 0 27 0 C22.09 2.45 18.56 3.18 13.19 3.19 C12.58 3.2 11.98 3.21 11.36 3.22 C7.16 3.24 3.92 2.52 0 1 C0 0.67 0 0.34 0 0 Z " fill="#3D354F" transform="translate(361,0)"/>
<path d="M0 0 C0.81 0 1.61 0.01 2.44 0.01 C2.84 0.01 2.84 0.01 4.88 0 C7 0.13 7 0.13 9 1.13 C8.25 3.07 8.25 3.07 7 5.13 C5.68 5.49 4.34 5.83 3 6.13 C2.67 7.12 2.34 8.11 2 9.13 C1.55 8.37 1.1 7.61 0.63 6.82 C-0.54 4.89 -1.72 3 -3 1.13 C-2 0.13 -2 0.13 0 0 Z " fill="#A57FB4" transform="translate(440.99609375,316.8671875)"/>
<path d="M0 0 C1.94 1.06 1.94 1.06 3.19 4.12 C3.44 5.09 3.68 6.06 3.94 7.06 C0.31 7.06 -3.32 7.06 -7.06 7.06 C-3.59 0.11 -3.59 0.11 0 0 Z " fill="#A677B2" transform="translate(194.0625,674.9375)"/>
</svg>
