<?xml version="1.0" encoding="UTF-8"?>
<!-- Generator: visioncortex VTracer 0.6.5 -->
<svg version="1.1" xmlns="http://www.w3.org/2000/svg" width="682" height="682">
<path d="M0 0 C225.06 0 450.12 0 682 0 C682 225.06 682 450.12 682 682 C456.94 682 231.88 682 0 682 C0 456.94 0 231.88 0 0 Z " fill="#303031" transform="translate(0,0)"/>
<path d="M0 0 C-0.17 0.95 -0.33 1.9 -0.5 2.88 C-1.79 12.4 -1.28 18.87 4.29 26.84 C7.67 31.15 11.57 33.92 16.24 36.74 C16.53 36.95 16.53 36.95 18 38 C18 38.66 18 39.32 18 40 C18.8 40.1 19.61 40.21 20.44 40.31 C23.23 40.76 25.72 41.59 28.38 42.56 C36.9 45.45 44.69 44.03 52.76 40.16 C58.56 36.63 62.79 30.88 66 25 C70.85 27.55 74.94 30.38 78.94 34.12 C79.46 34.61 79.97 35.09 80.51 35.59 C99.93 54.07 108.62 78.86 116 104 C116.22 104.72 116.43 105.44 116.66 106.19 C117.27 108.22 117.86 110.27 118.44 112.31 C118.61 112.9 118.79 113.5 118.97 114.11 C120.07 118.13 119.76 120.95 119 125 C118.92 125.52 118.92 125.52 118.49 128.14 C118 131.14 117.51 134.13 117.01 137.13 C116.8 138.4 116.59 139.68 116.38 140.96 C114.45 152.99 112.04 164.58 105.62 175.12 C104.84 176.48 104.05 177.83 103.26 179.19 C102.51 180.46 101.76 181.73 101 183 C99.8 185.03 98.61 187.07 97.44 189.12 C96.96 189.93 96.49 190.74 96 191.57 C94.79 194.51 94.82 196.85 95 200 C100.52 198.02 103.51 196.03 106.94 191.31 C107.36 190.75 107.78 190.18 108.21 189.6 C116.92 177.47 122.91 163.66 124.84 148.84 C125 147.73 125.15 146.62 125.3 145.47 C125.6 143.24 125.86 141 126.08 138.76 C127.07 131.05 127.07 131.05 129.85 127.91 C134.93 124 134.93 124 138 124 C138.1 124.94 138.2 125.88 138.3 126.85 C139.76 139.5 139.76 139.5 144 144 C146.91 144.97 148.78 144.94 151.79 144.73 C157.74 144.38 161.32 144.52 166.06 148.56 C166.71 149.22 167.36 149.89 168.04 150.57 C170 152 170 152 172.55 151.95 C175.45 150.83 176.38 149.79 178.12 147.25 C178.63 146.53 179.13 145.82 179.64 145.08 C181.16 142.75 182.64 140.43 184 138 C185.91 141.83 183.27 146.59 182.06 150.5 C181.75 151.52 181.44 152.55 181.11 153.61 C178.13 163.09 174.3 172.05 170 181 C169.34 181 168.68 181 168 181 C167.86 181.78 167.71 182.57 167.56 183.38 C167 186 167 186 166 188 C165.34 188 164.68 188 164 188 C163.93 188.69 163.86 189.38 163.78 190.09 C162.76 193.91 160.84 196.48 158.5 199.62 C158.27 199.93 158.27 199.93 157.13 201.5 C146.99 215.24 135.73 228.22 122.77 239.37 C118.5 243.3 116.56 247.14 116 253 C120.84 252.53 123.92 251.84 128 249 C128.48 290.29 116.16 335.35 87.44 365.94 C77.08 375.93 65.09 383.19 52 389 C51.38 389.28 50.76 389.55 50.13 389.84 C21.43 402.49 -9.67 405.22 -40.69 405.19 C-41.69 405.19 -42.7 405.19 -43.73 405.19 C-58.9 405.16 -73.93 404.91 -89 403 C-89.53 402.93 -89.53 402.93 -92.22 402.59 C-122.29 398.64 -153.41 391.74 -178 373 C-178.84 372.38 -179.69 371.77 -180.55 371.13 C-197.56 358.26 -209.98 334.62 -215 314 C-215 311.17 -215 311.17 -214 309 C-211.85 307.08 -211.85 307.08 -209.06 305.25 C-208.05 304.56 -207.05 303.86 -206.04 303.16 C-205.79 302.98 -205.79 302.98 -204.5 302.08 C-194.37 294.79 -186.57 285.39 -181.06 274.25 C-178.41 269.09 -175.07 266.18 -170.37 262.85 C-166.23 259.62 -163.31 256.18 -162.56 250.94 C-162.55 247.25 -163.94 245.53 -166.19 242.69 C-169.08 238.73 -169.08 238.73 -168.73 235.45 C-168.16 233.74 -167.55 232.04 -166.89 230.36 C-165.61 226.97 -165.56 224.59 -166 221 C-167.54 218.9 -168.68 218.16 -171 217 C-172.3 216.83 -173.6 216.7 -174.9 216.61 C-175.7 216.54 -176.5 216.47 -177.32 216.4 C-178.19 216.33 -179.05 216.26 -179.94 216.19 C-187.1 215.55 -193.99 214.49 -201 212.88 C-211.13 210.59 -221.36 208.96 -231 214 C-232.96 215.55 -234.38 217.07 -236 219 C-235.35 218.93 -234.71 218.86 -234.04 218.78 C-224.36 217.83 -214.72 217.9 -205 218 C-205 219.32 -205 220.64 -205 222 C-205.66 222 -206.32 222 -207 222 C-209.03 233.06 -209.03 233.06 -206.51 237.8 C-204.56 240.19 -204.56 240.19 -202.57 242.29 C-201 244 -201 244 -201 246 C-201.66 246 -202.32 246 -203 246 C-203.14 246.97 -203.29 247.94 -203.44 248.94 C-204 252 -204 252 -205 253 C-205.65 257.39 -205.82 261.61 -203.12 265.31 C-199.59 268.99 -194.74 270.43 -190 272 C-199.66 287.9 -213.7 301.6 -232.1 306.59 C-241.52 308.63 -251.22 308.13 -259.59 303.19 C-267.08 298.28 -273.5 291.47 -276.41 282.89 C-279.19 269.36 -276.45 257.67 -269.04 246.13 C-257.85 229.57 -242.95 216.93 -226.42 205.98 C-225 205 -225 205 -224 204 C-223.82 202.7 -223.69 201.39 -223.6 200.08 C-223.53 199.24 -223.47 198.4 -223.4 197.54 C-223.34 196.62 -223.27 195.7 -223.2 194.75 C-223.05 192.77 -222.9 190.8 -222.74 188.83 C-222.7 188.3 -222.7 188.3 -222.5 185.67 C-218.26 131.34 -210.68 69.6 -169 30 C-168.01 29.67 -167.02 29.34 -166 29 C-165.85 29.29 -165.85 29.29 -165.07 30.76 C-161.08 37.58 -156.51 41.41 -149 44 C-136.48 45.96 -124.64 41.23 -114 35 C-107.81 30.49 -103.94 24.9 -102.34 17.36 C-101.61 12.27 -101.3 7.14 -101 2 C-93.33 -0.43 -85.7 -2.38 -77.75 -3.69 C-77.03 -3.81 -76.31 -3.93 -75.57 -4.05 C-50.44 -8.01 -24.58 -6.65 0 0 Z " fill="#AF7DBA" transform="translate(382,39)"/>
<path d="M0 0 C72.6 0 145.2 0 220 0 C223.09 9.26 225.8 17.43 227.31 26.88 C227.48 27.83 227.65 28.78 227.82 29.77 C228.8 35.56 229.22 41.12 229 47 C229.69 47.22 230.37 47.43 231.08 47.66 C234.86 49.39 237.64 51.77 240.75 54.5 C241.37 55.04 241.99 55.58 242.63 56.14 C247.85 60.75 252.64 65.54 257 71 C257.42 71.53 257.85 72.06 258.28 72.6 C269.76 87.15 278.12 102.67 284.05 120.21 C284.95 122.84 285.87 125.46 286.79 128.08 C287.64 130.47 288.48 132.85 289.32 135.23 C289.73 136.4 290.14 137.58 290.55 138.75 C291.13 140.39 291.71 142.04 292.28 143.69 C292.61 144.64 292.94 145.59 293.28 146.57 C294 149 294 149 294 152 C302.18 149.21 306.56 144.63 311.8 137.99 C314.94 134.04 317.74 130.83 322.84 129.53 C326.32 129.47 327.75 129.82 330.69 131.88 C333.44 135.01 334.67 138.8 336.01 142.7 C337.29 145.68 338.66 147.4 341.65 148.74 C342.22 148.93 342.79 149.12 343.38 149.31 C347.49 151.01 349.73 153.19 352 157 C354.62 163.62 355.55 169.98 355.5 177.06 C355.5 177.97 355.49 178.87 355.49 179.81 C355.26 188.78 353.15 196.66 350 205 C349.64 206 349.28 206.99 348.91 208.02 C344.44 219.44 339.01 231.9 332 242 C331.34 242 330.68 242 330 242 C329.93 242.69 329.85 243.38 329.78 244.09 C328.76 247.89 326.88 250.43 324.56 253.56 C324.12 254.17 323.68 254.77 323.22 255.4 C320.12 259.61 316.89 263.72 313.56 267.75 C313.15 268.25 312.74 268.75 312.31 269.27 C309.33 272.81 309.33 272.81 307.41 273.93 C306 275 306 275 305.52 276.58 C305.47 277.21 305.42 277.84 305.37 278.49 C305.31 279.2 305.24 279.92 305.18 280.66 C305.12 281.44 305.07 282.23 305.01 283.03 C304.86 284.71 304.72 286.4 304.57 288.08 C304.5 288.96 304.43 289.85 304.35 290.76 C302.53 312.75 299.41 333.84 293 355 C292.84 355.53 292.84 355.53 292.03 358.2 C290.15 364.12 287.89 369.56 284.95 375.04 C284 377 284 377 284 379 C296.31 374.57 307.15 367.73 317.56 359.88 C335.89 346.28 355.3 341.22 378 343 C392.45 345.32 403.69 352.9 414 363 C414.63 363.59 415.26 364.18 415.9 364.79 C429.38 378.64 434.38 399.88 434.14 418.59 C433.15 442 422.64 460.25 405.75 476.12 C391.87 488.05 374.21 495.33 357 501 C356.95 501.51 356.95 501.51 356.67 504.11 C356.51 505.47 356.35 506.83 356.19 508.19 C356.15 508.52 356.15 508.52 355.97 510.23 C355.46 514.45 354.77 517.62 352 521 C347.42 524.03 343.6 524.52 338.19 524.44 C337.45 524.43 336.71 524.42 335.96 524.42 C323.38 524.06 311.28 520.47 300 515 C299.46 514.74 298.93 514.49 298.38 514.22 C279.5 505.07 279.5 505.07 276 496 C275.66 493.85 275.66 493.85 275.62 491.62 C275.6 490.9 275.57 490.17 275.54 489.41 C277.28 480.32 287.5 473.34 294.71 468.38 C306.72 460.47 322.97 450.2 337.95 452.39 C342.19 453.65 344.08 456.46 346.31 460.19 C347.35 464.44 347.15 468.64 347 473 C365.33 466.16 381.27 458.13 390.55 439.97 C395.84 427.88 398.69 413.79 394 401 C390.43 393.39 385.74 389.98 378 387 C367.71 383.57 356.78 386.85 347.31 391.25 C338.91 395.87 332.61 402.81 326.56 410.12 C314.56 423.93 294.47 431.84 276.46 433.19 C264.86 433.71 253.46 432.81 242 431 C241.87 431.69 241.75 432.39 241.62 433.1 C235.02 469.2 235.02 469.2 223.38 477.97 C214.3 483.96 206.89 486 196 485 C182.78 481.99 173.44 470.89 165 461 C164.88 460.73 164.88 460.73 164.28 459.36 C163 458 163 458 160.08 457.6 C158.82 457.57 157.56 457.56 156.3 457.57 C155.61 457.56 154.92 457.55 154.21 457.54 C151.91 457.51 149.62 457.5 147.32 457.49 C145.71 457.47 144.1 457.45 142.5 457.43 C138.24 457.39 133.98 457.36 129.72 457.33 C125.47 457.3 121.22 457.25 116.96 457.21 C100.98 457.05 84.99 456.94 69 457 C67.68 459.31 66.36 461.62 65 464 C64.34 464 63.68 464 63 464 C62.9 464.58 62.81 465.16 62.71 465.76 C60.99 471.19 55.75 474.94 51.05 477.78 C40.43 483.22 30.76 486 18.88 482.88 C9.64 479.71 3.48 474.67 -1 466 C-3.75 460.16 -5.82 454.56 -6.79 448.18 C-8.27 439.19 -9.71 433.06 -17.27 427.43 C-20.43 425.32 -23.63 423.3 -26.88 421.34 C-31.44 418.46 -35.16 414.75 -39 411 C-39.69 410.35 -40.38 409.69 -41.09 409.02 C-48.5 401.47 -52.5 392.65 -56.88 383.12 C-57.99 380.73 -59.11 378.35 -60.24 375.96 C-60.93 374.49 -61.62 373.01 -62.3 371.53 C-66.45 362.61 -66.45 362.61 -70.94 360.84 C-72.14 360.52 -73.35 360.22 -74.56 359.94 C-74.89 359.85 -74.89 359.85 -76.54 359.43 C-80.99 358.34 -85.45 357.6 -89.98 356.96 C-101.52 355.3 -109.46 351.88 -117.11 342.69 C-125.84 330.26 -129.7 317.34 -127.61 302.13 C-122.82 279.39 -106.76 261.39 -89 247.46 C-88.56 247.09 -88.11 246.73 -87.66 246.35 C-86.35 245.28 -84.98 244.27 -83.6 243.29 C-78.43 239.27 -75.23 236.13 -74.29 229.38 C-73.99 226.82 -73.81 224.27 -73.63 221.71 C-73.5 220.32 -73.37 218.93 -73.23 217.54 C-72.88 213.89 -72.59 210.24 -72.3 206.59 C-71.84 200.81 -71.3 195.04 -70.76 189.27 C-70.64 187.86 -70.51 186.44 -70.38 185.03 C-68.87 168.13 -66.45 151.38 -61.69 135.06 C-61.39 134.02 -61.09 132.98 -60.78 131.91 C-53.9 108.69 -41.61 88.15 -26 69.75 C-25.5 69.15 -25 68.56 -24.48 67.94 C-22.18 65.26 -19.96 62.86 -17.09 60.78 C-13.08 57.69 -10.52 55.42 -9.45 50.44 C-8.78 45.12 -8.56 39.8 -8.34 34.44 C-8.1 28.65 -7.35 23.16 -6.12 17.5 C-5.97 16.77 -5.82 16.03 -5.67 15.28 C-4.41 9.65 -2.44 5.48 0 0 Z M60 41 C59.65 42.64 59.65 42.64 59.51 44.75 C59.47 45.14 59.47 45.14 59.31 47.1 C59.19 48.71 59.07 50.33 58.96 51.95 C58.27 59.86 55.5 66.18 50 72 C38.84 79.92 25.81 84.72 12 83 C3.76 80.2 -0.99 75.61 -5 68 C-24.09 76.78 -36.29 106.5 -43.19 124.88 C-50.74 145.82 -55.21 167.66 -58.12 189.69 C-58.17 190 -58.17 190 -58.38 191.61 C-59.45 199.71 -60.14 207.76 -60.53 215.92 C-60.62 217.6 -60.71 219.29 -60.81 220.97 C-60.99 224.22 -61.1 227.46 -61.17 230.72 C-61.65 242.11 -61.65 242.11 -65.42 245.72 C-68.09 247.83 -71 249.4 -74 251 C-90.6 262.89 -112.42 281.7 -116 303 C-117.19 315.1 -115.95 324.52 -108.06 334.19 C-101.2 341.25 -93.78 346.14 -83.73 346.73 C-69.58 346.88 -58.76 341.94 -48 333 C-47.21 332.36 -46.42 331.72 -45.6 331.06 C-39.01 325.49 -32.62 318.94 -29 311 C-29.66 310.78 -30.33 310.56 -31.01 310.34 C-40.15 307.05 -40.15 307.05 -43.23 302.78 C-44.74 299.3 -44.64 295.69 -44 292 C-43.34 290.66 -42.68 289.33 -42 288 C-42 287.01 -42 286.02 -42 285 C-41.34 285 -40.68 285 -40 285 C-41.22 282.22 -42.75 280.05 -44.62 277.69 C-48.12 272.88 -47.34 269.33 -46.5 263.56 C-46.33 262.72 -46.17 261.87 -46 261 C-45.34 261 -44.68 261 -44 261 C-44 259.68 -44 258.36 -44 257 C-54.39 256.89 -64.66 256.84 -75 258 C-70.96 253.18 -67.14 251.28 -61 250 C-52.57 249.36 -44.82 250.58 -36.62 252.44 C-28.56 254.17 -20.82 255.57 -12.57 255.76 C-9.88 256.01 -8.26 256.54 -6 258 C-4.52 260.96 -4.61 263.78 -5 267 C-5.61 268.63 -6.23 270.26 -6.88 271.88 C-7.93 275.06 -8.32 276.32 -6.86 279.39 C-5.75 280.92 -4.62 282.42 -3.46 283.91 C-1.98 286.03 -1.48 287.14 -1.38 289.69 C-2.73 296.87 -7.48 300.69 -13 305 C-13.43 305.29 -13.43 305.29 -15.62 306.75 C-18.63 309.6 -19.88 312.63 -21.62 316.35 C-23.87 320.68 -26.88 324.27 -30 328 C-30.5 328.64 -31 329.29 -31.51 329.95 C-37.63 337.54 -45.87 343.67 -54 349 C-53.43 354.96 -51.7 359.98 -49.44 365.5 C-49.08 366.38 -48.73 367.25 -48.36 368.15 C-42.66 381.9 -36.08 394.77 -25 405 C-24.34 405.65 -23.68 406.31 -23 406.98 C4.04 432.81 46.11 440.03 82 443 C83.02 443.09 84.05 443.17 85.1 443.26 C96.31 444.15 107.51 444.24 118.75 444.25 C119.25 444.25 119.25 444.25 121.75 444.25 C137.71 444.24 153.24 443.61 169 441 C169.86 440.86 170.72 440.72 171.61 440.58 C203.68 435.17 238.62 420.67 258.35 393.57 C266.32 382.25 272.53 370.1 277 357 C277.2 356.42 277.4 355.85 277.61 355.25 C285.11 333.61 289.3 310.92 289 288 C288.51 288.31 288.03 288.61 287.53 288.93 C283.91 291.19 281.4 292.53 277 292 C279.09 281.98 285.66 276.25 292.98 269.63 C305.18 258.53 317.53 244.79 325 230 C325 229.01 325 228.02 325 227 C325.66 227 326.32 227 327 227 C328.46 224.35 329 223.11 329 220 C329.66 220 330.32 220 331 220 C335.79 209.45 340.29 198.92 343.62 187.81 C343.75 187.39 343.75 187.39 344.41 185.22 C346.13 179.26 346.13 179.26 345 177 C344.54 177.76 344.08 178.52 343.61 179.3 C342.99 180.3 342.37 181.31 341.75 182.31 C341.45 182.81 341.15 183.31 340.84 183.83 C338.93 186.89 337.21 189.28 334 191 C330.58 190.8 329.03 189.24 326.62 186.94 C322.3 183.5 318.29 183.53 313.01 183.96 C308.73 184.26 306.35 183.72 303 181 C299.94 175.64 299.42 169.06 299 163 C295.17 164.31 291.43 165.64 289 169 C287.91 172.81 287.52 176.69 287.06 180.62 C284.88 196.39 281.17 210.79 272 224 C271.61 224.57 271.21 225.14 270.81 225.73 C269.54 227.55 268.25 229.34 266.94 231.12 C266.54 231.68 266.14 232.24 265.73 232.81 C262.85 236.58 260.62 237.91 256 239 C255.97 230.93 259.13 225.56 263.38 218.88 C269.07 209.71 273.03 202.24 275 191.62 C275.17 190.76 275.33 189.89 275.51 188.99 C276.99 181.25 278.44 173.5 279.69 165.72 C280 164 280 164 280.77 161.25 C281.14 156.02 279.48 151.36 278 146.38 C277.68 145.27 277.36 144.16 277.03 143.02 C268.87 115.12 257.49 81.97 231.1 65.84 C229.44 65 229.44 65 227 64 C226.56 64.66 226.13 65.33 225.68 66.01 C219.82 74.7 214.72 79.82 204.56 82.69 C197.1 83.6 191.75 82.5 184.64 79.88 C182 79 182 79 179 79 C179 78.34 179 77.68 179 77 C177.32 75.72 175.63 74.54 173.88 73.38 C167.68 69.07 161.81 63.61 160 56 C159.63 50.2 160.12 44.72 161 39 C130.45 32.05 89.3 26.35 60 41 Z " fill="#3F3652" transform="translate(221,0)"/>
<path d="M0 0 C11.7 9.94 19.94 23.18 21.52 38.73 C23 59.81 17.7 79.74 3.66 95.96 C3.01 96.68 2.36 97.39 1.69 98.12 C1.1 98.81 0.51 99.49 -0.1 100.19 C-15.53 116.97 -37 121.81 -58.56 125.48 C-61.49 125.98 -64.4 126.52 -67.31 127.12 C-66.75 127.9 -66.18 128.67 -65.6 129.46 C-64.86 130.47 -64.12 131.49 -63.38 132.5 C-63 133.01 -62.63 133.52 -62.24 134.04 C-59 138.48 -58.19 140.6 -58.31 146.12 C-62.98 149.28 -66.56 149.53 -72.1 148.8 C-83.35 146.42 -93.54 141.18 -103.69 135.94 C-104.7 135.41 -105.72 134.89 -106.77 134.35 C-107.72 133.85 -108.67 133.35 -109.65 132.83 C-110.5 132.38 -111.35 131.93 -112.23 131.47 C-114.28 130.15 -115.26 129.3 -116.31 127.12 C-116.36 124.38 -115.91 122.78 -114.04 120.73 C-112.29 119.17 -110.49 117.73 -108.62 116.31 C-108.29 116.05 -108.29 116.05 -106.59 114.72 C-95.67 106.39 -80.55 95.76 -66.31 97.12 C-65.06 101.64 -65.55 105.4 -66.25 109.94 C-66.3 110.28 -66.3 110.28 -66.55 112.04 C-66.8 113.73 -67.05 115.43 -67.31 117.12 C-54.59 120.61 -40.99 112.5 -30.2 106.45 C-13.83 96.89 -1.02 81.2 4.29 62.86 C6.82 51.77 4.52 39.38 -0.74 29.43 C-6.71 20.1 -14.6 13.57 -25.4 10.62 C-28.95 10.01 -32.4 9.84 -36 9.81 C-36.62 9.81 -37.24 9.8 -37.87 9.8 C-54.73 10.06 -67.55 21.11 -78.67 32.55 C-93.63 47.91 -109.08 55.05 -130.32 55.42 C-131.21 55.43 -132.09 55.43 -133 55.44 C-133.42 55.44 -133.42 55.44 -135.57 55.45 C-139.92 55.4 -143.36 55.15 -147.31 53.12 C-144.57 48.6 -141.32 44.84 -137.75 40.95 C-133.79 36.62 -130.01 32.06 -127.07 26.98 C-124.6 24.37 -122.02 24.3 -118.62 23.88 C-103.82 21.38 -92.4 13.04 -80.58 4.25 C-54.66 -14.94 -27.05 -20.78 0 0 Z " fill="#A579B2" transform="translate(623.3125,365.875)"/>
<path d="M0 0 C2.34 2.03 2.34 2.03 4 4 C2.65 8.41 0.81 10.43 -3 13 C-3.66 13 -4.32 13 -5 13 C-5.01 13.61 -5.03 14.22 -5.04 14.84 C-5.5 31.85 -6.31 49.44 -18.61 62.71 C-31.2 74.41 -45.13 78.67 -61.92 78.24 C-67.01 78.01 -71.33 77.08 -76 75 C-77.02 74.55 -78.05 74.1 -79.11 73.63 C-91.75 67.64 -99.43 59.67 -104.43 46.64 C-106.57 41.33 -109.05 38.66 -113.91 35.52 C-117.88 32.63 -119.85 28.31 -122 24 C-122.12 22.36 -122.18 20.71 -122.19 19.06 C-122.2 18.19 -122.22 17.31 -122.23 16.41 C-121.99 13.94 -121.57 12.88 -120 11 C-115.59 12.34 -114 13.89 -111.75 17.88 C-111.25 18.74 -110.75 19.6 -110.23 20.49 C-109.14 22.71 -108.55 24.61 -108 27 C-94.04 23.94 -80.49 20.1 -66.93 15.61 C-52.66 10.91 -38.38 6.26 -23.81 2.56 C-23.29 2.42 -23.29 2.42 -20.62 1.73 C-13.96 0.11 -6.82 -1.26 0 0 Z " fill="#403753" transform="translate(444,145)"/>
<path d="M0 0 C17.99 0.04 36.29 7.95 53.16 13.63 C65.39 17.72 77.26 21.22 90.31 20.5 C90.59 19.91 90.86 19.31 91.15 18.7 C92.25 16.62 93.41 15.02 94.94 13.25 C95.38 12.73 95.83 12.21 96.29 11.67 C96.63 11.29 96.96 10.9 97.31 10.5 C99.81 11.56 99.81 11.56 102.31 13.5 C102.87 18.97 101.72 23.03 99.69 28.06 C99.42 28.75 99.15 29.43 98.88 30.13 C96.18 36.99 93.28 43.76 90.31 50.5 C90.86 50.48 91.4 50.47 91.96 50.45 C94.45 50.39 96.95 50.35 99.44 50.31 C100.29 50.29 101.15 50.26 102.03 50.24 C107.33 50.18 110.85 50.56 115.31 53.5 C115.64 54.16 115.97 54.82 116.31 55.5 C115.19 55.39 114.07 55.29 112.91 55.18 C95.89 53.73 95.89 53.73 90.31 57.5 C88.5 59.55 88.09 60.76 87.31 63.5 C87.5 65.5 87.5 65.5 88.31 67.5 C89.03 69.48 89.7 71.48 90.31 73.5 C89.98 74.16 89.65 74.82 89.31 75.5 C85.72 75.2 84.53 74.73 82 72.06 C80.31 69.5 80.31 69.5 80.31 67.5 C79.76 67.71 79.21 67.91 78.65 68.13 C76.14 69.07 73.63 70 71.12 70.94 C70.26 71.26 69.4 71.59 68.51 71.92 C67.66 72.24 66.82 72.55 65.96 72.87 C65.19 73.16 64.42 73.45 63.62 73.74 C50.24 78.12 37.18 74.42 24.88 68.69 C13.98 62.88 6.66 52.86 2.94 41.13 C1.71 35.97 1.46 30.72 1.12 25.44 C1.04 24.29 0.96 23.13 0.88 21.95 C0.68 19.13 0.49 16.32 0.31 13.5 C-0.18 13.33 -0.67 13.16 -1.18 12.99 C-6.44 11 -6.44 11 -7.66 8.53 C-7.69 7.84 -7.72 7.15 -7.75 6.44 C-7.8 5.75 -7.86 5.05 -7.91 4.34 C-7.36 -0.22 -3.76 0.11 0 0 Z " fill="#403753" transform="translate(207.6875,147.5)"/>
<path d="M0 0 C45.21 0 90.42 0 137 0 C133.55 16.08 133.55 16.08 131.62 20.81 C131.25 21.79 130.87 22.76 130.48 23.77 C129 26 129 26 126.78 26.7 C123.63 27.04 121.2 26.68 118.11 26.04 C116.98 25.81 115.86 25.59 114.71 25.36 C113.54 25.12 112.36 24.87 111.19 24.62 C98.95 22.12 87.42 20.67 74.94 20.56 C74.21 20.56 73.49 20.55 72.74 20.54 C58.17 20.47 44.1 22.39 29.76 24.87 C28.96 25 28.16 25.14 27.34 25.28 C25.85 25.54 24.36 25.81 22.87 26.09 C18.51 26.87 14.43 27.12 10 27 C8.88 24.76 7.78 22.51 6.69 20.25 C6.38 19.64 6.07 19.02 5.75 18.39 C2.78 12.2 1.76 7.03 0 0 Z " fill="#303031" transform="translate(262,0)"/>
<path d="M0 0 C6.27 0 12.54 0 19 0 C22.69 6.43 24.89 12.54 26.75 19.69 C26.96 20.49 27.17 21.3 27.39 22.13 C30.88 36.06 32.7 52.63 26.05 65.89 C24.16 68.97 22.09 71.16 19 73 C16.55 73.35 14.45 73.52 12 73.5 C11.67 73.5 11.67 73.5 10 73.49 C1.13 73.19 -7.1 69.52 -14 64 C-18.24 59.3 -19.59 55.38 -19.54 49.13 C-18.15 41.09 -13.16 33.64 -9.05 26.68 C-4.01 18.02 -2 9.86 0 0 Z " fill="#AE7DB9" transform="translate(410,0)"/>
<path d="M0 0 C0.83 0.01 1.67 0.01 2.52 0.02 C3.42 0.02 4.32 0.02 5.25 0.03 C5.72 0.03 5.72 0.03 8.11 0.05 C9.06 0.06 10.01 0.06 10.99 0.06 C13.34 0.08 15.7 0.09 18.05 0.11 C18.1 0.5 18.1 0.5 18.36 2.44 C20.37 14.32 25.63 24.44 31.05 35.11 C31.95 36.89 32.85 38.66 33.75 40.44 C33.94 40.83 33.94 40.83 34.94 42.8 C37.23 47.58 38.96 51.73 38.05 57.11 C34.93 64.05 28.44 67.3 21.61 70.12 C13.89 72.81 5.1 74.97 -2.76 71.8 C-6.55 69.94 -8.42 68.45 -10 64.44 C-11 60.95 -11.27 57.76 -11.29 54.16 C-11.29 53.51 -11.3 52.85 -11.31 52.18 C-11.33 50.07 -11.33 47.97 -11.32 45.86 C-11.32 45.15 -11.32 44.43 -11.32 43.69 C-11.31 35.74 -10.95 0.64 0 0 Z " fill="#AE7DB9" transform="translate(233.949462890625,-0.113525390625)"/>
<path d="M0 0 C0.72 14.83 0.36 26.25 -9.41 38.26 C-17.14 46.71 -25.93 51.14 -37.34 52.22 C-49.65 52.68 -61.49 48.98 -71.13 41.3 C-75.81 36.95 -78.78 32.52 -79.19 26.06 C-79.13 25.38 -79.06 24.7 -79 24 C-76 24 -76 24 -74.03 25.93 C-73.34 26.76 -72.65 27.59 -71.94 28.44 C-68.18 32.91 -68.18 32.91 -66 34 C-66 34.66 -66 35.32 -66 36 C-52.93 36.57 -52.93 36.57 -48 33 C-46.57 31.39 -45.3 29.72 -44 28 C-43.34 28 -42.68 28 -42 28 C-41.41 25.49 -40.99 23.2 -41.06 20.62 C-41.06 17.82 -40.84 15.67 -40 13 C-33.28 7.55 -23.17 5.85 -14.94 3.69 C-13.59 3.33 -12.25 2.96 -10.91 2.6 C-1.25 0 -1.25 0 0 0 Z " fill="#DEDDDF" transform="translate(428,161)"/>
<path d="M0 0 C8.16 0.43 14.18 2.79 19.94 8.69 C22.9 12.32 24.04 15.33 24.21 20.01 C24 22 24 22 22.81 24.56 C21 26 21 26 19 26.56 C17 26 17 26 15.31 23.75 C14.21 21.45 13.46 19.49 13 17 C9.54 18.52 7.03 20.58 4.19 23.06 C-18.8 42.34 -47.7 50.18 -77.35 47.81 C-93.71 46.21 -115.29 40.98 -128 30 C-129.29 27.29 -129.29 27.29 -130 25 C-126.42 23.21 -122.8 24.11 -119 25 C-116.46 26.11 -114 27.31 -111.52 28.55 C-103.79 32.27 -95.33 34.11 -87 36 C-86.22 36.18 -85.44 36.36 -84.64 36.55 C-68.98 39.24 -49.96 38.27 -35 33 C-34.35 32.78 -33.7 32.55 -33.03 32.32 C-21.98 28.39 -11.81 23.23 -2.31 16.31 C-1.78 15.93 -1.25 15.55 -0.71 15.16 C0.76 14.05 0.76 14.05 3 12 C3 11.01 3 10.02 3 9 C0.5 6.81 0.5 6.81 -2 5 C-1.34 3.35 -0.68 1.7 0 0 Z " fill="#432D58" transform="translate(386,231)"/>
<path d="M0 0 C6.79 0.05 14.75 2.28 20.81 5.31 C21.09 7.46 21.09 7.46 21.19 10.25 C21.93 20.15 25.55 27.67 32.94 34.19 C38.41 36.33 45.09 36.48 50.56 34.12 C55.76 30.71 58.23 23.74 60.81 18.31 C66.44 18.06 66.44 18.06 69.81 20.31 C68.82 23.28 67.83 26.25 66.81 29.31 C66.15 29.31 65.49 29.31 64.81 29.31 C64.78 29.66 64.78 29.66 64.62 31.44 C62.56 38.76 56.14 42.71 49.81 46.31 C40.87 50.88 31.3 51.19 21.73 48.45 C12.79 44.98 5.19 38.44 1.05 29.71 C-2.13 22.35 -4.33 15.68 -4.31 7.62 C-4.32 7.03 -4.32 6.44 -4.32 5.83 C-4.31 0.42 -4.31 0.42 0 0 Z " fill="#DDDCDE" transform="translate(223.1875,163.6875)"/>
<path d="M0 0 C0.33 0 0.66 0 1 0 C1.13 0.49 1.27 0.99 1.4 1.5 C1.58 2.14 1.76 2.78 1.94 3.44 C2.11 4.08 2.29 4.71 2.46 5.37 C3 7 3 7 4 8 C5.35 8.23 6.7 8.41 8.06 8.56 C8.43 8.6 8.43 8.6 10.29 8.82 C10.85 8.88 11.42 8.94 12 9 C12.33 8.34 12.66 7.68 13 7 C13.12 7.28 13.12 7.28 13.74 8.69 C16.15 13.61 18.42 16.55 22.94 19.69 C29.26 24.36 31.86 30.61 34 38 C33.83 38.33 33.83 38.33 33 40 C31.88 39.99 30.76 39.98 29.61 39.96 C28.13 39.96 26.66 39.95 25.19 39.94 C24.82 39.93 24.82 39.93 22.95 39.91 C22.24 39.91 21.53 39.91 20.79 39.9 C20.47 39.9 20.47 39.9 18.81 39.89 C17 40 17 40 14 41 C12 39.62 12 39.62 10 38 C7.12 37.04 5.32 36.88 2.33 36.9 C1.44 36.91 0.55 36.91 -0.37 36.91 C-1.3 36.92 -2.23 36.93 -3.19 36.94 C-4.13 36.94 -5.07 36.95 -6.04 36.95 C-8.36 36.96 -10.68 36.98 -13 37 C-12.55 35.94 -12.11 34.87 -11.64 33.77 C-1.25 8.89 -1.25 8.89 0 0 Z " fill="#9C61A3" transform="translate(310,162)"/>
<path d="M0 0 C0.87 9.86 -1.4 18.41 -7.25 26.5 C-11.47 30.96 -17.38 33.18 -23.44 33.5 C-30.89 33.08 -37.02 30.53 -42.06 25 C-44.28 22.33 -45.25 20.35 -46 17 C-37.91 13.09 -29.44 10.17 -21 7.14 C-18.48 6.24 -15.96 5.33 -13.45 4.43 C-11.85 3.85 -10.25 3.28 -8.66 2.7 C-8.28 2.57 -8.28 2.57 -6.37 1.88 C-1.12 0 -1.12 0 0 0 Z " fill="#9F6EA9" transform="translate(446,438)"/>
<path d="M0 0 C4.87 0.91 9.46 2.1 14.09 3.88 C19.89 6.03 25.75 7.62 31.75 9.12 C33.72 9.63 35.7 10.13 37.67 10.63 C38.59 10.87 39.5 11.1 40.44 11.34 C43.65 12.17 46.82 13.07 50 14 C46.31 20.31 41.55 25.4 34.81 28.44 C28.23 29.78 20.01 30.55 13.94 27.31 C4.85 20.89 2.26 10.29 0 0 Z " fill="#9B61A3" transform="translate(226,441)"/>
<path d="M0 0 C7.03 -0.47 12.86 0.01 19.56 2 C28.18 4.52 35.93 5.51 44.34 1.66 C46 1 46 1 49 1 C50.54 2.39 50.54 2.39 52.06 4.25 C52.57 4.85 53.08 5.46 53.6 6.08 C56.58 10.17 57.23 12.91 57 18 C52.33 21.15 48.76 21.41 43.21 20.68 C31.93 18.29 21.73 13.02 11.56 7.75 C11.3 7.62 11.3 7.62 9.99 6.94 C1.18 2.36 1.18 2.36 0 0 Z " fill="#9C61A3" transform="translate(508,494)"/>
<path d="M0 0 C2.5 1 2.5 1 4.31 2.94 C7.16 10.29 5.63 17.18 2.77 24.32 C-0.02 30.21 -3.08 35.26 -8.5 39 C-11.01 38.05 -12.44 37.06 -14.25 35.06 C-16.74 28.96 -16.42 22.43 -13.88 16.38 C-5.6 0 -5.6 0 0 0 Z " fill="#87B2C4" transform="translate(543.5,138)"/>
<path d="M0 0 C1.8 2.7 2.38 3.99 3.04 7.02 C3.2 7.79 3.37 8.57 3.55 9.37 C3.72 10.18 3.89 10.98 4.06 11.81 C4.24 12.61 4.41 13.4 4.59 14.22 C6 20.78 7.16 27.11 7.2 33.84 C7.21 34.48 7.21 35.13 7.22 35.79 C7.23 37.15 7.24 38.51 7.24 39.87 C7.25 41.9 7.28 43.93 7.31 45.96 C7.41 58.44 5.48 70.29 1 82 C0.67 82 0.34 82 0 82 C0 54.94 0 27.88 0 0 Z " fill="#3E3551" transform="translate(0,265)"/>
<path d="M0 0 C0 3.67 -0.18 5.92 -2.43 8.88 C-8.09 14.3 -15.35 17.7 -23.25 18.12 C-25.7 17.88 -27.53 17.39 -29.44 15.81 C-30.48 12.46 -30.81 9.62 -29.2 6.38 C-25.4 1.12 -20.16 -0.16 -14.04 -1.4 C-8.82 -2.24 -4.65 -2.75 0 0 Z " fill="#87B2C5" transform="translate(213,285)"/>
<path d="M0 0 C-0.08 2.7 -0.56 4.48 -2.31 6.56 C-11.4 14.96 -23.61 15.4 -35.38 15.23 C-40.69 15.01 -45.2 13.8 -49 10 C-49.12 7.88 -49.12 7.88 -49 6 C-48.3 6 -47.6 5.99 -46.88 5.99 C-33.85 5.85 -21.8 5.51 -9.39 1.06 C-6.21 -0.06 -3.39 -0.2 0 0 Z " fill="#9F63A6" transform="translate(363,283)"/>
<path d="M0 0 C5.75 0.75 5.75 0.75 8 3 C8.35 5.35 8.35 5.35 8.49 8.28 C8.53 8.81 8.53 8.81 8.69 11.53 C8.81 13.76 8.93 16 9.04 18.24 C9.89 31.77 14.31 42.5 24.07 52.02 C25.68 53.41 27.3 54.74 29 56 C25.12 57.21 22.87 56.85 19.15 55.32 C9.41 49.33 4.8 36.89 2.25 26.31 C0.39 17.39 -0.14 9.13 0 0 Z " fill="#9D62A4" transform="translate(201,158)"/>
<path d="M0 0 C0.36 0 0.36 0 2.17 0.03 C2.44 0.03 2.44 0.03 3.81 0.06 C3.5 4.19 2.19 6.12 -0.93 8.8 C-1.19 9.01 -1.19 9.01 -2.5 10.06 C-3.03 10.5 -3.57 10.93 -4.12 11.38 C-9.39 15.51 -14.81 17.98 -21.19 20.06 C-21.92 20.31 -22.65 20.55 -23.4 20.8 C-28.32 22.23 -33.09 22.27 -38.19 22.06 C-32.16 11.34 -12.56 -0.21 0 0 Z " fill="#BD9DCA" transform="translate(553.1875,462.9375)"/>
<path d="M0 0 C0.05 1.75 0.09 3.5 0.12 5.25 C0.15 6.22 0.17 7.2 0.2 8.2 C-0.01 11.08 -0.28 12.68 -2 15 C-3.91 15.57 -3.91 15.57 -6.06 15.69 C-9.93 15.93 -9.93 15.93 -11 17 C-13.38 17.09 -15.72 17.12 -18.1 17.1 C-18.45 17.1 -18.45 17.1 -20.25 17.09 C-22.52 17.09 -24.79 17.08 -27.06 17.06 C-28.6 17.06 -30.14 17.05 -31.67 17.05 C-35.45 17.04 -39.22 17.02 -43 17 C-43 16.34 -43 15.68 -43 15 C-42.01 14.65 -41.02 14.3 -40.01 13.95 C-36.31 12.64 -32.61 11.34 -28.91 10.04 C-27.32 9.48 -25.72 8.91 -24.13 8.35 C-21.83 7.54 -19.52 6.73 -17.22 5.92 C-16.52 5.67 -15.81 5.42 -15.09 5.17 C-10.89 3.69 -6.72 2.15 -2.56 0.55 C-1 0 -1 0 0 0 Z " fill="#9A67A3" transform="translate(446,438)"/>
<path d="M0 0 C0.35 -0 0.35 -0 2.1 -0.01 C6.45 0.13 9.32 0.84 12.88 3.56 C13.94 5.5 13.94 5.5 13.88 7.56 C10.94 11.77 6.71 13.41 1.88 14.56 C-2.97 15.18 -7.4 15.41 -11.69 12.81 C-14.21 10.48 -14.53 9.76 -15.12 6.56 C-10.97 0.93 -6.66 -0.02 0 0 Z " fill="#8AA6BD" transform="translate(195.125,260.4375)"/>
<path d="M0 0 C11.77 0.68 22.32 6.21 31 14 C31.33 14.99 31.66 15.98 32 17 C25.09 18.58 16.4 19.79 9.94 16.31 C5.1 12.91 2.31 8.32 0 3 C0 2.01 0 1.02 0 0 Z " fill="#AC7BB7" transform="translate(230,452)"/>
<path d="M0 0 C2.88 0.62 2.88 0.62 6 2 C8.54 6.63 8.31 11.03 7 16 C5.86 18.79 4.53 21.4 3 24 C2.69 24.56 2.38 25.13 2.06 25.71 C1 27 1 27 -2 27.31 C-5 27 -5 27 -7 25 C-8.87 16.3 -4.79 8.56 -1 1 C-0.67 0.67 -0.34 0.34 0 0 Z " fill="#88A4BB" transform="translate(556,156)"/>
<path d="M0 0 C0 3.3 0 6.6 0 10 C-1.36 10.1 -2.73 10.21 -4.13 10.31 C-10.24 10.92 -16.15 12.21 -22.13 13.58 C-23.96 14 -25.79 14.42 -27.63 14.83 C-36.47 16.82 -36.47 16.82 -40 18 C-40 16.35 -40 14.7 -40 13 C-31.96 8.43 -23.8 6.01 -14.94 3.69 C-13.59 3.33 -12.25 2.96 -10.91 2.6 C-1.25 0 -1.25 0 0 0 Z " fill="#C6C5CB" transform="translate(428,161)"/>
<path d="M0 0 C0.99 0 1.98 0 3 0 C4.18 2.35 4.13 3.78 4.13 6.4 C4.14 7.29 4.14 8.17 4.14 9.09 C4.13 10.03 4.13 10.97 4.12 11.94 C4.12 12.89 4.12 13.84 4.11 14.82 C3.97 30.87 3.97 30.87 3 34 C0.95 35.77 0.95 35.77 -1 37 C-6.42 28.99 -5.84 18.86 -4.19 9.62 C-3.36 5.97 -2.44 2.93 0 0 Z " fill="#BF9DCB" transform="translate(232,15)"/>
<path d="M0 0 C1.1 0.07 2.21 0.13 3.34 0.2 C6.75 0.79 8.76 1.66 11.5 3.75 C12.44 6.81 12.44 6.81 12.5 9.75 C11.84 10.41 11.18 11.07 10.5 11.75 C6.28 11.59 3.74 11.13 0.38 8.56 C-2.5 6.75 -2.5 6.75 -5 7.31 C-5.82 7.79 -6.65 8.26 -7.5 8.75 C-11.42 10.87 -14.01 12.15 -18.5 11.75 C-18.26 5.57 -18.26 5.57 -16.27 3.43 C-11.11 -0.14 -6.18 -0.43 0 0 Z " fill="#BB9BC8" transform="translate(313.5,201.25)"/>
<path d="M0 0 C6.79 0.05 14.75 2.28 20.81 5.31 C20.48 6.3 20.15 7.29 19.81 8.31 C12.45 11.43 4.03 8.3 -3.19 6.31 C-3.57 4.66 -3.9 2.99 -4.19 1.31 C-3.19 0.31 -3.19 0.31 0 0 Z " fill="#C7C6CC" transform="translate(223.1875,163.6875)"/>
<path d="M0 0 C4.22 5.28 7 9.88 7 16.75 C5.57 19.96 3.64 21.69 1 24 C0.67 24 0.34 24 0 24 C0 16.08 0 8.16 0 0 Z " fill="#3E3550" transform="translate(0,201)"/>
<path d="M0 0 C7.07 -0.46 7.07 -0.46 10.5 1.25 C12 3 12 3 12 7 C8.7 7 5.4 7 2 7 C0 3 0 3 0 0 Z " fill="#D9D9DB" transform="translate(248,172)"/>
<path d="M0 0 C7.9 -1.03 12.61 1.52 19 6 C17 7 17 7 15.21 6.56 C14.51 6.31 13.81 6.05 13.09 5.79 C12.71 5.65 12.71 5.65 10.78 4.96 C9.99 4.66 9.19 4.37 8.38 4.06 C7.57 3.77 6.77 3.48 5.95 3.18 C3.96 2.46 1.98 1.73 0 1 C0 0.67 0 0.34 0 0 Z " fill="#4D3360" transform="translate(307,190)"/>
<path d="M0 0 C1.54 0.22 3.08 0.41 4.62 0.56 C5.44 0.65 6.26 0.73 7.1 0.82 C7.73 0.88 8.35 0.94 9 1 C8.67 1.66 8.34 2.32 8 3 C2.72 3 -2.56 3 -8 3 C-8 2.34 -8 1.68 -8 1 C-2.25 -1.12 -2.25 -1.12 0 0 Z " fill="#9965A2" transform="translate(411,452)"/>
<path d="M0 0 C-0.62 1.5 -0.62 1.5 -2 3 C-5.12 3.19 -5.12 3.19 -8 3 C-8 2.34 -8 1.68 -8 1 C-2.25 -1.12 -2.25 -1.12 0 0 Z " fill="#925F9B" transform="translate(411,452)"/>
</svg>
