<?xml version="1.0" encoding="UTF-8"?>
<!-- Generator: visioncortex VTracer 0.6.5 -->
<svg version="1.1" xmlns="http://www.w3.org/2000/svg" width="682" height="682">
<path d="M0 0 C225.06 0 450.12 0 682 0 C682 225.06 682 450.12 682 682 C456.94 682 231.88 682 0 682 C0 456.94 0 231.88 0 0 Z " fill="#303031" transform="translate(0,0)"/>
<path d="M0 0 C0.69 0 1.38 0 2.09 0 C18.48 0.06 34.67 1.62 50.44 6.31 C50.42 6.82 50.41 7.32 50.39 7.84 C50.33 10.16 50.29 12.49 50.25 14.81 C50.22 15.6 50.2 16.4 50.17 17.21 C50.06 26.49 52.86 32.55 59.21 39.27 C62.64 42.42 66.2 44.44 70.44 46.31 C71.28 46.7 72.13 47.1 73 47.5 C82.67 51.55 93.49 51.75 103.44 48.31 C110.38 45.32 112.53 38.87 115.44 32.31 C120.05 33.78 122.88 36.18 126.31 39.44 C126.84 39.93 127.37 40.43 127.92 40.94 C163.86 75.04 179 144.06 180.54 192.38 C180.53 192.79 180.53 192.79 180.5 194.88 C180.5 195.3 180.5 195.3 180.47 197.44 C180.47 197.75 180.47 197.75 180.44 199.31 C179.91 198.87 179.38 198.42 178.83 197.96 C178.12 197.4 177.42 196.83 176.69 196.25 C176.34 195.97 176.34 195.97 174.58 194.53 C172.44 193.31 172.44 193.31 170.17 193.63 C169.6 193.85 169.03 194.08 168.44 194.31 C171.67 203.1 178.42 209.44 184.75 216.12 C198.83 231.03 214.01 247.27 215 268.94 C214.57 279.8 208.58 287.72 200.93 295 C187.03 307.23 164.24 317.67 145.43 316.64 C140.32 315.8 134.63 314.7 131.44 310.31 C131.21 307.9 131.21 307.9 131.38 305.25 C131.53 302.59 131.53 302.59 131.44 300.31 C128.72 297.6 126.23 297.59 122.53 296.97 C120.44 296.31 120.44 296.31 119.19 294.98 C117.74 291.75 117.7 288.75 118.44 285.31 C119.83 283.03 121.36 281.08 123.12 279.07 C124.44 277.31 124.44 277.31 124.44 274.31 C124.01 274.02 124.01 274.02 121.88 272.56 C121.47 272.19 121.47 272.19 119.44 270.31 C119.26 265.6 120.27 262.45 123.55 258.9 C128.07 255.09 133.34 252.27 138.44 249.31 C140.45 248.14 142.46 246.97 144.46 245.79 C145.74 245.03 147.03 244.29 148.32 243.55 C152.29 241.22 155.42 238.8 158.44 235.31 C158.75 232.5 158.75 232.5 158.44 230.31 C156.22 229.6 156.22 229.6 153.44 229.31 C151.22 230.68 151.22 230.68 148.94 232.75 C145.15 235.99 141.43 238.63 137.12 241.12 C126.43 247.5 116.8 254.8 111.44 266.31 C111.1 266.94 110.77 267.57 110.42 268.22 C106.49 276.63 107.58 288 110.25 296.64 C112.53 301.77 115.93 305.99 119.44 310.31 C120.09 311.18 120.74 312.04 121.42 312.93 C123.41 315.28 125.25 316.82 127.81 318.5 C128.54 318.99 129.27 319.48 130.02 319.98 C135 322.73 139.74 323.62 145.37 323.73 C146 323.75 146.64 323.77 147.29 323.79 C149.3 323.84 151.31 323.89 153.31 323.94 C154.68 323.98 156.05 324.01 157.42 324.05 C160.76 324.15 164.1 324.23 167.44 324.31 C166.78 326.95 166.12 329.59 165.44 332.31 C164.78 332.31 164.12 332.31 163.44 332.31 C163.37 332.98 163.29 333.65 163.22 334.34 C162.16 338.37 160.17 341.45 157.94 344.94 C157.72 345.29 157.72 345.29 156.59 347.07 C153.18 352.38 149.45 357.28 145.35 362.08 C144.72 362.82 144.09 363.55 143.44 364.31 C142.89 364.93 142.35 365.54 141.78 366.18 C140.44 368.31 140.44 368.31 140.44 370.42 C140.62 371.18 140.8 371.94 140.99 372.72 C141.2 373.6 141.41 374.47 141.63 375.38 C143.15 380.9 144.83 386.36 146.56 391.81 C147.12 393.58 147.68 395.35 148.23 397.11 C148.73 398.7 149.23 400.28 149.73 401.86 C150.44 404.31 150.44 404.31 150.44 406.31 C142.91 408.13 135.99 408.5 128.28 408.06 C124.82 407.95 122.98 407.98 119.98 409.84 C117.86 413.25 117.77 416.11 117.69 420.06 C117.66 420.76 117.63 421.46 117.6 422.18 C117.53 423.89 117.48 425.6 117.44 427.31 C99.21 428.34 84.97 423.36 71.44 411.31 C69.31 409.37 67.37 407.46 65.44 405.31 C65.44 404.65 65.44 403.99 65.44 403.31 C64.97 403.41 64.97 403.41 62.61 403.9 C35.37 409.37 7.66 410.05 -20.01 408.51 C-22.49 408.38 -24.98 408.24 -27.46 408.11 C-28.27 408.07 -29.08 408.02 -29.91 407.98 C-31.52 407.89 -33.13 407.81 -34.73 407.72 C-38.4 407.53 -42.05 407.28 -45.7 406.88 C-46.34 406.82 -46.97 406.76 -47.63 406.69 C-49.32 406.51 -51.01 406.31 -52.69 406.11 C-56.42 406.37 -57.81 407.68 -60.44 410.25 C-61.52 411.57 -62.58 412.92 -63.56 414.31 C-66.24 413.09 -68.23 411.89 -70.25 409.75 C-72.56 407.31 -72.56 407.31 -73.56 406.31 C-75.35 406.4 -75.35 406.4 -77.62 406.69 C-78.44 406.78 -79.26 406.87 -80.1 406.97 C-82.56 407.31 -82.56 407.31 -84.59 407.78 C-90.19 408.97 -93.32 407.17 -98.25 404.48 C-101.3 402.94 -103.2 402.64 -106.56 403.31 C-107.81 403.95 -109.03 404.64 -110.24 405.35 C-110.86 405.71 -111.49 406.08 -112.13 406.46 C-112.37 406.6 -112.37 406.6 -113.56 407.31 C-113.77 406.29 -113.98 405.26 -114.19 404.2 C-117.15 390.5 -122.62 381.93 -132.58 372.29 C-158.17 347.35 -168.19 312.34 -174.52 278.2 C-176.25 269.11 -178.21 262.35 -184.56 255.31 C-185 254.83 -185.44 254.34 -185.89 253.84 C-188.4 251.06 -190.95 248.32 -193.51 245.6 C-214.1 223.57 -227.57 196.96 -236.56 168.31 C-236.78 167.62 -237 166.92 -237.23 166.21 C-238.43 162.28 -239.17 158.39 -239.56 154.31 C-239.64 153.47 -239.73 152.63 -239.81 151.76 C-241.23 134.49 -241.23 134.49 -237.86 128.82 C-233.58 123.78 -228.11 119.73 -221.56 118.31 C-215.43 117.93 -210.43 119.64 -205.56 123.31 C-203.77 124.91 -202.18 126.54 -200.56 128.31 C-201.84 131.25 -202.84 132.66 -205.56 134.31 C-205.75 133.96 -205.75 133.96 -206.7 132.16 C-206.96 131.7 -206.96 131.7 -208.25 129.38 C-208.75 128.46 -209.25 127.54 -209.76 126.6 C-211.56 124.31 -211.56 124.31 -214.27 123.5 C-215.03 123.44 -215.78 123.37 -216.56 123.31 C-217.36 124.25 -218.15 125.19 -218.94 126.12 C-219.38 126.65 -219.82 127.17 -220.27 127.71 C-220.7 128.24 -221.12 128.77 -221.56 129.31 C-221.94 129.77 -222.31 130.23 -222.7 130.71 C-224.6 134.24 -224.15 138.46 -223.56 142.31 C-222.21 145.04 -221.26 145.59 -218.56 147.31 C-213.21 148.09 -210.17 147.01 -205.56 144.31 C-205.23 144.97 -205.23 144.97 -203.56 148.31 C-199.72 146.21 -196.94 143.86 -193.94 140.69 C-189.89 136.42 -189.89 136.42 -186.56 135.31 C-184.17 140.02 -184.32 144.35 -184.25 149.5 C-183.61 167.8 -177.48 192.32 -163.56 205.31 C-161.36 206.53 -161.36 206.53 -159.56 207.31 C-158.97 200.12 -160.92 195.27 -163.94 188.81 C-177.27 159.78 -165.62 121.25 -155.19 92.38 C-147.73 72.55 -135.86 47.53 -118.56 34.31 C-117.57 34.31 -116.58 34.31 -115.56 34.31 C-115.34 34.83 -115.12 35.35 -114.9 35.89 C-111.96 42.35 -108.54 46.14 -102.06 49.12 C-90.74 52.88 -79.22 50.03 -68.84 44.99 C-61.31 40.83 -55.43 35.37 -52.14 27.32 C-51.06 23.55 -51.25 19.77 -51.38 15.88 C-51.39 15.05 -51.4 14.22 -51.42 13.37 C-51.45 11.35 -51.5 9.33 -51.56 7.31 C-48.38 6.51 -45.19 5.72 -42 4.94 C-41.56 4.83 -41.56 4.83 -39.35 4.27 C-26.29 1.08 -13.41 -0.07 0 0 Z " fill="#AF7DBA" transform="translate(322.5625,234.6875)"/>
<path d="M0 0 C1.12 -0.04 2.25 -0.09 3.41 -0.13 C6.5 0.56 6.5 0.56 8.75 3.04 C10.96 6.95 11.97 11.16 13 15.5 C13.43 17.2 13.85 18.9 14.28 20.59 C14.69 22.25 15.09 23.91 15.5 25.56 C16.15 28.21 16.82 30.86 17.5 33.5 C17.77 34.58 18.04 35.66 18.31 36.78 C19.85 42.21 22.27 47.38 24.5 52.56 C25.16 52.43 25.81 52.29 26.49 52.15 C61.9 44.9 98.06 40 133.5 49.56 C136.49 50.26 139.49 50.92 142.5 51.56 C147.4 43.52 149.62 34.79 152.07 25.78 C153.03 22.24 154.01 18.71 155.03 15.19 C155.25 14.41 155.48 13.63 155.71 12.82 C157.25 8.42 159.4 3.82 163.49 1.37 C166.45 0.18 168.31 0.13 171.5 0.56 C184.4 6.32 190.88 18.08 196.12 30.5 C201.62 44.88 203.13 60.29 203.5 75.56 C205.15 76.22 206.8 76.88 208.5 77.56 C208.5 78.22 208.5 78.88 208.5 79.56 C209.06 79.64 209.62 79.73 210.2 79.81 C224.81 84.58 236.87 106.45 243.49 119.21 C263.68 159.47 273.7 203.91 278.83 248.42 C280.69 264.28 284.19 273.67 293.91 286.32 C304.12 299.79 312.74 316.14 310.5 333.56 C308.7 342.03 305.31 348.22 299.5 354.56 C298.81 355.34 298.13 356.12 297.42 356.92 C290.6 364.22 282.61 369.71 274.36 375.28 C273.74 375.7 273.13 376.13 272.5 376.56 C271.82 377.01 271.13 377.46 270.43 377.92 C268.11 379.89 267.17 381.68 265.88 384.43 C265.42 385.39 264.96 386.36 264.49 387.35 C264.02 388.37 263.55 389.39 263.06 390.44 C262.58 391.47 262.09 392.5 261.59 393.57 C258.23 400.79 255.11 408.04 252.5 415.56 C253.79 416.54 255.08 417.52 256.38 418.5 C257.09 419.05 257.81 419.59 258.55 420.15 C260.5 421.56 260.5 421.56 262.5 422.56 C262.5 423.22 262.5 423.88 262.5 424.56 C263.14 424.64 263.78 424.73 264.44 424.81 C267 425.44 268.89 426.15 271.25 427.25 C278.44 430.57 286.01 432.99 293.5 435.56 C293.48 434.97 293.47 434.39 293.45 433.78 C293.17 421.68 293.21 410.27 296.5 398.56 C296.74 397.68 296.99 396.79 297.24 395.88 C301.58 383 312.17 372 324.07 365.73 C339.8 358.12 358.39 356.75 375.07 362.23 C394.49 369.4 408 383.09 416.67 401.63 C425.95 423.35 424.7 449.07 416.25 470.81 C415.37 472.75 414.45 474.66 413.5 476.56 C413.23 477.11 412.96 477.65 412.69 478.22 C408.27 487.07 402.78 493.98 395.84 501.02 C393.5 503.56 393.5 503.56 393.5 505.56 C378.98 505.56 364.46 505.56 349.5 505.56 C351.76 498.8 351.76 498.8 353.35 496.45 C353.7 495.93 354.05 495.41 354.42 494.87 C354.8 494.34 355.17 493.8 355.56 493.25 C355.96 492.68 356.35 492.11 356.76 491.53 C359.9 487.14 363.46 483.46 367.37 479.73 C378.82 468.07 385.47 451.61 385.94 435.31 C385.43 423.5 382.08 413.95 373.49 405.61 C371.86 404.2 370.21 402.87 368.5 401.56 C368.9 402.6 369.3 403.64 369.71 404.71 C371.09 408.33 372.44 411.95 373.77 415.58 C374.35 417.17 374.96 418.75 375.57 420.32 C377.32 425.33 377.77 429.99 377.81 435.25 C377.82 435.56 377.82 435.56 377.83 437.12 C377.76 441.57 376.86 445.33 375.5 449.56 C374.84 449.56 374.18 449.56 373.5 449.56 C373.45 449.93 373.45 449.93 373.19 451.79 C371.1 460.21 362.07 468.02 354.99 472.52 C350.97 474.89 346.82 476.82 342.5 478.56 C341.94 478.79 341.38 479.02 340.81 479.25 C312.59 489.96 275.68 480.95 248.5 471.56 C248.58 472.66 248.67 473.75 248.75 474.88 C248.74 481.52 246.66 488.17 242.19 493.12 C231.3 498.95 217.64 497.84 205.62 497.88 C204.85 497.88 204.08 497.88 203.28 497.88 C185.95 497.89 167.42 497.47 154.12 484.94 C153.29 484.16 152.46 483.39 151.6 482.59 C150.22 481.26 148.85 479.92 147.5 478.56 C145.64 478.3 145.64 478.3 143.33 478.3 C142.89 478.29 142.89 478.29 140.68 478.29 C140.19 478.29 140.19 478.29 137.75 478.31 C136.73 478.32 135.71 478.32 134.65 478.32 C127.17 478.4 119.73 478.85 112.27 479.42 C99.69 480.38 87.18 480.79 74.56 480.81 C74.17 480.81 74.17 480.81 72.16 480.83 C59.66 480.89 47.82 479.64 35.5 477.56 C34.12 479.23 32.75 480.89 31.38 482.56 C30.96 483.06 30.55 483.56 30.12 484.08 C27.78 486.94 25.56 489.84 23.44 492.88 C18.45 499.53 13.08 502.97 4.89 504.43 C2.24 504.58 0.09 504.12 -2.5 503.56 C-4.21 503.47 -5.92 503.43 -7.62 503.44 C-8.1 503.44 -8.1 503.44 -10.52 503.44 C-13.52 503.56 -16.4 503.95 -19.38 504.38 C-23.95 504.82 -23.95 504.82 -26.16 503.8 C-34.2 496.42 -35.61 483.63 -37.85 473.55 C-40.98 459.56 -45.87 449.24 -57.37 440.07 C-83.33 419.23 -97.96 378.51 -102.55 346.68 C-104.53 333.23 -106.62 323.72 -116.85 314.17 C-119.77 311.32 -122.31 308.17 -124.88 305 C-125.41 304.34 -125.94 303.69 -126.49 303.01 C-150.67 272.81 -171.7 234.47 -168.5 194.56 C-166.85 183.76 -161.67 175.62 -153.29 168.81 C-146.43 164.03 -138.61 162.77 -130.4 163.84 C-121.01 165.59 -114.17 169.24 -108.22 176.7 C-104.52 180.71 -99.68 182.3 -94.5 183.56 C-94.33 182.93 -94.17 182.3 -93.99 181.65 C-84.65 146.88 -73.4 117.51 -49.59 90.08 C-49.11 89.52 -48.63 88.95 -48.13 88.37 C-46.5 86.56 -46.5 86.56 -44.44 84.62 C-38.54 78.81 -37.02 73.45 -36.05 65.52 C-35.65 62.28 -35.13 59.06 -34.63 55.84 C-34.59 55.52 -34.59 55.52 -34.35 53.92 C-31.25 33.39 -23.9 16.03 -8.61 1.8 C-5.69 0.09 -3.37 0.06 0 0 Z M32.5 65.56 C32.53 66.06 32.55 66.55 32.58 67.06 C33.09 78.24 33.34 86.97 25.55 95.76 C20.23 100.93 14.39 103.95 7.5 106.56 C7.21 106.69 7.21 106.69 5.74 107.31 C-2.59 110.35 -13.44 109.58 -21.38 105.9 C-26.43 102.72 -29.77 98.28 -31.5 92.56 C-40.26 94.06 -46.53 105.38 -51.44 112.13 C-73.34 143.26 -88.07 190.12 -86.5 228.56 C-85.87 231.53 -85.87 231.53 -84.94 234.5 C-84.77 235.04 -84.6 235.59 -84.42 236.15 C-82.65 241.56 -80.3 246.72 -77.79 251.83 C-75.58 256.54 -75.1 260.38 -75.5 265.56 C-88.19 258.64 -93.32 240.94 -97.43 227.9 C-99.57 220.46 -100.03 213.07 -100.17 205.35 C-100.27 200.98 -100.47 197.54 -102.5 193.56 C-106.34 195.66 -109.12 198.02 -112.12 201.19 C-116.17 205.45 -116.17 205.45 -119.5 206.56 C-119.83 205.9 -119.83 205.9 -121.5 202.56 C-122.35 203.06 -123.19 203.55 -124.06 204.06 C-127.81 205.9 -130.34 206.17 -134.5 205.56 C-137.91 203.39 -139.13 202.21 -140.02 198.29 C-140.42 192.27 -138.91 188.72 -135.2 184.06 C-133.26 182.35 -132.08 181.77 -129.5 181.56 C-125.54 184.75 -123.54 187.95 -121.5 192.56 C-120.67 191.9 -120.67 191.9 -116.5 188.56 C-118.91 183.1 -123.09 179.77 -128.38 177.12 C-134.49 176.02 -140.51 176.64 -145.73 180.2 C-146.31 180.65 -146.9 181.1 -147.5 181.56 C-148.23 182.05 -148.96 182.55 -149.71 183.05 C-154.12 186.78 -155.64 189.78 -156.14 195.45 C-156.61 207.21 -155.09 218.38 -151.5 229.56 C-151.23 230.4 -150.96 231.24 -150.69 232.11 C-141.21 261.06 -126.65 285.22 -105.88 307.36 C-103.37 310.05 -100.92 312.79 -98.5 315.56 C-97.97 316.17 -97.44 316.78 -96.9 317.4 C-91.86 324.21 -91.09 333.45 -89.5 341.56 C-82.07 378.86 -69.54 408.53 -43.14 436.02 C-34.9 444.87 -31.74 453.93 -29.5 465.56 C-29.1 465.26 -28.7 464.96 -28.29 464.65 C-23.92 461.73 -20.87 461.11 -15.69 461.93 C-13.46 462.58 -11.88 463.42 -9.94 464.69 C-5.94 467.23 -2.97 466.51 1.5 465.56 C9.44 463.93 9.44 463.93 12.07 465.51 C13.38 466.81 13.38 466.81 15.5 469.56 C16.1 470.16 16.7 470.76 17.31 471.38 C17.7 471.77 18.1 472.16 18.5 472.56 C20.65 471.73 22.2 470.97 23.59 469.1 C25.1 467.11 26.37 465.87 28.5 464.56 C32.84 464.06 37.06 464.61 41.38 465.12 C42.62 465.25 43.87 465.37 45.12 465.48 C47.03 465.66 48.94 465.84 50.86 466.03 C57.04 466.65 63.23 466.96 69.44 467.19 C70.36 467.23 71.29 467.27 72.24 467.31 C84.35 467.78 96.36 467.55 108.44 466.75 C108.77 466.73 108.77 466.73 110.46 466.62 C140.13 464.68 140.13 464.68 149.5 461.56 C149.63 461.86 149.63 461.86 150.32 463.36 C155.04 472.15 165.5 479.59 174.92 482.49 C182.04 484.47 189.02 485.72 196.44 485.62 C196.92 485.62 196.92 485.62 199.34 485.6 C200.05 485.59 200.77 485.57 201.5 485.56 C201.53 484.53 201.55 483.49 201.58 482.42 C201.63 481.05 201.69 479.68 201.75 478.31 C201.76 477.63 201.78 476.95 201.79 476.25 C201.95 472.91 202.25 470.96 204.04 468.09 C207.59 465.89 210.49 466.21 214.56 466.44 C221.53 466.65 227.7 466.21 234.5 464.56 C233.14 458.55 231.55 452.66 229.71 446.79 C229.39 445.76 229.07 444.74 228.74 443.69 C228.08 441.62 227.42 439.55 226.75 437.49 C226.45 436.52 226.14 435.56 225.83 434.56 C225.69 434.13 225.69 434.13 224.98 431.94 C224.29 428.54 224.8 426.63 226.68 423.75 C226.92 423.45 226.92 423.45 228.16 421.91 C228.7 421.22 229.25 420.53 229.81 419.83 C230.39 419.1 230.97 418.37 231.56 417.62 C235.7 412.33 239.71 407.03 243.25 401.31 C243.57 400.8 243.89 400.29 244.23 399.76 C246.05 396.74 247.02 394.06 247.5 390.56 C248.16 390.56 248.82 390.56 249.5 390.56 C250.16 387.92 250.82 385.28 251.5 382.56 C251.08 382.56 251.08 382.56 248.98 382.53 C245.85 382.49 242.73 382.43 239.6 382.35 C238.26 382.33 236.91 382.31 235.57 382.29 C227.5 382.2 220.64 381.74 213.5 377.56 C212.89 377.23 212.28 376.89 211.65 376.54 C203.86 372.04 196.55 361.84 193.9 353.34 C193.77 352.76 193.64 352.17 193.5 351.56 C193.32 350.8 193.14 350.04 192.96 349.26 C191.33 339.71 191.87 331.12 196.5 322.56 C196.88 321.83 197.26 321.09 197.64 320.34 C204 309.46 215.35 302.28 225.94 296 C229.12 294.11 232.01 292.21 234.79 289.76 C237.5 287.56 237.5 287.56 240.38 287.75 C241.08 288.02 241.78 288.29 242.5 288.56 C242.9 293.03 242.9 293.03 241.14 295.35 C235.58 299.95 229.72 303.59 223.44 307.12 C206.42 316.72 206.42 316.72 203.5 323.56 C203.06 326.06 203.06 326.06 203.5 328.56 C206 330.88 206 330.88 208.5 332.56 C207.91 335.68 206.98 337.41 204.94 339.81 C202.47 343.15 201.78 345.63 202.09 349.77 C202.78 352.78 203.92 353.91 206.5 355.56 C208.83 356.08 211.12 356.3 213.5 356.56 C215.5 358.56 215.5 358.56 215.55 360.8 C215.5 361.67 215.44 362.54 215.38 363.44 C215.31 368.24 215.31 368.24 217 371.06 C226.31 376.65 236.75 374.87 246.77 372.47 C265.59 367.59 284.69 357.43 295.34 340.7 C299.39 333.2 299.87 325.26 297.66 317.06 C292.51 300.55 281.33 287.03 269.11 275.15 C264.3 270.39 260.07 265.15 256 259.75 C255.31 258.84 254.62 257.92 253.91 256.98 C253.44 256.18 252.98 255.38 252.5 254.56 C252.83 253.57 253.16 252.58 253.5 251.56 C258.46 252 260.98 254.35 264.5 257.56 C264.76 249.67 263.99 242.06 262.88 234.25 C262.79 233.63 262.7 233 262.61 232.36 C255.81 184.27 244.52 122.66 203.5 91.56 C201.21 90.82 201.21 90.82 199.5 90.56 C199.32 90.97 199.32 90.97 198.4 93.05 C193.35 104.04 193.35 104.04 187.5 106.56 C175.92 110.56 164.05 109.35 153.06 104.35 C145.24 100.41 138.83 93.95 135.35 85.9 C134.25 81.59 134.28 77.61 134.38 73.19 C134.38 72.36 134.39 71.52 134.4 70.67 C134.43 68.63 134.46 66.6 134.5 64.56 C100.16 56.37 66.66 56.16 32.5 65.56 Z " fill="#3F3652" transform="translate(238.5,176.4375)"/>
<path d="M0 0 C2.35 2.12 3.57 3.9 4.69 6.86 C4.99 7.63 5.29 8.41 5.6 9.21 C5.92 10.05 6.23 10.88 6.56 11.75 C7.27 13.56 7.98 15.38 8.7 17.19 C8.89 17.67 8.89 17.67 9.83 20.07 C17.6 39.57 25.89 58.23 40 74 C40.76 74.86 41.53 75.72 42.32 76.61 C44.53 79.08 46.76 81.54 49 84 C53.19 88.61 57.19 93.37 61.06 98.25 C61.26 98.49 61.26 98.49 62.27 99.73 C69.41 108.87 72.95 119.28 76.1 130.27 C81.78 149.94 89.2 168.77 102 185 C102.37 185.48 102.75 185.97 103.13 186.47 C111.72 197.54 123.27 211.42 137 216 C137 216.66 137 217.32 137 218 C137.32 218.12 137.32 218.12 138.94 218.75 C141.37 219.74 143.74 220.79 146.12 221.88 C150.35 223.76 154.62 225.41 158.99 226.94 C160.88 227.61 162.77 228.28 164.65 228.98 C172.1 231.63 179.41 233.15 187.22 234.33 C189.17 234.62 191.12 234.93 193.07 235.24 C197.04 235.87 201.02 236.44 205 237 C205.68 237.1 206.36 237.19 207.06 237.29 C218.1 238.83 228.98 239.37 240.12 239.31 C240.93 239.31 241.73 239.31 242.56 239.31 C255.9 239.26 268.87 238.55 282 236 C282.88 235.83 283.77 235.66 284.68 235.48 C312.47 229.88 343.02 218.44 359.94 194.22 C361.39 191.85 362.73 189.47 364 187 C364.4 186.33 364.8 185.66 365.21 184.96 C366 183 366 183 365.96 181.14 C364.48 177.83 362.09 175.42 359.69 172.75 C352.72 164.72 349.44 158.83 349 148 C350.91 150.37 352.8 152.74 354.65 155.16 C361.12 163.62 367.47 170.96 378 174 C380.34 174.22 382.59 174.37 384.93 174.41 C385.56 174.43 386.2 174.45 386.85 174.47 C388.86 174.53 390.87 174.58 392.88 174.62 C394.24 174.66 395.61 174.7 396.98 174.74 C400.32 174.84 403.66 174.92 407 175 C406.34 177.64 405.68 180.28 405 183 C404.34 183 403.68 183 403 183 C402.93 183.67 402.86 184.34 402.78 185.02 C401.72 189.05 399.73 192.14 397.5 195.62 C397.28 195.98 397.28 195.98 396.15 197.76 C392.74 203.07 389.01 207.97 384.91 212.77 C384.28 213.5 383.65 214.24 383 215 C382.45 215.62 381.91 216.23 381.35 216.86 C380 219 380 219 380 221.1 C380.18 221.86 380.37 222.62 380.55 223.41 C380.76 224.28 380.97 225.16 381.19 226.07 C382.71 231.58 384.39 237.05 386.12 242.5 C386.68 244.27 387.24 246.03 387.8 247.8 C388.29 249.38 388.8 250.96 389.3 252.54 C390 255 390 255 390 257 C382.47 258.82 375.55 259.18 367.84 258.75 C364.38 258.64 362.54 258.66 359.54 260.52 C357.42 263.93 357.33 266.8 357.25 270.75 C357.22 271.45 357.19 272.14 357.16 272.86 C357.09 274.57 357.04 276.29 357 278 C338.78 279.02 324.53 274.05 311 262 C308.87 260.06 306.93 258.14 305 256 C305 255.34 305 254.68 305 254 C304.53 254.1 304.53 254.1 302.17 254.59 C274.93 260.06 247.22 260.73 219.55 259.2 C217.07 259.06 214.59 258.93 212.1 258.8 C211.29 258.76 210.48 258.71 209.65 258.67 C208.04 258.58 206.44 258.49 204.83 258.41 C201.16 258.21 197.52 257.97 193.86 257.57 C193.23 257.51 192.59 257.44 191.93 257.38 C190.24 257.2 188.56 257 186.87 256.8 C183.15 257.06 181.75 258.37 179.12 260.94 C178.04 262.26 176.98 263.6 176 265 C173.33 263.77 171.34 262.58 169.31 260.44 C167 258 167 258 166 257 C164.21 257.09 164.21 257.09 161.94 257.38 C161.12 257.47 160.3 257.56 159.46 257.66 C157 258 157 258 154.98 258.47 C149.37 259.66 146.24 257.86 141.32 255.16 C138.26 253.63 136.36 253.33 133 254 C131.75 254.64 130.53 255.32 129.32 256.04 C128.7 256.4 128.08 256.77 127.43 257.14 C127.2 257.29 127.2 257.29 126 258 C125.79 256.97 125.58 255.95 125.37 254.89 C122.41 241.18 116.95 232.62 106.98 222.97 C81.39 198.03 71.38 163.03 65.05 128.89 C63.31 119.8 61.35 113.04 55 106 C54.56 105.51 54.12 105.03 53.67 104.52 C51.16 101.75 48.62 99.01 46.05 96.29 C23.8 72.49 -0.92 33.72 0 0 Z " fill="#9E62A5" transform="translate(83,384)"/>
<path d="M0 0 C0.62 2.75 0.62 2.75 0 6 C-2.95 8.9 -6.31 11.15 -10 13 C-10.35 14.76 -10.35 14.76 -10.49 17.05 C-10.52 17.47 -10.52 17.47 -10.68 19.59 C-10.75 20.49 -10.81 21.39 -10.88 22.31 C-12.39 39.68 -18.34 53.52 -32 65 C-38.48 69.71 -45.42 72.54 -53 75 C-53.5 75.16 -53.5 75.16 -56 76 C-73.32 77.03 -87.57 72.19 -100.62 60.69 C-103.3 57.89 -105.29 54.64 -107.39 51.41 C-111.4 45.41 -115.85 40.02 -121 35 C-126.58 29.16 -129.54 24.06 -129.4 15.77 C-129 14 -129 14 -126.5 12 C-125.68 11.67 -124.85 11.34 -124 11 C-120.64 14.72 -118.75 18.48 -116.83 23.11 C-116 25 -116 25 -115 26 C-106.39 27.59 -97.96 23.66 -90 20.88 C-88.43 20.34 -86.86 19.8 -85.29 19.27 C-81.08 17.83 -76.87 16.38 -72.66 14.92 C-65.34 12.39 -58.01 9.87 -50.68 7.36 C-48.06 6.46 -45.43 5.55 -42.81 4.63 C-7.56 -7.56 -7.56 -7.56 0 0 Z " fill="#403753" transform="translate(442,352)"/>
<path d="M0 0 C0.38 0.1 0.38 0.1 2.29 0.59 C18.42 4.88 33.79 11.3 49.23 17.55 C61.18 22.39 73.17 26.85 85.5 30.62 C85.5 29.96 85.5 29.31 85.5 28.62 C86.16 28.62 86.82 28.62 87.5 28.62 C87.77 27.88 88.04 27.14 88.31 26.38 C89.44 23.76 90.71 21.82 92.5 19.62 C95.37 20.2 96.36 20.49 98.5 22.62 C98.34 30.96 93.49 39.96 90.5 47.62 C91.03 47.48 91.55 47.34 92.09 47.19 C98.61 45.46 103.92 44.66 110.07 48.04 C112.28 49.5 114.41 51.01 116.5 52.62 C115.84 52.95 115.84 52.95 112.5 54.62 C112.83 55.62 112.83 55.62 114.5 60.62 C113.68 60.47 112.85 60.31 112 60.14 C108.17 59.51 104.38 59.4 100.5 59.38 C99.81 59.35 99.13 59.33 98.42 59.31 C93.58 59.28 90.7 60.25 86.5 62.62 C85.84 62.62 85.18 62.62 84.5 62.62 C83.25 67.12 83.25 67.12 84.44 69.5 C85.99 72.61 85.63 75.18 85.5 78.62 C82.41 78.29 80.91 78.07 78.75 75.75 C77.5 73.62 77.5 73.62 76.5 70.62 C72.64 71.25 69.48 72.44 65.94 74.06 C52.49 79.7 39.58 79.64 26.06 74.38 C11.94 67.85 4.05 56.79 -1.5 42.62 C-2.44 39.48 -2.67 36.55 -2.78 33.27 C-2.82 32.26 -2.86 31.24 -2.89 30.2 C-2.97 28.06 -3.04 25.92 -3.11 23.78 C-3.14 22.77 -3.18 21.75 -3.22 20.71 C-3.25 19.78 -3.28 18.86 -3.31 17.9 C-3.5 15.62 -3.5 15.62 -4.5 13.62 C-5.49 13.3 -6.48 12.96 -7.5 12.62 C-7.5 11.96 -7.5 11.31 -7.5 10.62 C-8.82 9.96 -10.14 9.31 -11.5 8.62 C-11.99 2.19 -11.99 2.19 -9.95 -0.19 C-6.4 -1.91 -3.64 -0.99 0 0 Z " fill="#403753" transform="translate(203.5,350.375)"/>
<path d="M0 0 C0 0.66 0 1.32 0 2 C0.58 2.1 1.17 2.21 1.77 2.32 C9.84 4.79 17.13 14.67 21 21.85 C22.01 23.88 22.95 25.93 23.88 28 C24.02 28.32 24.02 28.32 24.74 29.94 C28.49 38.88 29.34 47.75 29.25 57.38 C29.25 57.88 29.25 57.88 29.23 60.45 C28.83 88.18 16.06 106.36 -3.1 125.04 C-5 127 -5 127 -6 129 C-11.61 129 -17.22 129 -23 129 C-19.21 122.69 -15.32 117 -10.5 111.44 C-2.6 102.27 3.4 93.18 8 82 C8.34 81.21 8.69 80.43 9.04 79.62 C13.91 66.55 11.89 49.8 7 37 C4.24 31.12 0.89 26.26 -4 22 C-4.76 21.32 -5.53 20.64 -6.31 19.94 C-14.77 13.84 -22.63 12.09 -33 13 C-40.46 14.87 -48.25 18.86 -52.59 25.39 C-59.38 37.93 -58.73 49.16 -57 63 C-63.27 63 -69.54 63 -76 63 C-79.3 50.76 -81 38.35 -77 26 C-76.74 25.18 -76.49 24.36 -76.22 23.52 C-73.96 17.12 -70.8 12.74 -66 8 C-65.63 7.62 -65.63 7.62 -63.78 5.68 C-46.57 -11.25 -20.39 -10.16 0 0 Z " fill="#AB84BA" transform="translate(622,553)"/>
<path d="M0 0 C7.3 6.18 10.33 17.25 11.82 26.44 C12.32 35.69 9.17 44.63 3.19 51.56 C-11.11 65.86 -31.71 68.19 -51.12 68.38 C-59 68.34 -66.2 67.99 -73.76 65.62 C-75.96 64.94 -78.18 64.3 -80.4 63.67 C-88.47 61.33 -96.54 58.96 -104.37 55.9 C-106.56 55.06 -106.56 55.06 -108.63 54.54 C-110.7 53.94 -111.93 53.47 -113.56 52.06 C-117.06 45.34 -118.69 37.98 -118.81 30.44 C-118.84 29.5 -118.86 28.56 -118.89 27.59 C-118.56 25.06 -118.56 25.06 -117.3 23.16 C-115.56 22.06 -115.56 22.06 -113.74 22.35 C-111.3 23.15 -109.19 24.2 -106.93 25.43 C-106.04 25.9 -105.15 26.38 -104.23 26.87 C-102.39 27.86 -100.55 28.85 -98.71 29.85 C-89.37 34.83 -79.79 38.43 -69.75 41.75 C-68.84 42.06 -67.92 42.36 -66.98 42.68 C-66.09 42.98 -65.21 43.27 -64.29 43.57 C-63.9 43.71 -63.9 43.71 -61.9 44.37 C-50.26 47.82 -33.82 48.45 -22.65 43.25 C-21.96 42.86 -21.27 42.47 -20.56 42.06 C-20.22 41.88 -20.22 41.88 -18.5 40.96 C-12.69 37.4 -10.56 32.33 -8.62 26 C-8.55 22.64 -9.31 20.65 -10.77 17.68 C-11.56 16.06 -11.56 16.06 -12.56 13.06 C-15 11.94 -15 11.94 -17.56 11.06 C-17.89 10.9 -17.89 10.9 -19.56 10.06 C-19 6.56 -17.91 5.11 -15.19 2.88 C-14.58 2.37 -13.98 1.86 -13.35 1.33 C-9.18 -1.63 -4.7 -1.72 0 0 Z " fill="#A572B0" transform="translate(595.5625,578.9375)"/>
<path d="M0 0 C5.93 1.62 9.86 5.53 13.03 10.67 C18.12 19.64 21.84 28.91 24 39 C24.18 39.8 24.35 40.6 24.53 41.42 C25.97 48.53 26.33 55.39 26.31 62.62 C26.33 63.69 26.34 64.76 26.36 65.86 C26.37 73.43 25.95 81.23 20.5 87 C14.92 91.47 6.84 90.75 0 90 C-8.59 88.25 -17.02 84.79 -22.11 77.38 C-24.63 72.58 -24.29 68.14 -23 63 C-20.82 56.32 -17.63 50.28 -14.28 44.14 C-9.41 35.21 -5.97 26.97 -4 17 C-3.86 16.32 -3.72 15.64 -3.58 14.93 C-3.02 12.21 -2.46 9.48 -1.95 6.75 C-1.1 2.2 -1.1 2.2 0 0 Z " fill="#AE7CB9" transform="translate(405,186)"/>
<path d="M0 0 C3.83 8.56 5.74 17.2 7.54 26.37 C9.16 33.98 11.75 39.54 16 46 C17.64 48.88 19.2 51.81 20.75 54.75 C21.14 55.47 21.52 56.18 21.92 56.92 C26.12 64.84 26.12 64.84 27 69 C24.67 75.54 18.96 80.71 13 84 C4.33 87.83 -6.12 90.8 -15.5 88 C-18.82 86.43 -20.7 84.7 -22.25 81.37 C-28.53 61.42 -25.25 35.48 -16 17 C-6.44 0 -6.44 0 0 0 Z " fill="#AE7DB9" transform="translate(238,187)"/>
<path d="M0 0 C3.04 9.13 -0.21 17.41 -4.32 25.64 C-10.94 37.42 -20.31 44.49 -33.07 48.68 C-46.79 50.96 -58.91 47.48 -70.07 39.52 C-74.02 36.33 -77.79 32.63 -80 28 C-79.81 25.06 -79.81 25.06 -79 23 C-75.3 23.6 -73.35 25.21 -70.5 27.56 C-65.52 31.14 -61.73 31.94 -55.64 31.55 C-51.5 30.68 -50.36 29.51 -48 26 C-46.14 22.84 -45 20.05 -44.3 16.49 C-43.44 13.48 -43.17 13.11 -40.4 11.25 C-39.26 10.8 -38.1 10.39 -36.94 10 C-36.3 9.77 -35.67 9.54 -35.02 9.3 C-8.69 0 -8.69 0 0 0 Z " fill="#DEDEDF" transform="translate(420,368)"/>
<path d="M0 0 C3.13 -0.1 5.55 -0.02 8.44 1.19 C12.31 2.73 16.2 4.17 20.12 5.56 C20.71 5.77 21.3 5.98 21.9 6.2 C25.59 7.51 29.28 8.77 33 10 C33.17 11.06 33.34 12.12 33.52 13.22 C36.76 32.52 36.76 32.52 44.37 38.15 C47.29 39.67 49.89 39.7 53 39 C62.42 35.67 68.76 28.47 75 21 C76 23 76 23 75.43 25.1 C71.21 35.81 65.12 43.8 54.56 48.88 C50.28 50.32 45.91 50.28 41.44 50.31 C41.08 50.32 41.08 50.32 39.25 50.33 C29.05 50.19 18.57 46.46 11.21 39.25 C3.11 30.44 -1.1 19.67 -0.96 7.65 C-0.73 5.08 -0.43 2.55 0 0 Z " fill="#DDDDDF" transform="translate(210,368)"/>
<path d="M0 0 C4.87 -0.39 7.74 -0.19 11.65 2.81 C16.56 7.14 18.44 11.56 19 18 C18.38 20.94 18.38 20.94 17 23 C14.88 24.31 14.88 24.31 13 25 C12.34 24.18 12.34 24.18 9 20 C5.27 21.16 1.86 22.5 -1.64 24.26 C-17.71 32.28 -35.18 37.78 -53 40 C-53.91 40.13 -54.81 40.26 -55.75 40.39 C-68.76 41.93 -83.27 42.33 -96 39 C-96.6 38.85 -97.2 38.7 -97.82 38.54 C-110.31 35.42 -110.31 35.42 -116 33 C-116 32.34 -116 31.68 -116 31 C-116.91 30.73 -117.81 30.46 -118.75 30.19 C-122 29 -122 29 -123.88 27.5 C-126.36 25.75 -128.27 25.32 -131.25 24.81 C-131.7 24.73 -131.7 24.73 -133.95 24.33 C-134.63 24.22 -135.3 24.11 -136 24 C-137 21 -137 21 -136.4 19.13 C-134.11 14.65 -132.04 11.08 -128 8 C-124.75 7.62 -124.75 7.62 -122 8 C-121.67 8.33 -121.34 8.66 -121 9 C-121.16 10.4 -121.33 11.79 -121.5 13.19 C-121.51 16.14 -121.44 17.49 -119.49 19.75 C-99.62 33.8 -71.52 33.13 -48.62 29.38 C-34.73 26.9 -21.65 22.59 -8.56 17.38 C-7.86 17.1 -7.15 16.82 -6.43 16.54 C-1.85 14.63 1.69 12.61 4 8 C3.36 7.75 2.72 7.5 2.06 7.25 C0 6 0 6 -0.81 4 C-1 2 -1 2 0 0 Z " fill="#432D57" transform="translate(377,436)"/>
<path d="M0 0 C0.33 0 0.66 0 1 0 C1.84 11.98 -0.41 19.3 -8.44 28.56 C-22.32 43.58 -45.65 53.59 -66 54.44 C-71.08 54.16 -76.57 52.88 -80.64 49.73 C-82 48 -82 48 -82.07 45.74 C-81.95 44.94 -81.82 44.14 -81.69 43.31 C-81.57 42.5 -81.45 41.7 -81.32 40.86 C-81.22 40.25 -81.11 39.63 -81 39 C-80.69 39 -80.69 39 -79.1 38.99 C-53.44 38.7 -28.01 33.91 -8.66 15.81 C-4.03 10.99 -1.48 6.52 0 0 Z " fill="#9D62A4" transform="translate(536,497)"/>
<path d="M0 0 C0.99 0 1.98 0 3 0 C12.49 29.44 22.5 63.23 22.06 94.56 C22.05 95.41 22.04 96.26 22.04 97.13 C22.02 97.75 22.01 98.36 22 99 C21.47 98.56 20.94 98.11 20.39 97.65 C19.68 97.09 18.98 96.52 18.25 95.94 C17.55 95.37 16.86 94.8 16.14 94.21 C14 93 14 93 11.86 93.19 C10 94 10 94 8 96 C7.94 95.25 7.87 94.5 7.8 93.72 C7.48 89.92 7.14 86.11 6.81 82.31 C6.75 81.59 6.69 80.87 6.62 80.12 C5.75 70.09 4.82 60.07 3.86 50.05 C3.69 48.26 3.52 46.47 3.34 44.68 C2.4 34.85 2.4 34.85 1.97 30.4 C1.64 27.02 1.31 23.65 0.99 20.28 C0.94 19.77 0.94 19.77 0.69 17.23 C0.14 11.47 -0.13 5.79 0 0 Z " fill="#9D62A4" transform="translate(481,335)"/>
<path d="M0 0 C0.74 0.65 1.47 1.31 2.23 1.98 C5.06 4.04 5.94 4.48 9.31 4.25 C10.01 4.21 10.71 4.18 11.43 4.14 C11.95 4.09 12.46 4.05 13 4 C13.33 3.34 13.66 2.68 14 2 C14.98 3.27 15.96 4.54 16.94 5.81 C17.48 6.52 18.03 7.23 18.59 7.96 C20 10 20 10 21 13 C22.32 13.69 23.66 14.35 25 15 C29.94 19.62 33.35 24.81 36 31 C31.7 32.65 27.74 33.36 23.15 33.75 C21.03 34 19.06 34.44 17 35 C15.24 32.68 15 32.09 15 29 C15.66 28.34 16.32 27.68 17 27 C11.92 22.58 7.74 20.94 1 21 C-1.71 21.2 -4.31 21.56 -7 22 C-6.36 16.88 -4.8 12.42 -2.94 7.62 C-2.66 6.89 -2.37 6.15 -2.08 5.39 C-1.39 3.59 -0.7 1.8 0 0 Z " fill="#9C61A3" transform="translate(301,376)"/>
<path d="M0 0 C5.2 4.4 9.04 12.39 10.44 19.06 C10.01 21.29 10.01 21.29 9.44 23.06 C9.05 22.73 8.65 22.4 8.25 22.06 C5.9 20.76 4.09 20.99 1.44 21.06 C1.01 21.97 0.59 22.87 0.15 23.8 C-5.14 34.59 -5.14 34.59 -9.5 36.38 C-10.01 36.49 -10.01 36.49 -12.56 37.06 C-12.42 36.74 -12.42 36.74 -11.69 35.12 C-7.68 24.22 -7.68 24.22 -9.88 19.19 C-10.43 18.14 -10.99 17.1 -11.56 16.06 C-11.89 15.07 -12.22 14.08 -12.56 13.06 C-15 11.94 -15 11.94 -17.56 11.06 C-18.22 10.73 -18.88 10.4 -19.56 10.06 C-19 6.56 -17.91 5.11 -15.19 2.88 C-14.58 2.37 -13.98 1.86 -13.35 1.33 C-9.18 -1.63 -4.7 -1.72 0 0 Z " fill="#9C61A3" transform="translate(595.5625,578.9375)"/>
<path d="M0 0 C-0.64 0.66 -1.29 1.33 -1.95 2.01 C-4.65 5.38 -4.66 8.63 -4.75 12.81 C-4.76 13.16 -4.76 13.16 -4.84 14.91 C-4.91 16.61 -4.96 18.3 -5 20 C-11.48 20.36 -17.53 19.9 -23.88 18.62 C-24.5 18.5 -25.13 18.37 -25.78 18.24 C-29.36 17.48 -32.65 16.46 -36 15 C-27.2 5.02 -13.32 -1.05 0 0 Z " fill="#AD7CB8" transform="translate(445,642)"/>
<path d="M0 0 C2 1 2 1 2.62 2.78 C3.01 5.08 3.11 7.21 3.1 9.55 C3.09 10.39 3.09 11.24 3.09 12.11 C3.08 12.98 3.07 13.85 3.06 14.75 C3.06 15.64 3.05 16.53 3.05 17.44 C3.04 19.63 3.02 21.81 3 24 C0.27 24.09 -2.46 24.14 -5.19 24.19 C-5.96 24.21 -6.73 24.24 -7.52 24.26 C-12.11 24.32 -15.4 24.21 -19 21 C-19.93 18.52 -19.93 18.52 -20.31 15.81 C-20.45 14.91 -20.59 14.01 -20.74 13.08 C-20.82 12.39 -20.91 11.71 -21 11 C-20.01 10.34 -19.02 9.68 -18 9 C-17.34 10.32 -16.68 11.64 -16 13 C-12.16 10.89 -9.34 8.53 -6.31 5.38 C-2.19 1.1 -2.19 1.1 0 0 Z " fill="#9C62A3" transform="translate(135,370)"/>
<path d="M0 0 C0.66 0.33 0.66 0.33 4 2 C4 2.66 4 3.32 4 4 C4.64 4.12 5.28 4.25 5.94 4.38 C6.62 4.58 7.3 4.79 8 5 C9.22 7.45 9.14 9.1 9.18 11.84 C9.63 32.92 9.63 32.92 14 41 C14.47 41.88 14.94 42.75 15.42 43.66 C19.18 50.24 23.55 55.75 29 61 C21.17 60.25 16.54 56.22 11.67 50.38 C1.67 36.12 1.35 16.73 0 0 Z " fill="#9B61A2" transform="translate(192,359)"/>
<path d="M0 0 C-0.26 3.13 -0.76 4.72 -2.81 7.12 C-11.84 13.45 -25.3 12.96 -35.81 11.65 C-39.87 10.86 -42.94 9.93 -46 7 C-45.67 6.01 -45.34 5.02 -45 4 C-35.07 2.85 -25.14 1.79 -15.19 0.88 C-14.25 0.79 -13.32 0.7 -12.35 0.61 C-11.47 0.53 -10.58 0.45 -9.67 0.37 C-8.89 0.3 -8.11 0.23 -7.3 0.15 C-4.86 -0.01 -2.44 -0.03 0 0 Z " fill="#9F63A6" transform="translate(345,485)"/>
<path d="M0 0 C2.64 0.28 4.5 0.65 6.69 2.19 C10.58 7.56 10.52 13.6 10 20 C9.5 22.44 8.82 24.64 8 27 C7.34 27 6.68 27 6 27 C6 27.66 6 28.32 6 29 C3.69 28.67 1.38 28.34 -1 28 C-3.94 21.72 -6.29 16 -5 9 C-3.8 5.81 -2.44 2.44 0 0 Z " fill="#86B1C4" transform="translate(218,644)"/>
<path d="M0 0 C5.08 1.86 8 3.27 11 8 C12.45 11.67 11.59 13.9 10.19 17.5 C9.83 18.44 9.47 19.38 9.11 20.34 C8.16 22.62 7.14 24.81 6 27 C2.4 27.33 0.62 27.47 -2.31 25.25 C-5.82 20.57 -5.64 14.63 -5 9 C-3.84 5.78 -2.45 2.45 0 0 Z " fill="#89A6BD" transform="translate(241,646)"/>
<path d="M0 0 C1.32 3.95 1.09 7.89 1 12 C0.83 11.67 0.83 11.67 0 10 C-13.42 10.97 -25.91 13.78 -38.83 17.48 C-41 18 -41 18 -44 18 C-43.88 15.68 -43.88 15.68 -43 13 C-40.92 11.71 -39.27 10.93 -37 10.12 C-36.36 9.88 -35.72 9.64 -35.07 9.39 C-9.24 0 -9.24 0 0 0 Z " fill="#C6C5CB" transform="translate(420,368)"/>
<path d="M0 0 C0.34 -0 0.34 -0 2.06 -0 C7.17 0.11 11.27 1.07 15.88 3.38 C15.12 9.12 15.12 9.12 12.88 11.38 C8.32 10.82 8.32 10.82 6.88 9.38 C5.1 9.22 3.31 9.12 1.53 9.06 C0.45 9.02 -0.63 8.97 -1.74 8.93 C-2.31 8.91 -2.31 8.91 -5.19 8.81 C-6.33 8.77 -7.47 8.73 -8.64 8.68 C-11.47 8.58 -14.3 8.47 -17.12 8.38 C-16.29 4.53 -16.29 4.53 -14.84 3.11 C-9.94 0.4 -5.49 0.01 0 0 Z " fill="#BD9DCA" transform="translate(304.125,408.625)"/>
<path d="M0 0 C3.49 0.49 5.35 1.28 8.12 3.44 C10.45 6.65 10.38 9.55 10.12 13.44 C8.33 15.23 5.73 14.65 3.31 14.69 C2.25 14.71 1.2 14.74 0.11 14.77 C-3.17 14.41 -4.48 13.64 -6.88 11.44 C-5.86 0.89 -5.86 0.89 0 0 Z " fill="#89A6BD" transform="translate(449.875,648.5625)"/>
<path d="M0 0 C0.99 0.33 1.98 0.66 3 1 C3.05 5.22 3.09 9.43 3.11 13.65 C3.12 15.09 3.13 16.52 3.15 17.96 C3.18 20.02 3.19 22.08 3.2 24.14 C3.21 24.79 3.22 25.43 3.23 26.09 C3.23 28.57 3.16 30.62 2.18 32.93 C1 34 1 34 -2 34 C-5.71 21.94 -3.86 11.66 0 0 Z " fill="#BF9ECC" transform="translate(222,220)"/>
<path d="M0 0 C6.51 0.3 10.72 3.12 15.79 7.04 C15.13 7.37 15.13 7.37 11.79 9.04 C11.79 9.7 11.79 10.36 11.79 11.04 C4.2 10.05 -3.39 9.06 -11.21 8.04 C-12.21 5.04 -12.21 5.04 -11.77 2.91 C-9.95 0.73 -9.38 0.65 -6.65 0.23 C-4.43 0.07 -2.22 0.04 0 0 Z " fill="#784F87" transform="translate(304.2109375,395.9609375)"/>
<path d="M0 0 C5.6 0 5.6 0 8.44 1.19 C12.31 2.73 16.2 4.17 20.12 5.56 C20.71 5.77 21.3 5.98 21.9 6.2 C25.59 7.51 29.28 8.77 33 10 C31.48 11.78 30.5 12.87 28.2 13.47 C22.48 13.56 17.95 11.98 12.76 9.79 C8.22 7.93 4.84 7.53 0 8 C-0.33 8.99 -0.66 9.98 -1 11 C-0.67 7.37 -0.34 3.74 0 0 Z " fill="#C3C2C9" transform="translate(210,368)"/>
<path d="M0 0 C7.21 -0.62 7.21 -0.62 10 1.56 C11.69 5.67 11.69 9.33 10 13.44 C9.67 13.95 9.34 14.47 9 15 C7.19 14.81 7.19 14.81 5 14 C1.66 9.89 0.94 5.07 0 0 Z " fill="#92A3BC" transform="translate(463,647)"/>
<path d="M0 0 C2.3 2.3 2.72 3.79 3.62 6.88 C3.89 7.74 4.15 8.6 4.41 9.49 C4.95 11.78 5.12 13.67 5 16 C3.89 16.06 2.77 16.12 1.62 16.19 C1.31 16.2 1.31 16.2 -0.27 16.29 C-2 16 -2 16 -3.2 14.73 C-4.66 11.57 -4.57 8.4 -4 5 C-2.87 2.94 -1.68 1.68 0 0 Z " fill="#95A6BF" transform="translate(445,515)"/>
<path d="M0 0 C2.38 0.69 2.38 0.69 5 2 C6.31 4.62 6.31 4.62 7 7 C3.55 10.94 3.55 10.94 0.75 11.25 C0.17 11.17 -0.41 11.09 -1 11 C-2.23 4.6 -2.23 4.6 -1.06 1.56 C-0.71 1.05 -0.36 0.53 0 0 Z " fill="#BE9DCB" transform="translate(227,205)"/>
<path d="M0 0 C-3.7 9.08 -3.7 9.08 -6.89 11.33 C-8.81 12.12 -8.81 12.12 -12 13 C-11.73 12.34 -11.46 11.68 -11.19 11 C-10.52 9.33 -9.89 7.64 -9.34 5.92 C-9.1 5.21 -8.87 4.49 -8.62 3.75 C-8.41 3.06 -8.2 2.38 -7.98 1.67 C-7 0 -7 0 -5.09 -0.8 C-3 -1 -3 -1 0 0 Z " fill="#9D6DA8" transform="translate(595,603)"/>
<path d="M0 0 C0.75 0.06 1.51 0.11 2.28 0.17 C4.5 0.81 4.5 0.81 8.5 4.81 C2.56 4.15 -3.38 3.49 -9.5 2.81 C-8.5 0.81 -8.5 0.81 -6.72 0.18 C-4.37 -0.21 -2.37 -0.22 0 0 Z " fill="#4D3360" transform="translate(306.5,396.1875)"/>
<path d="M0 0 C1.65 0 3.3 0 5 0 C6.21 4.46 6.21 4.46 5.31 6.81 C4 8 4 8 1.88 8.19 C1.26 8.13 0.64 8.06 0 8 C-0.98 4.95 -0.98 3.05 0 0 Z " fill="#BE9DCB" transform="translate(191,423)"/>
<path d="M0 0 C0.5 0.33 0.5 0.33 3 2 C3.29 4.38 3.29 4.38 3.19 7.12 C3.16 8.04 3.13 8.95 3.11 9.88 C3.07 10.58 3.04 11.28 3 12 C2.01 12 1.02 12 0 12 C0 8.04 0 4.08 0 0 Z " fill="#353046" transform="translate(574,597)"/>
</svg>
