<svg width="32" height="32" viewBox="0 0 32 32" fill="none" xmlns="http://www.w3.org/2000/svg">
<path d="M26 5H6C5.46957 5 4.96086 5.21071 4.58579 5.58579C4.21071 5.96086 4 6.46957 4 7V14C4 20.59 7.19 24.5838 9.86625 26.7738C12.7487 29.1313 15.6163 29.9313 15.7413 29.965C15.9131 30.0118 16.0944 30.0118 16.2663 29.965C16.3913 29.9313 19.255 29.1313 22.1413 26.7738C24.81 24.5838 28 20.59 28 14V7C28 6.46957 27.7893 5.96086 27.4142 5.58579C27.0391 5.21071 26.5304 5 26 5ZM26 14C26 18.6337 24.2925 22.395 20.925 25.1775C19.4591 26.3846 17.7919 27.324 16 27.9525C14.2315 27.335 12.5849 26.4123 11.135 25.2262C7.7275 22.4387 6 18.6625 6 14V7H26V14ZM10.2925 17.7075C10.1049 17.5199 9.99944 17.2654 9.99944 17C9.99944 16.7346 10.1049 16.4801 10.2925 16.2925C10.4801 16.1049 10.7346 15.9994 11 15.9994C11.2654 15.9994 11.5199 16.1049 11.7075 16.2925L14 18.5863L20.2925 12.2925C20.3854 12.1996 20.4957 12.1259 20.6171 12.0756C20.7385 12.0253 20.8686 11.9994 21 11.9994C21.1314 11.9994 21.2615 12.0253 21.3829 12.0756C21.5043 12.1259 21.6146 12.1996 21.7075 12.2925C21.8004 12.3854 21.8741 12.4957 21.9244 12.6171C21.9747 12.7385 22.0006 12.8686 22.0006 13C22.0006 13.1314 21.9747 13.2615 21.9244 13.3829C21.8741 13.5043 21.8004 13.6146 21.7075 13.7075L14.7075 20.7075C14.6146 20.8005 14.5043 20.8742 14.3829 20.9246C14.2615 20.9749 14.1314 21.0008 14 21.0008C13.8686 21.0008 13.7385 20.9749 13.6171 20.9246C13.4957 20.8742 13.3854 20.8005 13.2925 20.7075L10.2925 17.7075Z" fill="#3B0067"/>
</svg>
