<svg width="312" height="633" viewBox="0 0 312 633" fill="none" xmlns="http://www.w3.org/2000/svg" xmlns:xlink="http://www.w3.org/1999/xlink">
<g clip-path="url(#clip0_10_916)">
<path d="M311.25 257.25C311.25 258.078 310.578 258.75 309.75 258.75L307.5 258.75L307.5 184.5L309.75 184.5C310.578 184.5 311.25 185.172 311.25 186L311.25 257.25Z" fill="#F0ECE3"/>
<path opacity="0.76" d="M311.25 257.25C311.25 258.078 310.578 258.75 309.75 258.75L307.5 258.75L307.5 184.5L309.75 184.5C310.578 184.5 311.25 185.172 311.25 186L311.25 257.25Z" fill="url(#paint0_linear_10_916)"/>
<path d="M311.25 257.25C311.25 258.078 310.578 258.75 309.75 258.75L307.5 258.75L307.5 184.5L309.75 184.5C310.578 184.5 311.25 185.172 311.25 186L311.25 257.25Z" fill="url(#paint1_linear_10_916)"/>
<path opacity="0.48" d="M311.25 257.25C311.25 258.078 310.578 258.75 309.75 258.75L307.5 258.75L307.5 184.5L309.75 184.5C310.578 184.5 311.25 185.172 311.25 186L311.25 257.25Z" fill="url(#paint2_linear_10_916)"/>
<g filter="url(#filter0_f_10_916)">
<path d="M310.5 199.875C310.5 200.082 310.332 200.25 310.125 200.25C309.918 200.25 309.75 200.082 309.75 199.875L309.75 186L310.5 186L310.5 199.875Z" fill="white"/>
</g>
<g filter="url(#filter1_f_10_916)">
<path d="M310.5 254.25L309.75 254.25L309.75 186.375C309.75 186.168 309.918 186 310.125 186C310.332 186 310.5 186.168 310.5 186.375L310.5 254.25Z" fill="white" fill-opacity="0.8"/>
</g>
<g filter="url(#filter2_f_10_916)">
<path d="M311.25 255.75L310.5 255.75L310.5 184.875C310.5 184.668 310.668 184.5 310.875 184.5C311.082 184.5 311.25 184.668 311.25 184.875L311.25 255.75Z" fill="#61605D"/>
</g>
</g>
<g clip-path="url(#clip1_10_916)">
<path d="M0 113.25C0 112.422 0.671573 111.75 1.5 111.75H3.75V135H1.5C0.671573 135 0 134.328 0 133.5V113.25Z" fill="#F0ECE3"/>
<path opacity="0.76" d="M0 113.25C0 112.422 0.671573 111.75 1.5 111.75H3.75V135H1.5C0.671573 135 0 134.328 0 133.5V113.25Z" fill="url(#paint3_linear_10_916)"/>
<path d="M0 113.25C0 112.422 0.671573 111.75 1.5 111.75H3.75V135H1.5C0.671573 135 0 134.328 0 133.5V113.25Z" fill="url(#paint4_linear_10_916)"/>
<path opacity="0.48" d="M0 113.25C0 112.422 0.671573 111.75 1.5 111.75H3.75V135H1.5C0.671573 135 0 134.328 0 133.5V113.25Z" fill="url(#paint5_linear_10_916)"/>
<g filter="url(#filter3_f_10_916)">
<path d="M0.75 112.875C0.75 112.668 0.917893 112.5 1.125 112.5C1.33211 112.5 1.5 112.668 1.5 112.875V117H0.75V112.875Z" fill="white"/>
</g>
<g filter="url(#filter4_f_10_916)">
<path d="M0.75 114H1.5V133.125C1.5 133.332 1.33211 133.5 1.125 133.5C0.917893 133.5 0.75 133.332 0.75 133.125V114Z" fill="white" fill-opacity="0.8"/>
</g>
<g filter="url(#filter5_f_10_916)">
<path d="M0 111H0.75V136.125C0.75 136.332 0.582107 136.5 0.375 136.5C0.167893 136.5 0 136.332 0 136.125V111Z" fill="#61605D"/>
</g>
</g>
<g clip-path="url(#clip2_10_916)">
<path d="M0 158.25C0 157.422 0.671573 156.75 1.5 156.75H3.75V198.75H1.5C0.671573 198.75 0 198.078 0 197.25V158.25Z" fill="#F0ECE3"/>
<path opacity="0.76" d="M0 158.25C0 157.422 0.671573 156.75 1.5 156.75H3.75V198.75H1.5C0.671573 198.75 0 198.078 0 197.25V158.25Z" fill="url(#paint6_linear_10_916)"/>
<path d="M0 158.25C0 157.422 0.671573 156.75 1.5 156.75H3.75V198.75H1.5C0.671573 198.75 0 198.078 0 197.25V158.25Z" fill="url(#paint7_linear_10_916)"/>
<path opacity="0.48" d="M0 158.25C0 157.422 0.671573 156.75 1.5 156.75H3.75V198.75H1.5C0.671573 198.75 0 198.078 0 197.25V158.25Z" fill="url(#paint8_linear_10_916)"/>
<g filter="url(#filter6_f_10_916)">
<path d="M0.75 158.625C0.75 158.418 0.917893 158.25 1.125 158.25C1.33211 158.25 1.5 158.418 1.5 158.625V166.5H0.75V158.625Z" fill="white"/>
</g>
<g filter="url(#filter7_f_10_916)">
<path d="M0.75 159H1.5V197.625C1.5 197.832 1.33211 198 1.125 198C0.917893 198 0.75 197.832 0.75 197.625V159Z" fill="white" fill-opacity="0.8"/>
</g>
<g filter="url(#filter8_f_10_916)">
<path d="M0 156.75H0.75V199.875C0.75 200.082 0.582107 200.25 0.375 200.25C0.167893 200.25 0 200.082 0 199.875V156.75Z" fill="#61605D"/>
</g>
</g>
<g clip-path="url(#clip3_10_916)">
<path d="M0 213C0 212.172 0.671573 211.5 1.5 211.5H3.75V253.5H1.5C0.671573 253.5 0 252.828 0 252V213Z" fill="#F0ECE3"/>
<path opacity="0.76" d="M0 213C0 212.172 0.671573 211.5 1.5 211.5H3.75V253.5H1.5C0.671573 253.5 0 252.828 0 252V213Z" fill="url(#paint9_linear_10_916)"/>
<path d="M0 213C0 212.172 0.671573 211.5 1.5 211.5H3.75V253.5H1.5C0.671573 253.5 0 252.828 0 252V213Z" fill="url(#paint10_linear_10_916)"/>
<path opacity="0.48" d="M0 213C0 212.172 0.671573 211.5 1.5 211.5H3.75V253.5H1.5C0.671573 253.5 0 252.828 0 252V213Z" fill="url(#paint11_linear_10_916)"/>
<g filter="url(#filter9_f_10_916)">
<path d="M0.75 213.375C0.75 213.168 0.917893 213 1.125 213C1.33211 213 1.5 213.168 1.5 213.375V221.25H0.75V213.375Z" fill="white"/>
</g>
<g filter="url(#filter10_f_10_916)">
<path d="M0.75 213.75H1.5V252.375C1.5 252.582 1.33211 252.75 1.125 252.75C0.917893 252.75 0.75 252.582 0.75 252.375V213.75Z" fill="white" fill-opacity="0.8"/>
</g>
<g filter="url(#filter11_f_10_916)">
<path d="M0 211.5H0.75V254.625C0.75 254.832 0.582107 255 0.375 255C0.167893 255 0 254.832 0 254.625V211.5Z" fill="#61605D"/>
</g>
</g>
<g clip-path="url(#clip4_10_916)">
<rect x="2.25" width="306.75" height="632.25" rx="46.5" fill="#E7E3BF"/>
<g filter="url(#filter12_f_10_916)">
<rect x="3.375" y="1.125" width="304.5" height="630" rx="45.375" stroke="#C3C3C3" stroke-width="2.25"/>
</g>
<g filter="url(#filter13_f_10_916)">
<rect x="2.625" y="0.375" width="306" height="631.5" rx="46.125" stroke="#524B40" stroke-width="0.75"/>
</g>
<g filter="url(#filter14_f_10_916)">
<rect x="6.375" y="4.125" width="298.5" height="623.25" rx="46.125" stroke="white" stroke-width="0.75"/>
</g>
<rect x="6.6" y="4.35" width="298.05" height="622.8" rx="46.65" stroke="white" stroke-width="0.3"/>
<rect x="240.75" width="4.5" height="3" fill="url(#paint12_linear_10_916)"/>
<rect x="2.25" y="65.25" width="4.5" height="3" transform="rotate(-90 2.25 65.25)" fill="url(#paint13_linear_10_916)"/>
<rect x="2.25" y="567" width="3" height="4.5" fill="url(#paint14_linear_10_916)"/>
<rect x="49.5" y="629.25" width="3.75" height="3" fill="url(#paint15_linear_10_916)"/>
<rect x="306" y="567" width="3" height="4.5" fill="url(#paint16_linear_10_916)"/>
</g>
<g clip-path="url(#clip5_10_916)">
<rect x="5.25" y="3" width="300.75" height="626.25" rx="43.5" fill="#000100"/>
<g filter="url(#filter15_f_10_916)">
<rect x="6.75" y="4.5" width="297.75" height="623.25" rx="42" stroke="url(#paint17_radial_10_916)" stroke-width="3"/>
</g>
</g>
<g clip-path="url(#clip6_10_916)">
<rect x="11.25" y="9" width="277.5" height="603.75" rx="37.5" fill="#DAE2D3"/>
<rect x="11.125" y="1.625" width="290" height="630" fill="url(#pattern0_10_916)"/>
</g>
<rect x="114" y="18" width="82.5" height="23.25" rx="11.625" fill="#030303"/>
<circle cx="184.215" cy="29.7152" r="7.21516" fill="#0E0B0F"/>
<circle cx="184.215" cy="29.7152" r="4.00842" fill="#161424"/>
<circle cx="184.215" cy="29.7151" r="2.40505" fill="#0F0F2A"/>
<circle cx="184.215" cy="28.9134" r="0.801684" fill="#393752"/>
<defs>
<filter id="filter0_f_10_916" x="309" y="185.25" width="2.25" height="15.75" filterUnits="userSpaceOnUse" color-interpolation-filters="sRGB">
<feFlood flood-opacity="0" result="BackgroundImageFix"/>
<feBlend mode="normal" in="SourceGraphic" in2="BackgroundImageFix" result="shape"/>
<feGaussianBlur stdDeviation="0.375" result="effect1_foregroundBlur_10_916"/>
</filter>
<filter id="filter1_f_10_916" x="309" y="185.25" width="2.25" height="69.75" filterUnits="userSpaceOnUse" color-interpolation-filters="sRGB">
<feFlood flood-opacity="0" result="BackgroundImageFix"/>
<feBlend mode="normal" in="SourceGraphic" in2="BackgroundImageFix" result="shape"/>
<feGaussianBlur stdDeviation="0.375" result="effect1_foregroundBlur_10_916"/>
</filter>
<filter id="filter2_f_10_916" x="309" y="183" width="3.75" height="74.25" filterUnits="userSpaceOnUse" color-interpolation-filters="sRGB">
<feFlood flood-opacity="0" result="BackgroundImageFix"/>
<feBlend mode="normal" in="SourceGraphic" in2="BackgroundImageFix" result="shape"/>
<feGaussianBlur stdDeviation="0.75" result="effect1_foregroundBlur_10_916"/>
</filter>
<filter id="filter3_f_10_916" x="0" y="111.75" width="2.25" height="6" filterUnits="userSpaceOnUse" color-interpolation-filters="sRGB">
<feFlood flood-opacity="0" result="BackgroundImageFix"/>
<feBlend mode="normal" in="SourceGraphic" in2="BackgroundImageFix" result="shape"/>
<feGaussianBlur stdDeviation="0.375" result="effect1_foregroundBlur_10_916"/>
</filter>
<filter id="filter4_f_10_916" x="0" y="113.25" width="2.25" height="21" filterUnits="userSpaceOnUse" color-interpolation-filters="sRGB">
<feFlood flood-opacity="0" result="BackgroundImageFix"/>
<feBlend mode="normal" in="SourceGraphic" in2="BackgroundImageFix" result="shape"/>
<feGaussianBlur stdDeviation="0.375" result="effect1_foregroundBlur_10_916"/>
</filter>
<filter id="filter5_f_10_916" x="-1.5" y="109.5" width="3.75" height="28.5" filterUnits="userSpaceOnUse" color-interpolation-filters="sRGB">
<feFlood flood-opacity="0" result="BackgroundImageFix"/>
<feBlend mode="normal" in="SourceGraphic" in2="BackgroundImageFix" result="shape"/>
<feGaussianBlur stdDeviation="0.75" result="effect1_foregroundBlur_10_916"/>
</filter>
<filter id="filter6_f_10_916" x="0" y="157.5" width="2.25" height="9.75" filterUnits="userSpaceOnUse" color-interpolation-filters="sRGB">
<feFlood flood-opacity="0" result="BackgroundImageFix"/>
<feBlend mode="normal" in="SourceGraphic" in2="BackgroundImageFix" result="shape"/>
<feGaussianBlur stdDeviation="0.375" result="effect1_foregroundBlur_10_916"/>
</filter>
<filter id="filter7_f_10_916" x="0" y="158.25" width="2.25" height="40.5" filterUnits="userSpaceOnUse" color-interpolation-filters="sRGB">
<feFlood flood-opacity="0" result="BackgroundImageFix"/>
<feBlend mode="normal" in="SourceGraphic" in2="BackgroundImageFix" result="shape"/>
<feGaussianBlur stdDeviation="0.375" result="effect1_foregroundBlur_10_916"/>
</filter>
<filter id="filter8_f_10_916" x="-1.5" y="155.25" width="3.75" height="46.5" filterUnits="userSpaceOnUse" color-interpolation-filters="sRGB">
<feFlood flood-opacity="0" result="BackgroundImageFix"/>
<feBlend mode="normal" in="SourceGraphic" in2="BackgroundImageFix" result="shape"/>
<feGaussianBlur stdDeviation="0.75" result="effect1_foregroundBlur_10_916"/>
</filter>
<filter id="filter9_f_10_916" x="0" y="212.25" width="2.25" height="9.75" filterUnits="userSpaceOnUse" color-interpolation-filters="sRGB">
<feFlood flood-opacity="0" result="BackgroundImageFix"/>
<feBlend mode="normal" in="SourceGraphic" in2="BackgroundImageFix" result="shape"/>
<feGaussianBlur stdDeviation="0.375" result="effect1_foregroundBlur_10_916"/>
</filter>
<filter id="filter10_f_10_916" x="0" y="213" width="2.25" height="40.5" filterUnits="userSpaceOnUse" color-interpolation-filters="sRGB">
<feFlood flood-opacity="0" result="BackgroundImageFix"/>
<feBlend mode="normal" in="SourceGraphic" in2="BackgroundImageFix" result="shape"/>
<feGaussianBlur stdDeviation="0.375" result="effect1_foregroundBlur_10_916"/>
</filter>
<filter id="filter11_f_10_916" x="-1.5" y="210" width="3.75" height="46.5" filterUnits="userSpaceOnUse" color-interpolation-filters="sRGB">
<feFlood flood-opacity="0" result="BackgroundImageFix"/>
<feBlend mode="normal" in="SourceGraphic" in2="BackgroundImageFix" result="shape"/>
<feGaussianBlur stdDeviation="0.75" result="effect1_foregroundBlur_10_916"/>
</filter>
<filter id="filter12_f_10_916" x="-0.75" y="-3" width="312.75" height="638.25" filterUnits="userSpaceOnUse" color-interpolation-filters="sRGB">
<feFlood flood-opacity="0" result="BackgroundImageFix"/>
<feBlend mode="normal" in="SourceGraphic" in2="BackgroundImageFix" result="shape"/>
<feGaussianBlur stdDeviation="1.5" result="effect1_foregroundBlur_10_916"/>
</filter>
<filter id="filter13_f_10_916" x="0.75" y="-1.5" width="309.75" height="635.25" filterUnits="userSpaceOnUse" color-interpolation-filters="sRGB">
<feFlood flood-opacity="0" result="BackgroundImageFix"/>
<feBlend mode="normal" in="SourceGraphic" in2="BackgroundImageFix" result="shape"/>
<feGaussianBlur stdDeviation="0.75" result="effect1_foregroundBlur_10_916"/>
</filter>
<filter id="filter14_f_10_916" x="4.5" y="2.25" width="302.25" height="627" filterUnits="userSpaceOnUse" color-interpolation-filters="sRGB">
<feFlood flood-opacity="0" result="BackgroundImageFix"/>
<feBlend mode="normal" in="SourceGraphic" in2="BackgroundImageFix" result="shape"/>
<feGaussianBlur stdDeviation="0.75" result="effect1_foregroundBlur_10_916"/>
</filter>
<filter id="filter15_f_10_916" x="0" y="-2.25" width="311.25" height="636.75" filterUnits="userSpaceOnUse" color-interpolation-filters="sRGB">
<feFlood flood-opacity="0" result="BackgroundImageFix"/>
<feBlend mode="normal" in="SourceGraphic" in2="BackgroundImageFix" result="shape"/>
<feGaussianBlur stdDeviation="2.625" result="effect1_foregroundBlur_10_916"/>
</filter>
<pattern id="pattern0_10_916" patternContentUnits="objectBoundingBox" width="1" height="1">
<use xlink:href="#image0_10_916" transform="matrix(0.000829187 0 0 0.000381689 0 -0.000394851)"/>
</pattern>
<linearGradient id="paint0_linear_10_916" x1="309.375" y1="258.75" x2="309.375" y2="255.375" gradientUnits="userSpaceOnUse">
<stop/>
<stop offset="1" stop-opacity="0"/>
</linearGradient>
<linearGradient id="paint1_linear_10_916" x1="307.5" y1="258.75" x2="310.125" y2="258.75" gradientUnits="userSpaceOnUse">
<stop/>
<stop offset="1" stop-color="#AEAEAE" stop-opacity="0"/>
</linearGradient>
<linearGradient id="paint2_linear_10_916" x1="309.375" y1="187.875" x2="309.375" y2="184.5" gradientUnits="userSpaceOnUse">
<stop stop-opacity="0"/>
<stop offset="1"/>
</linearGradient>
<linearGradient id="paint3_linear_10_916" x1="1.875" y1="111.75" x2="1.875" y2="114" gradientUnits="userSpaceOnUse">
<stop/>
<stop offset="1" stop-opacity="0"/>
</linearGradient>
<linearGradient id="paint4_linear_10_916" x1="3.75" y1="111.75" x2="1.125" y2="111.75" gradientUnits="userSpaceOnUse">
<stop/>
<stop offset="1" stop-color="#AEAEAE" stop-opacity="0"/>
</linearGradient>
<linearGradient id="paint5_linear_10_916" x1="1.875" y1="131.023" x2="1.875" y2="135" gradientUnits="userSpaceOnUse">
<stop stop-opacity="0"/>
<stop offset="1"/>
</linearGradient>
<linearGradient id="paint6_linear_10_916" x1="1.875" y1="156.75" x2="1.875" y2="159.75" gradientUnits="userSpaceOnUse">
<stop/>
<stop offset="1" stop-opacity="0"/>
</linearGradient>
<linearGradient id="paint7_linear_10_916" x1="3.75" y1="156.75" x2="1.125" y2="156.75" gradientUnits="userSpaceOnUse">
<stop/>
<stop offset="1" stop-color="#AEAEAE" stop-opacity="0"/>
</linearGradient>
<linearGradient id="paint8_linear_10_916" x1="1.875" y1="195.75" x2="1.875" y2="198.75" gradientUnits="userSpaceOnUse">
<stop stop-opacity="0"/>
<stop offset="1"/>
</linearGradient>
<linearGradient id="paint9_linear_10_916" x1="1.875" y1="211.5" x2="1.875" y2="214.5" gradientUnits="userSpaceOnUse">
<stop/>
<stop offset="1" stop-opacity="0"/>
</linearGradient>
<linearGradient id="paint10_linear_10_916" x1="3.75" y1="211.5" x2="1.125" y2="211.5" gradientUnits="userSpaceOnUse">
<stop/>
<stop offset="1" stop-color="#AEAEAE" stop-opacity="0"/>
</linearGradient>
<linearGradient id="paint11_linear_10_916" x1="1.875" y1="250.5" x2="1.875" y2="253.5" gradientUnits="userSpaceOnUse">
<stop stop-opacity="0"/>
<stop offset="1"/>
</linearGradient>
<linearGradient id="paint12_linear_10_916" x1="243" y1="0" x2="243" y2="3" gradientUnits="userSpaceOnUse">
<stop stop-color="#817E73"/>
<stop offset="1" stop-color="#C3BEAC"/>
</linearGradient>
<linearGradient id="paint13_linear_10_916" x1="4.5" y1="65.25" x2="4.5" y2="68.25" gradientUnits="userSpaceOnUse">
<stop stop-color="#817E73"/>
<stop offset="1" stop-color="#C3BEAC"/>
</linearGradient>
<linearGradient id="paint14_linear_10_916" x1="2.25" y1="569.25" x2="5.25" y2="569.25" gradientUnits="userSpaceOnUse">
<stop stop-color="#817E73"/>
<stop offset="1" stop-color="#C3BEAC"/>
</linearGradient>
<linearGradient id="paint15_linear_10_916" x1="51.375" y1="632.25" x2="51.375" y2="629.25" gradientUnits="userSpaceOnUse">
<stop stop-color="#817E73"/>
<stop offset="1" stop-color="#C3BEAC"/>
</linearGradient>
<linearGradient id="paint16_linear_10_916" x1="309" y1="569.25" x2="306" y2="569.25" gradientUnits="userSpaceOnUse">
<stop stop-color="#817E73"/>
<stop offset="1" stop-color="#C3BEAC"/>
</linearGradient>
<radialGradient id="paint17_radial_10_916" cx="0" cy="0" r="1" gradientUnits="userSpaceOnUse" gradientTransform="translate(156.004 147.49) rotate(90) scale(256.536 287.357)">
<stop stop-color="#879194"/>
<stop offset="1"/>
</radialGradient>
<clipPath id="clip0_10_916">
<path d="M311.25 258C311.25 258.828 310.578 259.5 309.75 259.5L307.5 259.5L307.5 184.5L309.75 184.5C310.578 184.5 311.25 185.172 311.25 186L311.25 258Z" fill="white"/>
</clipPath>
<clipPath id="clip1_10_916">
<path d="M0 113.25C0 112.422 0.671573 111.75 1.5 111.75H3.75V135H1.5C0.671573 135 0 134.328 0 133.5V113.25Z" fill="white"/>
</clipPath>
<clipPath id="clip2_10_916">
<path d="M0 158.25C0 157.422 0.671573 156.75 1.5 156.75H3.75V198.75H1.5C0.671573 198.75 0 198.078 0 197.25V158.25Z" fill="white"/>
</clipPath>
<clipPath id="clip3_10_916">
<path d="M0 213C0 212.172 0.671573 211.5 1.5 211.5H3.75V253.5H1.5C0.671573 253.5 0 252.828 0 252V213Z" fill="white"/>
</clipPath>
<clipPath id="clip4_10_916">
<rect x="2.25" width="306.75" height="632.25" rx="46.5" fill="white"/>
</clipPath>
<clipPath id="clip5_10_916">
<rect x="5.25" y="3" width="300.75" height="626.25" rx="43.5" fill="white"/>
</clipPath>
<clipPath id="clip6_10_916">
<rect x="11.25" y="9" width="288.75" height="614.25" rx="39" fill="white"/>
</clipPath>

</svg>
