<svg width="120" height="40" viewBox="0 0 120 40" fill="none" xmlns="http://www.w3.org/2000/svg">
<path d="M13.1881 10.7C15.9041 10.7 20.7481 11.484 20.6921 17.252C20.6921 20.22 19.2641 21.956 17.5561 22.936L20.4401 28.172L15.3721 29.936L12.6841 24.672L12.7961 29.964L7.00005 29.852L7.14005 10.896C9.15605 10.84 11.2001 10.784 13.1881 10.7ZM15.4841 16.748C15.6801 15.46 14.0561 14.284 12.5161 14.564L12.6001 19.464C14.3361 19.072 15.3441 17.868 15.4841 16.748Z" fill="#3B0067"/>
<path d="M29.6674 11.064C35.9674 10.952 37.6754 21.872 36.9754 29.544L31.7954 29.516C31.7954 29.516 31.8234 28.732 31.8234 27.556L27.7354 27.668C27.7354 29.292 27.7914 30.412 27.7914 30.412L22.1354 30.44C21.9394 26.184 21.9674 11.204 29.6674 11.064ZM31.6554 23.16C31.5994 22.124 31.4314 16.384 29.5554 16.356C28.4354 16.356 27.9874 19.772 27.8194 23.16H31.6554Z" fill="#3B0067"/>
<path d="M50.2716 11.54L50.2436 14.732C48.2836 18.008 46.6596 19.436 44.6156 25.456L50.3276 25.288L50.0476 29.992L39.0716 29.852C38.3996 24.112 40.8356 20.808 44.1396 15.852L38.9596 15.88L38.6796 11.512L50.2716 11.54Z" fill="#3B0067"/>
<path d="M61.3233 10.924L61.5753 15.236L57.4033 15.432L57.4873 18.344L60.4833 18.148L60.4273 22.012L57.6273 21.928L57.7673 25.4L61.5753 25.092L61.4913 30.076L55.0233 29.908V29.88L52.3633 29.824L52.5033 11.344L61.3233 10.924Z" fill="#3B0067"/>
<path d="M66.8457 27.36C66.8457 28.452 65.9497 29.348 64.8577 29.348C63.7657 29.348 62.8977 28.452 62.8977 27.36C62.8977 26.268 63.7657 25.4 64.8577 25.4C65.9497 25.4 66.8457 26.268 66.8457 27.36Z" fill="#3B0067"/>
<path d="M79.1974 10.588L79.1694 15.656L73.6814 15.544L73.7934 19.324L77.6574 19.044L77.8254 24.112L73.9614 24.084L74.1294 30.356L68.3614 30.216L68.3054 11.12L79.1974 10.588Z" fill="#3B0067"/>
<path d="M95.4155 10.672L95.7235 29.74L90.3195 29.628L90.3475 26.072C88.9195 28.312 87.5475 30.468 84.0195 29.544C82.1155 29.04 81.2195 26.464 80.8275 23.412C80.2115 18.484 80.9675 12.24 80.9675 11.344H86.3155C86.3155 11.344 85.4755 23.944 87.3795 23.664C89.7035 23.328 90.2635 16.3 90.4595 12.884L90.4875 10.812L95.4155 10.672Z" fill="#3B0067"/>
<path d="M108.376 9.99999L113.388 10.028L113.052 29.292L107.816 29.432L103.868 21.34L104.092 29.88L98.5202 30.048L98.6042 11.736L103.644 11.372L108.096 19.24L108.376 9.99999Z" fill="#3B0067"/>
</svg>
