<svg width="32" height="32" viewBox="0 0 220 220" fill="none" xmlns="http://www.w3.org/2000/svg">
  <!-- Rounded square background -->
  <rect width="220" height="220" rx="48" fill="#9945FF"/>

  <!-- Ghost body — centered, with wavy bottom -->
  <path d="M110 32 C75 32, 52 60, 52 95 L52 145 C52 150, 57 153, 63 149 C69 145, 73 149, 79 153 C85 157, 89 153, 95 149 C101 145, 105 149, 111 153 C117 157, 121 153, 127 149 C133 145, 137 149, 143 153 C149 157, 153 153, 157 149 C163 145, 167 149, 170 152 C174 149, 170 145, 170 140 L170 95 C170 60, 147 32, 110 32Z" fill="#FFFFFF"/>

  <!-- Body highlight -->
  <path d="M76 48 C65 58, 58 76, 58 95" stroke="#E8DCF8" stroke-width="3" fill="none" stroke-linecap="round" opacity="0.6"/>

  <!-- Left eye: sclera → iris → pupil → highlight -->
  <ellipse cx="88" cy="88" rx="16" ry="18" fill="#F0EDFF"/>
  <ellipse cx="88" cy="88" rx="11" ry="13" fill="#2D1B69"/>
  <ellipse cx="90" cy="85" rx="6" ry="7" fill="#1A1040"/>
  <ellipse cx="87" cy="82" rx="3.5" ry="3" fill="#FFFFFF" opacity="0.95"/>

  <!-- Right eye: sclera → iris → pupil → highlight -->
  <ellipse cx="134" cy="88" rx="16" ry="18" fill="#F0EDFF"/>
  <ellipse cx="134" cy="88" rx="11" ry="13" fill="#2D1B69"/>
  <ellipse cx="136" cy="85" rx="6" ry="7" fill="#1A1040"/>
  <ellipse cx="133" cy="82" rx="3.5" ry="3" fill="#FFFFFF" opacity="0.95"/>

  <!-- Smile -->
  <path d="M97 112 C103 120, 119 120, 125 112" stroke="#2D1B69" stroke-width="3.5" fill="none" stroke-linecap="round"/>

  <!-- Cheek blush -->
  <ellipse cx="74" cy="102" rx="8" ry="4.5" fill="#FF8FCE" opacity="0.35"/>
  <ellipse cx="148" cy="102" rx="8" ry="4.5" fill="#FF8FCE" opacity="0.35"/>
</svg>
