<svg width="200" height="220" viewBox="0 0 200 220" fill="none" xmlns="http://www.w3.org/2000/svg">
  <path d="M100 25 C60 25, 32 58, 32 98 L32 155 C32 161, 38 165, 46 160 C58 161, 64 166, 80 161 C97 166, 113 161, 146 161 C165 166, 168 150, 168 98 C168 58, 140 25, 100 25Z" fill="#9945FF"/>
  <ellipse cx="74" cy="88" rx="18" ry="20" fill="#FFFFFF"/>
  <ellipse cx="74" cy="88" rx="10" ry="12" fill="#2D1B69"/>
  <ellipse cx="72" cy="84" rx="3" ry="2.5" fill="#FFFFFF" opacity="0.9"/>
  <ellipse cx="126" cy="88" rx="18" ry="20" fill="#FFFFFF"/>
  <ellipse cx="126" cy="88" rx="10" ry="12" fill="#2D1B69"/>
  <ellipse cx="124" cy="84" rx="3" ry="2.5" fill="#FFFFFF" opacity="0.9"/>
  <path d="M85 110 C90 118, 110 118, 115 110" stroke="#FFFFFF" strokeWidth="3.5" fill="none" strokeLinecap="round"/>
</svg>
