<svg width="200" height="220" viewBox="0 0 200 220" fill="none" xmlns="http://www.w3.org/2000/svg">
  <path d="M100 25 C60 25, 32 58, 32 98 L32 155 C32 161, 38 165, 46 160 C53 156, 58 161, 64 166 C70 171, 75 166, 80 161 C86 156, 91 161, 97 166 C103 171, 108 166, 113 161 C119 156, 124 161, 130 166 C136 171, 141 166, 146 161 C152 156, 158 161, 165 166 C172 161, 168 155, 168 150 L168 98 C168 58, 140 25, 100 25Z" fill="#9945FF"/>
  <path d="M65 40 C50 55, 42 78, 42 98" stroke="#B76EFF" stroke-width="2.5" fill="none" stroke-linecap="round" opacity="0.3"/>
  <!-- Left eye with $ iris -->
  <ellipse cx="78" cy="88" rx="20" ry="22" fill="#FFFFFF"/>
  <ellipse cx="78" cy="88" rx="14" ry="16" fill="#14A86C"/>
  <text x="70" y="96" font-family="Space Grotesk, sans-serif" font-weight="800" font-size="24" fill="#FFFFFF">$</text>
  <ellipse cx="74" cy="78" rx="3" ry="2.5" fill="#FFFFFF" opacity="0.7"/>
  <!-- Right eye with $ iris -->
  <ellipse cx="126" cy="88" rx="20" ry="22" fill="#FFFFFF"/>
  <ellipse cx="126" cy="88" rx="14" ry="16" fill="#14A86C"/>
  <text x="118" y="96" font-family="Space Grotesk, sans-serif" font-weight="800" font-size="24" fill="#FFFFFF">$</text>
  <ellipse cx="122" cy="78" rx="3" ry="2.5" fill="#FFFFFF" opacity="0.7"/>
  <!-- Big excited grin -->
  <path d="M82 118 C90 132, 110 132, 118 118" stroke="#FFFFFF" stroke-width="3.5" fill="none" stroke-linecap="round"/>
  <!-- Floating coin -->
  <circle cx="155" cy="52" r="10" fill="#FFD166" opacity="0.8"/>
  <circle cx="155" cy="52" r="7" fill="#FFBF00" opacity="0.6"/>
  <text x="151" y="57" font-family="Space Grotesk, sans-serif" font-weight="700" font-size="12" fill="#FFFFFF" opacity="0.9">$</text>
  <!-- Blush -->
  <ellipse cx="64" cy="108" rx="10" ry="5" fill="#FF8FCE" opacity="0.3"/>
  <ellipse cx="140" cy="108" rx="10" ry="5" fill="#FF8FCE" opacity="0.3"/>
</svg>
