<svg width="200" height="220" viewBox="0 0 200 220" fill="none" xmlns="http://www.w3.org/2000/svg">
  <path d="M100 25 C60 25, 32 58, 32 98 L32 155 C32 161, 38 165, 46 160 C53 156, 58 161, 64 166 C70 171, 75 166, 80 161 C86 156, 91 161, 97 166 C103 171, 108 166, 113 161 C119 156, 124 161, 130 166 C136 171, 141 166, 146 161 C152 156, 158 161, 165 166 C172 161, 168 155, 168 150 L168 98 C168 58, 140 25, 100 25Z" fill="#9945FF"/>
  <path d="M65 40 C50 55, 42 78, 42 98" stroke="#B76EFF" stroke-width="2.5" fill="none" stroke-linecap="round" opacity="0.3"/>
  <!-- Extra-wide shocked eyes with tiny pupils -->
  <g>
    <ellipse cx="78" cy="84" rx="22" ry="26" fill="#FFFFFF"/>
    <ellipse cx="78" cy="84" rx="10" ry="12" fill="#2D1B69"/>
    <ellipse cx="79" cy="81" rx="5" ry="6" fill="#1A1040"/>
    <ellipse cx="76" cy="77" rx="3" ry="2.5" fill="#FFFFFF" opacity="0.95"/>
  </g>
  <g>
    <ellipse cx="126" cy="84" rx="22" ry="26" fill="#FFFFFF"/>
    <ellipse cx="126" cy="84" rx="10" ry="12" fill="#2D1B69"/>
    <ellipse cx="127" cy="81" rx="5" ry="6" fill="#1A1040"/>
    <ellipse cx="124" cy="77" rx="3" ry="2.5" fill="#FFFFFF" opacity="0.95"/>
  </g>
  <!-- O-shaped shocked mouth -->
  <ellipse cx="102" cy="120" rx="10" ry="9" fill="#7B2FE0"/>
  <ellipse cx="102" cy="118" rx="6" ry="4" fill="#5A1FBF"/>
  <!-- Sweat drops -->
  <ellipse cx="50" cy="62" rx="3" ry="5" fill="#89CFF0" opacity="0.6"/>
  <ellipse cx="154" cy="58" rx="2.5" ry="4" fill="#89CFF0" opacity="0.5"/>
  <!-- Exclamation mark -->
  <rect x="158" y="38" width="5" height="18" rx="2.5" fill="#FF4545" opacity="0.7"/>
  <circle cx="160.5" cy="62" r="2.5" fill="#FF4545" opacity="0.7"/>
  <!-- Blush -->
  <ellipse cx="64" cy="108" rx="10" ry="5" fill="#FF8FCE" opacity="0.3"/>
  <ellipse cx="140" cy="108" rx="10" ry="5" fill="#FF8FCE" opacity="0.3"/>
</svg>
