<svg width="200" height="220" viewBox="0 0 200 220" fill="none" xmlns="http://www.w3.org/2000/svg">
  <path d="M100 25 C60 25, 32 58, 32 98 L32 155 C32 161, 38 165, 46 160 C53 156, 58 161, 64 166 C70 171, 75 166, 80 161 C86 156, 91 161, 97 166 C103 171, 108 166, 113 161 C119 156, 124 161, 130 166 C136 171, 141 166, 146 161 C152 156, 158 161, 165 166 C172 161, 168 155, 168 150 L168 98 C168 58, 140 25, 100 25Z" fill="#9945FF"/>
  <path d="M65 40 C50 55, 42 78, 42 98" stroke="#B76EFF" stroke-width="2.5" fill="none" stroke-linecap="round" opacity="0.3"/>
  <!-- Dark hoodie/mask over lower face -->
  <path d="M50 95 L50 135 C50 145, 60 150, 100 150 C140 150, 150 145, 150 135 L150 95 C150 95, 140 90, 100 90 C60 90, 50 95, 50 95Z" fill="#2A2A3A" opacity="0.85"/>
  <!-- Mask eye holes -->
  <ellipse cx="78" cy="88" rx="22" ry="16" fill="#1A1A2A"/>
  <ellipse cx="126" cy="88" rx="22" ry="16" fill="#1A1A2A"/>
  <!-- Left eye — squinting suspiciously -->
  <ellipse cx="78" cy="88" rx="16" ry="10" fill="#FFFFFF"/>
  <ellipse cx="80" cy="88" rx="8" ry="7" fill="#2D1B69"/>
  <ellipse cx="82" cy="86" rx="4" ry="4" fill="#1A1040"/>
  <ellipse cx="80" cy="84" rx="2" ry="1.5" fill="#FFFFFF" opacity="0.9"/>
  <!-- Right eye — slightly more open -->
  <g>
    <ellipse cx="126" cy="87" rx="16" ry="12" fill="#FFFFFF"/>
    <ellipse cx="128" cy="87" rx="9" ry="9" fill="#2D1B69"/>
    <ellipse cx="130" cy="85" rx="5" ry="5" fill="#1A1040"/>
    <ellipse cx="128" cy="82" rx="2.5" ry="2" fill="#FFFFFF" opacity="0.9"/>
  </g>
  <!-- Hood pointed top -->
  <path d="M60 55 C70 30, 90 22, 100 20 C110 22, 130 30, 140 55" stroke="#2A2A3A" stroke-width="3" fill="none" opacity="0.4"/>
  <!-- Blush -->
  <ellipse cx="64" cy="108" rx="10" ry="5" fill="#FF8FCE" opacity="0.3"/>
  <ellipse cx="140" cy="108" rx="10" ry="5" fill="#FF8FCE" opacity="0.3"/>
</svg>
