<svg width="260" height="260" viewBox="0 0 260 260" fill="none" xmlns="http://www.w3.org/2000/svg">
  <ellipse cx="130" cy="120" rx="80" ry="75" fill="#9945FF" opacity="0.05"/>
  <path d="M130 40 C90 40, 62 72, 62 110 L62 168 C62 173, 68 177, 76 172 C83 168, 88 173, 94 178 C100 183, 105 178, 110 173 C116 168, 121 173, 127 178 C133 183, 138 178, 143 173 C149 168, 154 173, 160 178 C166 183, 171 178, 176 173 C182 168, 188 173, 195 178 C202 173, 198 168, 198 163 L198 110 C198 72, 170 40, 130 40Z" fill="#9945FF"/>
  <path d="M95 55 C80 70, 72 92, 72 110" stroke="#B76EFF" stroke-width="3" fill="none" stroke-linecap="round" opacity="0.3"/>
  <ellipse cx="108" cy="100" rx="20" ry="22" fill="#FFFFFF"/>
  <ellipse cx="108" cy="100" rx="14" ry="16" fill="#2D1B69"/>
  <ellipse cx="111" cy="97" rx="8" ry="9" fill="#1A1040"/>
  <ellipse cx="107" cy="93" rx="4" ry="3.5" fill="#FFFFFF" opacity="0.95"/>
  <ellipse cx="152" cy="100" rx="20" ry="22" fill="#FFFFFF"/>
  <ellipse cx="152" cy="100" rx="14" ry="16" fill="#2D1B69"/>
  <ellipse cx="155" cy="97" rx="8" ry="9" fill="#1A1040"/>
  <ellipse cx="151" cy="93" rx="4" ry="3.5" fill="#FFFFFF" opacity="0.95"/>
  <ellipse cx="130" cy="130" rx="13" ry="9" fill="#7B2FE0"/>
  <ellipse cx="130" cy="127" rx="11" ry="4.5" fill="#FFFFFF" opacity="0.4"/>
  <ellipse cx="90" cy="116" rx="11" ry="6" fill="#FF8FCE" opacity="0.3"/>
  <ellipse cx="170" cy="116" rx="11" ry="6" fill="#FF8FCE" opacity="0.3"/>
  <path d="M62 100 C50 88, 38 68, 32 52" stroke="#9945FF" stroke-width="9" fill="none" stroke-linecap="round"/>
  <circle cx="30" cy="48" r="7" fill="#9945FF"/>
  <path d="M198 105 C210 98, 220 85, 222 72" stroke="#9945FF" stroke-width="8" fill="none" stroke-linecap="round"/>
  <circle cx="223" cy="69" r="6" fill="#9945FF"/>
</svg>
