<svg width="200" height="220" viewBox="0 0 200 220" fill="none" xmlns="http://www.w3.org/2000/svg">
  <path d="M100 25 C60 25, 32 58, 32 98 L32 155 C32 161, 38 165, 46 160 C53 156, 58 161, 64 166 C70 171, 75 166, 80 161 C86 156, 91 161, 97 166 C103 171, 108 166, 113 161 C119 156, 124 161, 130 166 C136 171, 141 166, 146 161 C152 156, 158 161, 165 166 C172 161, 168 155, 168 150 L168 98 C168 58, 140 25, 100 25Z" fill="#9945FF"/>
  <path d="M65 40 C50 55, 42 78, 42 98" stroke="#B76EFF" stroke-width="2.5" fill="none" stroke-linecap="round" opacity="0.3"/>
  <!-- Angry red-tinted eyes -->
  <g>
    <ellipse cx="78" cy="90" rx="18" ry="18" fill="#FFFFFF"/>
    <ellipse cx="78" cy="90" rx="13" ry="13" fill="#CC2200"/>
    <ellipse cx="80" cy="88" rx="7" ry="7" fill="#880000"/>
    <ellipse cx="77" cy="85" rx="3" ry="2.5" fill="#FFFFFF" opacity="0.9"/>
  </g>
  <g>
    <ellipse cx="126" cy="90" rx="18" ry="18" fill="#FFFFFF"/>
    <ellipse cx="126" cy="90" rx="13" ry="13" fill="#CC2200"/>
    <ellipse cx="128" cy="88" rx="7" ry="7" fill="#880000"/>
    <ellipse cx="125" cy="85" rx="3" ry="2.5" fill="#FFFFFF" opacity="0.9"/>
  </g>
  <!-- Heavy furrowed eyebrows -->
  <path d="M54 68 C62 58, 78 60, 94 72" stroke="#5A1040" stroke-width="5" fill="none" stroke-linecap="round"/>
  <path d="M110 72 C126 60, 142 58, 150 68" stroke="#5A1040" stroke-width="5" fill="none" stroke-linecap="round"/>
  <!-- Gritted teeth frown -->
  <path d="M80 122 C88 114, 114 114, 122 122" stroke="#FFFFFF" stroke-width="3" fill="none" stroke-linecap="round"/>
  <line x1="90" y1="118" x2="90" y2="118" stroke="#FFFFFF" stroke-width="2"/>
  <!-- Steam puffs -->
  <circle cx="42" cy="50" r="6" fill="#FF6B6B" opacity="0.35"/>
  <circle cx="35" cy="40" r="4.5" fill="#FF6B6B" opacity="0.25"/>
  <circle cx="160" cy="48" r="6" fill="#FF6B6B" opacity="0.35"/>
  <circle cx="167" cy="38" r="4.5" fill="#FF6B6B" opacity="0.25"/>
  <!-- Warning triangle on forehead -->
  <path d="M100 38 L93 52 L107 52Z" fill="#FFD166" stroke="#CC8800" stroke-width="1.5"/>
  <text x="97" y="50" font-family="Space Grotesk, sans-serif" font-weight="800" font-size="10" fill="#CC8800">!</text>
  <!-- Blush -->
  <ellipse cx="64" cy="108" rx="10" ry="5" fill="#FF8FCE" opacity="0.3"/>
  <ellipse cx="140" cy="108" rx="10" ry="5" fill="#FF8FCE" opacity="0.3"/>
</svg>
