<svg width="200" height="220" viewBox="0 0 200 220" fill="none" xmlns="http://www.w3.org/2000/svg">
  <path d="M100 25 C60 25, 32 58, 32 98 L32 155 C32 161, 38 165, 46 160 C53 156, 58 161, 64 166 C70 171, 75 166, 80 161 C86 156, 91 161, 97 166 C103 171, 108 166, 113 161 C119 156, 124 161, 130 166 C136 171, 141 166, 146 161 C152 156, 158 161, 165 166 C172 161, 168 155, 168 150 L168 98 C168 58, 140 25, 100 25Z" fill="#9945FF"/>
  <path d="M65 40 C50 55, 42 78, 42 98" stroke="#B76EFF" stroke-width="2.5" fill="none" stroke-linecap="round" opacity="0.3"/>
  <!-- Cool sunglasses -->
  <path d="M52 82 L56 76 L96 76 L100 82 L104 76 L148 76 L152 82 L148 100 C144 108, 108 108, 104 100 L100 94 L96 100 C92 108, 56 108, 52 100 Z" fill="#1A1A1A"/>
  <!-- Lens shine -->
  <path d="M62 80 C66 78, 78 78, 82 80" stroke="#FFFFFF" stroke-width="1.5" fill="none" stroke-linecap="round" opacity="0.3"/>
  <path d="M112 80 C116 78, 128 78, 132 80" stroke="#FFFFFF" stroke-width="1.5" fill="none" stroke-linecap="round" opacity="0.3"/>
  <!-- Temple arms -->
  <path d="M52 80 L32 76" stroke="#1A1A1A" stroke-width="3" stroke-linecap="round"/>
  <path d="M152 80 L168 76" stroke="#1A1A1A" stroke-width="3" stroke-linecap="round"/>
  <!-- Confident grin -->
  <path d="M82 120 C90 130, 112 130, 120 120" stroke="#FFFFFF" stroke-width="3.5" fill="none" stroke-linecap="round"/>
  <!-- Sparkle near face -->
  <path d="M160 60 L162 54 L164 60 L170 62 L164 64 L162 70 L160 64 L154 62Z" fill="#FFD166" opacity="0.7"/>
  <!-- Thumbs up arm -->
  <path d="M168 105 C176 96, 180 82, 178 68" stroke="#9945FF" stroke-width="8" fill="none" stroke-linecap="round"/>
  <!-- Thumb -->
  <circle cx="178" cy="64" r="5" fill="#9945FF"/>
  <rect x="175" y="48" width="6" height="16" rx="3" fill="#9945FF"/>
  <!-- Thumb nail highlight -->
  <rect x="176" y="49" width="4" height="6" rx="2" fill="#B76EFF"/>
  <!-- Blush -->
  <ellipse cx="64" cy="108" rx="10" ry="5" fill="#FF8FCE" opacity="0.3"/>
  <ellipse cx="140" cy="108" rx="10" ry="5" fill="#FF8FCE" opacity="0.3"/>
</svg>
