<svg width="200" height="220" viewBox="0 0 200 220" fill="none" xmlns="http://www.w3.org/2000/svg">
  <path d="M100 25 C60 25, 32 58, 32 98 L32 155 C32 161, 38 165, 46 160 C53 156, 58 161, 64 166 C70 171, 75 166, 80 161 C86 156, 91 161, 97 166 C103 171, 108 166, 113 161 C119 156, 124 161, 130 166 C136 171, 141 166, 146 161 C152 156, 158 161, 165 166 C172 161, 168 155, 168 150 L168 98 C168 58, 140 25, 100 25Z" fill="#9945FF"/>
  <path d="M65 40 C50 55, 42 78, 42 98" stroke="#B76EFF" stroke-width="2.5" fill="none" stroke-linecap="round" opacity="0.3"/>
  <!-- Left eye (expanded from Eye component) -->
  <g>
    <ellipse cx="78" cy="88" rx="18" ry="20" fill="#FFFFFF"/>
    <ellipse cx="78" cy="88" rx="12" ry="14" fill="#2D1B69"/>
    <ellipse cx="80" cy="85" rx="7" ry="8" fill="#1A1040"/>
    <ellipse cx="77" cy="82" rx="3.5" ry="3" fill="#FFFFFF" opacity="0.95"/>
  </g>
  <!-- Right eye (expanded from Eye component) -->
  <g>
    <ellipse cx="126" cy="88" rx="18" ry="20" fill="#FFFFFF"/>
    <ellipse cx="126" cy="88" rx="12" ry="14" fill="#2D1B69"/>
    <ellipse cx="128" cy="85" rx="7" ry="8" fill="#1A1040"/>
    <ellipse cx="125" cy="82" rx="3.5" ry="3" fill="#FFFFFF" opacity="0.95"/>
  </g>
  <!-- Excited open mouth -->
  <path d="M84 116 C90 128, 112 128, 118 116" stroke="#FFFFFF" stroke-width="3.5" fill="none" stroke-linecap="round"/>
  <!-- Right arm holding bell high -->
  <path d="M168 100 C178 88, 184 72, 180 55" stroke="#9945FF" stroke-width="8" fill="none" stroke-linecap="round"/>
  <circle cx="180" cy="52" r="5" fill="#9945FF"/>
  <!-- Detailed bell -->
  <path d="M168 40 C164 40, 160 46, 160 54 L160 58 C160 60, 162 62, 164 62 L196 62 C198 62, 200 60, 200 58 L200 54 C200 46, 196 40, 192 40Z" fill="#FFD166"/>
  <!-- Bell body gradient stripe -->
  <path d="M164 48 L196 48" stroke="#FFBF00" stroke-width="1.5" opacity="0.5"/>
  <!-- Bell lip (bottom rim) -->
  <rect x="158" y="60" width="44" height="4" rx="2" fill="#E6A800"/>
  <!-- Clapper -->
  <line x1="180" y1="62" x2="180" y2="70" stroke="#CC8800" stroke-width="2"/>
  <circle cx="180" cy="72" r="3.5" fill="#CC8800"/>
  <!-- Bell top -->
  <rect x="176" y="34" width="8" height="8" rx="4" fill="#E6A800"/>
  <!-- Sound wave arcs -->
  <path d="M204 42 C208 38, 210 34" stroke="#FFD166" stroke-width="2" stroke-linecap="round" opacity="0.6"/>
  <path d="M206 50 C210 47, 214 44" stroke="#FFD166" stroke-width="2" stroke-linecap="round" opacity="0.4"/>
  <path d="M205 58 C210 56, 214 54" stroke="#FFD166" stroke-width="1.5" stroke-linecap="round" opacity="0.3"/>
  <!-- Blush -->
  <ellipse cx="64" cy="108" rx="10" ry="5" fill="#FF8FCE" opacity="0.3"/>
  <ellipse cx="140" cy="108" rx="10" ry="5" fill="#FF8FCE" opacity="0.3"/>
</svg>
