<svg width="200" height="220" viewBox="-10 -20 220 260" fill="none" xmlns="http://www.w3.org/2000/svg">
  <path d="M100 25 C60 25, 32 58, 32 98 L32 155 C32 161, 38 165, 46 160 C53 156, 58 161, 64 166 C70 171, 75 166, 80 161 C86 156, 91 161, 97 166 C103 171, 108 166, 113 161 C119 156, 124 161, 130 166 C136 171, 141 166, 146 161 C152 156, 158 161, 165 166 C172 161, 168 155, 168 150 L168 98 C168 58, 140 25, 100 25Z" fill="#9945FF"/>
  <path d="M65 40 C50 55, 42 78, 42 98" stroke="#B76EFF" stroke-width="2.5" fill="none" stroke-linecap="round" opacity="0.3"/>
  <!-- Detective fedora hat -->
  <ellipse cx="100" cy="30" rx="62" ry="10" fill="#1A1A1A"/>
  <path d="M45 30 C45 10, 70 -5, 100 -5 C130 -5, 155 10, 155 30" fill="#2A2A2A"/>
  <path d="M40 30 C40 25, 48 20, 100 20 C152 20, 160 25, 160 30" fill="#1A1A1A"/>
  <!-- Hat band -->
  <rect x="52" y="18" width="96" height="6" rx="2" fill="#9945FF"/>
  <!-- Left eye — normal -->
  <g>
    <ellipse cx="78" cy="88" rx="18" ry="20" fill="#FFFFFF"/>
    <ellipse cx="78" cy="88" rx="12" ry="14" fill="#2D1B69"/>
    <ellipse cx="80" cy="85" rx="7" ry="8" fill="#1A1040"/>
    <ellipse cx="77" cy="82" rx="3.5" ry="3" fill="#FFFFFF" opacity="0.95"/>
  </g>
  <!-- Right eye — seen through magnifying glass -->
  <g>
    <ellipse cx="126" cy="88" rx="18" ry="20" fill="#FFFFFF"/>
    <ellipse cx="126" cy="88" rx="12" ry="14" fill="#2D1B69"/>
    <ellipse cx="128" cy="85" rx="7" ry="8" fill="#1A1040"/>
    <ellipse cx="125" cy="82" rx="3.5" ry="3" fill="#FFFFFF" opacity="0.9"/>
  </g>
  <!-- Magnifying glass -->
  <circle cx="138" cy="88" r="30" stroke="#8B6914" stroke-width="4" fill="none"/>
  <circle cx="138" cy="88" r="28" stroke="#B8860B" stroke-width="1.5" fill="rgba(200,220,255,0.15)"/>
  <!-- Glass reflection arc -->
  <path d="M120 72 C124 66, 134 64, 140 68" stroke="#FFFFFF" stroke-width="2" fill="none" stroke-linecap="round" opacity="0.4"/>
  <!-- Handle -->
  <rect x="160" y="108" width="8" height="32" rx="4" fill="#8B6914" transform="rotate(35, 164, 124)"/>
  <rect x="161" y="110" width="4" height="28" rx="2" fill="#B8860B" transform="rotate(35, 164, 124)"/>
  <!-- Slight knowing smirk -->
  <path d="M86 118 C92 124, 108 122, 114 116" stroke="#FFFFFF" stroke-width="3" fill="none" stroke-linecap="round"/>
  <!-- Blush -->
  <ellipse cx="64" cy="108" rx="10" ry="5" fill="#FF8FCE" opacity="0.3"/>
  <ellipse cx="140" cy="108" rx="10" ry="5" fill="#FF8FCE" opacity="0.3"/>
</svg>
