<svg width="200" height="220" viewBox="0 0 200 220" fill="none" xmlns="http://www.w3.org/2000/svg">
  <path d="M100 25 C60 25, 32 58, 32 98 L32 155 C32 161, 38 165, 46 160 C53 156, 58 161, 64 166 C70 171, 75 166, 80 161 C86 156, 91 161, 97 166 C103 171, 108 166, 113 161 C119 156, 124 161, 130 166 C136 171, 141 166, 146 161 C152 156, 158 161, 165 166 C172 161, 168 155, 168 150 L168 98 C168 58, 140 25, 100 25Z" fill="#9945FF"/>
  <path d="M65 40 C50 55, 42 78, 42 98" stroke="#B76EFF" stroke-width="2.5" fill="none" stroke-linecap="round" opacity="0.3"/>
  <!-- Heart-shaped eyes -->
  <g>
    <ellipse cx="78" cy="86" rx="20" ry="22" fill="#FFFFFF"/>
    <path d="M68 82 C68 74, 78 72, 78 80 C78 72, 88 74, 88 82 C88 92, 78 96, 78 96 C78 96, 68 92, 68 82Z" fill="#FF4D6A"/>
    <ellipse cx="75" cy="79" rx="3" ry="2.5" fill="#FFFFFF" opacity="0.6"/>
  </g>
  <g>
    <ellipse cx="126" cy="86" rx="20" ry="22" fill="#FFFFFF"/>
    <path d="M116 82 C116 74, 126 72, 126 80 C126 72, 136 74, 136 82 C136 92, 126 96, 126 96 C126 96, 116 92, 116 82Z" fill="#FF4D6A"/>
    <ellipse cx="123" cy="79" rx="3" ry="2.5" fill="#FFFFFF" opacity="0.6"/>
  </g>
  <!-- Open mouth with tongue drooling -->
  <ellipse cx="102" cy="122" rx="14" ry="10" fill="#7B2FE0"/>
  <ellipse cx="102" cy="127" rx="9" ry="7" fill="#FF8FCE"/>
  <!-- Drool drop -->
  <ellipse cx="112" cy="138" rx="3" ry="5" fill="#89CFF0" opacity="0.5"/>
  <!-- Floating hearts -->
  <path d="M150 50 C150 46, 154 45, 154 48 C154 45, 158 46, 158 50 C158 54, 154 56, 154 56 C154 56, 150 54, 150 50Z" fill="#FF4D6A" opacity="0.5"/>
  <path d="M44 55 C44 52, 47 51, 47 53 C47 51, 50 52, 50 55 C50 58, 47 59, 47 59 C47 59, 44 58, 44 55Z" fill="#FF4D6A" opacity="0.4"/>
  <!-- Blush -->
  <ellipse cx="64" cy="108" rx="10" ry="5" fill="#FF8FCE" opacity="0.3"/>
  <ellipse cx="140" cy="108" rx="10" ry="5" fill="#FF8FCE" opacity="0.3"/>
</svg>
