<svg width="200" height="220" viewBox="0 0 200 220" fill="none" xmlns="http://www.w3.org/2000/svg">
  <path d="M100 25 C60 25, 32 58, 32 98 L32 155 C32 161, 38 165, 46 160 C53 156, 58 161, 64 166 C70 171, 75 166, 80 161 C86 156, 91 161, 97 166 C103 171, 108 166, 113 161 C119 156, 124 161, 130 166 C136 171, 141 166, 146 161 C152 156, 158 161, 165 166 C172 161, 168 155, 168 150 L168 98 C168 58, 140 25, 100 25Z" fill="#9945FF"/>
  <path d="M65 40 C50 55, 42 78, 42 98" stroke="#B76EFF" stroke-width="2.5" fill="none" stroke-linecap="round" opacity="0.3"/>
  <!-- Eyes behind thick round glasses -->
  <g>
    <ellipse cx="78" cy="88" rx="12" ry="14" fill="#FFFFFF"/>
    <ellipse cx="78" cy="88" rx="8" ry="10" fill="#2D1B69"/>
    <ellipse cx="79" cy="85" rx="5" ry="5" fill="#1A1040"/>
    <ellipse cx="77" cy="82" rx="2.5" ry="2" fill="#FFFFFF" opacity="0.9"/>
  </g>
  <g>
    <ellipse cx="126" cy="88" rx="12" ry="14" fill="#FFFFFF"/>
    <ellipse cx="126" cy="88" rx="8" ry="10" fill="#2D1B69"/>
    <ellipse cx="127" cy="85" rx="5" ry="5" fill="#1A1040"/>
    <ellipse cx="125" cy="82" rx="2.5" ry="2" fill="#FFFFFF" opacity="0.9"/>
  </g>
  <!-- Thick round glasses frame -->
  <circle cx="78" cy="88" r="22" stroke="#2A2A2A" stroke-width="4" fill="none"/>
  <circle cx="126" cy="88" r="22" stroke="#2A2A2A" stroke-width="4" fill="none"/>
  <!-- Bridge -->
  <path d="M98 86 C100 82, 104 82, 106 86" stroke="#2A2A2A" stroke-width="3.5" fill="none"/>
  <!-- Temple arms to ears -->
  <path d="M56 84 L38 78" stroke="#2A2A2A" stroke-width="3" stroke-linecap="round"/>
  <path d="M148 84 L166 78" stroke="#2A2A2A" stroke-width="3" stroke-linecap="round"/>
  <!-- Lens glint -->
  <path d="M66 78 C70 74, 76 74, 80 76" stroke="#FFFFFF" stroke-width="1.5" fill="none" stroke-linecap="round" opacity="0.4"/>
  <path d="M116 78 C120 74, 126 74, 130 76" stroke="#FFFFFF" stroke-width="1.5" fill="none" stroke-linecap="round" opacity="0.4"/>
  <!-- Bowtie -->
  <path d="M90 135 L100 130 L110 135 L100 140Z" fill="#9945FF"/>
  <circle cx="100" cy="135" r="3" fill="#B76EFF"/>
  <!-- Pleased little smile -->
  <path d="M90 116 C96 122, 106 122, 112 116" stroke="#FFFFFF" stroke-width="2.5" fill="none" stroke-linecap="round"/>
  <!-- Blush -->
  <ellipse cx="64" cy="108" rx="10" ry="5" fill="#FF8FCE" opacity="0.3"/>
  <ellipse cx="140" cy="108" rx="10" ry="5" fill="#FF8FCE" opacity="0.3"/>
</svg>
