<svg width="1500" height="500" viewBox="0 0 1500 500" fill="none" xmlns="http://www.w3.org/2000/svg">
  <defs>
    <linearGradient id="bg" x1="0" y1="0" x2="1500" y2="500">
      <stop offset="0%" stop-color="#FAFAFE"/>
      <stop offset="50%" stop-color="#F5F0FF"/>
      <stop offset="100%" stop-color="#EDFFF5"/>
    </linearGradient>
    <radialGradient id="orb1" cx="0.3" cy="0.3">
      <stop offset="0%" stop-color="#9945FF" stop-opacity="0.25"/>
      <stop offset="100%" stop-color="#9945FF" stop-opacity="0"/>
    </radialGradient>
    <radialGradient id="orb2" cx="0.7" cy="0.7">
      <stop offset="0%" stop-color="#14F195" stop-opacity="0.2"/>
      <stop offset="100%" stop-color="#14F195" stop-opacity="0"/>
    </radialGradient>
  </defs>

  <!-- Background -->
  <rect width="1500" height="500" fill="url(#bg)"/>

  <!-- Decorative blur orbs -->
  <circle cx="100" cy="100" r="350" fill="url(#orb1)"/>
  <circle cx="1350" cy="450" r="300" fill="url(#orb2)"/>

  <!-- Logo: ghost + raze.fun (top) -->
  <g transform="translate(420, 60)">
    <svg width="38" height="42" viewBox="0 0 200 220">
      <path d="M100 25 C60 25, 32 58, 32 98 L32 155 C32 161, 38 165, 46 160 C58 161, 64 166, 80 161 C97 166, 113 161, 146 161 C165 166, 168 150, 168 98 C168 58, 140 25, 100 25Z" fill="#9945FF"/>
      <ellipse cx="74" cy="88" rx="18" ry="20" fill="#FFFFFF"/>
      <ellipse cx="74" cy="88" rx="12" ry="14" fill="#2D1B69"/>
      <ellipse cx="126" cy="88" rx="18" ry="20" fill="#FFFFFF"/>
      <ellipse cx="126" cy="88" rx="12" ry="14" fill="#2D1B69"/>
      <path d="M85 110 C90 118, 110 118, 115 110" stroke="#FFFFFF" stroke-width="4" fill="none" stroke-linecap="round"/>
    </svg>
    <text x="52" y="32" font-family="Space Grotesk, sans-serif" font-size="28" font-weight="700" fill="#1A1A1A">raze.fun</text>
  </g>

  <!-- Headline (vertically centered, clear of profile circle) -->
  <text x="420" y="230" font-family="Space Grotesk, sans-serif" font-size="68" font-weight="700" fill="#1A1A1A" letter-spacing="-2.7">
    <tspan x="420" dy="0">Your crypto friend</tspan>
    <tspan x="420" dy="78">who never sleeps</tspan>
  </text>

  <!-- Tagline (above the profile circle danger zone) -->
  <text x="420" y="420" font-family="Inter, sans-serif" font-size="19" fill="#666666">
    <tspan x="420" dy="0">Trade, research, and explore Solana through natural</tspan>
    <tspan x="420" dy="26">conversation. All in one Telegram chat.</tspan>
  </text>

  <!-- Large ghost mascot waving - right side -->
  <g transform="translate(1080, 60)">
    <svg width="360" height="396" viewBox="0 0 260 260">
      <ellipse cx="130" cy="120" rx="80" ry="75" fill="#9945FF" opacity="0.05"/>
      <path d="M130 40 C90 40, 62 72, 62 110 L62 168 C62 173, 68 177, 76 172 C83 168, 88 173, 94 178 C100 183, 105 178, 110 173 C116 168, 121 173, 127 178 C133 183, 138 178, 143 173 C149 168, 154 173, 160 178 C166 183, 171 178, 176 173 C182 168, 188 173, 195 178 C202 173, 198 168, 198 163 L198 110 C198 72, 170 40, 130 40Z" fill="#9945FF"/>
      <path d="M95 55 C80 70, 72 92, 72 110" stroke="#B76EFF" stroke-width="3" fill="none" stroke-linecap="round" opacity="0.3"/>
      <ellipse cx="108" cy="100" rx="20" ry="22" fill="#FFFFFF"/>
      <ellipse cx="108" cy="100" rx="14" ry="16" fill="#2D1B69"/>
      <ellipse cx="111" cy="97" rx="8" ry="9" fill="#1A1040"/>
      <ellipse cx="107" cy="93" rx="4" ry="3.5" fill="#FFFFFF" opacity="0.95"/>
      <ellipse cx="152" cy="100" rx="20" ry="22" fill="#FFFFFF"/>
      <ellipse cx="152" cy="100" rx="14" ry="16" fill="#2D1B69"/>
      <ellipse cx="155" cy="97" rx="8" ry="9" fill="#1A1040"/>
      <ellipse cx="151" cy="93" rx="4" ry="3.5" fill="#FFFFFF" opacity="0.95"/>
      <ellipse cx="130" cy="130" rx="13" ry="9" fill="#7B2FE0"/>
      <ellipse cx="130" cy="127" rx="11" ry="4.5" fill="#FFFFFF" opacity="0.4"/>
      <ellipse cx="90" cy="116" rx="11" ry="6" fill="#FF8FCE" opacity="0.3"/>
      <ellipse cx="170" cy="116" rx="11" ry="6" fill="#FF8FCE" opacity="0.3"/>
      <path d="M62 100 C50 88, 38 68, 32 52" stroke="#9945FF" stroke-width="9" fill="none" stroke-linecap="round"/>
      <circle cx="30" cy="48" r="7" fill="#9945FF"/>
      <path d="M198 105 C210 98, 220 85, 222 72" stroke="#9945FF" stroke-width="8" fill="none" stroke-linecap="round"/>
      <circle cx="223" cy="69" r="6" fill="#9945FF"/>
      <circle cx="20" cy="30" r="5" fill="#FFD166" opacity="0.7"/>
      <circle cx="240" cy="50" r="4" fill="#FFD166" opacity="0.6"/>
      <circle cx="38" cy="38" r="3" fill="#FF8FCE" opacity="0.5"/>
      <circle cx="228" cy="30" r="3" fill="#14F195" opacity="0.5"/>
    </svg>
  </g>
</svg>
