<svg width="400" height="400" viewBox="0 0 400 400" fill="none" xmlns="http://www.w3.org/2000/svg">
  <defs>
    <radialGradient id="pfpBg" cx="0.3" cy="0.3" r="1">
      <stop offset="0%" stop-color="#B76EFF"/>
      <stop offset="50%" stop-color="#9945FF"/>
      <stop offset="100%" stop-color="#7B2FE0"/>
    </radialGradient>
  </defs>

  <!-- Background -->
  <rect width="400" height="400" fill="url(#pfpBg)"/>

  <!-- Decorative particles -->
  <circle cx="55" cy="50" r="6" fill="#FFD166" opacity="0.75"/>
  <circle cx="345" cy="75" r="4" fill="#14F195" opacity="0.8"/>
  <circle cx="45" cy="320" r="5" fill="#FF8FCE" opacity="0.65"/>
  <circle cx="355" cy="340" r="4" fill="#FFD166" opacity="0.7"/>
  <circle cx="80" cy="90" r="3" fill="#FFFFFF" opacity="0.5"/>
  <circle cx="320" cy="310" r="3" fill="#FFFFFF" opacity="0.4"/>

  <!-- White ghost mascot centered -->
  <g transform="translate(60, 46)">
    <svg width="280" height="308" viewBox="0 0 200 220">
      <path d="M100 25 C60 25, 32 58, 32 98 L32 155 C32 161, 38 165, 46 160 C53 156, 58 161, 64 166 C70 171, 75 166, 80 161 C86 156, 91 161, 97 166 C103 171, 108 166, 113 161 C119 156, 124 161, 130 166 C136 171, 141 166, 146 161 C152 156, 158 161, 165 166 C172 161, 168 155, 168 150 L168 98 C168 58, 140 25, 100 25Z" fill="#FFFFFF"/>
      <path d="M65 40 C50 55, 42 78, 42 98" stroke="#E8DCF8" stroke-width="3" fill="none" stroke-linecap="round" opacity="0.6"/>
      <ellipse cx="78" cy="88" rx="20" ry="22" fill="#F0EDFF"/>
      <ellipse cx="78" cy="88" rx="14" ry="16" fill="#2D1B69"/>
      <ellipse cx="80" cy="85" rx="8" ry="9" fill="#1A1040"/>
      <ellipse cx="77" cy="82" rx="4" ry="3.5" fill="#FFFFFF" opacity="0.95"/>
      <ellipse cx="126" cy="88" rx="20" ry="22" fill="#F0EDFF"/>
      <ellipse cx="126" cy="88" rx="14" ry="16" fill="#2D1B69"/>
      <ellipse cx="128" cy="85" rx="8" ry="9" fill="#1A1040"/>
      <ellipse cx="125" cy="82" rx="4" ry="3.5" fill="#FFFFFF" opacity="0.95"/>
      <path d="M86 112 C92 120, 110 120, 116 112" stroke="#2D1B69" stroke-width="4" fill="none" stroke-linecap="round"/>
      <ellipse cx="60" cy="106" rx="11" ry="5.5" fill="#FF8FCE" opacity="0.4"/>
      <ellipse cx="140" cy="106" rx="11" ry="5.5" fill="#FF8FCE" opacity="0.4"/>
    </svg>
  </g>
</svg>
